<?xml version="1.0" encoding="utf-8"?>
<!-- Generator: Adobe Illustrator 16.0.3, SVG Export Plug-In . SVG Version: 6.00 Build 0)  -->
<!DOCTYPE svg PUBLIC "-//W3C//DTD SVG 1.1//EN" "http://www.w3.org/Graphics/SVG/1.1/DTD/svg11.dtd">
<svg version="1.1" id="Layer_1" xmlns="http://www.w3.org/2000/svg" xmlns:xlink="http://www.w3.org/1999/xlink" x="0px" y="0px"
	 width="1538.542px" height="365.005px" viewBox="221.667 155.096 1538.542 365.005"
	 enable-background="new 221.667 155.096 1538.542 365.005" xml:space="preserve">
<g>
	<path fill="#231F20" d="M223.867,231.1c9,4.5,20.101,6.5,29.202,6.9v-27.801c-15.401-2.3-30.802-5.701-30.802-21.401
		c0-15.001,14.901-20.401,30.802-21.501v-12.201h9.701v12.101c8.301,0.3,18.401,1.9,27.702,5.4v8.9c-8.8-3.8-19.001-5.8-27.702-6.2
		v27.302c15.401,2.3,30.902,5.8,30.902,21.801c0,15.001-14.501,20.401-30.902,21.501v12.201h-9.701v-12.101
		c-8.9-0.3-19.901-1.9-28.602-6L223.867,231.1z M253.069,201.299v-25.901c-11,0.9-21.201,4.3-21.201,13.101
		C231.867,197.098,241.468,199.499,253.069,201.299z M262.769,211.499v26.302c11.401-0.9,21.301-4.5,21.301-13.301
		C284.071,215.8,274.37,213.3,262.769,211.499z"/>
	<path fill="#231F20" d="M541.144,258.102v-12.301c-16.701-1.9-27.002-13.101-27.002-29.102c0-16.101,10.501-27.301,27.002-29.102
		v-12.301h9.7v12.201c5.3,0.5,11.801,1.7,16.701,4.1l0.1,8.101c-4.9-2.8-11.401-4.1-16.801-4.5v43.103
		c5.701-0.4,12.901-1.8,18.001-4.6l-0.7,8.1c-5.1,2.5-11.901,3.7-17.301,4.101v12.201H541.144z M541.144,237.901v-42.403
		c-11.201,2-17.801,9.801-17.801,21.201C523.343,228,529.843,235.801,541.144,237.901z"/>
	<path fill="#231F20" d="M785.117,244.101v-8.101h14.201V212.3h-14.201v-8.101h14.201v-9.5c0-18.301,14.301-27.602,33.402-27.602
		c7,0,15.801,0.9,25.001,3.8v8.701c-9.7-3.4-17.801-4.4-24.602-4.4c-12.101,0-24.201,5.4-24.201,19.501v9.5h35.302v8.101h-35.302
		v23.701h48.803v8.101H785.117z"/>
	<path fill="#231F20" d="M1114.396,244.101V219.8h-27.902v-8.101h24.202l-34.503-42.603h11.801l31.402,38.402l31.602-38.402h10.801
		l-34.102,42.603h24.201v8.101h-27.901v24.301H1114.396z"/>
	<path fill="#231F20" d="M1413.97,221.9h-29.501V213.8h29.501v-19.101c0-18.301,13.102-27.602,31.902-27.602
		c4.7,0,9.101,0.2,15.301,1.6v8.601c-6.101-1.6-10.4-2.1-14.9-2.1c-11.801,0-22.602,5.4-22.602,19.501V213.8h29.401v8.101h-29.401
		v19.301c0,18.301-13.101,27.602-31.902,27.602c-4.8,0-9.101-0.2-15.301-1.6v-8.601c6.101,1.6,10.4,2.1,14.901,2.1
		c11.801,0,22.601-5.4,22.601-19.501V221.9z"/>
	<path fill="#231F20" d="M1698.645,210.999c1.9,16.901,14.901,27.001,33.102,27.001c9.901,0,20.901-2.8,28.603-8l-0.601,9.001
		c-8.101,4.7-18.601,7.1-28.401,7.1c-23.901,0-40.803-13-42.703-35.102h-14v-8.101h13.9c1.7-22.501,18.701-35.802,42.803-35.802
		c10.2,0,20.301,2.4,28.401,6.9v9.201c-8.101-5.2-17.701-8-28.002-8c-18.4,0-31.501,10.401-33.102,27.702h34.702v8.101H1698.645z"/>
	<path fill="#231F20" d="M221.667,514.401l10.801-12.601c-5.2-4.701-8.201-11.201-8.201-19.001c0-7.701,3-14.301,8.201-18.901
		l-10.801-12.701h10.501l7,8.301c4.3-2,9.301-3.101,14.901-3.101c5.5,0,10.5,1.1,14.801,3.101l7-8.301h10.5l-10.801,12.701
		c5.101,4.701,8.201,11.201,8.201,18.901s-3.1,14.301-8.201,18.901l10.801,12.701h-10.5l-7-8.301c-4.3,2-9.301,3.101-14.801,3.101
		c-5.601,0-10.601-1-14.901-3l-7,8.2H221.667z M254.069,463.898c-12.701,0-21.001,7.701-21.001,18.901s8.3,18.901,21.001,18.901
		c12.601,0,21.001-7.7,21.001-18.901S266.67,463.898,254.069,463.898z"/>
	<path fill="#231F20" d="M482.366,520.101l11.601-20.001h-10.801V492h15.501l10.901-18.801h-11.601v-8.101h16.301l11.601-20.001
		h10.501l-11.601,20.001h30.002l11.601-20.001h10.501l-11.601,20.001h10.801v8.101h-15.501L549.67,492h11.601v8.101h-16.301
		l-11.601,20.001h-10.5l11.601-20.001h-30.002l-11.601,20.001H482.366z M509.168,492h30.001l10.901-18.801h-30.002L509.168,492z"/>
</g>
</svg>
