<?xml version="1.0" encoding="utf-8"?>
<!-- Generator: Adobe Illustrator 16.0.3, SVG Export Plug-In . SVG Version: 6.00 Build 0)  -->
<!DOCTYPE svg PUBLIC "-//W3C//DTD SVG 1.1//EN" "http://www.w3.org/Graphics/SVG/1.1/DTD/svg11.dtd">
<svg version="1.1" id="Layer_1" xmlns="http://www.w3.org/2000/svg" xmlns:xlink="http://www.w3.org/1999/xlink" x="0px" y="0px"
	 width="1545.886px" height="644.87px" viewBox="219.267 167.096 1545.886 644.87"
	 enable-background="new 219.267 167.096 1545.886 644.87" xml:space="preserve">
<g>
	<path fill="#231F20" d="M274.67,244.101v-68.404c-4.4-1.3-9.201-1.7-12.401-1.7c-14.301,0-18.901,4.5-18.901,11.501v3.8h18.901v7.7
		h-18.901v47.103h-9.201v-47.103h-14.901v-7.7h14.901v-3.9c0-11.401,8.5-18.301,28.102-18.301c6.4,0,14.701,0.8,21.602,2.8v19.401
		l-0.4,8c8.401-7,16.201-10.001,24.402-10.001c16.701,0,26.702,12.901,26.702,29.402s-10.001,29.402-26.702,29.402
		c-8.201,0-16.001-3-24.402-10l0.4,8H274.67z M283.871,230.2c7,4.9,13.801,8.201,20.901,8.201c12.701,0,20.501-9,20.501-21.702
		c0-12.701-7.8-21.701-20.501-21.701c-7.1,0-13.901,3.3-20.901,8.201V230.2z"/>
	<path fill="#231F20" d="M583.806,244.101v-47.103h-31.302v47.103h-9.201v-47.103h-14.901v-7.7h14.901v-3.9
		c0-11.401,8.7-18.301,22.801-18.301c2.2,0,5.3,0.2,8.701,0.8l1.4,7.101c-3.2-0.6-6.1-0.8-8.101-0.8
		c-10.8,0-15.601,4.6-15.601,11.301v3.8h31.302v-3.9c0-11.401,8.701-18.301,22.801-18.301c5,0,12.001,0.8,17.501,2.8l0.6,7
		c-5.7-1.9-12.301-2.7-16.101-2.7c-10.8,0-15.601,4.6-15.601,11.301v3.8h26.901v7.7h-26.901v47.103H583.806z"/>
	<path fill="#231F20" d="M918.543,244.101v-33.302c0-9.5-6-15-15.301-15c-6.101,0-14.701,3.5-21.701,9v39.302h-9.201v-68.404
		c-4.4-1.3-9.201-1.7-12.401-1.7c-14.301,0-18.901,4.5-18.901,11.501v3.8h18.901v7.7h-18.901v47.103h-9.201v-47.103h-14.901v-7.7
		h14.901v-3.9c0-11.401,8.5-18.301,28.102-18.301c6.4,0,14.701,0.8,21.602,2.8v20.201l-0.4,8.601
		c8.801-7.4,18.201-10.601,25.802-10.601c13.301,0,20.901,8.201,20.901,21.301v34.702H918.543z"/>
	<path fill="#231F20" d="M1180.977,244.101v-47.103h-31.302v47.103h-9.2v-47.103h-14.901v-7.7h14.901v-3.9
		c0-11.401,8.7-18.301,22.802-18.301c2.199,0,5.3,0.2,8.7,0.8l1.4,7.101c-3.2-0.6-6.101-0.8-8.101-0.8
		c-10.801,0-15.602,4.6-15.602,11.301v3.8h40.503v54.803H1180.977z M1180.977,181.398v-13.501h9.201v13.501H1180.977z"/>
	<path fill="#231F20" d="M1444.213,196.998h-31.302v47.103h-9.2v-47.103h-14.901v-7.7h14.901v-3.9
		c0-11.401,8.7-18.301,22.802-18.301c2.199,0,5.3,0.2,8.7,0.8l1.4,7.101c-3.2-0.6-6.101-0.8-8.101-0.8
		c-10.801,0-15.602,4.6-15.602,11.301v3.8h40.503v53.003c0,15.401-12.701,20.301-29.702,19.602l-0.6-7.201
		c12.4,0.3,21.101-3,21.101-12.401V196.998z M1444.213,181.398v-13.501h9.201v13.501H1444.213z"/>
	<path fill="#231F20" d="M1753.352,244.101L1725.051,218l-8.4,6.2v19.901h-9.201v-68.404c-4.399-1.3-9.2-1.7-12.4-1.7
		c-14.301,0-18.901,4.5-18.901,11.501v3.8h18.901v7.7h-18.901v47.103h-9.2v-47.103h-14.901v-7.7h14.901v-3.9
		c0-11.401,8.5-18.301,28.102-18.301c6.4,0,14.701,0.8,21.602,2.8V214.8l33.102-25.501h11.801l-29.602,22.901l33.202,31.902
		H1753.352z"/>
	<path fill="#231F20" d="M307.772,518.502c-4,1.6-11.101,2.6-15.201,2.6c-12.301,0-17.901-7-17.901-17.401v-53.003
		c-4.4-1.3-9.201-1.7-12.401-1.7c-14.301,0-18.901,4.5-18.901,11.501v3.8h18.901v7.7h-18.901v47.103h-9.201v-47.103h-14.901v-7.7
		h14.901v-3.9c0-11.401,8.5-18.301,28.102-18.301c6.4,0,14.701,0.8,21.602,2.8V501.9c0,6.801,3.3,11.501,11.701,11.501
		c3.5,0,9.4-1,12.801-2.5L307.772,518.502z"/>
	<path fill="#231F20" d="M635.843,516.701c-4.9,2.301-12.101,4.4-19.401,4.4c-13.001,0-20.301-7.2-20.301-19.501v-29.602h-31.302
		v47.103h-9.201v-47.103h-14.901v-7.7h14.901v-3.9c0-11.401,8.7-18.301,22.801-18.301c2.2,0,5.3,0.2,8.701,0.8l1.4,7.101
		c-3.2-0.6-6.1-0.8-8.101-0.8c-10.8,0-15.601,4.6-15.601,11.301v3.8h31.302v-8.601l9.201-6.601v15.201h31.102v7.7h-31.102v27.802
		c0,8.7,5.1,13.601,14.301,13.601c6,0,12.801-2.301,16.801-4.4L635.843,516.701z"/>
	<path fill="#231F20" d="M968.212,519.101v-68.404c-4.4-1.3-9.201-1.7-12.301-1.7c-14.401,0-19.001,4.5-19.001,11.501v3.8h18.901
		v7.7H936.91v47.103h-9.201v-47.103h-31.302v47.103h-9.201v-47.103h-14.901v-7.7h14.901v-3.9c0-11.401,8.701-18.301,22.801-18.301
		c2.2,0,5.3,0.2,8.701,0.8l1.4,7.101c-3.2-0.6-6.1-0.8-8.101-0.8c-10.8,0-15.601,4.6-15.601,11.301v3.8h31.302v-3.9
		c0-11.401,8.5-18.301,28.202-18.301c6.4,0,14.701,0.8,21.601,2.8v19.401l-0.4,8c8.301-7,16.101-10.001,24.302-10.001
		c16.801,0,26.702,12.901,26.702,29.402c0,16.501-9.9,29.402-26.702,29.402c-8.201,0-16.001-3-24.302-10.001l0.4,8.001H968.212z
		 M977.512,505.201c6.901,4.899,13.701,8.2,20.802,8.2c12.7,0,20.501-9.001,20.501-21.702s-7.801-21.701-20.501-21.701
		c-7.101,0-13.901,3.3-20.802,8.201V505.201z"/>
	<path fill="#231F20" d="M1405.284,519.101v-33.302c0-9.5-6.001-15-15.302-15c-6.1,0-14.7,3.5-21.601,9v39.302h-9.301v-68.404
		c-4.4-1.3-9.2-1.7-12.301-1.7c-14.401,0-19.001,4.5-19.001,11.501v3.8h18.901v7.7h-18.901v47.103h-9.201v-47.103h-31.302v47.103
		h-9.2v-47.103h-14.901v-7.7h14.901v-3.9c0-11.401,8.7-18.301,22.802-18.301c2.199,0,5.3,0.2,8.7,0.8l1.4,7.101
		c-3.2-0.6-6.101-0.8-8.101-0.8c-10.801,0-15.602,4.6-15.602,11.301v3.8h31.302v-3.9c0-11.401,8.501-18.301,28.202-18.301
		c6.4,0,14.701,0.8,21.602,2.8v20.201l-0.4,8.601c8.7-7.4,18.102-10.601,25.702-10.601c13.4,0,20.9,8.201,20.9,21.301v34.702
		H1405.284z"/>
	<path fill="#231F20" d="M1749.451,519.101v-47.103h-31.302v47.103h-9.201v-47.103h-31.302v47.103h-9.2v-47.103h-14.901v-7.7h14.901
		v-3.9c0-11.401,8.7-18.301,22.802-18.301c2.199,0,5.3,0.2,8.7,0.8l1.4,7.101c-3.2-0.6-6.101-0.8-8.101-0.8
		c-10.801,0-15.602,4.6-15.602,11.301v3.8h31.302v-3.9c0-11.401,8.701-18.301,22.802-18.301c2.3,0,5.301,0.2,8.7,0.8l1.501,7.101
		c-3.301-0.6-6.201-0.8-8.201-0.8c-10.801,0-15.601,4.6-15.601,11.301v3.8h40.603v54.803H1749.451z M1749.451,456.398v-13.501h9.301
		v13.501H1749.451z"/>
	<path fill="#231F20" d="M315.173,746.999h-31.302v47.103h-9.201v-47.103h-31.302v47.103h-9.201v-47.103h-14.901v-7.701h14.901
		v-3.899c0-11.401,8.7-18.302,22.801-18.302c2.2,0,5.3,0.2,8.701,0.8l1.4,7.101c-3.2-0.6-6.1-0.8-8.101-0.8
		c-10.8,0-15.601,4.601-15.601,11.301v3.8h31.302v-3.899c0-11.401,8.701-18.302,22.801-18.302c2.3,0,5.3,0.2,8.701,0.8l1.5,7.101
		c-3.3-0.6-6.2-0.8-8.201-0.8c-10.8,0-15.601,4.601-15.601,11.301v3.8h40.603v53.004c0,15.4-12.801,20.301-29.802,19.601l-0.6-7.2
		c12.401,0.3,21.102-3,21.102-12.4V746.999z M315.173,731.397v-13.501h9.301v13.501H315.173z"/>
	<path fill="#231F20" d="M698.969,794.101L670.768,768l-8.401,6.2v19.901h-9.3v-68.404c-4.4-1.3-9.201-1.7-12.301-1.7
		c-14.401,0-19.001,4.5-19.001,11.501v3.8h18.901v7.701h-18.901v47.103h-9.201v-47.103h-31.302v47.103h-9.201v-47.103h-14.901
		v-7.701h14.901v-3.899c0-11.401,8.701-18.302,22.801-18.302c2.2,0,5.3,0.2,8.701,0.8l1.4,7.101c-3.2-0.6-6.1-0.8-8.101-0.8
		c-10.8,0-15.601,4.601-15.601,11.301v3.8h31.302v-3.899c0-11.401,8.5-18.302,28.202-18.302c6.4,0,14.701,0.8,21.601,2.801V764.8
		l33.002-25.502h11.8l-29.602,22.901l33.202,31.902H698.969z"/>
	<path fill="#231F20" d="M1064.763,793.502c-4,1.6-11,2.6-15.2,2.6c-12.301,0-17.901-7-17.901-17.401v-53.003
		c-4.4-1.3-9.2-1.7-12.301-1.7c-14.4,0-19.001,4.5-19.001,11.501v3.8h18.901v7.701h-18.901v47.103h-9.201v-47.103h-31.302v47.103
		h-9.201v-47.103h-14.901v-7.701h14.901v-3.899c0-11.401,8.7-18.302,22.801-18.302c2.2,0,5.3,0.2,8.701,0.8l1.4,7.101
		c-3.2-0.6-6.1-0.8-8.101-0.8c-10.8,0-15.601,4.601-15.601,11.301v3.8h31.302v-3.899c0-11.401,8.5-18.302,28.202-18.302
		c6.4,0,14.701,0.8,21.602,2.801V776.9c0,6.801,3.3,11.501,11.601,11.501c3.5,0,9.5-1,12.9-2.5L1064.763,793.502z"/>
	<path fill="#231F20" d="M1427.758,791.701c-4.9,2.301-12,4.4-19.401,4.4c-12.9,0-20.301-7.2-20.301-19.501v-29.602h-31.302v47.103
		h-9.201v-47.103h-31.302v47.103h-9.2v-47.103h-14.901v-7.701h14.901v-3.899c0-11.401,8.7-18.302,22.802-18.302
		c2.199,0,5.3,0.2,8.7,0.8l1.4,7.101c-3.2-0.6-6.101-0.8-8.101-0.8c-10.801,0-15.602,4.601-15.602,11.301v3.8h31.302v-3.899
		c0-11.401,8.701-18.302,22.802-18.302c2.3,0,5.301,0.2,8.7,0.8l1.5,7.101c-3.3-0.6-6.2-0.8-8.2-0.8
		c-10.801,0-15.601,4.601-15.601,11.301v3.8h31.302v-8.601l9.301-6.6v15.2h31.002v7.701h-31.002v27.802c0,8.7,5,13.601,14.2,13.601
		c6.001,0,12.801-2.301,16.802-4.4L1427.758,791.701z"/>
	<path fill="#231F20" d="M1762.15,791.701c-4.9,2.301-12.101,4.4-19.4,4.4c-13.001,0-20.302-7.2-20.302-19.501v-29.602h-41.303
		v27.802c0,8.7,5.001,13.601,14.301,13.601c6.001,0,12.801-2.301,16.802-4.4l-0.7,7.7c-4.9,2.301-12.001,4.4-19.302,4.4
		c-13,0-20.301-7.2-20.301-19.501v-29.602h-14.901v-7.701h14.901v-8.601l9.2-6.6v15.2h41.303v-8.601l9.2-6.6v15.2h31.103v7.701
		h-31.103v27.802c0,8.7,5.101,13.601,14.302,13.601c6,0,12.801-2.301,16.801-4.4L1762.15,791.701z"/>
</g>
</svg>
