<?xml version="1.0" encoding="utf-8"?>
<!-- Generator: Adobe Illustrator 16.0.3, SVG Export Plug-In . SVG Version: 6.00 Build 0)  -->
<!DOCTYPE svg PUBLIC "-//W3C//DTD SVG 1.1//EN" "http://www.w3.org/Graphics/SVG/1.1/DTD/svg11.dtd">
<svg version="1.1" id="Layer_1" xmlns="http://www.w3.org/2000/svg" xmlns:xlink="http://www.w3.org/1999/xlink" x="0px" y="0px"
	 width="1555.884px" height="5340.008px" viewBox="213.467 167.096 1555.884 5340.008"
	 enable-background="new 213.467 167.096 1555.884 5340.008" xml:space="preserve">
<g>
	<path fill="#231F20" d="M266.57,244.101l0.3-7.802c-8.801,6.4-19.9,9.802-29.102,9.802c-8.802,0-16.103-3.601-16.103-12.302
		c0-11.899,16.501-18.9,44.903-18.9v-8.102c0-7.399-5.9-11.8-16.701-11.8c-6.4,0-17.901,2-25.702,6l0.602-7.899
		c7.601-3.802,19.601-5.802,26.2-5.802c17.001,0,24.901,7.701,24.901,19.501v37.304H266.57z M266.57,220.5
		c-20.102,0-35.104,3.301-35.104,12.001c0,5.602,4.9,7.5,10.802,7.5c6.899,0,16.801-3.398,24.302-8.8V220.5z"/>
	<path fill="#231F20" d="M519.2,244.101l0.399-8c-8.4,7-16.102,10-24.301,10c-16.803,0-26.702-12.9-26.702-29.401
		s9.899-29.402,26.702-29.402c8.2,0,15.899,3,24.301,10.001l-0.399-8.001h9.301v54.805L519.2,244.101L519.2,244.101z M519.2,203.199
		c-7.001-4.9-13.701-8.2-20.802-8.2c-12.801,0-20.602,9-20.602,21.701c0,12.7,7.801,21.701,20.602,21.701
		c7.101,0,13.801-3.301,20.802-8.2V203.199z"/>
	<path fill="#231F20" d="M724.025,244.101v-75.005h9.201v20.2l-0.4,8.001c8.4-7.001,16.201-10.001,24.401-10.001
		c16.701,0,26.702,12.901,26.702,29.402S773.928,246.1,757.227,246.1c-8.2,0-16.001-3-24.401-10l0.4,8L724.025,244.101
		L724.025,244.101z M733.227,230.201c7,4.899,13.801,8.2,20.901,8.2c12.699,0,20.501-9.001,20.501-21.701
		c0-12.701-7.802-21.701-20.501-21.701c-7.102,0-13.901,3.3-20.901,8.2V230.201z"/>
	<path fill="#231F20" d="M1027.158,241.801c-6.501,3.2-15.7,4.301-21.502,4.301c-19.899,0-32.502-11.7-32.502-29.401
		s12.603-29.402,31.902-29.402c5.8,0,15.001,1.102,21.501,4.302l0.101,8.101c-6.201-3.501-14.801-4.7-20.802-4.7
		c-14.602,0-23.501,8.5-23.501,21.701c0,13.2,8.899,21.701,24.102,21.701c6,0,15.2-1.3,21.401-4.7L1027.158,241.801z"/>
	<path fill="#231F20" d="M1266.089,244.101l0.399-8.2c-8.4,7-16.102,10.2-24.302,10.2c-16.801,0-26.702-12.9-26.702-29.401
		s9.901-29.402,26.702-29.402c8.2,0,15.9,3,24.302,10.001l-0.399-8.001v-20.2h9.301v75.005L1266.089,244.101L1266.089,244.101z
		 M1266.089,203.199c-7.001-4.9-13.701-8.2-20.803-8.2c-12.801,0-20.601,9-20.601,21.701c0,12.7,7.8,21.701,20.601,21.701
		c7.102,0,13.802-3.301,20.803-8.2V203.199z"/>
	<path fill="#231F20" d="M1521.917,241.801c-6.5,3.2-16.5,4.301-22.302,4.301c-20.301,0-31.502-11.7-31.502-29.401
		s11.001-29.402,29.502-29.402c19.802,0,30.802,13.102,26.701,33.402h-46.901c1.5,11.102,9.199,17.901,23.4,17.901
		c6,0,15.602-1,21.802-4.102L1521.917,241.801z M1477.114,214.299h38.803c1.399-11.399-5-20.001-18.302-20.001
		C1484.716,194.298,1477.814,202.199,1477.114,214.299z"/>
	<path fill="#231F20" d="M1725.044,244.101v-47.104h-14.899v-7.701h14.899v-3.898c0-11.401,8.701-18.302,22.803-18.302
		c5,0,11.899,0.8,17.4,2.801l0.7,7c-5.701-1.9-12.301-2.7-16.102-2.7c-10.802,0-15.602,4.601-15.602,11.301v3.8h26.901v7.701
		h-26.901v47.104L1725.044,244.101L1725.044,244.101z"/>
	<path fill="#231F20" d="M279.171,471.499c2,2.301,3.101,5.2,3.101,8.7c0,11.9-12.301,17.001-30.103,17.001
		c-6.601,0-12.399-0.7-17.201-2.101c-2,1.601-2.899,3.501-2.899,5.301c0,4.4,4.001,5.602,8.401,5.602h22.2
		c13.102,0,21.901,4.699,21.901,14.501c0,11.699-14.701,18.601-33.502,18.601c-6.201,0-19.002-0.8-27.702-3.8l-0.7-8.801
		c9.201,3.699,22.803,4.899,28.402,4.899c15.2,0,24.401-3.899,24.401-10.201c0-5.199-3.9-7.899-13.302-7.899h-23.102
		c-9.602,0-15.301-4-15.301-10.801c0-3.899,2.6-7.7,5.399-9.9c-4.801-2.7-7.501-6.8-7.501-12.4c0-11.801,12.701-16.9,30.502-16.9
		c6.301,0,11.9,0.7,16.501,2h17.603v6.701L279.171,471.499z M252.169,469.898c-12.601,0-21.102,3-21.102,10.301
		c0,7.4,8.501,10.4,21.102,10.4c12.602,0,21.103-3,21.103-10.4C273.271,472.698,264.77,469.898,252.169,469.898z"/>
	<path fill="#231F20" d="M495.71,511.301c-8.399,7.001-16.101,10.001-24.301,10.001c-16.802,0-26.702-12.901-26.702-29.002
		c0-16.102,9.9-29.002,26.702-29.002c8.2,0,15.9,3,24.301,10.001l-0.398-8.001h9.3v51.604c0,14.901-13.801,22.201-31.201,22.201
		c-8.801,0-16.802-1.601-23.102-4.3l-0.602-7.501c6.4,2.801,14.401,4.7,22.303,4.7c13.701,0,23.7-4.801,23.7-15.102V511.301z
		 M495.311,479.199c-7.001-4.899-13.701-8.2-20.802-8.2c-12.802,0-20.602,9-20.602,21.302c0,12.301,7.8,21.302,20.602,21.302
		c7.101,0,13.801-3.301,20.802-8.201V479.199z"/>
	<path fill="#231F20" d="M717.849,520.101V486.8c0-9.501-6-15.001-15.301-15.001c-6.102,0-14.701,3.5-21.701,9v39.303h-9.2v-75.005
		h9.2v21.002l-0.4,8.601c8.801-7.399,18.201-10.602,25.802-10.602c13.302,0,20.901,8.201,20.901,21.302v34.702H717.849
		L717.849,520.101z"/>
	<path fill="#231F20" d="M893.785,457.397v-13.501h9.201v13.501H893.785z M893.785,520.101v-54.804h9.201v54.804H893.785z"/>
	<path fill="#231F20" d="M1071.826,465.298h9.2v53.004c0,15.399-12.7,20.301-29.701,19.601l-0.699-7.2
		c12.5,0.301,21.2-3,21.2-12.399V465.298z M1071.826,457.397v-13.501h9.2v13.501H1071.826z"/>
	<path fill="#231F20" d="M1293.968,520.101L1265.665,494l-8.399,6.2v19.901h-9.2v-75.805h9.2V490.8l33.102-25.502h11.802
		l-29.603,22.9l33.202,31.902L1293.968,520.101L1293.968,520.101z"/>
	<path fill="#231F20" d="M1497.607,519.502c-4,1.6-11.101,2.6-15.201,2.6c-12.301,0-17.899-7-17.899-17.401v-59.604h9.199V502.9
		c0,6.801,3.301,11.501,11.7,11.501c3.501,0,9.401-1,12.801-2.5L1497.607,519.502z"/>
	<path fill="#231F20" d="M1749.95,520.101v-34.104c0-9.5-6.199-15-15.201-15c-6.101,0-13.899,3.399-20.9,8.9
		c0.301,1.3,0.5,3,0.5,5.1v35.104h-9.301v-34.104c0-9.5-6.2-15-15.102-15c-6.101,0-14.501,3.5-21.501,9v40.104h-9.201v-54.804h9.201
		l-0.4,8.601c8.602-7.4,18.001-10.601,25.603-10.601c9.001,0,15.602,3.801,18.701,10.801c9.701-7.801,18.501-10.801,26.102-10.801
		c13.001,0,20.701,8.2,20.701,21.302v35.502H1749.95z"/>
	<path fill="#231F20" d="M270.67,796.101v-34.104c0-9.5-6-15-15.301-15c-6.101,0-14.701,3.5-21.701,9v40.104h-9.201v-54.804h9.201
		l-0.399,8.601c8.801-7.4,18.201-10.601,25.802-10.601c13.301,0,20.901,8.2,20.901,21.302v35.502H270.67z"/>
	<path fill="#231F20" d="M505.849,798.101c-19.302,0-31.902-11.7-31.902-29.401c0-17.7,12.602-29.401,31.902-29.401
		S537.751,751,537.751,768.7C537.751,786.401,525.149,798.101,505.849,798.101z M505.849,747c-13.801,0-22.701,8.6-22.701,21.7
		c0,13.102,8.9,21.701,22.701,21.701s22.701-8.601,22.701-21.701C528.551,755.598,519.649,747,505.849,747z"/>
	<path fill="#231F20" d="M732.126,813.602v-72.305h9.2l-0.399,8.001c8.399-7.001,16.201-10.001,24.4-10.001
		c16.701,0,26.702,12.9,26.702,29.401S782.028,798.1,765.327,798.1c-8.199,0-16.001-3-24.4-10l0.399,8v17.501L732.126,813.602
		L732.126,813.602z M741.326,782.201c7,4.899,13.802,8.2,20.901,8.2c12.7,0,20.501-9.001,20.501-21.701s-7.801-21.7-20.501-21.7
		c-7.102,0-13.901,3.3-20.901,8.199V782.201z"/>
	<path fill="#231F20" d="M1033.708,813.602v-17.501l0.399-8c-8.401,7-16.102,10-24.302,10c-16.801,0-26.702-12.9-26.702-29.401
		s9.901-29.401,26.702-29.401c8.2,0,15.9,3,24.302,10.001l-0.399-8.001h9.301v72.305L1033.708,813.602L1033.708,813.602z
		 M1033.708,755.199c-7.002-4.899-13.701-8.2-20.803-8.2c-12.801,0-20.601,9-20.601,21.701c0,12.7,7.8,21.701,20.601,21.701
		c7.102,0,13.801-3.301,20.803-8.2V755.199z"/>
	<path fill="#231F20" d="M1240.384,796.101v-54.804h9.199l-0.399,8.601c8.801-7.4,22.502-11.4,31.702-10.2l-0.801,8.9
		c-9.301-2-23.502,1.899-30.502,7.399v40.104H1240.384L1240.384,796.101z"/>
	<path fill="#231F20" d="M1468.662,786c8.001,3.7,19.303,4.801,24.803,4.801c10.399,0,19.102-2.101,19.102-9.5
		c0-16.701-45.103-0.602-45.103-25.502c0-13.102,14.801-16.501,27.4-16.501c5.7,0,16.701,1.101,24.103,4.199v7.9
		c-7.4-3.7-19.001-4.8-23.702-4.8c-9.4,0-18.701,1.5-18.701,8.801c0,16.7,45.104,0.3,45.104,25.201
		c0,13.101-14.2,17.501-27.802,17.501c-6.101,0-17.302-1-24.502-4.2L1468.662,786z"/>
	<path fill="#231F20" d="M1762.746,793.701c-4.899,2.302-12,4.4-19.301,4.4c-13.001,0-20.302-7.2-20.302-19.501v-29.603h-14.9v-7.7
		h14.9v-8.602l9.201-6.6v15.2h31.102v7.701h-31.102v27.803c0,8.699,5,13.601,14.301,13.601c6,0,12.801-2.3,16.801-4.399
		L1762.746,793.701z"/>
	<path fill="#231F20" d="M270.67,1072.101l0.4-8.602c-8.801,7.4-18.102,10.602-25.702,10.602c-13.399,0-20.901-8.2-20.901-21.301
		v-35.503h9.201v34.103c0,9.5,6,15.001,15.4,15.001c6.101,0,14.602-3.5,21.602-9.001v-40.104h9.302v54.805H270.67L270.67,1072.101z"
		/>
	<path fill="#231F20" d="M482.564,1072.101l-28.302-54.804h10.4l22.802,45.003l22.7-45.003h9.701l-28.401,54.804H482.564z"/>
	<path fill="#231F20" d="M764.965,1072.101l-21.103-44.303l-20.701,44.303h-8.899l-25.302-54.804h10.4l20.001,44.104l20.901-44.104
		h8.5l20.9,44.104l19.603-44.104h9.601l-24.9,54.805H764.965L764.965,1072.101z"/>
	<path fill="#231F20" d="M1018.659,1072.101l-19.9-21.302l-20.102,21.302h-10.701l25.303-27.201l-25.303-27.604h11.302l19.9,21.401
		l20.103-21.401h10.699l-25.302,27.202l25.302,27.603H1018.659z"/>
	<path fill="#231F20" d="M1199.052,1017.298h10.4l23.201,45.003l22.302-45.003h9.7l-27.702,54.304
		c-6.699,13.001-13.801,19.501-24.2,19.501c-4.2,0-7.7-0.6-10.602-1.3l-0.7-8.301c2.602,0.899,7.002,1.801,10.502,1.801
		c6.3,0,11-4.501,15.5-11.901L1199.052,1017.298z"/>
	<path fill="#231F20" d="M1434.349,1072.101v-6.602l38.603-40.502h-38.201v-7.7h51.402v6.601l-39.203,40.503h39.203v7.7H1434.349
		L1434.349,1072.101z"/>
	<path fill="#231F20" d="M1758.253,1069.802c-6.5,3.2-16.502,4.3-22.302,4.3c-12.9,0-22.202-4.7-27.202-12.7
		c-10.699,9.102-24.102,12.7-33.102,12.7c-8.801,0-16.103-3.6-16.103-12.301c0-11.9,16.501-18.901,44.903-18.901v-8.101
		c0-7.4-5.9-11.8-16.701-11.8c-6.4,0-17.9,1.999-25.702,5.999l0.602-7.899c7.601-3.801,19.601-5.801,26.2-5.801
		c11.4,0,18.701,3.5,22.303,9.301c5-5.9,12.801-9.301,22.801-9.301c19.802,0,30.802,13.101,26.702,33.401h-46.903
		c1.5,11.102,9.201,17.901,23.401,17.901c6.001,0,15.602-1,21.802-4.101L1758.253,1069.802z M1706.648,1057.301
		c-1.1-2.7-1.699-5.602-2-8.801c-19.701,0.101-35.302,3.399-35.302,12c0,5.602,4.899,7.5,10.801,7.5
		C1686.549,1068,1696.849,1064.5,1706.648,1057.301z M1713.449,1042.3h38.804c1.398-11.4-5.002-20.001-18.303-20.001
		C1721.051,1022.299,1714.149,1030.199,1713.449,1042.3z"/>
	<path fill="#231F20" d="M270.67,1314c0-9.5-6-15-15.301-15c-6.101,0-14.701,3.5-21.701,9v40.103h-9.201v-54.804h9.201l-0.399,8.601
		c8.801-7.399,18.201-10.601,25.802-10.601c13.301,0,20.901,8.201,20.901,21.302v33.702c0,15.101-11.602,20.4-28.603,19.601
		l-0.601-7.8c11.9,0.199,19.9-3.101,19.9-11.801L270.67,1314L270.67,1314z"/>
	<path fill="#231F20" d="M501.167,1340.101c4.9,1.5,11.102,2.3,15.802,2.3c14.301,0,21.201-6.101,21.201-14.401
		c0-8.3-6.801-14.101-22.302-14.101h-5.601v-7.7h4c15.101,0,21.901-5.301,21.901-13.501c0-8.301-7.5-13.9-21.302-13.9
		c-13.4,0-23.702,5.899-23.702,18.701v50.604h-9.199V1301h-14.901v-7.701h15.201c2-14.102,14.501-22.201,32.603-22.201
		c20.001,0,30.603,8.601,30.603,20.802c0,8.9-5.802,16.101-16.401,18.101c11.901,1.7,18.401,9.002,18.401,18.603
		c0,12.501-9.4,21.501-29.603,21.501c-4.801,0-11.501-0.8-16.201-2.3L501.167,1340.101z"/>
	<path fill="#231F20" d="M761.963,1355.502c6.699,2.899,14.399,4.399,21.801,4.399c12.201,0,20.201-6.5,20.201-15.001
		c0-9.001-9.802-15.4-31.202-15.4v-5.9l26.802-22.602h-43.103v47.104h-9.2v-47.104H732.36v-7.7h14.901v-3.899
		c0-11.401,8.301-18.302,22.4-18.302c5,0,12.302,0.8,17.802,2.801l0.699,7c-5.699-1.9-12.7-2.7-16.501-2.7
		c-10.399,0-15.2,4.602-15.2,11.301v3.801h54.402V1301l-27.302,22.9c21.002,1.101,29.603,10.2,29.603,21.501
		c0,12.701-11.4,22.201-29.302,22.201c-8.701,0-14.802-1.399-21.302-4L761.963,1355.502z"/>
	<path fill="#231F20" d="M1047.26,1285.298c9.3,8.5,16.199,19.001,16.199,31.802c0,20.701-13,33.002-32.302,33.002
		c-19.301,0-31.502-10.7-31.502-27.603c0-16.901,10.802-27.602,28.103-27.602c6.501,0,15.301,2.2,21.9,6.5
		c-3.1-5.3-7.399-10.101-12.301-14.501l-24.301,3.9l-0.801-5.7l19.102-3c-4.301-3.302-8.9-6.302-13.301-9.001h12.601
		c3.601,2.301,7.301,4.699,10.801,7.399l18.401-3l0.8,5.7L1047.26,1285.298z M1053.26,1310.199
		c-5.801-4.699-15.102-7.601-22.002-7.601c-13.801,0-22.4,7.501-22.4,19.901c0,12.399,8.9,19.9,22.701,19.9
		s22.701-9.301,22.701-24.702C1054.26,1315.099,1053.96,1312.599,1053.26,1310.199z"/>
	<path fill="#231F20" d="M1263.255,1348.101v-47.104h-14.901v-7.701h14.901v-3.898c0-11.401,7.899-18.302,20.9-18.302
		c6.9,0,13.602,1.699,19.301,4.101l0.7,7.101c-5.7-2.301-12.399-4.101-18.001-4.101c-9.699,0-13.701,5-13.701,12.501v57.403
		H1263.255L1263.255,1348.101z"/>
	<path fill="#231F20" d="M1484.251,1285.397v-13.501h9.199v13.501H1484.251z M1484.251,1348.101v-54.804h9.199v54.804H1484.251z
		 M1509.451,1293.298h9.2v53.004c0,15.399-12.7,20.301-29.701,19.601l-0.699-7.2c12.5,0.301,21.2-3,21.2-12.399V1293.298z
		 M1509.451,1285.397v-13.501h9.2v13.501H1509.451z"/>
	<path fill="#231F20" d="M1757.55,1348.101L1729.247,1322l-8.399,6.2v19.901h-9.2v-54.804h9.2v25.502l33.102-25.502h11.802
		l-29.603,22.9l33.202,31.902L1757.55,1348.101L1757.55,1348.101z"/>
	<path fill="#231F20" d="M329.874,1621.802c-6.501,3.2-16.501,4.3-22.302,4.3c-13.001,0-22.201-4.7-27.201-12.7
		c-5.201,8-14.701,12.7-27.002,12.7c-19.301,0-31.902-11.7-31.902-29.401c0-17.7,12.603-29.401,31.902-29.401
		c12.2,0,21.603,4.699,26.901,12.601c4.801-7.899,13.601-12.601,25.302-12.601c19.801,0,30.802,13.101,26.701,33.401h-46.902
		c1.5,11.102,9.2,17.901,23.401,17.901c6,0,15.601-1,21.802-4.101L329.874,1621.802z M253.369,1575
		c-13.801,0-22.701,8.6-22.701,21.7c0,13.102,8.9,21.701,22.701,21.701c13.4,0,22.201-8.2,22.701-20.701v-1
		C276.07,1583.598,267.17,1575,253.369,1575z M285.071,1594.3h38.802c1.4-11.4-5-20.001-18.301-20.001
		C292.672,1574.299,285.771,1582.199,285.071,1594.3z"/>
	<path fill="#231F20" d="M510.364,1632.101l10.9-13.5c-6-5.2-9.301-12.701-9.301-21.901c0-17.701,12.601-29.401,31.901-29.401
		c6,0,11.4,1.199,15.9,3.301l7.501-9.301h10.101l-10.899,13.601c5.898,5.101,9.3,12.701,9.3,21.802
		c0,17.701-12.601,29.401-31.901,29.401c-6.101,0-11.4-1.2-16.001-3.2l-7.399,9.2L510.364,1632.101L510.364,1632.101z
		 M526.665,1611.801l27.901-34.702c-3.1-1.3-6.7-2.101-10.7-2.101c-13.801,0-22.702,8.601-22.702,21.701
		C521.164,1602.9,523.064,1608.1,526.665,1611.801z M561.067,1581.598l-27.902,34.803c3.102,1.3,6.7,2,10.701,2
		c13.802,0,22.701-8.601,22.701-21.701C566.567,1590.599,564.567,1585.399,561.067,1581.598z"/>
	<path fill="#231F20" d="M757.76,1641.602v-92.506h9.201v20.201l-0.4,8.001c8.4-7.001,16.201-10.001,24.401-10.001
		c16.7,0,26.701,12.9,26.701,29.401s-10.001,29.401-26.701,29.401c-8.2,0-16.001-3-24.401-10l0.4,8v17.501L757.76,1641.602
		L757.76,1641.602z M766.962,1610.201c7,4.899,13.801,8.2,20.9,8.2c12.7,0,20.501-9.001,20.501-21.701
		c0-12.701-7.801-21.701-20.501-21.701c-7.101,0-13.9,3.301-20.9,8.2V1610.201z"/>
	<path fill="#231F20" d="M1040.859,1624.101l0.3-7.801c-8.801,6.399-19.9,9.801-29.102,9.801c-8.801,0-16.102-3.6-16.102-12.301
		c0-11.9,16.5-18.901,44.902-18.901v-8.101c0-7.4-5.9-11.801-16.701-11.801c-6.399,0-17.9,2-25.702,6l0.602-7.899
		c7.601-3.802,19.601-5.802,26.201-5.802c17.001,0,24.9,7.701,24.9,19.502v37.303H1040.859L1040.859,1624.101z M1040.859,1600.5
		c-20.102,0-35.103,3.302-35.103,12.002c0,5.601,4.899,7.5,10.801,7.5c6.9,0,16.801-3.399,24.302-8.801V1600.5z M1022.658,1562.097
		h-8.501l13.602-15.801h10.501L1022.658,1562.097z"/>
	<path fill="#231F20" d="M1277.055,1624.101l0.3-7.801c-8.801,6.399-19.901,9.801-29.102,9.801c-8.802,0-16.103-3.6-16.103-12.301
		c0-11.9,16.501-18.901,44.903-18.901v-8.101c0-7.4-5.9-11.801-16.701-11.801c-6.4,0-17.901,2-25.702,6l0.601-7.899
		c7.602-3.802,19.602-5.802,26.201-5.802c17.001,0,24.901,7.701,24.901,19.502v37.303H1277.055L1277.055,1624.101z M1277.055,1600.5
		c-20.103,0-35.104,3.302-35.104,12.002c0,5.601,4.9,7.5,10.802,7.5c6.899,0,16.801-3.399,24.302-8.801V1600.5z M1278.454,1546.297
		c0,11.199-6.899,17.301-17.301,17.301c-10.301,0-17.201-6.102-17.201-17.301h7.301c0,7.899,4.2,11.199,9.9,11.199
		c5.8,0,10.001-3.3,10.001-11.199H1278.454z"/>
	<path fill="#231F20" d="M1513.251,1624.101l0.301-7.801c-8.801,6.399-19.901,9.801-29.103,9.801c-8.801,0-16.102-3.6-16.102-12.301
		c0-11.9,16.501-18.901,44.902-18.901v-8.101c0-7.4-5.899-11.801-16.7-11.801c-6.4,0-17.901,2-25.702,6l0.601-7.899
		c7.601-3.802,19.601-5.802,26.201-5.802c17.001,0,24.9,7.701,24.9,19.502v37.303H1513.251L1513.251,1624.101z M1508.95,1562.097
		l-11.601-10.9l-11.501,10.9h-8.102l15.401-15.801h8.5l15.401,15.801H1508.95z M1513.251,1600.5
		c-20.102,0-35.103,3.302-35.103,12.002c0,5.601,4.9,7.5,10.801,7.5c6.9,0,16.802-3.399,24.302-8.801V1600.5z"/>
	<path fill="#231F20" d="M1749.447,1624.101l0.3-7.801c-8.801,6.399-19.9,9.801-29.102,9.801c-8.801,0-16.102-3.6-16.102-12.301
		c0-11.9,16.5-18.901,44.902-18.901v-8.101c0-7.4-5.9-11.801-16.701-11.801c-6.399,0-17.9,2-25.702,6l0.602-7.899
		c7.601-3.802,19.601-5.802,26.201-5.802c17.001,0,24.9,7.701,24.9,19.502v37.303H1749.447L1749.447,1624.101z M1749.447,1600.5
		c-20.102,0-35.103,3.302-35.103,12.002c0,5.601,4.899,7.5,10.801,7.5c6.9,0,16.801-3.399,24.302-8.801V1600.5z M1716.745,1561.397
		v-13.501h9.2v13.501H1716.745z M1742.047,1561.397v-13.501h9.2v13.501H1742.047z"/>
	<path fill="#231F20" d="M266.57,1900.101l0.3-7.801c-8.801,6.399-19.9,9.801-29.102,9.801c-8.802,0-16.103-3.6-16.103-12.301
		c0-11.9,16.501-18.901,44.903-18.901v-8.101c0-7.4-5.9-11.801-16.701-11.801c-6.4,0-17.901,2-25.702,6l0.602-7.899
		c7.601-3.802,19.601-5.802,26.2-5.802c17.001,0,24.901,7.701,24.901,19.502v37.303H266.57L266.57,1900.101z M266.57,1876.5
		c-20.102,0-35.104,3.302-35.104,12.002c0,5.601,4.9,7.5,10.802,7.5c6.899,0,16.801-3.399,24.302-8.801V1876.5z M250.469,1838.097
		l-16.201-15.801h9.9l14.2,15.801H250.469z"/>
	<path fill="#231F20" d="M511.816,1900.101l0.3-7.801c-8.801,6.399-19.9,9.801-29.102,9.801c-8.801,0-16.103-3.6-16.103-12.301
		c0-11.9,16.501-18.901,44.903-18.901v-8.101c0-7.4-5.9-11.801-16.701-11.801c-6.399,0-17.9,2-25.702,6l0.602-7.899
		c7.601-3.802,19.601-5.802,26.201-5.802c17.001,0,24.9,7.701,24.9,19.502v37.303H511.816L511.816,1900.101z M511.816,1876.5
		c-20.102,0-35.103,3.302-35.103,12.002c0,5.601,4.899,7.5,10.801,7.5c6.899,0,16.801-3.399,24.302-8.801V1876.5z M478.614,1833.397
		v-6.5h34.603v6.5H478.614z"/>
	<path fill="#231F20" d="M765.663,1925.002c-3.1,1-6.6,1.9-11.199,1.9c-7.9,0-12.9-4.5-12.9-11.301c0-7,5.4-13.801,15.601-18.201
		l0.2-5.101c-8.801,6.399-19.9,9.801-29.102,9.801c-8.801,0-16.103-3.601-16.103-12.301c0-11.9,16.501-18.901,44.903-18.901v-8.101
		c0-7.4-5.9-11.801-16.701-11.801c-6.399,0-17.9,2-25.702,6l0.602-7.899c7.601-3.801,19.601-5.801,26.201-5.801
		c17.001,0,24.9,7.7,24.9,19.5v37.304c-11.399,2.601-17.301,8.501-17.301,13.701c0,3.6,2.7,6.6,8.101,6.6c3.4,0,6.5-0.899,9.2-1.899
		L765.663,1925.002z M757.063,1876.5c-20.102,0-35.104,3.302-35.104,12.002c0,5.601,4.9,7.5,10.802,7.5
		c6.899,0,16.801-3.399,24.302-8.801V1876.5z"/>
	<path fill="#231F20" d="M1002.31,1900.101l0.3-7.801c-8.801,6.399-19.9,9.801-29.102,9.801c-8.802,0-16.103-3.6-16.103-12.301
		c0-11.9,16.501-18.901,44.903-18.901v-8.101c0-7.4-5.9-11.801-16.701-11.801c-6.4,0-17.9,2-25.702,6l0.602-7.899
		c7.601-3.802,19.601-5.802,26.2-5.802c17.002,0,24.901,7.701,24.901,19.502v37.303H1002.31L1002.31,1900.101z M1002.31,1876.5
		c-20.103,0-35.104,3.302-35.104,12.002c0,5.601,4.9,7.5,10.802,7.5c6.899,0,16.801-3.399,24.302-8.801V1876.5z M986.408,1840.097
		c-10.101,0-15.4-4.7-15.4-10.301s5.301-10.301,15.4-10.301c10.2,0,15.501,4.7,15.501,10.301S996.608,1840.097,986.408,1840.097z
		 M986.408,1824.497c-5.601,0-8.7,2.2-8.7,5.301s3.101,5.301,8.7,5.301c5.7,0,8.802-2.2,8.802-5.301
		S992.108,1824.497,986.408,1824.497z"/>
	<path fill="#231F20" d="M1247.556,1900.101l0.3-7.801c-8.801,6.399-19.9,9.801-29.102,9.801c-8.802,0-16.103-3.6-16.103-12.301
		c0-11.9,16.501-18.901,44.903-18.901v-8.101c0-7.4-5.9-11.801-16.701-11.801c-6.4,0-17.901,2-25.702,6l0.601-7.899
		c7.602-3.802,19.602-5.802,26.201-5.802c17.001,0,24.901,7.701,24.901,19.502v37.303H1247.556L1247.556,1900.101z
		 M1253.155,1822.896c-0.398,9.301-5.5,14.901-12.301,14.901c-9.2,0-12.2-9.001-17.501-9.001c-4,0-5.7,2.801-6.101,8.201h-7.101
		c0.399-9.302,5.101-14.901,12.302-14.901c9.199,0,12.101,8.899,17.5,8.899c4,0,5.801-2.699,6.2-8.101L1253.155,1822.896
		L1253.155,1822.896z M1247.556,1876.5c-20.103,0-35.104,3.302-35.104,12.002c0,5.601,4.9,7.5,10.802,7.5
		c6.899,0,16.801-3.399,24.302-8.801V1876.5z"/>
	<path fill="#231F20" d="M1498.504,1900.101l0.398-8c-8.399,7-16.101,10-24.301,10c-16.802,0-26.702-12.9-26.702-29.401
		s9.9-29.401,26.702-29.401c8.2,0,15.9,3,24.301,10.001l-0.398-8.001h9.3v54.804L1498.504,1900.101L1498.504,1900.101z
		 M1498.504,1859.199c-7.001-4.899-13.701-8.199-20.803-8.199c-12.801,0-20.602,9-20.602,21.7s7.801,21.701,20.602,21.701
		c7.102,0,13.802-3.301,20.803-8.2V1859.199z M1478.401,1838.097h-8.501l13.603-15.801h10.5L1478.401,1838.097z"/>
	<path fill="#231F20" d="M1749.448,1900.101l0.399-8c-8.4,7-16.101,10-24.301,10c-16.803,0-26.702-12.9-26.702-29.401
		s9.899-29.401,26.702-29.401c8.199,0,15.899,3,24.301,10.001l-0.399-8.001h9.301v54.804L1749.448,1900.101L1749.448,1900.101z
		 M1749.448,1859.199c-7.001-4.899-13.701-8.199-20.802-8.199c-12.801,0-20.603,9-20.603,21.7s7.802,21.701,20.603,21.701
		c7.101,0,13.801-3.301,20.802-8.2V1859.199z M1748.948,1822.297c0,11.199-6.899,17.301-17.302,17.301
		c-10.3,0-17.201-6.102-17.201-17.301h7.301c0,7.899,4.2,11.199,9.9,11.199c5.801,0,10.001-3.3,10.001-11.199H1748.948z"/>
	<path fill="#231F20" d="M272.271,2176.101l0.398-8c-8.399,7-16.101,10-24.301,10c-16.802,0-26.702-12.9-26.702-29.4
		c0-16.502,9.9-29.402,26.702-29.402c8.2,0,15.9,3,24.301,10.001l-0.398-8.001h9.3v54.804L272.271,2176.101L272.271,2176.101z
		 M272.271,2135.199c-7.001-4.899-13.701-8.199-20.802-8.199c-12.802,0-20.603,9-20.603,21.7s7.801,21.701,20.603,21.701
		c7.101,0,13.801-3.301,20.802-8.2V2135.199z M266.07,2114.097l-11.602-10.9l-11.5,10.9h-8.102l15.4-15.801h8.501l15.399,15.801
		H266.07z"/>
	<path fill="#231F20" d="M520.184,2176.101l0.398-8c-8.399,7-16.101,10-24.301,10c-16.802,0-26.702-12.9-26.702-29.4
		c0-16.502,9.9-29.402,26.702-29.402c8.2,0,15.9,3,24.301,10.001l-0.398-8.001h9.3v54.804L520.184,2176.101L520.184,2176.101z
		 M520.184,2135.199c-7.001-4.899-13.701-8.199-20.802-8.199c-12.802,0-20.602,9-20.602,21.7s7.8,21.701,20.602,21.701
		c7.101,0,13.801-3.301,20.802-8.2V2135.199z M485.581,2113.397v-13.501h9.2v13.501H485.581z M510.884,2113.397v-13.501h9.199
		v13.501H510.884z"/>
	<path fill="#231F20" d="M768.096,2176.101l0.398-8c-8.399,7-16.101,10-24.301,10c-16.802,0-26.702-12.9-26.702-29.4
		c0-16.502,9.9-29.402,26.702-29.402c8.2,0,15.9,3,24.301,10.001l-0.398-8.001h9.3v54.804L768.096,2176.101L768.096,2176.101z
		 M768.096,2135.199c-7.001-4.899-13.701-8.199-20.802-8.199c-12.802,0-20.602,9-20.602,21.7s7.8,21.701,20.602,21.701
		c7.101,0,13.801-3.301,20.802-8.2V2135.199z M748.895,2114.097l-16.201-15.801h9.9l14.201,15.801H748.895z"/>
	<path fill="#231F20" d="M1016.01,2176.101l0.398-8c-8.399,7-16.101,10-24.301,10c-16.802,0-26.702-12.9-26.702-29.4
		c0-16.502,9.9-29.402,26.702-29.402c8.2,0,15.9,3,24.301,10.001l-0.398-8.001h9.3v54.804L1016.01,2176.101L1016.01,2176.101z
		 M1016.01,2135.199c-7.001-4.899-13.701-8.199-20.803-8.199c-12.801,0-20.602,9-20.602,21.7s7.801,21.701,20.602,21.701
		c7.102,0,13.802-3.301,20.803-8.2V2135.199z M981.007,2109.397v-6.5h34.603v6.5H981.007z"/>
	<path fill="#231F20" d="M1272.521,2201.002c-3.101,1-6.601,1.9-11.201,1.9c-7.899,0-12.899-4.5-12.899-11.301
		c0-7,5.399-13.801,15.601-18.201l0.3-5.3c-8.4,7-16.101,10-24.301,10c-16.802,0-26.702-12.9-26.702-29.401
		s9.9-29.402,26.702-29.402c8.2,0,15.9,3,24.301,10.002l-0.398-8.002h9.3v54.805c-11.4,2.601-17.302,8.501-17.302,13.701
		c0,3.6,2.7,6.6,8.102,6.6c3.4,0,6.501-0.898,9.2-1.898L1272.521,2201.002z M1263.922,2135.199
		c-7.001-4.899-13.701-8.199-20.803-8.199c-12.801,0-20.602,9-20.602,21.7s7.801,21.701,20.602,21.701
		c7.102,0,13.802-3.301,20.803-8.2V2135.199z"/>
	<path fill="#231F20" d="M1511.835,2176.101l0.398-8c-8.4,7-16.101,10-24.301,10c-16.802,0-26.702-12.9-26.702-29.4
		c0-16.502,9.9-29.402,26.702-29.402c8.2,0,15.9,3,24.301,10.001l-0.398-8.001h9.3v54.804L1511.835,2176.101L1511.835,2176.101z
		 M1511.835,2135.199c-7.002-4.899-13.701-8.199-20.803-8.199c-12.801,0-20.601,9-20.601,21.7s7.8,21.701,20.601,21.701
		c7.102,0,13.801-3.301,20.803-8.2V2135.199z M1494.032,2116.097c-10.101,0-15.399-4.7-15.399-10.301s5.3-10.301,15.399-10.301
		c10.201,0,15.501,4.7,15.501,10.301S1504.233,2116.097,1494.032,2116.097z M1494.032,2100.498c-5.6,0-8.699,2.199-8.699,5.3
		s3.101,5.301,8.699,5.301c5.701,0,8.801-2.2,8.801-5.301S1499.733,2100.498,1494.032,2100.498z"/>
	<path fill="#231F20" d="M1762.947,2173.802c-6.501,3.2-15.701,4.3-21.502,4.3c-19.899,0-32.502-11.7-32.502-29.4
		c0-17.701,12.603-29.402,31.902-29.402c5.8,0,15.001,1.101,21.501,4.301l0.101,8.102c-6.201-3.502-14.801-4.7-20.802-4.7
		c-14.601,0-23.501,8.5-23.501,21.7s8.9,21.701,24.103,21.701c6,0,15.199-1.3,21.4-4.699L1762.947,2173.802z M1737.646,2114.097
		h-8.501l13.602-15.801h10.5L1737.646,2114.097z"/>
	<path fill="#231F20" d="M275.471,2449.802c-6.501,3.2-15.701,4.3-21.502,4.3c-19.9,0-32.503-11.7-32.503-29.4
		c0-17.701,12.603-29.402,31.902-29.402c5.8,0,15.001,1.101,21.501,4.301l0.102,8.102c-6.201-3.502-14.802-4.7-20.803-4.7
		c-14.601,0-23.501,8.5-23.501,21.7s8.9,21.701,24.103,21.701c6,0,15.2-1.3,21.4-4.699L275.471,2449.802z M256.369,2390.097h-9.301
		l-15.001-15.801h8.701l10.899,10.301l11.001-10.301h8.7L256.369,2390.097z"/>
	<path fill="#231F20" d="M519.234,2449.802c-6.501,3.2-15.701,4.3-21.502,4.3c-19.9,0-32.502-11.7-32.502-29.4
		c0-17.701,12.602-29.402,31.902-29.402c5.8,0,15.001,1.101,21.501,4.301l0.101,8.102c-6.201-3.502-14.801-4.7-20.802-4.7
		c-14.602,0-23.501,8.5-23.501,21.7s8.899,21.701,24.102,21.701c6,0,15.2-1.3,21.401-4.699L519.234,2449.802z M481.532,2472.002
		c5.2,0.899,9.602,1.2,12.7,1.2c6.301,0,9.101-1.601,9.101-4.7c0-3.101-2.8-4.699-9.101-4.699c-3.1,0-7.5,0.3-12.7,1.199v-5.5
		c4.7-0.9,8.9-1.4,12.5-1.4c11.501,0,16.303,4.001,16.303,10.4c0,6.4-4.802,10.4-16.303,10.4c-3.6,0-7.8-0.5-12.5-1.4V2472.002z"/>
	<path fill="#231F20" d="M762.997,2449.802c-6.501,3.2-15.7,4.3-21.502,4.3c-19.9,0-32.502-11.7-32.502-29.4
		c0-17.701,12.602-29.402,31.902-29.402c5.8,0,15.001,1.101,21.501,4.301l0.101,8.102c-6.2-3.502-14.801-4.7-20.802-4.7
		c-14.601,0-23.501,8.5-23.501,21.7s8.9,21.701,24.103,21.701c6,0,15.199-1.3,21.4-4.699L762.997,2449.802z M750.797,2390.097
		l-11.602-10.9l-11.501,10.9h-8.101l15.4-15.801h8.5l15.401,15.801H750.797z"/>
	<path fill="#231F20" d="M1006.761,2449.802c-6.501,3.2-15.701,4.3-21.502,4.3c-19.901,0-32.502-11.7-32.502-29.4
		c0-17.701,12.601-29.402,31.901-29.402c5.8,0,15.001,1.101,21.501,4.301l0.102,8.102c-6.201-3.502-14.802-4.7-20.803-4.7
		c-14.601,0-23.501,8.5-23.501,21.7s8.9,21.701,24.103,21.701c6,0,15.2-1.3,21.401-4.699L1006.761,2449.802z M978.46,2389.397
		v-13.501h9.199v13.501H978.46z"/>
	<path fill="#231F20" d="M1247.124,2452.101l0.399-8.2c-8.399,7-16.101,10.2-24.301,10.2c-16.801,0-26.702-12.9-26.702-29.4
		c0-16.502,9.901-29.402,26.702-29.402c8.2,0,15.899,3,24.301,10.001l-0.399-8.001v-20.201h9.302v75.005L1247.124,2452.101
		L1247.124,2452.101z M1247.124,2411.199c-7-4.899-13.7-8.199-20.802-8.199c-12.801,0-20.601,9-20.601,21.7
		s7.8,21.701,20.601,21.701c7.102,0,13.802-3.301,20.802-8.2V2411.199z M1262.725,2392.097l1.4-21.801h7.801l-2.602,21.801H1262.725
		z"/>
	<path fill="#231F20" d="M1501.286,2452.101l0.399-8.2c-8.4,7-16.101,10.2-24.301,10.2c-16.802,0-26.702-12.9-26.702-29.4
		c0-16.502,9.9-29.402,26.702-29.402c8.2,0,15.899,3,24.301,10.001l-0.399-8.001v-5.301h-15.201v-6.5h15.201v-8.4h9.302v8.4h8.899
		v6.5h-8.899v60.104L1501.286,2452.101L1501.286,2452.101z M1501.286,2411.199c-7.001-4.899-13.701-8.199-20.802-8.199
		c-12.801,0-20.601,9-20.601,21.7s7.8,21.701,20.601,21.701c7.101,0,13.801-3.301,20.802-8.2V2411.199z"/>
	<path fill="#231F20" d="M1758.549,2449.802c-6.501,3.2-16.501,4.3-22.303,4.3c-20.301,0-31.502-11.7-31.502-29.4
		c0-17.701,11.001-29.402,29.502-29.402c19.802,0,30.803,13.101,26.701,33.402h-46.901c1.5,11.101,9.199,17.9,23.4,17.9
		c6,0,15.602-1,21.803-4.102L1758.549,2449.802z M1713.745,2422.3h38.803c1.399-11.4-5-20.001-18.302-20.001
		C1721.346,2402.299,1714.445,2410.199,1713.745,2422.3z M1731.047,2390.097h-8.501l13.602-15.801h10.5L1731.047,2390.097z"/>
	<path fill="#231F20" d="M275.471,2725.802c-6.501,3.2-16.501,4.301-22.303,4.301c-20.301,0-31.502-11.701-31.502-29.402
		s11.001-29.401,29.502-29.401c19.802,0,30.803,13.101,26.701,33.401h-46.902c1.5,11.103,9.2,17.902,23.401,17.902
		c6,0,15.602-1,21.802-4.103L275.471,2725.802z M230.668,2698.3h38.803c1.399-11.4-5-20-18.302-20
		C238.269,2678.3,231.368,2686.199,230.668,2698.3z M267.57,2650.297c0,11.199-6.9,17.301-17.302,17.301
		c-10.302,0-17.201-6.102-17.201-17.301h7.301c0,7.899,4.2,11.199,9.9,11.199c5.801,0,10.001-3.3,10.001-11.199H267.57z"/>
	<path fill="#231F20" d="M522.65,2725.802c-6.501,3.2-16.501,4.301-22.302,4.301c-20.301,0-31.502-11.701-31.502-29.402
		s11.001-29.401,29.502-29.401c19.801,0,30.802,13.101,26.701,33.401h-46.902c1.5,11.103,9.2,17.902,23.401,17.902
		c6,0,15.601-1,21.802-4.103L522.65,2725.802z M502.148,2666.097h-9.3l-15.001-15.801h8.7l10.899,10.301l11.001-10.301h8.7
		L502.148,2666.097z M477.848,2698.3h38.802c1.4-11.4-5-20-18.301-20C485.448,2678.3,478.549,2686.199,477.848,2698.3z"/>
	<path fill="#231F20" d="M769.831,2725.802c-6.501,3.2-16.501,4.301-22.302,4.301c-20.301,0-31.502-11.701-31.502-29.402
		s11.001-29.401,29.502-29.401c19.801,0,30.802,13.101,26.701,33.401h-46.902c1.5,11.103,9.2,17.902,23.401,17.902
		c6,0,15.601-1,21.802-4.103L769.831,2725.802z M756.229,2666.097l-11.601-10.9l-11.5,10.9h-8.102l15.4-15.801h8.501l15.399,15.801
		H756.229z M725.028,2698.3h38.802c1.4-11.4-5-20-18.301-20C732.63,2678.3,725.729,2686.199,725.028,2698.3z"/>
	<path fill="#231F20" d="M1017.01,2725.802c-6.501,3.2-16.501,4.301-22.303,4.301c-20.301,0-31.502-11.701-31.502-29.402
		s11.001-29.401,29.502-29.401c19.802,0,30.803,13.101,26.701,33.401h-46.901c1.5,11.103,9.2,17.902,23.4,17.902
		c6,0,15.602-1,21.802-4.103L1017.01,2725.802z M972.207,2698.3h38.803c1.399-11.4-5-20-18.302-20
		C979.808,2678.3,972.907,2686.199,972.207,2698.3z M974.606,2665.397v-13.501h9.201v13.501H974.606z M999.908,2665.397v-13.501
		h9.201v13.501H999.908z"/>
	<path fill="#231F20" d="M1264.189,2725.802c-6.501,3.2-16.501,4.301-22.302,4.301c-20.301,0-31.502-11.701-31.502-29.402
		s11.001-29.401,29.502-29.401c19.801,0,30.802,13.101,26.701,33.401h-46.902c1.5,11.103,9.2,17.902,23.401,17.902
		c6,0,15.601-1,21.802-4.103L1264.189,2725.802z M1219.387,2698.3h38.802c1.4-11.4-5-20-18.301-20
		C1226.987,2678.3,1220.088,2686.199,1219.387,2698.3z M1234.487,2665.397v-13.501h9.2v13.501H1234.487z"/>
	<path fill="#231F20" d="M1511.37,2725.802c-6.501,3.2-16.501,4.301-22.302,4.301c-20.301,0-31.502-11.701-31.502-29.402
		s11.001-29.401,29.502-29.401c19.801,0,30.802,13.101,26.701,33.401h-46.902c1.5,11.103,9.2,17.902,23.401,17.902
		c6,0,15.601-1,21.802-4.103L1511.37,2725.802z M1466.567,2698.3h38.802c1.4-11.4-5-20-18.301-20
		C1474.169,2678.3,1467.268,2686.199,1466.567,2698.3z M1486.568,2666.097l-16.201-15.801h9.9l14.201,15.801H1486.568z"/>
	<path fill="#231F20" d="M1758.55,2725.802c-6.501,3.2-16.501,4.301-22.303,4.301c-20.301,0-31.502-11.701-31.502-29.402
		s11.001-29.401,29.502-29.401c19.802,0,30.803,13.101,26.701,33.401h-46.901c1.5,11.103,9.199,17.902,23.4,17.902
		c6,0,15.602-1,21.802-4.103L1758.55,2725.802z M1713.746,2698.3h38.803c1.399-11.4-5-20-18.302-20
		C1721.347,2678.3,1714.446,2686.199,1713.746,2698.3z M1716.547,2661.397v-6.5h34.603v6.5H1716.547z"/>
	<path fill="#231F20" d="M275.471,3001.802l-2,0.899c-10.102,4.5-15.201,9.9-15.201,15.103c0,3.6,2.7,6.6,8.101,6.6
		c3.4,0,6.5-0.899,9.2-1.899l-0.7,6.5c-3.1,1-6.601,1.899-11.2,1.899c-7.899,0-12.9-4.5-12.9-11.301c0-5.101,3.2-9.899,8.399-13.801
		c-2.3,0.2-4.3,0.301-6,0.301c-20.301,0-31.502-11.701-31.502-29.402s11.001-29.401,29.502-29.401
		c19.802,0,30.803,13.102,26.701,33.401h-46.901c1.5,11.103,9.199,17.902,23.4,17.902c6,0,15.602-1,21.802-4.103L275.471,3001.802z
		 M230.668,2974.3h38.803c1.399-11.4-5-20-18.302-20C238.269,2954.3,231.368,2962.199,230.668,2974.3z"/>
	<path fill="#231F20" d="M520.368,2955.498c2,2.302,3.101,5.201,3.101,8.701c0,11.9-12.302,17-30.103,17
		c-6.601,0-12.399-0.699-17.201-2.1c-2,1.6-2.899,3.5-2.899,5.301c0,4.4,4.001,5.6,8.4,5.6h22.201
		c13.102,0,21.901,4.701,21.901,14.502c0,11.699-14.701,18.601-33.502,18.601c-6.201,0-19.002-0.799-27.702-3.799l-0.7-8.802
		c9.201,3.699,22.802,4.9,28.402,4.9c15.2,0,24.4-3.9,24.4-10.201c0-5.201-3.899-7.899-13.301-7.899h-23.102
		c-9.602,0-15.301-4-15.301-10.802c0-3.899,2.6-7.7,5.399-9.899c-4.801-2.701-7.501-6.801-7.501-12.399
		c0-11.802,12.701-16.902,30.502-16.902c6.301,0,11.9,0.701,16.501,2h17.603V2956L520.368,2955.498z M493.366,2953.898
		c-12.601,0-21.102,3-21.102,10.301c0,7.4,8.501,10.4,21.102,10.4c12.602,0,21.103-3,21.103-10.4
		C514.469,2956.697,505.968,2953.898,493.366,2953.898z M510.969,2926.298c0,11.198-6.901,17.301-17.302,17.301
		c-10.302,0-17.201-6.103-17.201-17.301h7.301c0,7.899,4.2,11.198,9.9,11.198c5.801,0,10-3.299,10-11.198H510.969z"/>
	<path fill="#231F20" d="M767.864,2955.498c2,2.302,3.101,5.201,3.101,8.701c0,11.9-12.302,17-30.103,17
		c-6.601,0-12.399-0.699-17.201-2.1c-2,1.6-2.899,3.5-2.899,5.301c0,4.4,4.001,5.6,8.4,5.6h22.201
		c13.102,0,21.901,4.701,21.901,14.502c0,11.699-14.701,18.601-33.502,18.601c-6.201,0-19.002-0.799-27.702-3.799l-0.7-8.802
		c9.201,3.699,22.802,4.9,28.402,4.9c15.199,0,24.4-3.9,24.4-10.201c0-5.201-3.899-7.899-13.301-7.899H727.76
		c-9.602,0-15.302-4-15.302-10.802c0-3.899,2.601-7.7,5.4-9.899c-4.801-2.701-7.501-6.801-7.501-12.399
		c0-11.802,12.701-16.902,30.502-16.902c6.301,0,11.9,0.701,16.501,2h17.603V2956L767.864,2955.498z M740.862,2953.898
		c-12.601,0-21.102,3-21.102,10.301c0,7.4,8.501,10.4,21.102,10.4c12.602,0,21.103-3,21.103-10.4
		C761.965,2956.697,753.464,2953.898,740.862,2953.898z M752.763,2942.098l-11.602-10.9l-11.5,10.9h-8.101l15.4-15.802h8.501
		l15.399,15.802H752.763z"/>
	<path fill="#231F20" d="M1015.36,2955.498c2,2.302,3.1,5.201,3.1,8.701c0,11.9-12.301,17-30.102,17c-6.601,0-12.4-0.699-17.201-2.1
		c-2,1.6-2.899,3.5-2.899,5.301c0,4.4,4.001,5.6,8.4,5.6h22.201c13.101,0,21.901,4.701,21.901,14.502
		c0,11.699-14.701,18.601-33.502,18.601c-6.201,0-19.002-0.799-27.702-3.799l-0.7-8.802c9.201,3.699,22.802,4.9,28.402,4.9
		c15.199,0,24.4-3.9,24.4-10.201c0-5.201-3.9-7.899-13.301-7.899h-23.102c-9.602,0-15.302-4-15.302-10.802
		c0-3.899,2.601-7.7,5.4-9.899c-4.801-2.701-7.501-6.801-7.501-12.399c0-11.802,12.701-16.902,30.502-16.902
		c6.301,0,11.9,0.701,16.501,2h17.602V2956L1015.36,2955.498z M988.358,2953.898c-12.601,0-21.102,3-21.102,10.301
		c0,7.4,8.501,10.4,21.102,10.4c12.602,0,21.102-3,21.102-10.4C1009.46,2956.697,1000.96,2953.898,988.358,2953.898z
		 M993.858,2922.798l-1.898,19.7h-8.201l3.101-19.7H993.858z"/>
	<path fill="#231F20" d="M1262.857,2955.498c2,2.302,3.101,5.201,3.101,8.701c0,11.9-12.302,17-30.103,17
		c-6.601,0-12.4-0.699-17.201-2.1c-2,1.6-2.899,3.5-2.899,5.301c0,4.4,4,5.6,8.399,5.6h22.202c13.101,0,21.901,4.701,21.901,14.502
		c0,11.699-14.701,18.601-33.502,18.601c-6.201,0-19.002-0.799-27.702-3.799l-0.7-8.802c9.201,3.699,22.802,4.9,28.402,4.9
		c15.199,0,24.4-3.9,24.4-10.201c0-5.201-3.899-7.899-13.301-7.899h-23.103c-9.601,0-15.301-4-15.301-10.802
		c0-3.899,2.601-7.7,5.4-9.899c-4.801-2.701-7.501-6.801-7.501-12.399c0-11.802,12.701-16.902,30.502-16.902
		c6.301,0,11.899,0.701,16.501,2h17.602V2956L1262.857,2955.498z M1235.855,2953.898c-12.601,0-21.103,3-21.103,10.301
		c0,7.4,8.502,10.4,21.103,10.4s21.103-3,21.103-10.4C1256.958,2956.697,1248.456,2953.898,1235.855,2953.898z M1231.655,2941.396
		v-13.5h9.2v13.5H1231.655z"/>
	<path fill="#231F20" d="M1502.554,2995.302c-8.4,7-16.102,10-24.302,10c-16.802,0-26.701-12.9-26.701-29.002
		c0-16.101,9.899-29.002,26.701-29.002c8.2,0,15.9,3,24.302,10.002l-0.399-8.002h9.3v51.604c0,14.902-13.801,22.201-31.2,22.201
		c-8.802,0-16.803-1.601-23.103-4.299l-0.601-7.502c6.399,2.801,14.4,4.7,22.302,4.7c13.701,0,23.701-4.801,23.701-15.102V2995.302z
		 M1502.154,2963.199c-7.001-4.899-13.701-8.201-20.802-8.201c-12.801,0-20.601,9-20.601,21.302c0,12.301,7.8,21.303,20.601,21.303
		c7.101,0,13.801-3.301,20.802-8.201V2963.199z M1501.654,2926.298c0,11.198-6.899,17.301-17.302,17.301
		c-10.3,0-17.2-6.103-17.2-17.301h7.3c0,7.899,4.2,11.198,9.9,11.198c5.801,0,10.001-3.299,10.001-11.198H1501.654z"/>
	<path fill="#231F20" d="M1749.85,2995.302c-8.4,7-16.102,10-24.301,10c-16.803,0-26.702-12.9-26.702-29.002
		c0-16.101,9.899-29.002,26.702-29.002c8.199,0,15.899,3,24.301,10.002l-0.399-8.002h9.3v51.604c0,14.902-13.801,22.201-31.2,22.201
		c-8.802,0-16.803-1.601-23.103-4.299l-0.601-7.502c6.399,2.801,14.4,4.7,22.302,4.7c13.701,0,23.701-4.801,23.701-15.102V2995.302z
		 M1749.45,2963.199c-7.001-4.899-13.701-8.201-20.802-8.201c-12.801,0-20.603,9-20.603,21.302c0,12.301,7.802,21.303,20.603,21.303
		c7.101,0,13.801-3.301,20.802-8.201V2963.199z M1743.251,2942.098l-11.603-10.9l-11.5,10.9h-8.101l15.399-15.802h8.501l15.4,15.802
		H1743.251z"/>
	<path fill="#231F20" d="M272.67,3271.302c-8.399,7-16.101,10-24.301,10c-16.802,0-26.702-12.9-26.702-29.002
		c0-16.101,9.9-29.002,26.702-29.002c8.2,0,15.9,3,24.301,10.002l-0.398-8.002h9.3v51.604c0,14.902-13.801,22.201-31.201,22.201
		c-8.801,0-16.802-1.601-23.102-4.299l-0.602-7.502c6.4,2.801,14.401,4.7,22.303,4.7c13.7,0,23.7-4.801,23.7-15.102V3271.302z
		 M272.271,3239.199c-7.001-4.899-13.701-8.201-20.802-8.201c-12.802,0-20.603,9-20.603,21.302c0,12.301,7.801,21.303,20.603,21.303
		c7.101,0,13.801-3.301,20.802-8.201V3239.199z M258.97,3198.798l-1.9,19.7h-8.2l3.101-19.7H258.97z"/>
	<path fill="#231F20" d="M515.338,3280.102V3246.8c0-9.5-6-15-15.302-15c-6.101,0-14.7,3.5-21.7,9v39.303h-9.2v-60.104h-8.801
		v-6.502h8.801v-8.399h9.2v8.399h15.399v6.502h-15.399v6.101l-0.4,8.603c8.801-7.4,18.201-10.603,25.802-10.603
		c13.301,0,20.901,8.201,20.901,21.301v34.703H515.338z"/>
	<path fill="#231F20" d="M739.405,3198.896h-10.201l-12.699-8.102l-12.701,8.102h-10.2l17.4-13.201h10.9L739.405,3198.896z
		 M758.007,3280.102V3246.8c0-9.5-6-15-15.302-15c-6.101,0-14.7,3.5-21.7,9v39.303h-9.201v-75.006h9.201v21.002l-0.4,8.602
		c8.801-7.399,18.201-10.602,25.802-10.602c13.301,0,20.901,8.2,20.901,21.301v34.703H758.007L758.007,3280.102z"/>
	<path fill="#231F20" d="M959.173,3218.098h-8.501l13.601-15.802h10.501L959.173,3218.098z M954.471,3280.102v-54.805h9.201v54.805
		H954.471z"/>
	<path fill="#231F20" d="M1174.542,3202.298c0,11.198-6.9,17.301-17.302,17.301c-10.301,0-17.201-6.103-17.201-17.301h7.302
		c0,7.899,4.199,11.198,9.899,11.198c5.8,0,10-3.299,10-11.198H1174.542z M1152.54,3280.102v-54.805h9.2v54.805H1152.54z"/>
	<path fill="#231F20" d="M1369.609,3218.098l-11.601-10.9l-11.501,10.9h-8.102l15.401-15.802h8.5l15.401,15.802H1369.609z
		 M1353.309,3280.102v-54.805h9.2v54.805H1353.309z"/>
	<path fill="#231F20" d="M1546.775,3217.396v-13.5h8.001v13.5H1546.775z M1552.775,3280.102v-54.805h9.201v54.805H1552.775z
		 M1560.076,3217.396v-13.5h8.001v13.5H1560.076z"/>
	<path fill="#231F20" d="M1749.546,3280.102v-54.805h9.199v54.805H1749.546z"/>
	<path fill="#231F20" d="M229.668,3494.098l-16.201-15.802h9.9l14.201,15.802H229.668z M224.467,3556.102v-54.805h9.201v54.805
		H224.467z"/>
	<path fill="#231F20" d="M396.627,3489.396v-6.5h23.002v6.5H396.627z M403.527,3556.102v-54.805h9.2v54.805H403.527z"/>
	<path fill="#231F20" d="M591.187,3581.002c-3.1,1-6.6,1.9-11.2,1.9c-7.899,0-12.899-4.5-12.899-11.301
		c0-7,5.398-13.801,15.5-18.201v-52.104h9.2v54.403l0.101,0.4c-11.4,2.6-17.302,8.5-17.302,13.7c0,3.601,2.7,6.601,8.102,6.601
		c3.4,0,6.5-0.899,9.2-1.899L591.187,3581.002z M582.587,3493.396v-13.5h9.2v13.5H582.587z"/>
	<path fill="#231F20" d="M790.147,3478.896c-0.399,9.301-5.5,14.9-12.301,14.9c-9.2,0-12.2-9-17.501-9c-4,0-5.7,2.801-6.102,8.2
		h-7.1c0.399-9.301,5.1-14.901,12.301-14.901c9.2,0,12.102,8.899,17.501,8.899c4,0,5.8-2.699,6.2-8.101h7.001V3478.896z
		 M763.946,3556.102v-54.805h9.2v54.805H763.946z"/>
	<path fill="#231F20" d="M945.404,3501.298h9.201v53.004c0,15.399-12.701,20.301-29.702,19.602l-0.6-7.2
		c12.399,0.301,21.101-3,21.101-12.4V3501.298z M961.605,3494.098l-11.601-10.9l-11.501,10.9h-8.101l15.4-15.802h8.501
		l15.399,15.802H961.605z"/>
	<path fill="#231F20" d="M1170.366,3556.102L1142.064,3530l-8.4,6.199v19.902h-9.2v-75.805h9.2v46.502l33.103-25.502h11.801
		l-29.602,22.902l33.201,31.901h-11.801V3556.102z M1143.864,3582.104l1.9-19.701h8.2l-3.101,19.701H1143.864z"/>
	<path fill="#231F20" d="M1350.624,3474.896h-9.7l16.801-13.201h12.901L1350.624,3474.896z M1376.825,3555.502
		c-4,1.601-11.101,2.601-15.201,2.601c-12.301,0-17.9-7-17.9-17.402v-59.604h9.201v57.805c0,6.801,3.3,11.5,11.699,11.5
		c3.501,0,9.401-1,12.802-2.5L1376.825,3555.502z"/>
	<path fill="#231F20" d="M1571.785,3555.502c-4,1.601-11.101,2.601-15.2,2.601c-12.302,0-17.9-7-17.9-17.402v-59.604h9.2v57.805
		c0,6.801,3.3,11.5,11.699,11.5c3.501,0,9.401-1,12.802-2.5L1571.785,3555.502z M1554.284,3496.098l1.4-21.802h7.8l-2.6,21.802
		H1554.284z"/>
	<path fill="#231F20" d="M1766.745,3555.502c-4,1.601-11.101,2.601-15.201,2.601c-12.301,0-17.9-7-17.9-17.402v-59.604h9.201v57.805
		c0,6.801,3.3,11.5,11.699,11.5c3.502,0,9.401-1,12.802-2.5L1766.745,3555.502z M1743.443,3582.104l1.9-19.701h8.2l-3.101,19.701
		H1743.443z"/>
	<path fill="#231F20" d="M257.569,3831.502c-4,1.601-11.101,2.601-15.201,2.601c-12.301,0-17.901-7-17.901-17.402v-59.604h9.201
		v57.805c0,6.801,3.301,11.5,11.7,11.5c3.501,0,9.401-1,12.801-2.5L257.569,3831.502z M246.869,3801.699v-16.701h9.2v16.701H246.869
		z"/>
	<path fill="#231F20" d="M484.767,3831.502c-4,1.601-11.102,2.601-15.201,2.601c-12.301,0-17.901-7-17.901-17.402v-18.2
		l-9.399,2.199v-6.899l9.399-2.201v-34.502h9.201v32.303l19.001-4.6v6.899l-19.001,4.601v18.602c0,6.802,3.3,11.5,11.7,11.5
		c3.501,0,9.401-1,12.801-2.5L484.767,3831.502z"/>
	<path fill="#231F20" d="M725.862,3832.102v-34.104c0-9.5-6-15-15.301-15c-6.102,0-14.701,3.5-21.701,9v40.104h-9.2v-54.805h9.2
		l-0.4,8.602c8.802-7.399,18.201-10.602,25.803-10.602c13.301,0,20.9,8.2,20.9,21.303v35.502H725.862z M704.562,3770.098h-8.501
		l13.601-15.802h10.501L704.562,3770.098z"/>
	<path fill="#231F20" d="M981.259,3832.102v-34.104c0-9.5-6-15-15.302-15c-6.101,0-14.7,3.5-21.7,9v40.104h-9.201v-54.805h9.201
		l-0.4,8.602c8.801-7.399,18.201-10.602,25.802-10.602c13.302,0,20.901,8.2,20.901,21.303v35.502H981.259z M966.357,3770.098h-9.301
		l-15.001-15.802h8.7l10.9,10.302l11-10.302h8.701L966.357,3770.098z"/>
	<path fill="#231F20" d="M1236.654,3832.102v-34.104c0-9.5-6-15-15.301-15c-6.101,0-14.701,3.5-21.701,9v40.104h-9.201v-54.805
		h9.201l-0.399,8.602c8.801-7.399,18.2-10.602,25.802-10.602c13.301,0,20.9,8.2,20.9,21.303v35.502H1236.654z M1212.653,3858.104
		l1.899-19.701h8.201l-3.102,19.701H1212.653z"/>
	<path fill="#231F20" d="M1492.052,3832.102v-34.104c0-9.5-6-15-15.301-15c-6.102,0-14.701,3.5-21.701,9v40.104h-9.201v-54.805
		h9.201l-0.4,8.602c8.801-7.399,18.201-10.602,25.802-10.602c13.302,0,20.901,8.2,20.901,21.303v35.502H1492.052z
		 M1494.552,3754.896c-0.399,9.301-5.5,14.9-12.301,14.9c-9.2,0-12.2-9-17.502-9c-4,0-5.699,2.801-6.101,8.2h-7.1
		c0.398-9.301,5.1-14.901,12.301-14.901c9.2,0,12.101,8.899,17.501,8.899c4,0,5.8-2.699,6.2-8.101h7.001V3754.896z"/>
	<path fill="#231F20" d="M1730.146,3834.102c-19.302,0-31.902-11.701-31.902-29.402s12.602-29.401,31.902-29.401
		s31.901,11.7,31.901,29.401S1749.446,3834.102,1730.146,3834.102z M1730.146,3782.998c-13.801,0-22.701,8.601-22.701,21.701
		c0,13.102,8.9,21.701,22.701,21.701s22.701-8.6,22.701-21.701C1752.847,3791.598,1743.946,3782.998,1730.146,3782.998z
		 M1728.346,3770.098h-8.501l13.601-15.802h10.501L1728.346,3770.098z"/>
	<path fill="#231F20" d="M253.369,4110.103c-19.301,0-31.902-11.701-31.902-29.403c0-17.7,12.603-29.401,31.902-29.401
		s31.902,11.7,31.902,29.401C285.271,4098.402,272.67,4110.103,253.369,4110.103z M253.369,4058.998
		c-13.801,0-22.701,8.601-22.701,21.701c0,13.102,8.9,21.701,22.701,21.701s22.701-8.6,22.701-21.701
		C276.07,4067.598,267.17,4058.998,253.369,4058.998z M270.57,4030.298c0,11.198-6.9,17.301-17.301,17.301
		c-10.301,0-17.201-6.103-17.201-17.301h7.3c0,7.899,4.2,11.198,9.901,11.198c5.8,0,10-3.299,10-11.198H270.57z"/>
	<path fill="#231F20" d="M499.449,4110.103c-19.301,0-31.901-11.701-31.901-29.403c0-17.7,12.602-29.401,31.901-29.401
		s31.902,11.7,31.902,29.401C531.351,4098.402,518.751,4110.103,499.449,4110.103z M499.449,4058.998
		c-13.801,0-22.701,8.601-22.701,21.701c0,13.102,8.9,21.701,22.701,21.701c13.802,0,22.701-8.6,22.701-21.701
		C522.15,4067.598,513.251,4058.998,499.449,4058.998z M510.95,4046.098l-11.601-10.9l-11.501,10.9h-8.102l15.4-15.802h8.501
		l15.401,15.802H510.95z"/>
	<path fill="#231F20" d="M745.528,4110.103c-19.302,0-31.901-11.701-31.901-29.403c0-17.7,12.601-29.401,31.901-29.401
		s31.901,11.7,31.901,29.401C777.429,4098.402,764.829,4110.103,745.528,4110.103z M745.528,4058.998
		c-13.801,0-22.701,8.601-22.701,21.701c0,13.102,8.9,21.701,22.701,21.701s22.701-8.6,22.701-21.701
		C768.229,4067.598,759.329,4058.998,745.528,4058.998z M728.228,4045.396v-13.5h9.2v13.5H728.228z M753.528,4045.396v-13.5h9.201
		v13.5H753.528z"/>
	<path fill="#231F20" d="M991.607,4110.103c-19.301,0-31.902-11.701-31.902-29.403c0-17.7,12.603-29.401,31.902-29.401
		s31.902,11.7,31.902,29.401C1023.51,4098.402,1010.908,4110.103,991.607,4110.103z M991.607,4058.998
		c-13.801,0-22.701,8.601-22.701,21.701c0,13.102,8.9,21.701,22.701,21.701s22.701-8.6,22.701-21.701
		C1014.308,4067.598,1005.408,4058.998,991.607,4058.998z M993.509,4046.098l-16.201-15.802h9.9l14.2,15.802H993.509z"/>
	<path fill="#231F20" d="M1237.688,4110.103c-19.301,0-31.902-11.701-31.902-29.403c0-17.7,12.603-29.401,31.902-29.401
		s31.902,11.7,31.902,29.401C1269.591,4098.402,1256.988,4110.103,1237.688,4110.103z M1237.688,4058.998
		c-13.801,0-22.701,8.601-22.701,21.701c0,13.102,8.9,21.701,22.701,21.701s22.701-8.6,22.701-21.701
		C1260.389,4067.598,1251.488,4058.998,1237.688,4058.998z M1218.687,4046.098l11.801-15.802h9.9l-13.401,15.802H1218.687z
		 M1241.688,4046.098l11.801-15.802h9.9l-13.4,15.802H1241.688z"/>
	<path fill="#231F20" d="M1483.767,4110.103c-19.302,0-31.902-11.701-31.902-29.403c0-17.7,12.602-29.401,31.902-29.401
		s31.901,11.7,31.901,29.401C1515.669,4098.402,1503.067,4110.103,1483.767,4110.103z M1483.767,4058.998
		c-13.801,0-22.701,8.601-22.701,21.701c0,13.102,8.9,21.701,22.701,21.701s22.701-8.6,22.701-21.701
		C1506.469,4067.598,1497.567,4058.998,1483.767,4058.998z M1466.467,4041.396v-6.5h34.602v6.5H1466.467z"/>
	<path fill="#231F20" d="M1729.846,4110.103c-19.301,0-31.902-11.701-31.902-29.403c0-17.7,12.603-29.401,31.902-29.401
		s31.901,11.7,31.901,29.401C1761.748,4098.402,1749.146,4110.103,1729.846,4110.103z M1729.846,4058.998
		c-13.801,0-22.701,8.601-22.701,21.701c0,13.102,8.9,21.701,22.701,21.701s22.701-8.6,22.701-21.701
		C1752.548,4067.598,1743.646,4058.998,1729.846,4058.998z M1751.347,4030.896c-0.399,9.301-5.5,14.9-12.301,14.9
		c-9.2,0-12.2-9-17.501-9c-4,0-5.7,2.801-6.102,8.2h-7.1c0.398-9.301,5.1-14.901,12.301-14.901c9.2,0,12.102,8.899,17.501,8.899
		c4,0,5.8-2.699,6.2-8.101h7.001V4030.896z"/>
	<path fill="#231F20" d="M224.467,4384.103v-54.806h9.201l-0.399,8.603c8.801-7.399,22.502-11.399,31.702-10.201l-0.801,8.899
		c-9.301-2-23.502,1.9-30.502,7.4v40.104L224.467,4384.103L224.467,4384.103z M240.969,4322.099h-8.502l13.602-15.801h10.501
		L240.969,4322.099z"/>
	<path fill="#231F20" d="M453.15,4322.099h-9.301l-15.001-15.801h8.7l10.9,10.301l11-10.301h8.701L453.15,4322.099z
		 M430.449,4384.103v-54.806h9.2l-0.4,8.603c8.802-7.399,22.503-11.399,31.702-10.201l-0.8,8.899c-9.301-2-23.502,1.9-30.502,7.4
		v40.104L430.449,4384.103L430.449,4384.103z"/>
	<path fill="#231F20" d="M634.729,4410.104l1.899-19.701h8.2l-3.101,19.701H634.729z M636.43,4384.103v-54.806h9.2l-0.4,8.603
		c8.801-7.399,22.502-11.399,31.702-10.201l-0.8,8.899c-9.302-2-23.502,1.9-30.502,7.4v40.104L636.43,4384.103L636.43,4384.103z"/>
	<path fill="#231F20" d="M838.012,4374c8.001,3.701,19.302,4.801,24.802,4.801c10.4,0,19.103-2.1,19.103-9.5
		c0-16.701-45.104-0.602-45.104-25.502c0-13.102,14.801-16.502,27.401-16.502c5.699,0,16.7,1.103,24.102,4.201v7.9
		c-7.4-3.701-19.001-4.801-23.702-4.801c-9.399,0-18.701,1.5-18.701,8.801c0,16.701,45.104,0.301,45.104,25.201
		c0,13.102-14.201,17.502-27.802,17.502c-6.102,0-17.303-1-24.502-4.201L838.012,4374z M861.514,4322.099h-8.501l13.602-15.801h10.5
		L861.514,4322.099z"/>
	<path fill="#231F20" d="M1056.194,4374c8.001,3.701,19.302,4.801,24.802,4.801c10.4,0,19.103-2.1,19.103-9.5
		c0-16.701-45.104-0.602-45.104-25.502c0-13.102,14.803-16.502,27.402-16.502c5.7,0,16.701,1.103,24.103,4.201v7.9
		c-7.4-3.701-19.002-4.801-23.702-4.801c-9.4,0-18.701,1.5-18.701,8.801c0,16.701,45.104,0.301,45.104,25.201
		c0,13.102-14.201,17.502-27.802,17.502c-6.101,0-17.302-1-24.502-4.201L1056.194,4374z M1086.097,4322.099h-9.301l-15.001-15.801
		h8.699l10.901,10.301l11-10.301h8.701L1086.097,4322.099z"/>
	<path fill="#231F20" d="M1274.379,4374c8.001,3.701,19.302,4.801,24.802,4.801c10.4,0,19.102-2.1,19.102-9.5
		c0-16.701-45.104-0.602-45.104-25.502c0-13.102,14.802-16.502,27.402-16.502c5.699,0,16.7,1.103,24.102,4.201v7.9
		c-7.4-3.701-19.001-4.801-23.702-4.801c-9.399,0-18.701,1.5-18.701,8.801c0,16.701,45.104,0.301,45.104,25.201
		c0,13.102-14.201,17.502-27.803,17.502c-6.101,0-17.302-1-24.502-4.201L1274.379,4374z M1286.179,4404.002
		c5.2,0.9,9.601,1.201,12.701,1.201c6.3,0,9.101-1.602,9.101-4.701c0-3.099-2.801-4.699-9.101-4.699
		c-3.102,0-7.501,0.299-12.701,1.199v-5.5c4.7-0.899,8.899-1.399,12.501-1.399c11.501,0,16.301,4,16.301,10.399
		c0,6.4-4.8,10.4-16.301,10.4c-3.602,0-7.801-0.5-12.501-1.4V4404.002z"/>
	<path fill="#231F20" d="M1492.561,4374c8.001,3.701,19.302,4.801,24.802,4.801c10.4,0,19.103-2.1,19.103-9.5
		c0-16.701-45.104-0.602-45.104-25.502c0-13.102,14.801-16.502,27.401-16.502c5.7,0,16.701,1.103,24.102,4.201v7.9
		c-7.399-3.701-19.001-4.801-23.702-4.801c-9.399,0-18.7,1.5-18.7,8.801c0,16.701,45.104,0.301,45.104,25.201
		c0,13.102-14.201,17.502-27.802,17.502c-6.102,0-17.302-1-24.502-4.201L1492.561,4374z M1529.363,4322.099l-11.601-10.899
		l-11.501,10.899h-8.101l15.4-15.801h8.5l15.401,15.801H1529.363z"/>
	<path fill="#231F20" d="M1710.744,4374c8.001,3.701,19.303,4.801,24.803,4.801c10.399,0,19.102-2.1,19.102-9.5
		c0-16.701-45.103-0.602-45.103-25.502c0-13.102,14.801-16.502,27.4-16.502c5.7,0,16.701,1.103,24.103,4.201v7.9
		c-7.4-3.701-19.001-4.801-23.702-4.801c-9.4,0-18.701,1.5-18.701,8.801c0,16.701,45.104,0.301,45.104,25.201
		c0,13.102-14.2,17.502-27.802,17.502c-6.101,0-17.302-1-24.502-4.201L1710.744,4374z M1731.547,4410.104l1.899-19.701h8.2
		l-3.101,19.701H1731.547z"/>
	<path fill="#231F20" d="M273.17,4657.701c-4.899,2.301-12,4.4-19.301,4.4c-13.001,0-20.302-7.201-20.302-19.502V4632h-10v-6.502h10
		v-12.5h-14.9v-7.701h14.9v-8.6l9.201-6.6v15.199h31.102v7.701h-31.102v12.5h21.301V4632h-21.301v8.801
		c0,8.699,5,13.601,14.301,13.601c6,0,12.801-2.299,16.801-4.399L273.17,4657.701z"/>
	<path fill="#231F20" d="M516.033,4657.701c-4.899,2.301-12,4.4-19.301,4.4c-13.001,0-20.302-7.201-20.302-19.502v-29.602h-14.9
		v-7.701h14.9v-8.601l9.201-6.601v15.199h31.102v7.701h-31.102v27.804c0,8.699,5,13.601,14.301,13.601c6,0,12.801-2.299,16.801-4.4
		L516.033,4657.701z M492.032,4600.099l1.4-21.801h7.8l-2.6,21.801H492.032z"/>
	<path fill="#231F20" d="M758.897,4657.701c-4.9,2.301-12,4.4-19.301,4.4c-13.001,0-20.303-7.201-20.303-19.502v-29.602h-14.899
		v-7.701h14.899v-8.601l9.201-6.601v15.199h31.103v7.701h-31.103v27.804c0,8.699,5,13.601,14.302,13.601
		c6,0,12.801-2.299,16.801-4.4L758.897,4657.701z M723.797,4680.002c5.199,0.9,9.601,1.201,12.699,1.201
		c6.302,0,9.102-1.602,9.102-4.701c0-3.099-2.8-4.699-9.102-4.699c-3.1,0-7.5,0.299-12.699,1.199v-5.5
		c4.699-0.899,8.899-1.399,12.501-1.399c11.5,0,16.301,4,16.301,10.399c0,6.4-4.801,10.4-16.301,10.4c-3.602,0-7.802-0.5-12.501-1.4
		V4680.002z"/>
	<path fill="#231F20" d="M1001.761,4657.701c-4.9,2.301-12,4.4-19.302,4.4c-13,0-20.302-7.201-20.302-19.502v-29.602h-14.899v-7.701
		h14.899v-8.601l9.201-6.601v15.199h31.103v7.701h-31.103v27.804c0,8.699,5,13.601,14.301,13.601c6,0,12.802-2.299,16.802-4.4
		L1001.761,4657.701z M973.76,4686.104l1.898-19.701h8.201l-3.101,19.701H973.76z"/>
	<path fill="#231F20" d="M1242.124,4660.103l0.4-8.603c-8.801,7.4-18.102,10.603-25.702,10.603
		c-13.399,0-20.899-8.201-20.899-21.301v-35.504h9.199v34.104c0,9.5,6,15,15.4,15c6.101,0,14.602-3.5,21.602-9v-40.104h9.302v54.806
		L1242.124,4660.103L1242.124,4660.103z M1222.823,4598.099h-8.501l13.603-15.801h10.5L1222.823,4598.099z"/>
	<path fill="#231F20" d="M1495.787,4660.103l0.4-8.603c-8.801,7.4-18.103,10.603-25.702,10.603c-13.4,0-20.9-8.201-20.9-21.301
		v-35.504h9.2v34.104c0,9.5,6,15,15.4,15c6.101,0,14.603-3.5,21.603-9v-40.104h9.301v54.806L1495.787,4660.103L1495.787,4660.103z
		 M1494.888,4582.297c0,11.199-6.901,17.301-17.302,17.301c-10.302,0-17.201-6.102-17.201-17.301h7.301c0,7.9,4.2,11.199,9.9,11.199
		c5.801,0,10-3.299,10-11.199H1494.888z"/>
	<path fill="#231F20" d="M1749.449,4660.103l0.4-8.603c-8.801,7.4-18.103,10.603-25.702,10.603c-13.4,0-20.901-8.201-20.901-21.301
		v-35.504h9.201v34.104c0,9.5,6,15,15.4,15c6.101,0,14.602-3.5,21.602-9v-40.104h9.302v54.806L1749.449,4660.103L1749.449,4660.103z
		 M1742.849,4598.099l-11.601-10.899l-11.5,10.899h-8.102l15.4-15.801h8.501l15.399,15.801H1742.849z"/>
	<path fill="#231F20" d="M270.67,4936.103l0.4-8.601c-8.801,7.4-18.102,10.601-25.702,10.601c-13.399,0-20.901-8.201-20.901-21.301
		V4881.3h9.201v34.103c0,9.5,6,15,15.4,15c6.101,0,14.602-3.5,21.602-9V4881.3h9.302v54.804L270.67,4936.103L270.67,4936.103z
		 M234.868,4873.398v-13.502h9.2v13.502H234.868z M260.17,4873.398v-13.502h9.2v13.502H260.17z"/>
	<path fill="#231F20" d="M517.135,4936.103l0.399-8.601c-8.801,7.4-18.102,10.601-25.701,10.601c-13.4,0-20.9-8.201-20.9-21.301
		V4881.3h9.2v34.103c0,9.5,6,15,15.399,15c6.102,0,14.603-3.5,21.603-9V4881.3h9.301v54.804L517.135,4936.103L517.135,4936.103z
		 M498.933,4874.099l-16.201-15.801h9.901l14.199,15.801H498.933z"/>
	<path fill="#231F20" d="M763.597,4936.103l0.399-8.601c-8.801,7.4-18.102,10.601-25.701,10.601c-13.4,0-20.9-8.201-20.9-21.301
		V4881.3h9.2v34.103c0,9.5,6,15,15.399,15c6.102,0,14.603-3.5,21.603-9V4881.3h9.301v54.804L763.597,4936.103L763.597,4936.103z
		 M726.095,4874.099l11.801-15.801h9.9l-13.4,15.801H726.095z M749.096,4874.099l11.801-15.801h9.9l-13.4,15.801H749.096z"/>
	<path fill="#231F20" d="M1010.061,4936.103l0.4-8.601c-8.802,7.4-18.103,10.601-25.702,10.601c-13.4,0-20.901-8.201-20.901-21.301
		V4881.3h9.201v34.103c0,9.5,6,15,15.4,15c6.101,0,14.602-3.5,21.602-9V4881.3h9.301v54.804L1010.061,4936.103L1010.061,4936.103z
		 M974.158,4869.398v-6.502h34.604v6.502H974.158z"/>
	<path fill="#231F20" d="M1265.126,4961.004c-3.101,1-6.602,1.898-11.2,1.898c-7.9,0-12.901-4.5-12.901-11.301
		c0-7,5.4-13.801,15.603-18.199l0.3-5.9c-8.801,7.4-18.103,10.601-25.702,10.601c-13.4,0-20.9-8.201-20.9-21.301V4881.3h9.2v34.103
		c0,9.5,6,15,15.4,15c6.101,0,14.602-3.5,21.602-9V4881.3h9.301v54.804c-11.399,2.6-17.301,8.5-17.301,13.701
		c0,3.6,2.7,6.6,8.102,6.6c3.398,0,6.5-0.9,9.199-1.9L1265.126,4961.004z"/>
	<path fill="#231F20" d="M1502.987,4936.103l0.4-8.601c-8.801,7.4-18.103,10.601-25.702,10.601c-13.4,0-20.9-8.201-20.9-21.301
		V4881.3h9.2v34.103c0,9.5,6,15,15.4,15c6.101,0,14.602-3.5,21.602-9V4881.3h9.301v54.804L1502.987,4936.103L1502.987,4936.103z
		 M1484.387,4876.099c-10.102,0-15.401-4.699-15.401-10.301c0-5.601,5.301-10.301,15.401-10.301
		c10.199,0,15.501,4.701,15.501,10.301C1499.888,4871.398,1494.588,4876.099,1484.387,4876.099z M1484.387,4860.496
		c-5.602,0-8.701,2.201-8.701,5.301c0,3.103,3.101,5.301,8.701,5.301c5.699,0,8.8-2.199,8.8-5.301
		C1493.187,4862.697,1490.088,4860.496,1484.387,4860.496z"/>
	<path fill="#231F20" d="M1749.451,4936.103l0.4-8.601c-8.801,7.4-18.103,10.601-25.702,10.601c-13.4,0-20.9-8.201-20.9-21.301
		V4881.3h9.2v34.103c0,9.5,6,15,15.4,15c6.101,0,14.603-3.5,21.603-9V4881.3h9.301v54.804L1749.451,4936.103L1749.451,4936.103z
		 M1752.352,4858.896c-0.4,9.301-5.5,14.9-12.301,14.9c-9.2,0-12.201-9-17.501-9c-4,0-5.7,2.801-6.102,8.201h-7.101
		c0.4-9.301,5.101-14.9,12.301-14.9c9.201,0,12.102,8.9,17.501,8.9c4.001,0,5.802-2.701,6.201-8.103L1752.352,4858.896
		L1752.352,4858.896z"/>
	<path fill="#231F20" d="M295.271,5212.103l-21.103-44.304l-20.7,44.304h-8.9l-25.302-54.804h10.4l20.001,44.103l20.901-44.103h8.5
		l20.901,44.103l19.602-44.103h9.601l-24.9,54.804H295.271z M273.771,5150.099h-8.501l13.602-15.801h10.5L273.771,5150.099z"/>
	<path fill="#231F20" d="M599.947,5212.103l-21.102-44.304l-20.701,44.304h-8.9l-25.302-54.804h10.401l20.001,44.103l20.9-44.103
		h8.5l20.901,44.103l19.602-44.103h9.602l-24.901,54.804H599.947z M590.347,5150.099l-11.602-10.899l-11.501,10.899h-8.101
		l15.401-15.801h8.5l15.4,15.801H590.347z"/>
	<path fill="#231F20" d="M904.623,5212.103l-21.102-44.304l-20.701,44.304h-8.899l-25.303-54.804h10.401l20.001,44.103
		l20.901-44.103h8.5l20.9,44.103l19.603-44.103h9.601l-24.901,54.804H904.623z M866.221,5149.398v-13.502h9.201v13.502H866.221z
		 M891.522,5149.398v-13.502h9.2v13.502H891.522z"/>
	<path fill="#231F20" d="M1209.3,5212.103l-21.103-44.304l-20.701,44.304h-8.899l-25.303-54.804h10.401l20.001,44.103l20.901-44.103
		h8.5l20.9,44.103l19.603-44.103h9.601l-24.901,54.804H1209.3z M1188.499,5150.099l-16.201-15.801h9.899l14.201,15.801H1188.499z"/>
	<path fill="#231F20" d="M1437.97,5157.299h10.4l23.201,45.002l22.302-45.002h9.7l-27.702,54.304
		c-6.699,13-13.801,19.502-24.2,19.502c-4.2,0-7.7-0.603-10.602-1.301l-0.7-8.301c2.602,0.899,7.002,1.801,10.502,1.801
		c6.3,0,11-4.5,15.5-11.899L1437.97,5157.299z M1470.372,5150.099h-8.501l13.603-15.801h10.5L1470.372,5150.099z"/>
	<path fill="#231F20" d="M1698.345,5157.299h10.4l23.201,45.002l22.302-45.002h9.7l-27.702,54.304
		c-6.699,13-13.801,19.502-24.2,19.502c-4.2,0-7.7-0.603-10.602-1.301l-0.7-8.301c2.602,0.899,7.002,1.801,10.502,1.801
		c6.3,0,11-4.5,15.5-11.899L1698.345,5157.299z M1742.647,5150.099l-11.601-10.899l-11.5,10.899h-8.102l15.4-15.801h8.501
		l15.4,15.801H1742.647z"/>
	<path fill="#231F20" d="M219.267,5433.299h10.4l23.201,45.002l22.301-45.002h9.701l-27.702,54.304
		c-6.699,13-13.801,19.502-24.2,19.502c-4.2,0-7.7-0.603-10.602-1.301l-0.7-8.301c2.602,0.899,7.001,1.801,10.501,1.801
		c6.301,0,11-4.5,15.501-11.899L219.267,5433.299z M234.768,5425.398v-13.502h9.201v13.502H234.768z M260.069,5425.398v-13.502h9.2
		v13.502H260.069z"/>
	<path fill="#231F20" d="M440.467,5433.299h10.4l23.201,45.002l22.301-45.002h9.701l-27.702,54.304
		c-6.699,13-13.801,19.502-24.201,19.502c-4.199,0-7.699-0.603-10.601-1.301l-0.7-8.301c2.602,0.899,7.001,1.801,10.501,1.801
		c6.3,0,11-4.5,15.501-11.899L440.467,5433.299z M472.969,5426.099l-16.2-15.801h9.9l14.2,15.801H472.969z"/>
	<path fill="#231F20" d="M662.267,5488.103v-6.601l38.603-40.504h-38.201v-7.699h51.402v6.601l-39.203,40.502h39.203v7.701H662.267z
		 M687.769,5426.099h-8.501l13.601-15.801h10.501L687.769,5426.099z"/>
	<path fill="#231F20" d="M873.968,5488.103v-6.601l38.603-40.504h-38.202v-7.699h51.403v6.601l-39.203,40.502h39.203v7.701H873.968z
		 M904.869,5426.099h-9.301l-15.001-15.801h8.7l10.901,10.301l11-10.301h8.7L904.869,5426.099z"/>
	<path fill="#231F20" d="M1085.667,5488.103v-6.601l38.604-40.504h-38.202v-7.699h51.403v6.601l-39.203,40.502h39.203v7.701
		H1085.667z M1107.269,5425.398v-13.502h9.2v13.502H1107.269z"/>
	<path fill="#231F20" d="M1396.073,5485.801c-6.5,3.201-16.501,4.301-22.302,4.301c-12.9,0-22.201-4.699-27.201-12.701
		c-10.7,9.103-24.102,12.701-33.102,12.701c-8.802,0-16.103-3.6-16.103-12.301c0-11.899,16.501-18.899,44.903-18.899v-8.103
		c0-7.399-5.9-11.801-16.701-11.801c-6.4,0-17.901,2-25.702,6l0.601-7.899c7.602-3.799,19.602-5.799,26.201-5.799
		c11.4,0,18.701,3.5,22.302,9.301c5-5.899,12.802-9.301,22.802-9.301c19.802,0,30.803,13.101,26.702,33.399h-46.903
		c1.5,11.103,9.201,17.902,23.401,17.902c6.001,0,15.602-1,21.802-4.102L1396.073,5485.801z M1344.47,5473.301
		c-1.101-2.701-1.699-5.6-2-8.801c-19.701,0.101-35.302,3.4-35.302,12c0,5.603,4.899,7.502,10.801,7.502
		C1324.369,5484.002,1334.671,5480.502,1344.47,5473.301z M1346.37,5426.099h-8.5l13.602-15.801h10.501L1346.37,5426.099z
		 M1351.271,5458.299h38.803c1.399-11.399-5.001-20-18.302-20C1358.871,5438.299,1351.971,5446.199,1351.271,5458.299z"/>
</g>
</svg>
