<?xml version="1.0" encoding="utf-8"?>
<!-- Generator: Adobe Illustrator 16.0.3, SVG Export Plug-In . SVG Version: 6.00 Build 0)  -->
<!DOCTYPE svg PUBLIC "-//W3C//DTD SVG 1.1//EN" "http://www.w3.org/Graphics/SVG/1.1/DTD/svg11.dtd">
<svg version="1.1" id="Layer_1" xmlns="http://www.w3.org/2000/svg" xmlns:xlink="http://www.w3.org/1999/xlink" x="0px" y="0px"
	 width="1555.284px" height="4769.006px" viewBox="209.566 167.096 1555.284 4769.006"
	 enable-background="new 209.566 167.096 1555.284 4769.006" xml:space="preserve">
<g>
	<path fill="#231F20" d="M296.571,244.101L286.97,225.6h-47.902l-9.501,18.501h-10.301l39.303-75.005h9.7l39.303,75.005H296.571z
		 M243.168,217.5h39.703l-19.9-38.604L243.168,217.5z"/>
	<path fill="#231F20" d="M477.097,244.101v-75.005H516.8c22.602,0,32.002,7.201,32.002,19.401c0,8.899-5.8,15.501-16.501,17.501
		c12.001,1.699,18.502,8.399,18.502,18.001c0,12.501-9.401,20.102-32.402,20.102H477.097z M486.697,176.497v26.002H516.8
		c15.102,0,22.002-4.602,22.002-13.001c0-8.302-6.9-13.001-22.002-13.001H486.697L486.697,176.497z M486.697,209.699v27.002h31.702
		c15.501,0,22.401-5.102,22.401-13.501c0-8.5-6.9-13.502-22.401-13.502L486.697,209.699L486.697,209.699z"/>
	<path fill="#231F20" d="M794.031,239c-8.101,4.7-19.001,7.101-28.802,7.101c-26.002,0-44.503-14.801-44.503-39.502
		c0-24.702,18.501-39.503,44.503-39.503c10.2,0,20.701,2.4,28.802,6.9v9.2c-8.101-5.2-18.102-8.001-28.401-8.001
		c-20.302,0-34.901,11.9-34.901,31.402c0,19.501,14.601,31.401,34.901,31.401c9.9,0,21.302-2.801,29.002-8L794.031,239z"/>
	<path fill="#231F20" d="M967.757,244.101v-75.005h34.803c26.602,0,44.902,13.602,44.902,37.503s-18.302,37.502-44.902,37.502
		H967.757z M1002.559,236c20.9,0,34.802-10.301,34.802-29.401c0-19.102-13.901-29.402-34.802-29.402h-25.202V236H1002.559z"/>
	<path fill="#231F20" d="M1220.587,244.101v-75.005h63.004v8.101h-53.403v24.603h47.604v8.101h-47.604V236h53.403v8.101H1220.587z"
		/>
	<path fill="#231F20" d="M1466.718,213.099v31.002h-9.602v-75.005h62.204v8.101h-52.604v27.803h46.803v8.101L1466.718,213.099
		L1466.718,213.099z"/>
	<path fill="#231F20" d="M1750.352,209.399h9.601v28.702c-8.801,5.601-21.4,8-31.202,8c-27.602,0-45.303-14.801-45.303-39.502
		c0-24.702,18.501-39.503,45.703-39.503c10.2,0,21.102,2.4,29.201,7.301v8.801c-8.101-5.2-18.501-8.001-28.802-8.001
		c-21.501,0-36.103,11.9-36.103,31.402c0,19.501,14.602,31.901,36.502,31.901c7.7,0,15.301-1.7,20.401-4.5L1750.352,209.399
		L1750.352,209.399z"/>
	<path fill="#231F20" d="M290.871,520.101v-34.202h-56.402v34.202h-9.602v-75.005h9.602v32.702h56.402v-32.702h9.602v75.005H290.871
		z"/>
	<path fill="#231F20" d="M484.414,520.101v-75.005h9.602v75.005H484.414z"/>
	<path fill="#231F20" d="M722.863,445.096h9.7v48.604c0,19.201-15.801,28.401-36.202,28.401c-6.7,0-15.001-1.1-21.701-3.2
		l-0.7-8.301c6.7,2.101,14.9,3.399,21.603,3.399c15.101,0,27.302-6.699,27.302-20.301L722.863,445.096L722.863,445.096z"/>
	<path fill="#231F20" d="M977.212,520.101l-42.804-35.002l-9.501,6.8v28.202h-9.601v-75.005h9.601v35.901l48.104-35.901h13.601
		l-45.003,33.803l49.203,41.202H977.212z"/>
	<path fill="#231F20" d="M1169.152,520.101v-75.005h9.601v66.903h48.804v8.102H1169.152z"/>
	<path fill="#231F20" d="M1489.505,520.101v-61.204l-36.002,43.203h-0.7l-36.402-43.203v61.204h-9.301v-75.005h8.7l37.401,44.203
		l36.902-44.203h8.701v75.005H1489.505z"/>
	<path fill="#231F20" d="M1749.648,520.101l-57.604-61.204v61.204h-9.301v-75.005h8.7l57.604,61.204v-61.204h9.301v75.005H1749.648z
		"/>
	<path fill="#231F20" d="M267.17,798.101c-26.2,0-44.303-15.201-44.303-39.502c0-24.302,18.103-39.503,44.303-39.503
		c26.201,0,44.304,15.201,44.304,39.503C311.473,782.9,293.371,798.101,267.17,798.101z M267.17,727.197
		c-20.102,0-34.302,11.9-34.302,31.402c0,19.501,14.2,31.4,34.302,31.4c20.103,0,34.303-11.899,34.303-31.4
		C301.472,739.097,287.271,727.197,267.17,727.197z"/>
	<path fill="#231F20" d="M487.331,771.9v24.201h-9.601v-75.005h40.202c22.802,0,32.502,11.101,32.502,25.4
		c0,14.303-9.7,25.402-32.502,25.402L487.331,771.9L487.331,771.9z M517.933,763.799c16.602,0,23.302-7.7,23.302-17.303
		c0-9.699-6.7-17.301-23.302-17.301h-30.603v34.604H517.933z"/>
	<path fill="#231F20" d="M781.897,792.499l21.301,19.003h-12.899l-17.401-15.401c-4.8,1.3-10,2-15.601,2
		c-26.201,0-44.304-15.201-44.304-39.502c0-24.302,18.103-39.503,44.304-39.503c26.2,0,44.303,15.201,44.303,39.503
		C801.599,774.199,794.098,785.999,781.897,792.499z M757.297,727.197c-20.103,0-34.303,11.9-34.303,31.402
		c0,19.501,14.2,31.4,34.303,31.4c20.102,0,34.302-11.899,34.302-31.4C791.598,739.097,777.397,727.197,757.297,727.197z"/>
	<path fill="#231F20" d="M1014.56,797.901c0.1,5.602,4.5,10.201,15.601,10.201c4.302,0,11.802-1.101,17.603-3.101l-0.801,8.7
		c-6,1.699-12.7,2.5-17.001,2.5c-19.602,0-24.802-9.301-24.901-18.302c-23.401-1.8-39.202-16.601-39.202-39.302
		c0-24.302,18.103-39.503,44.303-39.503c26.201,0,44.304,15.201,44.304,39.503C1054.463,781.499,1038.361,796.301,1014.56,797.901z
		 M1010.159,727.197c-20.102,0-34.302,11.9-34.302,31.402c0,19.501,14.2,31.4,34.302,31.4c20.103,0,34.303-11.899,34.303-31.4
		C1044.462,739.097,1030.261,727.197,1010.159,727.197z"/>
	<path fill="#231F20" d="M1282.322,796.101l-21.9-27.002h-30.103v27.002h-9.601v-75.005h40.202c23.4,0,32.502,9.501,32.502,23.602
		c0,12.201-7.301,21.603-22.102,23.901l22.603,27.502H1282.322z M1263.923,760.999c13.601,0,20.301-6.4,20.301-15.802
		c0-9.5-6.102-16.001-23.302-16.001h-30.603v31.803H1263.923z"/>
	<path fill="#231F20" d="M1457.282,783.1c10.001,5.001,22.701,6.899,32.202,6.899c14.001,0,28.002-3,28.002-13.5
		c0-22.102-61.804-4.2-61.804-35.702c0-16.9,19.001-21.701,36.9-21.701c8.901,0,20.603,1.399,31.304,5.501v8.899
		c-10.001-4.399-21.802-6.301-31.304-6.301c-13,0-27.301,2.9-27.301,13.301c0,21.901,61.805,3.802,61.805,35.902
		c0,16.901-18.401,21.701-37.202,21.701c-9.302,0-22.103-1.5-32.002-6.102L1457.282,783.1z"/>
	<path fill="#231F20" d="M1718.749,796.101v-66.904h-34.504v-8.101h78.705v8.101h-34.502v66.904H1718.749z"/>
	<path fill="#231F20" d="M290.371,997.096h9.301v43.403c0,22.5-16.7,33.602-37.803,33.602c-21.301,0-37.802-11.101-37.802-33.602
		v-43.403h9.601v42.503c0,17.9,12.4,26.4,28.502,26.4s28.201-8.5,28.201-26.4V997.096L290.371,997.096z"/>
	<path fill="#231F20" d="M541.245,1072.101l-38.901-75.005h11l33.202,63.604l33.002-63.604h10.301l-38.902,75.005H541.245z"/>
	<path fill="#231F20" d="M888.823,1072.101l-28.502-62.404l-28.4,62.404h-9.7l-34.702-75.005h11l28.902,62.704l28.4-62.704h9.7
		l28.603,62.704l28.701-62.704h10.301l-34.603,75.005H888.823z"/>
	<path fill="#231F20" d="M1197.599,1072.101l-27.202-30.502l-27.501,30.502h-11.901l33.702-37.104l-33.702-37.901h12.302
		l27.802,31.103l28.202-31.103h11.7l-34.202,37.702l33.401,37.303H1197.599z"/>
	<path fill="#231F20" d="M1447.072,1072.101v-27.802l-38.202-47.203h11.801l31.401,38.401l31.603-38.401h10.801l-37.802,47.203
		v27.802H1447.072z"/>
	<path fill="#231F20" d="M1692.546,1072.101v-7.602l54.604-59.304h-54.304v-8.101h67.704v7.601l-55.203,59.304h55.203v8.102
		H1692.546z"/>
	<path fill="#231F20" d="M295.771,1348.101V1329.6h-46.304l-18.9,18.501h-12.9l78.104-75.005h62.903v8.101h-53.304v24.603h47.503
		v8.101h-47.503v26.1h53.304v8.102H295.771z M257.77,1321.499h38.002v-37.103L257.77,1321.499z"/>
	<path fill="#231F20" d="M559.444,1286.497v61.604h-9.301v-75.005h8.7l57.604,61.604v-61.604h9.301v69.805
		c0,14.801-15.801,22.803-36.102,22.803c-6.501,0-12.501-0.802-19.002-3.002l-0.699-8.3c6.5,2.2,13.5,3.2,19.701,3.2
		c12.9,0,24.602-4.801,25.602-11.501L559.444,1286.497z"/>
	<path fill="#231F20" d="M819.22,1348.101v-43.003c0-20.302,16.501-32.002,37.603-32.002h35.803v7.601l-29.103,27.902
		c22.901,1.398,31.502,9,31.502,20.201c0,13.5-13.001,21.301-35.502,21.301c-4.801,0-13.501-0.9-18.201-2.3l-0.5-8.102
		c4.9,1.3,13.9,2.3,18.602,2.3c16.7,0,26.002-5.399,26.002-13.699c0-8.501-9.302-12.901-29.603-12.901h-3.301v-7.101l29.104-27.803
		h-24.803c-13.701,0-28.002,8.102-28.002,24.603v43.003H819.22L819.22,1348.101z"/>
	<path fill="#231F20" d="M1084.494,1348.101v-34.202h-13.001v-8.101h13.001v-32.702h34.804c26.602,0,44.901,13.602,44.901,37.503
		c0,23.9-18.301,37.502-44.901,37.502H1084.494z M1119.298,1339.999c20.899,0,34.802-10.301,34.802-29.4
		c0-19.103-13.901-29.402-34.802-29.402h-25.202v24.603h26.602v8.101h-26.602v26.1H1119.298z"/>
	<path fill="#231F20" d="M1355.671,1348.101v-75.005h9.601v75.005H1355.671z M1426.975,1273.096h9.7v48.604
		c0,19.201-15.802,28.401-36.202,28.401c-6.7,0-15.001-1.1-21.701-3.2l-0.7-8.301c6.7,2.101,14.901,3.399,21.603,3.399
		c15.101,0,27.302-6.699,27.302-20.301L1426.975,1273.096L1426.975,1273.096z"/>
	<path fill="#231F20" d="M1671.848,1348.101c-26.603,0-44.902-13.602-44.902-37.502c0-23.901,18.301-37.503,44.902-37.503h88.104
		v8.101h-53.303v24.603h47.503v8.101h-47.503v26.1h53.303v8.102H1671.848z M1696.949,1281.197h-25.102
		c-20.9,0-34.901,10.301-34.901,29.402c0,19.101,14.001,29.4,34.901,29.4h25.102V1281.197z"/>
	<path fill="#231F20" d="M222.067,1632.101l13.899-16c-8.3-6.801-13.101-16.901-13.101-29.502c0-24.302,18.103-39.503,44.303-39.503
		c9.102,0,17.302,1.8,24.001,5.301l9.802-11.301h11.4l-13.9,16.101c8.199,6.801,13.001,16.901,13.001,29.402
		c0,24.301-18.103,39.502-44.304,39.502c-9.101,0-17.2-1.9-24.002-5.2l-9.7,11.2H222.067L222.067,1632.101z M241.969,1609.199
		l43.303-50.003c-5.102-2.6-11.301-4-18.103-4c-20.102,0-34.302,11.9-34.302,31.402
		C232.868,1596.099,236.168,1603.8,241.969,1609.199z M292.371,1564.097l-43.303,50.003c5.201,2.501,11.301,3.9,18.102,3.9
		c20.103,0,34.303-11.9,34.303-31.401C301.472,1577.198,298.072,1569.497,292.371,1564.097z"/>
	<path fill="#231F20" d="M485.867,1611.1v13.001h-9.601v-75.005h9.601v11.201h30.603c22.802,0,32.502,11.101,32.502,25.4
		s-9.7,25.401-32.502,25.401L485.867,1611.1L485.867,1611.1z M516.469,1602.999c16.602,0,23.302-7.699,23.302-17.301
		c0-9.699-6.7-17.301-23.302-17.301h-30.603v34.602H516.469z"/>
	<path fill="#231F20" d="M777.271,1624.101l-9.601-18.501h-47.902l-9.501,18.501h-10.301l39.303-75.005h9.7l39.303,75.005H777.271z
		 M723.867,1597.499h39.703l-19.9-38.603L723.867,1597.499z M742.17,1542.896h-9.701l16.802-13.201h12.9L742.17,1542.896z"/>
	<path fill="#231F20" d="M1021.171,1624.101l-9.602-18.501h-47.902l-9.5,18.501h-10.302l39.304-75.005h9.699l39.304,75.005H1021.171
		z M967.767,1597.499h39.703l-19.901-38.603L967.767,1597.499z M1007.369,1529.695c-0.898,9.401-8.2,14.701-19.399,14.701
		c-11.201,0-18.502-5.3-19.303-14.701h7.502c0.8,4.801,4.398,8.301,11.801,8.301c7.5,0,11.101-3.5,11.899-8.301H1007.369z"/>
	<path fill="#231F20" d="M1265.069,1624.101l-9.601-18.501h-47.902l-9.501,18.501h-10.301l39.303-75.005h9.7l39.303,75.005H1265.069
		z M1254.77,1542.896h-10.201l-12.7-8.101l-12.7,8.101h-10.2l17.399-13.201h10.9L1254.77,1542.896z M1211.667,1597.499h39.702
		l-19.9-38.603L1211.667,1597.499z"/>
	<path fill="#231F20" d="M1508.969,1624.101l-9.602-18.501h-47.901l-9.501,18.501h-10.301l39.303-75.005h9.699l39.304,75.005
		H1508.969z M1455.565,1541.896v-12.801h9.601v12.801H1455.565z M1455.565,1597.499h39.703l-19.901-38.603L1455.565,1597.499z
		 M1486.469,1541.896v-12.801h9.601v12.801H1486.469z"/>
	<path fill="#231F20" d="M1752.868,1624.101l-9.601-18.501h-47.902l-9.501,18.501h-10.301l39.303-75.005h9.7l39.303,75.005H1752.868
		z M1699.466,1597.499h39.703l-19.901-38.603L1699.466,1597.499z M1699.665,1529.695h12.901l16.801,13.201h-9.699L1699.665,1529.695
		z"/>
	<path fill="#231F20" d="M296.571,1900.101l-9.601-18.501h-47.902l-9.501,18.501h-10.301l39.303-75.005h9.7l39.303,75.005H296.571z
		 M243.168,1873.499h39.703l-19.9-38.603L243.168,1873.499z M244.469,1815.396v-6.5h37.802v6.5H244.469z"/>
	<path fill="#231F20" d="M539.468,1913.802c0,3.6,2.699,6.6,8.101,6.6c3.4,0,6.5-0.898,9.2-1.898l-0.7,6.5
		c-3.1,1-6.601,1.899-11.2,1.899c-7.899,0-12.9-4.5-12.9-11.301c0-6.5,5.199-12.9,13.102-16.801l-8.9-17.201h-47.902l-9.501,18.501
		h-10.301l39.303-75.005h9.7l39.303,75.005C545.367,1902.701,539.468,1908.602,539.468,1913.802z M492.363,1873.499h39.703
		l-19.901-38.603L492.363,1873.499z"/>
	<path fill="#231F20" d="M794.964,1900.101l-9.602-18.501h-47.901l-9.501,18.501h-10.302l39.304-75.005h9.699l39.304,75.005H794.964
		z M784.464,1805.295c-0.4,10.101-6.802,14.899-13.201,14.899c-9.5,0-13.102-8.899-18.701-8.899c-3.6,0-5.8,2.801-6.3,8.101h-7.201
		c0.4-10.101,6.801-14.9,13.201-14.9c9.601,0,13.001,8.9,18.701,8.9c3.601,0,5.8-2.801,6.3-8.101H784.464z M741.56,1873.499h39.703
		l-19.901-38.603L741.56,1873.499z"/>
	<path fill="#231F20" d="M1037.359,1894.999c-8.101,4.7-19.001,7.102-28.802,7.102c-26.002,0-44.503-14.801-44.503-39.502
		c0-24.702,18.501-39.503,44.503-39.503c10.2,0,20.701,2.399,28.802,6.899v9.201c-8.101-5.201-18.102-8.001-28.401-8.001
		c-20.302,0-34.901,11.9-34.901,31.402c0,19.501,14.601,31.401,34.901,31.401c9.9,0,21.302-2.801,29.002-8L1037.359,1894.999z
		 M1001.458,1818.896h-9.7l16.801-13.201h12.899L1001.458,1818.896z"/>
	<path fill="#231F20" d="M1278.456,1894.999c-8.101,4.7-19,7.102-28.802,7.102c-26.002,0-44.503-14.801-44.503-39.502
		c0-24.702,18.501-39.503,44.503-39.503c10.2,0,20.701,2.399,28.802,6.899v9.201c-8.101-5.201-18.102-8.001-28.401-8.001
		c-20.301,0-34.901,11.9-34.901,31.402c0,19.501,14.602,31.401,34.901,31.401c9.901,0,21.302-2.801,29.002-8L1278.456,1894.999z
		 M1251.854,1818.896h-10.901l-17.399-13.201h10.199l12.701,8.102l12.7-8.102h10.201L1251.854,1818.896z"/>
	<path fill="#231F20" d="M1519.553,1894.999c-8.102,4.7-19.001,7.102-28.803,7.102c-26.002,0-44.503-14.801-44.503-39.502
		c0-24.702,18.501-39.503,44.503-39.503c10.2,0,20.701,2.399,28.803,6.899v9.201c-8.102-5.201-18.103-8.001-28.402-8.001
		c-20.301,0-34.9,11.9-34.9,31.402c0,19.501,14.601,31.401,34.9,31.401c9.901,0,21.302-2.801,29.002-8L1519.553,1894.999z
		 M1474.751,1920.001c5.199,0.899,9.601,1.2,12.699,1.2c6.301,0,9.102-1.601,9.102-4.7c0-3.101-2.801-4.699-9.102-4.699
		c-3.1,0-7.5,0.3-12.699,1.199v-5.5c4.699-0.9,8.899-1.4,12.5-1.4c11.5,0,16.302,4.001,16.302,10.4c0,6.4-4.802,10.4-16.302,10.4
		c-3.601,0-7.801-0.5-12.5-1.4V1920.001z"/>
	<path fill="#231F20" d="M1760.649,1894.999c-8.101,4.7-19.001,7.102-28.802,7.102c-26.002,0-44.503-14.801-44.503-39.502
		c0-24.702,18.501-39.503,44.503-39.503c10.2,0,20.701,2.399,28.802,6.899v9.201c-8.101-5.201-18.102-8.001-28.402-8.001
		c-20.301,0-34.9,11.9-34.9,31.402c0,19.501,14.601,31.401,34.9,31.401c9.901,0,21.303-2.801,29.002-8L1760.649,1894.999z
		 M1751.55,1818.896h-10.201l-12.7-8.101l-12.701,8.101h-10.2l17.4-13.201h10.901L1751.55,1818.896z"/>
	<path fill="#231F20" d="M296.172,2170.999c-8.101,4.7-19.001,7.102-28.802,7.102c-26.002,0-44.503-14.801-44.503-39.502
		c0-24.702,18.501-39.503,44.503-39.503c10.2,0,20.701,2.399,28.802,6.899v9.201c-8.101-5.201-18.102-8.001-28.401-8.001
		c-20.301,0-34.901,11.9-34.901,31.402c0,19.501,14.602,31.401,34.901,31.401c9.9,0,21.302-2.801,29.002-8L296.172,2170.999z
		 M259.97,2093.896v-12.801h9.601v12.801H259.97z"/>
	<path fill="#231F20" d="M471.863,2176.101v-75.005h34.804c26.602,0,44.901,13.603,44.901,37.503s-18.301,37.502-44.901,37.502
		H471.863z M508.865,2094.896h-10.899l-17.401-13.201h10.201l12.7,8.102l12.701-8.102h10.2L508.865,2094.896z M506.667,2167.999
		c20.899,0,34.802-10.301,34.802-29.4c0-19.102-13.901-29.402-34.803-29.402h-25.201v58.803H506.667z"/>
	<path fill="#231F20" d="M726.659,2176.101v-34.202h-13.001v-8.101h13.001v-32.702h34.803c26.603,0,44.902,13.603,44.902,37.503
		s-18.301,37.502-44.902,37.502H726.659z M761.462,2167.999c20.9,0,34.803-10.301,34.803-29.4c0-19.102-13.901-29.402-34.803-29.402
		H736.26v24.603h26.602v8.101H736.26v26.1H761.462z"/>
	<path fill="#231F20" d="M981.455,2176.101v-75.005h63.005v8.101h-53.403v24.603h47.603v8.101h-47.603v26.1h53.402v8.102H981.455z
		 M1009.356,2094.896h-9.7l16.802-13.201h12.9L1009.356,2094.896z"/>
	<path fill="#231F20" d="M1219.952,2176.101v-75.005h63.004v8.101h-53.402v24.603h47.604v8.101h-47.604v26.1h53.402v8.102H1219.952z
		 M1270.757,2081.695c-0.9,9.401-8.201,14.701-19.401,14.701c-11.201,0-18.501-5.3-19.302-14.701h7.501
		c0.8,4.801,4.399,8.301,11.801,8.301c7.5,0,11.101-3.5,11.9-8.301H1270.757z"/>
	<path fill="#231F20" d="M1458.449,2176.101v-75.005h63.004v8.101h-53.402v24.603h47.603v8.101h-47.603v26.1h53.402v8.102H1458.449z
		 M1495.253,2094.896h-10.901l-17.4-13.201h10.2l12.701,8.102l12.7-8.102h10.2L1495.253,2094.896z"/>
	<path fill="#231F20" d="M1696.946,2176.101v-75.005h63.004v8.101h-53.402v24.603h47.604v8.101h-47.604v26.1h53.402v8.102H1696.946z
		 M1708.147,2093.896v-12.801h9.601v12.801H1708.147z M1739.05,2093.896v-12.801h9.601v12.801H1739.05z"/>
	<path fill="#231F20" d="M224.867,2452.101v-75.005h63.004v8.101h-53.402v24.603h47.603v8.101h-47.603v26.1h53.402v8.102H224.867z
		 M251.469,2369.896v-12.801h9.601v12.801H251.469z"/>
	<path fill="#231F20" d="M465.331,2452.101v-75.005h63.005v8.101h-53.403v24.603h47.604v8.101h-47.604v26.1h53.403v8.102H465.331z
		 M476.932,2357.695h12.9l16.802,13.201h-9.7L476.932,2357.695z"/>
	<path fill="#231F20" d="M705.796,2452.101v-75.005H768.8v8.101h-53.403v24.603h47.603v8.101h-47.603v26.1H768.8v8.102H705.796z
		 M718.297,2367.396v-6.5h37.802v6.5H718.297z"/>
	<path fill="#231F20" d="M991.962,2465.802c0,3.6,2.699,6.6,8.101,6.6c3.399,0,6.5-0.898,9.2-1.898l-0.7,6.5
		c-3.1,1-6.601,1.899-11.2,1.899c-7.899,0-12.9-4.5-12.9-11.301c0-5.899,4.101-11.501,10.7-15.501H946.26v-75.005h63.004v8.101
		H955.86v24.603h47.604v8.101H955.86v26.1h53.403v8.102C997.861,2454.701,991.962,2460.602,991.962,2465.802z"/>
	<path fill="#231F20" d="M1246.428,2417.399h9.601v28.702c-8.801,5.6-21.401,8-31.202,8c-27.602,0-45.303-14.801-45.303-39.502
		c0-24.702,18.501-39.503,45.703-39.503c10.2,0,21.101,2.399,29.201,7.301v8.801c-8.102-5.2-18.501-8.001-28.803-8.001
		c-21.5,0-36.102,11.9-36.102,31.402c0,19.501,14.601,31.9,36.502,31.9c7.7,0,15.301-1.699,20.401-4.5L1246.428,2417.399
		L1246.428,2417.399z M1241.128,2357.695c-0.899,9.401-8.2,14.701-19.401,14.701c-11.2,0-18.501-5.3-19.301-14.701h7.501
		c0.8,4.801,4.398,8.301,11.8,8.301c7.501,0,11.102-3.5,11.901-8.301H1241.128z"/>
	<path fill="#231F20" d="M1498.391,2417.399h9.601v28.702c-8.801,5.6-21.4,8-31.202,8c-27.602,0-45.303-14.801-45.303-39.502
		c0-24.702,18.501-39.503,45.703-39.503c10.2,0,21.101,2.399,29.201,7.301v8.801c-8.102-5.2-18.501-8.001-28.802-8.001
		c-21.501,0-36.103,11.9-36.103,31.402c0,19.501,14.602,31.9,36.502,31.9c7.7,0,15.301-1.699,20.401-4.5L1498.391,2417.399
		L1498.391,2417.399z M1496.591,2370.896h-10.2l-12.701-8.102l-12.7,8.102h-10.201l17.401-13.201h10.9L1496.591,2370.896z"/>
	<path fill="#231F20" d="M1750.354,2417.399h9.601v28.702c-8.801,5.6-21.4,8-31.202,8c-27.602,0-45.303-14.801-45.303-39.502
		c0-24.702,18.501-39.503,45.703-39.503c10.2,0,21.102,2.399,29.201,7.301v8.801c-8.101-5.2-18.501-8.001-28.802-8.001
		c-21.501,0-36.103,11.9-36.103,31.402c0,19.501,14.602,31.9,36.502,31.9c7.7,0,15.301-1.699,20.401-4.5L1750.354,2417.399
		L1750.354,2417.399z M1721.651,2478.103l1.9-19.701h8.199l-3.1,19.701H1721.651z"/>
	<path fill="#231F20" d="M289.771,2693.398h9.601v28.703c-8.801,5.6-21.4,8-31.202,8c-27.602,0-45.303-14.801-45.303-39.502
		c0-24.703,18.501-39.503,45.703-39.503c10.2,0,21.101,2.399,29.201,7.301v8.801c-8.102-5.2-18.501-8.001-28.802-8.001
		c-21.502,0-36.103,11.9-36.103,31.403c0,19.5,14.601,31.899,36.502,31.899c7.7,0,15.301-1.698,20.401-4.5L289.771,2693.398
		L289.771,2693.398z M261.27,2645.896v-12.801h9.601v12.801H261.27z"/>
	<path fill="#231F20" d="M543.969,2728.102V2697.1h-56.403v31.002h-9.601v-53.604h-11.4v-7.699h11.4v-13.701h9.601v13.701h56.403
		v-13.701h9.601v13.701h11.401v7.699h-11.401v53.604H543.969z M543.969,2688.997v-14.5h-56.403v14.5H543.969z"/>
	<path fill="#231F20" d="M799.766,2728.102v-34.203h-56.403v34.203h-9.601v-75.005h9.601v32.703h56.403v-32.703h9.601v75.005
		H799.766z M794.467,2646.896h-10.201l-12.7-8.102l-12.701,8.102h-10.2l17.4-13.201h10.901L794.467,2646.896z"/>
	<path fill="#231F20" d="M994.159,2646.896h-9.701l16.803-13.201h12.899L994.159,2646.896z M989.559,2728.102v-75.005h9.601v75.005
		H989.559z"/>
	<path fill="#231F20" d="M1203.557,2633.695c-0.899,9.401-8.2,14.701-19.4,14.701c-11.201,0-18.502-5.3-19.302-14.701h7.501
		c0.8,4.801,4.4,8.301,11.801,8.301c7.5,0,11.102-3.5,11.9-8.301H1203.557z M1179.355,2728.102v-75.005h9.601v75.005H1179.355z"/>
	<path fill="#231F20" d="M1396.954,2646.896h-10.199l-12.701-8.102l-12.701,8.102h-10.2l17.401-13.201h10.899L1396.954,2646.896z
		 M1369.152,2728.102v-75.005h9.601v75.005H1369.152z"/>
	<path fill="#231F20" d="M1552.551,2645.896v-12.801h8.601v12.801H1552.551z M1558.95,2728.102v-75.005h9.602v75.005H1558.95z
		 M1566.451,2645.896v-12.801h8.602v12.801H1566.451z"/>
	<path fill="#231F20" d="M1748.747,2645.896v-12.801h9.602v12.801H1748.747z M1748.747,2728.102v-75.005h9.602v75.005H1748.747z"/>
	<path fill="#231F20" d="M209.566,2909.695h12.899l16.803,13.201h-9.701L209.566,2909.695z M224.867,3004.102v-75.006h9.602v75.006
		H224.867z"/>
	<path fill="#231F20" d="M408.508,2919.396v-6.5h22.602v6.5H408.508z M415.008,3004.102v-75.006h9.601v75.006H415.008z"/>
	<path fill="#231F20" d="M614.147,3029.001c-3.101,1-6.601,1.9-11.201,1.9c-7.899,0-12.899-4.5-12.899-11.301
		c0-6.9,5.199-13.601,15.101-18v-72.506h9.601v74.604l0.102,0.399c-11.401,2.601-17.302,8.5-17.302,13.701
		c0,3.601,2.699,6.601,8.101,6.601c3.4,0,6.501-0.9,9.201-1.9L614.147,3029.001z"/>
	<path fill="#231F20" d="M822.888,2909.294c-0.399,10.103-6.8,14.9-13.2,14.9c-9.501,0-13.102-8.9-18.701-8.9
		c-3.601,0-5.801,2.802-6.301,8.103h-7.2c0.399-10.103,6.8-14.899,13.2-14.899c9.601,0,13.001,8.899,18.701,8.899
		c3.601,0,5.801-2.801,6.301-8.103H822.888z M795.286,3004.102v-75.006h9.602v75.006H795.286z"/>
	<path fill="#231F20" d="M1030.33,2929.096h9.7v48.604c0,19.201-15.801,28.402-36.202,28.402c-6.7,0-15.001-1.101-21.701-3.201
		l-0.699-8.301c6.699,2.103,14.899,3.399,21.602,3.399c15.101,0,27.302-6.698,27.302-20.301L1030.33,2929.096L1030.33,2929.096z
		 M1058.031,2922.896h-10.2l-12.7-8.102l-12.701,8.102h-10.2l17.401-13.201h10.899L1058.031,2922.896z"/>
	<path fill="#231F20" d="M1281.271,3004.102l-42.803-35.002l-9.501,6.799v28.203h-9.602v-75.006h9.602v35.901l48.104-35.901h13.602
		l-45.004,33.803l49.203,41.203H1281.271L1281.271,3004.102z M1245.268,3030.104l1.9-19.701h8.199l-3.1,19.701H1245.268z"/>
	<path fill="#231F20" d="M1477.406,2922.896h-9.7l16.802-13.201h12.899L1477.406,2922.896z M1469.806,3004.102v-75.006h9.601v66.903
		h48.803v8.103H1469.806z"/>
	<path fill="#231F20" d="M1704.345,3004.102v-75.006h9.601v66.903h48.803v8.103H1704.345z M1722.746,2944.098l1.4-21.802h7.8
		l-2.6,21.802H1722.746z"/>
	<path fill="#231F20" d="M224.867,3280.102v-75.006h9.602v66.903h48.803v8.103H224.867z M247.369,3306.104l1.899-19.701h8.201
		l-3.102,19.701H247.369z"/>
	<path fill="#231F20" d="M451.946,3280.102v-75.006h9.602v66.903h48.803v8.103H451.946z M484.948,3249.698v-16.701h9.201v16.701
		H484.948z"/>
	<path fill="#231F20" d="M745.93,3280.102l-57.604-61.205v61.205h-9.301v-75.006h8.7l57.604,61.205v-61.205h9.302v75.006H745.93z
		 M713.228,3198.896h-9.7l16.801-13.201h12.9L713.228,3198.896z"/>
	<path fill="#231F20" d="M994.609,3280.102l-57.604-61.205v61.205h-9.302v-75.006h8.7l57.604,61.205v-61.205h9.301v75.006H994.609z
		 M970.908,3198.896h-10.9l-17.4-13.201h10.2l12.701,8.101l12.699-8.101h10.201L970.908,3198.896z"/>
	<path fill="#231F20" d="M1243.288,3280.102l-57.604-61.205v61.205h-9.301v-75.006h8.699l57.604,61.205v-61.205h9.301v75.006
		H1243.288z M1209.486,3306.104l1.899-19.701h8.201l-3.102,19.701H1209.486z"/>
	<path fill="#231F20" d="M1491.969,3280.102l-57.604-61.205v61.205h-9.301v-75.006h8.7l57.604,61.205v-61.205h9.302v75.006H1491.969
		z M1485.468,3185.294c-0.399,10.103-6.801,14.9-13.2,14.9c-9.501,0-13.101-8.9-18.701-8.9c-3.601,0-5.801,2.802-6.301,8.103h-7.2
		c0.4-10.103,6.801-14.899,13.201-14.899c9.601,0,13,8.899,18.701,8.899c3.6,0,5.8-2.801,6.3-8.103H1485.468z"/>
	<path fill="#231F20" d="M1716.047,3282.102c-26.201,0-44.304-15.201-44.304-39.502c0-24.303,18.103-39.504,44.304-39.504
		c26.2,0,44.303,15.201,44.303,39.504C1760.349,3266.9,1742.247,3282.102,1716.047,3282.102z M1716.047,3211.197
		c-20.103,0-34.303,11.9-34.303,31.402c0,19.5,14.2,31.4,34.303,31.4c20.102,0,34.302-11.9,34.302-31.4
		C1750.348,3223.098,1736.147,3211.197,1716.047,3211.197z M1714.346,3198.896h-9.7l16.801-13.201h12.9L1714.346,3198.896z"/>
	<path fill="#231F20" d="M267.17,3558.102c-26.2,0-44.303-15.201-44.303-39.502c0-24.303,18.103-39.504,44.303-39.504
		c26.201,0,44.304,15.201,44.304,39.504C311.473,3542.9,293.371,3558.102,267.17,3558.102z M267.17,3487.197
		c-20.102,0-34.302,11.9-34.302,31.402c0,19.5,14.2,31.4,34.302,31.4c20.103,0,34.303-11.9,34.303-31.4
		C301.472,3499.098,287.271,3487.197,267.17,3487.197z M286.471,3461.695c-0.899,9.4-8.2,14.701-19.4,14.701
		c-11.201,0-18.502-5.301-19.302-14.701h7.501c0.8,4.801,4.399,8.301,11.801,8.301c7.5,0,11.101-3.5,11.9-8.301H286.471z"/>
	<path fill="#231F20" d="M560.007,3558.102c-26.201,0-44.304-15.201-44.304-39.502c0-24.303,18.103-39.504,44.304-39.504
		c26.2,0,44.303,15.201,44.303,39.504C604.309,3542.9,586.207,3558.102,560.007,3558.102z M560.007,3487.197
		c-20.103,0-34.303,11.9-34.303,31.402c0,19.5,14.2,31.4,34.303,31.4c20.102,0,34.302-11.9,34.302-31.4
		C594.308,3499.098,580.107,3487.197,560.007,3487.197z M539.705,3473.896v-12.801h9.601v12.801H539.705z M570.606,3473.896v-12.801
		h9.602v12.801H570.606z"/>
	<path fill="#231F20" d="M852.843,3558.102c-26.201,0-44.304-15.201-44.304-39.502c0-24.303,18.103-39.504,44.304-39.504
		s44.303,15.201,44.303,39.504C897.145,3542.9,879.044,3558.102,852.843,3558.102z M852.843,3487.197
		c-20.103,0-34.303,11.9-34.303,31.402c0,19.5,14.2,31.4,34.303,31.4c20.102,0,34.302-11.9,34.302-31.4
		C887.144,3499.098,872.943,3487.197,852.843,3487.197z M831.74,3473.695l3.302-6.799l21.4-7.201l-4.9,6.801L831.74,3473.695z
		 M857.742,3473.695l3.3-6.799l21.401-7.201l-4.899,6.801L857.742,3473.695z"/>
	<path fill="#231F20" d="M1145.677,3558.102c-26.201,0-44.304-15.201-44.304-39.502c0-24.303,18.103-39.504,44.304-39.504
		c26.2,0,44.303,15.201,44.303,39.504C1189.979,3542.9,1171.879,3558.102,1145.677,3558.102z M1145.677,3487.197
		c-20.103,0-34.302,11.9-34.302,31.402c0,19.5,14.199,31.4,34.302,31.4c20.102,0,34.302-11.9,34.302-31.4
		C1179.979,3499.098,1165.778,3487.197,1145.677,3487.197z M1126.775,3471.396v-6.5h37.803v6.5H1126.775z"/>
	<path fill="#231F20" d="M1438.513,3558.102c-26.201,0-44.304-15.201-44.304-39.502c0-24.303,18.103-39.504,44.304-39.504
		c26.2,0,44.303,15.201,44.303,39.504C1482.815,3542.9,1464.715,3558.102,1438.513,3558.102z M1438.513,3487.197
		c-20.103,0-34.302,11.9-34.302,31.402c0,19.5,14.199,31.4,34.302,31.4c20.102,0,34.302-11.9,34.302-31.4
		C1472.814,3499.098,1458.614,3487.197,1438.513,3487.197z M1461.215,3461.294c-0.399,10.103-6.801,14.9-13.2,14.9
		c-9.501,0-13.103-8.9-18.701-8.9c-3.601,0-5.801,2.802-6.301,8.103h-7.2c0.399-10.103,6.8-14.899,13.2-14.899
		c9.601,0,13.001,8.899,18.701,8.899c3.601,0,5.801-2.801,6.301-8.103H1461.215z"/>
	<path fill="#231F20" d="M1750.649,3556.102l-21.9-27.002h-30.103v27.002h-9.601v-75.006h40.201
		c23.402,0,32.502,9.502,32.502,23.602c0,12.201-7.3,21.603-22.101,23.902l22.601,27.502H1750.649z M1732.249,3520.997
		c13.602,0,20.302-6.399,20.302-15.801c0-9.5-6.102-16-23.302-16h-30.603v31.801H1732.249z M1717.348,3474.896h-9.7l16.801-13.201
		h12.9L1717.348,3474.896z"/>
	<path fill="#231F20" d="M286.471,3832.102L264.57,3805.1h-30.102v27.002h-9.602v-75.006h40.202
		c23.401,0,32.502,9.502,32.502,23.602c0,12.201-7.3,21.603-22.101,23.902l22.602,27.502H286.471z M261.27,3750.896h-10.9
		l-17.4-13.201h10.199l12.701,8.101l12.701-8.101h10.2L261.27,3750.896z M268.07,3796.997c13.601,0,20.301-6.399,20.301-15.801
		c0-9.5-6.101-16-23.302-16h-30.603v31.801H268.07z"/>
	<path fill="#231F20" d="M534.001,3832.102l-21.9-27.002h-30.103v27.002h-9.601v-75.006H512.6c23.402,0,32.502,9.502,32.502,23.602
		c0,12.201-7.3,21.603-22.102,23.902l22.602,27.502H534.001z M515.601,3796.997c13.601,0,20.301-6.399,20.301-15.801
		c0-9.5-6.101-16-23.302-16h-30.602v31.801H515.601z M499.899,3858.104l1.9-19.701h8.199l-3.101,19.701H499.899z"/>
	<path fill="#231F20" d="M718.928,3819.1c10.001,5.002,22.701,6.899,32.202,6.899c14.001,0,28.002-3,28.002-13.5
		c0-22.102-61.805-4.2-61.805-35.702c0-16.9,19.001-21.701,36.901-21.701c8.901,0,20.602,1.399,31.303,5.502v8.899
		c-10.001-4.399-21.802-6.301-31.303-6.301c-13,0-27.301,2.9-27.301,13.301c0,21.9,61.804,3.802,61.804,35.902
		c0,16.9-18.401,21.701-37.203,21.701c-9.3,0-22.101-1.5-32.002-6.102L718.928,3819.1z M749.229,3750.896h-9.7l16.801-13.201h12.9
		L749.229,3750.896z"/>
	<path fill="#231F20" d="M962.957,3819.1c10.001,5.002,22.701,6.899,32.202,6.899c14.001,0,28.002-3,28.002-13.5
		c0-22.102-61.804-4.2-61.804-35.702c0-16.9,19.001-21.701,36.901-21.701c8.9,0,20.602,1.399,31.303,5.502v8.899
		c-10.001-4.399-21.802-6.301-31.303-6.301c-13,0-27.301,2.9-27.301,13.301c0,21.9,61.804,3.802,61.804,35.902
		c0,16.9-18.401,21.701-37.203,21.701c-9.3,0-22.102-1.5-32.002-6.102L962.957,3819.1z M1001.96,3750.896h-10.9l-17.4-13.201h10.2
		l12.701,8.101l12.7-8.101h10.201L1001.96,3750.896z"/>
	<path fill="#231F20" d="M1206.987,3819.1c10.001,5.002,22.701,6.899,32.202,6.899c14.001,0,28.002-3,28.002-13.5
		c0-22.102-61.804-4.2-61.804-35.702c0-16.9,19.001-21.701,36.9-21.701c8.901,0,20.603,1.399,31.304,5.502v8.899
		c-10.001-4.399-21.802-6.301-31.304-6.301c-13,0-27.301,2.9-27.301,13.301c0,21.9,61.805,3.802,61.805,35.902
		c0,16.9-18.401,21.701-37.202,21.701c-9.302,0-22.103-1.5-32.002-6.102L1206.987,3819.1z M1226.988,3852.001
		c5.2,0.9,9.602,1.201,12.701,1.201c6.301,0,9.101-1.602,9.101-4.701c0-3.099-2.8-4.698-9.101-4.698
		c-3.101,0-7.501,0.299-12.701,1.198v-5.5c4.7-0.899,8.9-1.399,12.501-1.399c11.501,0,16.301,4,16.301,10.399
		c0,6.4-4.8,10.4-16.301,10.4c-3.601,0-7.801-0.5-12.501-1.4V3852.001z"/>
	<path fill="#231F20" d="M1451.017,3819.1c10.001,5.002,22.701,6.899,32.202,6.899c14.001,0,28.002-3,28.002-13.5
		c0-22.102-61.805-4.2-61.805-35.702c0-16.9,19.002-21.701,36.901-21.701c8.901,0,20.603,1.399,31.303,5.502v8.899
		c-10.001-4.399-21.802-6.301-31.303-6.301c-13,0-27.301,2.9-27.301,13.301c0,21.9,61.804,3.802,61.804,35.902
		c0,16.9-18.4,21.701-37.202,21.701c-9.301,0-22.102-1.5-32.002-6.102L1451.017,3819.1z M1507.521,3750.896h-10.201l-12.7-8.102
		l-12.701,8.102h-10.199l17.399-13.201h10.901L1507.521,3750.896z"/>
	<path fill="#231F20" d="M1695.047,3819.1c10.001,5.002,22.7,6.899,32.202,6.899c14,0,28.002-3,28.002-13.5
		c0-22.102-61.805-4.2-61.805-35.702c0-16.9,19.001-21.701,36.901-21.701c8.901,0,20.602,1.399,31.303,5.502v8.899
		c-10.001-4.399-21.802-6.301-31.303-6.301c-13,0-27.301,2.9-27.301,13.301c0,21.9,61.804,3.802,61.804,35.902
		c0,16.9-18.401,21.701-37.202,21.701c-9.301,0-22.103-1.5-32.002-6.102L1695.047,3819.1z M1723.647,3858.104l1.9-19.701h8.199
		l-3.1,19.701H1723.647z"/>
	<path fill="#231F20" d="M254.77,4108.102v-33.802h-21.401v-7.701h21.401v-25.399h-34.503v-8.103h78.705v8.103H264.47v25.399h21.4
		v7.701h-21.4v33.802H254.77z"/>
	<path fill="#231F20" d="M496.516,4108.102v-66.904h-34.503v-8.102h78.705v8.102h-34.502v66.904H496.516z M506.717,4026.896h-10.9
		l-17.401-13.201h10.201l12.7,8.101l12.701-8.101h10.2L506.717,4026.896z"/>
	<path fill="#231F20" d="M738.262,4108.102v-66.904H703.76v-8.102h78.705v8.102h-34.502v66.904H738.262z M729.061,4128.001
		c5.2,0.9,9.601,1.201,12.701,1.201c6.3,0,9.101-1.602,9.101-4.701c0-3.099-2.801-4.699-9.101-4.699
		c-3.102,0-7.501,0.299-12.701,1.199v-5.5c4.7-0.899,8.9-1.399,12.501-1.399c11.501,0,16.301,4,16.301,10.399
		c0,6.4-4.8,10.4-16.301,10.4c-3.601,0-7.801-0.5-12.501-1.4V4128.001z"/>
	<path fill="#231F20" d="M980.009,4108.102v-66.904h-34.503v-8.102h78.704v8.102h-34.502v66.904H980.009z M978.607,4134.104
		l1.9-19.701h8.2l-3.102,19.701H978.607z"/>
	<path fill="#231F20" d="M1257.355,4033.096h9.301v43.403c0,22.5-16.701,33.602-37.803,33.602
		c-21.301,0-37.802-11.103-37.802-33.602v-43.403h9.601v42.504c0,17.899,12.4,26.399,28.502,26.399
		c16.101,0,28.201-8.5,28.201-26.399V4033.096z M1226.854,4026.896h-9.7l16.802-13.201h12.9L1226.854,4026.896z"/>
	<path fill="#231F20" d="M1503.602,4033.096h9.301v43.403c0,22.5-16.701,33.602-37.803,33.602
		c-21.301,0-37.802-11.103-37.802-33.602v-43.403h9.601v42.504c0,17.899,12.4,26.399,28.502,26.399s28.201-8.5,28.201-26.399
		V4033.096z M1494.401,4013.695c-0.9,9.4-8.2,14.701-19.4,14.701s-18.502-5.301-19.302-14.701h7.5c0.8,4.801,4.4,8.301,11.802,8.301
		c7.5,0,11.101-3.5,11.899-8.301H1494.401z"/>
	<path fill="#231F20" d="M1749.848,4033.096h9.301v43.403c0,22.5-16.701,33.602-37.803,33.602
		c-21.301,0-37.802-11.103-37.802-33.602v-43.403h9.601v42.504c0,17.899,12.4,26.399,28.502,26.399
		c16.101,0,28.201-8.5,28.201-26.399V4033.096z M1744.247,4026.896h-10.199l-12.701-8.102l-12.7,8.102h-10.201l17.401-13.201h10.899
		L1744.247,4026.896z"/>
	<path fill="#231F20" d="M290.371,4309.096h9.301v43.403c0,22.5-16.7,33.603-37.803,33.603c-21.301,0-37.802-11.103-37.802-33.603
		v-43.403h9.601v42.504c0,17.899,12.4,26.399,28.502,26.399s28.201-8.5,28.201-26.399V4309.096L290.371,4309.096z M241.568,4301.896
		v-12.801h9.601v12.801H241.568z M272.471,4301.896v-12.801h9.6v12.801H272.471z"/>
	<path fill="#231F20" d="M533.617,4309.096h9.302v43.403c0,22.5-16.701,33.603-37.804,33.603c-21.301,0-37.802-11.103-37.802-33.603
		v-43.403h9.601v42.504c0,17.899,12.4,26.399,28.503,26.399c16.101,0,28.2-8.5,28.2-26.399V4309.096L533.617,4309.096z
		 M486.015,4289.694h12.899l16.803,13.201h-9.701L486.015,4289.694z"/>
	<path fill="#231F20" d="M776.864,4309.096h9.301v43.403c0,22.5-16.7,33.603-37.803,33.603c-21.301,0-37.802-11.103-37.802-33.603
		v-43.403h9.601v42.504c0,17.899,12.4,26.399,28.502,26.399s28.201-8.5,28.201-26.399V4309.096L776.864,4309.096z M731.963,4302.896
		h-9.701l16.802-13.201h12.9L731.963,4302.896z M760.363,4302.896h-9.7l16.802-13.201h12.899L760.363,4302.896z"/>
	<path fill="#231F20" d="M1020.111,4309.096h9.301v43.403c0,22.5-16.7,33.603-37.803,33.603c-21.301,0-37.802-11.103-37.802-33.603
		v-43.403h9.601v42.504c0,17.899,12.4,26.399,28.502,26.399s28.201-8.5,28.201-26.399V4309.096z M972.608,4299.396v-6.5h37.803v6.5
		H972.608z"/>
	<path fill="#231F20" d="M1263.357,4309.096h9.301v43.403c0,16.4-8.899,26.801-21.9,31.201c-9.9,4.301-15.001,9.201-15.001,14.103
		c0,3.601,2.699,6.601,8.101,6.601c3.4,0,6.5-0.9,9.2-1.9l-0.699,6.5c-3.101,1-6.601,1.9-11.201,1.9
		c-7.899,0-12.899-4.5-12.899-11.301c0-5,2.699-9.699,8-13.5h-1.4c-21.301,0-37.802-11.103-37.802-33.603v-43.403h9.601v42.504
		c0,17.899,12.4,26.399,28.502,26.399c16.101,0,28.201-8.5,28.201-26.399v-42.505H1263.357z"/>
	<path fill="#231F20" d="M1506.604,4309.096h9.301v43.403c0,22.5-16.701,33.603-37.803,33.603
		c-21.301,0-37.802-11.103-37.802-33.603v-43.403h9.601v42.504c0,17.899,12.4,26.399,28.502,26.399s28.201-8.5,28.201-26.399
		V4309.096z M1478.003,4305.696c-11.2,0-17.901-4.002-17.901-10.201c0-6.201,6.701-10.201,17.901-10.201s17.9,4,17.9,10.201
		C1495.903,4301.694,1489.203,4305.696,1478.003,4305.696z M1478.003,4290.694c-5.7,0-10.802,1.301-10.802,4.801
		s5.102,4.801,10.802,4.801c5.699,0,10.801-1.301,10.801-4.801S1483.702,4290.694,1478.003,4290.694z"/>
	<path fill="#231F20" d="M1749.851,4309.096h9.301v43.403c0,22.5-16.701,33.603-37.803,33.603
		c-21.301,0-37.802-11.103-37.802-33.603v-43.403h9.601v42.504c0,17.899,12.4,26.399,28.502,26.399
		c16.101,0,28.201-8.5,28.201-26.399V4309.096z M1743.95,4289.294c-0.398,10.103-6.8,14.9-13.199,14.9
		c-9.502,0-13.103-8.9-18.701-8.9c-3.602,0-5.802,2.801-6.302,8.103h-7.199c0.398-10.103,6.8-14.899,13.199-14.899
		c9.602,0,13.001,8.899,18.701,8.899c3.602,0,5.802-2.801,6.302-8.103H1743.95z"/>
	<path fill="#231F20" d="M320.373,4660.102l-28.502-62.403l-28.4,62.403h-9.7l-34.702-75.006h11l28.902,62.705l28.4-62.705h9.7
		l28.603,62.705l28.701-62.705h10.301l-34.602,75.006H320.373z M290.571,4578.896h-9.7l16.801-13.201h12.9L290.571,4578.896z"/>
	<path fill="#231F20" d="M624.269,4660.102l-28.502-62.403l-28.401,62.403h-9.7l-34.701-75.006h11l28.901,62.705l28.401-62.705h9.7
		l28.603,62.705l28.701-62.705h10.301l-34.603,75.006H624.269z M618.669,4578.896h-10.2l-12.701-8.102l-12.7,8.102h-10.201
		l17.401-13.201h10.9L618.669,4578.896z"/>
	<path fill="#231F20" d="M928.165,4660.102l-28.502-62.403l-28.4,62.403h-9.7l-34.702-75.006h11l28.902,62.705l28.4-62.705h9.7
		l28.604,62.705l28.7-62.705h10.302l-34.604,75.006H928.165z M879.362,4577.896v-12.801h9.602v12.801H879.362z M910.264,4577.896
		v-12.801h9.601v12.801H910.264z"/>
	<path fill="#231F20" d="M1232.061,4660.102l-28.502-62.403l-28.401,62.403h-9.699l-34.702-75.006h11l28.901,62.705l28.401-62.705
		h9.7l28.603,62.705l28.701-62.705h10.301l-34.602,75.006H1232.061z M1183.958,4565.694h12.9l16.801,13.201h-9.699
		L1183.958,4565.694z"/>
	<path fill="#231F20" d="M1472.854,4660.102v-27.804l-38.202-47.203h11.8l31.402,38.402l31.602-38.402h10.802l-37.802,47.203v27.804
		H1472.854z M1474.854,4578.896h-9.701l16.802-13.201h12.9L1474.854,4578.896z"/>
	<path fill="#231F20" d="M1716.749,4660.102v-27.804l-38.202-47.203h11.8l31.402,38.402l31.602-38.402h10.801l-37.802,47.203v27.804
		H1716.749z M1744.249,4578.896h-10.199l-12.701-8.102l-12.7,8.102h-10.201l17.401-13.201h10.9L1744.249,4578.896z"/>
	<path fill="#231F20" d="M257.27,4936.102v-27.801l-38.202-47.203h11.8l31.402,38.401l31.602-38.401h10.801l-37.802,47.203v27.801
		H257.27z M241.568,4853.896v-12.801h9.601v12.801H241.568z M272.471,4853.896v-12.801h9.6v12.801H272.471z"/>
	<path fill="#231F20" d="M498.068,4936.102v-27.801l-38.202-47.203h11.8l31.402,38.401l31.603-38.401h10.801l-37.802,47.203v27.801
		H498.068z M483.167,4841.694h12.901l16.801,13.201h-9.7L483.167,4841.694z"/>
	<path fill="#231F20" d="M701.064,4936.102v-7.601l54.604-59.305h-54.305v-8.1h67.704v7.6l-55.203,59.305h55.203v8.101H701.064z
		 M730.167,4853.896v-12.801h9.601v12.801H730.167z"/>
	<path fill="#231F20" d="M1004.567,4936.102V4917.6h-46.303l-18.901,18.502h-12.899l78.104-75.004h62.904v8.101h-53.305v24.602
		h47.504v8.102h-47.504v26.103h53.305v8.101h-62.904V4936.102z M966.565,4909.499h38.002v-37.102L966.565,4909.499z
		 M1017.269,4854.896h-9.701l16.802-13.201h12.9L1017.269,4854.896z"/>
</g>
</svg>
