<?xml version="1.0" encoding="utf-8"?>
<!-- Generator: Adobe Illustrator 16.0.3, SVG Export Plug-In . SVG Version: 6.00 Build 0)  -->
<!DOCTYPE svg PUBLIC "-//W3C//DTD SVG 1.1//EN" "http://www.w3.org/Graphics/SVG/1.1/DTD/svg11.dtd">
<svg version="1.1" id="Layer_1" xmlns="http://www.w3.org/2000/svg" xmlns:xlink="http://www.w3.org/1999/xlink" x="0px" y="0px"
	 width="1542.284px" height="888.104px" viewBox="205.467 183.396 1542.284 888.104"
	 enable-background="new 205.467 183.396 1542.284 888.104" xml:space="preserve">
<g>
	<path d="M222.568,221.298l19.601,19.602l-6.3,6.301l-30.402-30.302l30.402-30.402l6.3,6.301l-19.701,19.701h50.104v8.801
		L222.568,221.298L222.568,221.298z"/>
	<path d="M496.516,247.2l-6.3-6.301l19.601-19.602h-50.003v-8.801h50.104l-19.701-19.701l6.3-6.301l30.402,30.402L496.516,247.2z"/>
	<path d="M740.062,250.4v-50.003l-19.701,19.602l-6.2-6.301l30.303-30.302l30.401,30.302l-6.301,6.301l-19.601-19.602V250.4H740.062
		z"/>
	<path d="M992.408,250.4l-30.302-30.302l6.2-6.302l19.701,19.603v-50.003h8.9v50.003l19.602-19.603l6.301,6.302L992.408,250.4z"/>
	<path d="M1222.954,206.697v27.802h-8.9v-42.901h42.902v8.899h-27.802l35.302,35.402l-6.199,6.2L1222.954,206.697z"/>
	<path d="M1493.302,234.499v-27.802l-35.402,35.402l-6.2-6.2l35.304-35.402H1459.2v-8.899h42.902v42.901H1493.302L1493.302,234.499z
		"/>
	<path d="M1700.846,242.099v-8.9h27.802l-35.303-35.402l6.2-6.199l35.401,35.401v-27.802h8.801v42.902H1700.846z"/>
	<path d="M209.467,518.099v-42.902h8.901v27.802l35.302-35.401l6.2,6.2l-35.302,35.401h27.802v8.9H209.467z"/>
	<path d="M475.725,497.299l19.601,19.601l-6.3,6.301l-30.402-30.302l30.402-30.402l6.3,6.302l-19.7,19.7h112.808v8.802
		L475.725,497.299L475.725,497.299z"/>
	<path d="M886.585,523.2l-6.302-6.301l19.603-19.601H787.178v-8.802h112.707l-19.603-19.7l6.302-6.302l30.401,30.402L886.585,523.2z
		"/>
	<path d="M1132.734,487.097l26.302,26.202l-6.3,6.2l-37.003-36.902l37.003-37.002l6.3,6.2l-26.302,26.4h63.304v8.9L1132.734,487.097
		L1132.734,487.097z"/>
	<path d="M1438.093,519.5l-6.301-6.199l26.201-26.202h-63.203v-8.9h63.304l-26.302-26.4l6.301-6.2l37.002,37.002L1438.093,519.5z"/>
	<path d="M1706.448,522.7v-63.304l-26.401,26.401l-6.2-6.301l37.003-37.103l36.901,37.103l-6.2,6.301l-26.201-26.303V522.7H1706.448
		z"/>
	<path d="M205.467,761.698l6.2-6.301l26.402,26.302v-63.304h8.9v63.304l26.2-26.302l6.2,6.301L242.47,798.7L205.467,761.698z"/>
	<path d="M503.143,744.497v37.202h-8.801v-52.304h52.304v8.901h-37.202l44.702,44.803l-6.2,6.2L503.143,744.497z"/>
	<path d="M816.121,781.699v-37.202l-44.803,44.804l-6.2-6.2l44.703-44.803h-37.202v-8.901h52.304V781.7L816.121,781.699
		L816.121,781.699z"/>
	<path d="M1047.395,789.3v-8.9l37.202,0.1l-44.703-44.901l6.2-6.201l44.803,44.903v-37.304h8.801v52.305L1047.395,789.3
		L1047.395,789.3z"/>
	<path d="M1318.671,789.3v-52.305h8.8v37.304l44.803-44.903l6.2,6.201l-44.702,44.901l37.202-0.1v8.9L1318.671,789.3L1318.671,789.3
		z"/>
	<path d="M1606.446,763.097l26.303,26.202l-6.301,6.2l-37.003-36.902l37.003-37.002l6.301,6.2l-26.303,26.4h141.31v8.9
		L1606.446,763.097L1606.446,763.097z"/>
	<path d="M326.675,1071.5l-6.301-6.199l26.302-26.202H205.467v-8.9h141.31l-26.401-26.4l6.301-6.2l37.103,37.002L326.675,1071.5z"/>
</g>
</svg>
