<?xml version="1.0" encoding="utf-8"?>
<!-- Generator: Adobe Illustrator 16.0.3, SVG Export Plug-In . SVG Version: 6.00 Build 0)  -->
<!DOCTYPE svg PUBLIC "-//W3C//DTD SVG 1.1//EN" "http://www.w3.org/Graphics/SVG/1.1/DTD/svg11.dtd">
<svg version="1.1" id="Layer_1" xmlns="http://www.w3.org/2000/svg" xmlns:xlink="http://www.w3.org/1999/xlink" x="0px" y="0px"
	 width="1550.481px" height="2023.308px" viewBox="203.567 161.493 1550.481 2023.308"
	 enable-background="new 203.567 161.493 1550.481 2023.308" xml:space="preserve">
<g>
	<path d="M226.868,255.5v-10.9c-12.501-1.699-20.201-8.9-20.701-22.001h12.102c0.601,7.501,3.801,11.301,8.601,12.9v-23.602
		c-9.7-2.301-19.901-5.801-19.901-19.603c0-10.899,8.102-18.4,19.901-20.001v-10.801h10.602v10.9
		c12.301,1.699,19.2,8.899,19.9,21.102h-12.2c-0.5-6.601-3.199-10.301-7.7-11.899v22.2c9.801,2.101,20.602,5.4,20.602,19.401
		c0,11.4-9.101,19.801-20.602,21.501V255.5H226.868z M226.868,201.297v-20.102c-5.101,1.1-8.5,4.3-8.5,9.801
		C218.368,197.097,221.968,199.697,226.868,201.297z M237.469,214.297v21.502c5.301-1.199,9.301-4.899,9.301-11.101
		C246.77,218.398,242.77,215.898,237.469,214.297z"/>
	<path d="M470.498,255.5v-11c-12.4-2.2-18.102-12.501-18.102-26.9c0-14.302,6.4-24.502,18.102-26.901v-11.102h10.602v10.9
		c10.101,1.7,16.101,8.4,17.101,18.301h-11.301c-0.898-5.601-2.6-8.801-5.8-10.199V236.5c3-1.399,4.899-4.501,5.7-9.9h11.399
		c-1.1,9.801-7.2,16.4-17.101,18.001V255.5H470.498z M470.498,236.099v-36.804c-4.101,2.602-6.7,8.501-6.7,18.303
		C463.798,227.598,466.197,233.599,470.498,236.099z"/>
	<path d="M689.427,243.5V234.6h8.399v-20.303h-8.399v-8.8h8.399v-12.501c0-13.301,9.2-21.001,21.701-21.001
		c13.602,0,22.001,6.7,22.701,20.102h-12.201c-0.699-8.602-5-11.4-10.5-11.4c-5.2,0-10.201,2.8-10.201,11.001v13.801h21.103v8.8
		h-21.103v20.303h31.104v8.899L689.427,243.5L689.427,243.5z"/>
	<path d="M954.156,243.5V234.6h-17.102v-8.802h17.102v-11.501h-17.102v-8.8h14.701l-19.802-32.002h12.501l16.302,27.603l15.7-27.603
		h10.602l-19.103,32.002h14.901v8.8h-17.102v11.501h17.102v8.802h-17.102v8.899H954.156z"/>
	<path d="M1211.288,223.499V244.8c0,13.302-8.899,21.003-20.501,21.003c-12.801,0-20.302-6.701-21.002-18.701h12.102
		c0.801,7.199,4.101,10,8.9,10c4.4,0,8.9-2.8,8.9-11v-22.603h-15.701v-8.801h15.701v-21.701c0-13.301,8.9-21.001,20.501-21.001
		c12.801,0,20.302,6.7,21.001,18.801h-12.101c-0.801-7.301-4.101-10.101-8.9-10.101c-4.4,0-8.9,2.8-8.9,11.001v23.001h15.701v8.801
		H1211.288z"/>
	<path d="M1444.616,223.499c2.301,8.4,6.9,12.602,14.001,12.602c7.602,0,12.602-4.802,13.9-15.802h12.601
		c-1.898,16.9-12.399,24.701-26.501,24.701c-14.201,0-22.9-8.101-26.302-21.501h-8.501v-8.801h7.001c-0.101-2-0.2-4-0.2-6.2
		c0-1.801,0.101-3.601,0.2-5.301h-7.001v-8.8h8.501c3.601-13.901,13.001-22.401,26.302-22.401c14.102,0,24.603,7.8,26.501,24.701
		h-12.601c-1.3-11.001-6.3-15.801-13.9-15.801c-6.701,0-11.701,4.5-14.102,13.501h17.802v8.8h-19.102c-0.101,1.7-0.2,3.5-0.2,5.301
		c0,2.2,0.101,4.3,0.2,6.2h19.102v8.801H1444.616L1444.616,223.499z"/>
	<path d="M1716.447,223.398c1.3-9.102,2.2-16.602,2.2-22.602c0-12.7-4.001-18.4-14.901-18.4h-10.001V243.5h-10v-70.004h21.001
		c15.701,0,23.603,6.7,23.603,26.103c0,6.6-0.8,14.399-2.5,23.801L1716.447,223.398L1716.447,223.398z M1700.446,243.5v-49.902h10
		V234.6h9.602c11.001,0,15.602-8.302,15.602-25.803c0-9.399-1.7-22.501-4.101-35.302h9.399c2.301,10.602,4.2,25.201,4.2,34.901
		c0,25.002-8.399,35.103-24.102,35.103H1700.446z"/>
	<path d="M204.167,531.5l7.301-24.002c-3.501-6-5.301-13.801-5.301-23.001c0-19.102,9.001-32.502,23.303-35.701l3.399-11.302h10.9
		l-3.301,10.7c2.399,0.301,4.601,0.7,6.7,1.4l3.7-12.102h11l-5.399,17.701c4.101,4,6.801,9.801,7.7,17.501h-12.6
		c-1.301-11.001-6.501-15.801-15.102-15.801c-10.2,0-17.901,9.101-17.901,27.602s6.801,27.603,17.901,27.603
		c8.601,0,13.801-4.801,15.102-15.801h12.601c-1.899,16.899-12.601,24.7-27.701,24.7h-0.101l-3.2,10.501h-11.001l3.602-12.101
		c-2.2-0.7-4.301-1.801-6.102-3.001l-4.601,15.102L204.167,531.5L204.167,531.5z"/>
	<path d="M460.864,519.5h-11.001v-51.902h11.001v6.601c4.8-4.899,11.102-8.2,17.801-8.2c6.2,0,11.802,2.399,14.302,8.7
		c2.7-2.7,5.501-4.7,8.399-6.101l8.102-12.7h10.899l-6.5,10.2c7.7,0.601,14.001,5.2,14.001,16.9V519.5h-11.001v-34.201
		c0-6.9-2.899-10.102-8.601-10.4l-13.9,21.901v22.7h-11.001V514l-10.5,16.502h-10.9l21.4-33.604v-11.601c0-7.2-3-10.4-9.399-10.4
		c-4.802,0-10.001,2.8-13.102,5.9V519.5L460.864,519.5z"/>
	<path d="M760.264,519.5l-29.802-52.604l0.3,14.201V519.5h-10.602v-20.602h-9.701v-8.9h9.701v-11.399h-9.701v-8.801h9.701v-20.302
		h11.7l29.802,52.604l-0.3-14.2v-38.402h10.602v20.302h9.7v8.801h-9.7v11.399h9.7v8.9h-9.7V519.5H760.264z"/>
	<path d="M967.856,493.598v-8.501h10.801c6.9,0,12.4-2.8,13.4-10.801h-31.802v-8.801h31.002c-1.802-4.899-6.102-6.801-11.501-7.101
		h-19.501v-8.9h10h1.2h39.901v8.9h-13.2c2.2,2,3.801,4.4,4.801,7.101h8.399v8.801h-7.5c-1.2,13.001-11.399,18.502-22.602,19.2
		l27.102,26.002h-14.301L967.856,493.598z"/>
	<path d="M1251.655,519.5l-10-40.103l-3.601-15.101l-3.4,15.101l-10.2,40.103h-12.101l-5.399-20.602h-15.603v-8.9h13.301l-3-11.399
		h-10.301v-8.801h8.001l-5.301-20.302h12.4l9.2,41.502l3.3,14.901l3.4-14.901l10.201-41.502h12l10.301,41.502l3.5,15.201
		l3.102-15.201l8.601-41.502h10.899l-5,20.302h7.7v8.801h-9.899l-2.801,11.399h12.7v8.9h-14.899l-5.002,20.602H1251.655z"/>
	<path d="M1496.552,504.899v-5.2c-3.601,4.3-8.301,6.7-14.501,6.7c-9.602,0-18.501-7.2-18.501-21.802
		c0-14.701,9.801-21.901,19.9-21.901c5.4,0,10.4,2.301,13.102,6.001v-9.4h-11.801v-7.801h11.801v-6.399h10.801v6.399h7.2v7.801h-7.2
		V504.9L1496.552,504.899L1496.552,504.899z M1463.55,519.5v-8.101h51.003v8.101H1463.55z M1496.552,475.397
		c-2.9-2.9-6.301-4.601-10.9-4.601c-5.601,0-11.101,4.199-11.101,13.801c0,9.501,5,13.701,10.601,13.701c4.602,0,8.5-2,11.4-5
		V475.397z"/>
	<path d="M1700.047,519.5v-32.302h-9.001v-8.899h9.001v-28.803h11.601v28.803h0.4l21.801-28.803h12.001l-22.802,28.803h23.102v8.899
		h-21.701l24.901,32.302h-14.2l-23.502-32.201V519.5H1700.047z"/>
	<path d="M234.869,755.998v8.4l12.4-5.2v9.2l-12.4,5.3V795.5h-11.601v-16.9l-12.401,5.2v-9.3l12.401-5.2v-8.401l-12.401,5.201
		v-9.301l12.401-5.2v-17.201h-18.803v-8.9h49.203v8.9h-18.801v12.301l12.4-5.2v9.2L234.869,755.998z"/>
	<path d="M494.8,752.798c-2.101,12.5-13.4,18.199-25.002,18.199h-8.7V795.5h-11.602v-42.701h-9.001v-8.901h9.001v-18.4h20.302
		c11.602,0,22.901,5.9,25.002,18.4h7.699v8.901L494.8,752.798L494.8,752.798z M461.097,743.896h21.802
		c-1.5-6.5-6.701-9.7-13.102-9.7h-8.7V743.896z M469.798,762.298c6.301,0,11.501-3,13.102-9.5h-21.802v9.5H469.798z"/>
	<path d="M719.628,756.298c6.501-2.602,11.7-5.9,11.7-12.701c0-7.102-4.199-10.9-12.301-10.9c-8.101,0-12.701,3.5-13.501,11.4
		h-12.101c0.8-12.7,9.501-20.102,25.602-20.102c15.102,0,23.701,7.301,23.701,18.2c0,6.801-3,11.001-7.3,14.103h10v8.899h-30.201
		c-5.9,2.601-10.401,5.9-10.401,12.2c0,7.101,4.2,10.901,12.302,10.901c8.101,0,13.4-3.5,14.102-11.302h12.2
		c-0.8,12.602-10.2,20.001-26.302,20.001c-15.102,0-23.701-7.199-23.701-18.2c0-6.4,2.601-10.5,6.5-13.602h-8.2v-8.899
		L719.628,756.298L719.628,756.298z"/>
	<path d="M962.657,807.5v-11c-16.201-2.5-24.602-16.101-24.602-36.002c0-19.7,9.501-33.302,24.602-36.002v-11.001h10.501v10.802
		c12.5,1.6,21.201,9.399,22.901,24.4h-12.602c-1.101-8.801-4.601-13.601-10.301-15.201V787.5c5.7-1.601,9.2-6.399,10.301-15.2
		h12.602c-1.7,15.101-10.401,22.9-22.901,24.4v10.8H962.657z M962.657,787.199v-53.203c-7.301,2.9-12.201,11.701-12.201,26.502
		C950.456,775.598,954.957,784.399,962.657,787.199z"/>
	<path d="M1208.687,807.5v-12h-16.603v-70.004h16.603v-12.001h10.5v12.2c10.601,0.9,20.401,5.501,20.401,17.603
		c0,7.101-4.602,13.7-11.2,15.601c7.899,1.4,14.101,6.2,14.101,16.001c0,13.001-10.101,19.901-23.302,20.603V807.5H1208.687z
		 M1208.687,755.897v-21.701h-5.001v21.701H1208.687z M1208.687,786.8v-22.401h-5.001V786.8H1208.687z M1219.187,734.496v21.002
		c5.2-1.301,8.601-5.001,8.601-11.301C1227.787,737.996,1224.387,735.396,1219.187,734.496z M1219.187,764.498v22.201
		c7.601-0.6,11.401-4.7,11.401-11.801S1225.787,764.998,1219.187,764.498z"/>
	<path d="M1478.017,780.699c-4,2.601-8.9,4.102-14.501,4.102c-5.6,0-10.602-1.4-14.5-4.102l-8.201,8.2l-6.3-6.2l8.3-8.301
		c-2.8-4.1-4.3-9.101-4.3-14.9c0-5.699,1.5-10.7,4.2-14.801l-8.2-8.301l6.2-6.301l8.199,8.301c3.9-2.7,8.9-4.2,14.602-4.2
		c5.601,0,10.602,1.5,14.602,4.2l8.2-8.301l6.301,6.301l-8.301,8.2c2.7,4.101,4.3,9.2,4.3,14.9c0,5.8-1.6,10.9-4.3,15.001l8.2,8.2
		l-6.2,6.2L1478.017,780.699z M1477.218,759.498c0-11.7-5.7-17.7-13.701-17.7c-8,0-13.602,6-13.602,17.7s5.602,17.802,13.602,17.802
		C1471.517,777.299,1477.218,771.198,1477.218,759.498z"/>
	<path d="M1688.245,795.5l4.801-18.9h-9v-8.801h11.301l3.8-14.9h-10.101v-8.801h12.399l4.802-18.602h10.601l-4.801,18.602h15.9
		l4.802-18.602h10.601l-4.801,18.602h9.101v8.801h-11.4l-3.801,14.9h10.201v8.801h-12.501l-4.801,18.9h-10.601l4.801-18.9h-15.901
		l-4.8,18.9H1688.245z M1705.946,767.798h15.9l3.801-14.9h-15.9L1705.946,767.798z"/>
	<path d="M226.168,1083.5v-10.9c-12.5-1.699-20.101-8.9-20.601-22.001h12.101c0.601,7.399,3.7,11.301,8.5,12.801v-23.602
		c-9.601-2.2-19.801-5.801-19.801-19.501c0-10.9,8.101-18.401,19.801-20.001v-10.802h10.602v10.9c12.4,1.7,19.302,8.9,20.002,21.102
		H244.57c-0.5-6.699-3.3-10.399-7.801-11.899v22.201c9.801,2.1,20.702,5.3,20.702,19.4c0,11.4-9.102,19.802-20.702,21.501v10.801
		H226.168z M226.168,1029.298v-20.103c-5,1.2-8.399,4.3-8.399,9.801C217.768,1025.097,221.268,1027.697,226.168,1029.298z
		 M236.769,1042.298v21.602c5.399-1.3,9.4-5,9.4-11.2C246.17,1046.398,242.069,1043.898,236.769,1042.298z"/>
	<path d="M439.564,1083.5v-11c-12.4-2.199-18.101-12.5-18.101-26.9c0-14.301,6.399-24.502,18.101-26.901v-11.102h10.601v10.9
		c10.102,1.7,16.103,8.4,17.103,18.302h-11.301c-0.9-5.602-2.602-8.802-5.802-10.2v37.901c3.002-1.399,4.9-4.5,5.701-9.9h11.4
		c-1.102,9.801-7.2,16.4-17.103,18.001v10.901h-10.6V1083.5z M439.564,1064.099v-36.803c-4.1,2.601-6.7,8.501-6.7,18.302
		C432.864,1055.598,435.265,1061.599,439.564,1064.099z"/>
	<path d="M630.661,1071.5v-8.899h8.4v-20.302h-8.4v-8.801h8.4v-12.501c0-13.301,9.2-21.001,21.701-21.001
		c13.601,0,22.001,6.7,22.701,20.102h-12.2c-0.7-8.602-5.001-11.4-10.501-11.4c-5.2,0-10.2,2.8-10.2,11.001v13.801h21.101v8.801
		h-21.101v20.302h31.102v8.9h-51.003V1071.5z"/>
	<path d="M864.858,1071.5v-8.899h-17.101v-8.801h17.101v-11.501h-17.101v-8.801h14.7l-19.602-32.002h12.501l16.101,27.603
		l15.401-27.603h10.5l-18.801,32.002h14.9v8.801h-17.102v11.501h17.102v8.801h-17.102v8.899H864.858z"/>
	<path d="M1077.256,1051.5h-15.7v-8.802h15.7v-22.302c0-13.301,6.501-20.4,17.501-20.4c11.301,0,16.9,6.101,17.701,15.802h-11.2
		c-0.7-4.9-2.2-7.102-6.2-7.102c-4.001,0-6.201,2.5-6.201,10.102v23.9h15.701v8.802h-15.701v21.9c0,13.301-8.3,20.401-19.301,20.401
		c-11.301,0-18.701-6.102-19.401-17.802h11.201c0.7,6.899,3.9,9.101,7.9,9.101s8-2.5,8-10.101V1051.5L1077.256,1051.5z"/>
	<path d="M1287.452,1051.5c1.7,8.399,5.4,12.601,11.602,12.601c7.301,0,10.102-4.801,11.4-15.801h12.602
		c-1.9,16.899-10.301,24.7-24.002,24.7c-13.2,0-20.501-8.101-23.301-21.5h-6.4v-8.802h5.3c-0.199-2-0.199-4-0.199-6.2
		c0-1.801,0.101-3.601,0.199-5.301h-5.3v-8.8h6.5c3-13.901,10.9-22.401,23.201-22.401c13.701,0,22.102,7.801,24.002,24.701h-12.602
		c-1.3-11.001-4.101-15.801-11.4-15.801c-5.801,0-9.801,4.5-11.602,13.501h13.401v8.8h-14.501c-0.101,1.7-0.101,3.5-0.101,5.301
		c0,2.2,0,4.301,0.101,6.2h14.501v8.802H1287.452z"/>
	<path d="M1483.749,1071.5l4.8-18.9h-6.7v-8.801h9.001l3.8-14.9h-7.801v-8.801h10.102l4.801-18.602h10.199l-4.8,18.602h11.802
		l4.8-18.602h10.201l-4.802,18.602h6.802v8.801h-9.102l-3.8,14.9h7.9v8.801h-10.201l-4.801,18.9h-10.2l4.801-18.9h-11.801
		l-4.802,18.9H1483.749z M1501.05,1043.798h11.801l3.801-14.9h-11.801L1501.05,1043.798z"/>
	<path d="M1723.047,1051.598c1.5-9.4,2.399-17.101,2.399-23.201c0-13.401-4.199-19.602-15.801-19.602h-6.501v62.704h-8.3v-70.005
		h15.801c14.7,0,22.801,6.2,22.801,26.201c0,6.5-0.8,14.302-2.6,23.901L1723.047,1051.598L1723.047,1051.598z M1709.745,1071.5
		v-50.003h8.302v42.702h6.3c11.501,0,16.4-8.199,16.4-27.201c0-9.301-1.699-22.802-4.3-35.502h7.7c2.4,10.4,4.4,25.301,4.4,34.803
		c0,25.9-8.701,35.201-23.202,35.201H1709.745L1709.745,1071.5z"/>
	<path d="M213.367,1347.5h-8.9v-51.604h8.9v5.001c3.301-4.001,7.601-6.501,11.101-6.501c4.9,0,8.502,2.301,9.901,7.101
		c2.7-3.3,5.601-5.399,8.3-6.399l5.9-11.2h9.501l-6.301,11.9c3.101,1.699,5.001,5.301,5.001,10.699v41.003h-8.901v-38.803
		c0-1.699-0.3-3-0.699-4.1l-12.102,23.102v19.802h-8.9v-2.9l-7.3,13.901h-9.501l16.801-31.902v-17.901c0-4.6-1.7-6.699-4.7-6.699
		c-2.398,0-5.399,1.699-8.101,5V1347.5z M235.068,1309.597l2.801-5.4c-0.899,0.7-1.899,1.7-2.801,2.801V1309.597z"/>
	<path d="M456.065,1347.5l-9.8-21.302h-15.103v21.302h-9.101v-21.302h-5.8v-7.8h5.8v-12.301h-5.8v-7.801h5.8v-20.802h10.601
		l9.501,20.802h15.401v-20.802h9v20.802h5.9v7.801h-5.9v12.301h5.9v7.8h-5.9v21.302H456.065z M430.965,1298.297h2.399l-2.5-5.5
		L430.965,1298.297z M431.164,1306.097v12.301h11.501l-5.699-12.301H431.164z M451.467,1318.398h6.101v-12.301h-11.801
		L451.467,1318.398z M457.666,1326.198h-2.699l2.8,6.001L457.666,1326.198z"/>
	<path d="M666.763,1347.5l-3.399-21.302h-10.801l-3.4,21.302h-9.001l-2.898-21.302h-9.401v-7.8h8.401l-1.7-12.301h-6.701v-7.801
		h5.701l-2.801-20.802h8.801l2.101,20.802h8.601l3.2-20.802h9.301l3.101,20.802h8.302l1.8-20.802h7.801l-2.4,20.802h5.301v7.801
		h-6.2l-1.5,12.301h7.7v7.8h-8.602l-2.398,21.302H666.763z M643.662,1318.398h3.601l1.899-12.301h-6.699L643.662,1318.398z
		 M645.162,1334.799l1.101-8.602h-1.9L645.162,1334.799z M653.763,1318.398h8.3l-1.899-12.301h-4.399L653.763,1318.398z
		 M656.862,1298.297h2.102l-1-7.7L656.862,1298.297z M668.863,1318.398h3.5l1.102-12.301h-6.501L668.863,1318.398z
		 M671.063,1335.199l0.7-9.001h-1.9L671.063,1335.199z"/>
	<path d="M879.159,1333.199v-5.5c-3.5,4.5-8.199,7-14.601,7c-9.301,0-18.801-7-18.801-22.102s10.199-22.001,20.2-22.001
		c5.602,0,10.7,2.399,13.2,6v-9.802h-12.399v-7.1h12.399v-6.601h9.401v6.601h7.7v7.1h-7.7v46.403L879.159,1333.199L879.159,1333.199
		z M845.759,1347.5v-7.399h50.503v7.399H845.759z M879.159,1303.097c-3.1-3.301-6.699-5.102-11.899-5.102
		c-5.7,0-11.7,4.2-11.7,14.602c0,10.501,5.5,14.701,11.2,14.701c5.2,0,9.301-2.301,12.399-5.5V1303.097z"/>
	<path d="M1063.555,1347.5v-32.901h-8.501v-7.8h8.501v-29.303h10.101v29.303h0.3l22.201-29.303h10.802l-23.103,29.303h23.401v7.8
		h-22.201l25.201,32.901h-12.602l-24.001-32.701v32.701H1063.555z"/>
	<path d="M1300.953,1308.397v6.9l12.701-5.7v8.2l-12.701,5.699v24.002h-10.101v-19.602l-12.7,5.601v-8.199l12.7-5.602v-6.9
		l-12.7,5.602v-8.201l12.7-5.6v-19.303h-19.301v-7.8h48.703v7.8h-19.303v14.901l12.701-5.7v8.2L1300.953,1308.397z"/>
	<path d="M1508.949,1308.798c7.4-2.7,13.501-5.9,13.501-13.401c0-7.7-4.601-11.7-13.101-11.7c-8.4,0-13.401,3.601-14.201,11.802
		h-10.7c0.7-12.002,9.301-19.502,24.901-19.502c14.801,0,23.102,7.5,23.102,18.302c0,7.101-3.199,11.399-7.601,14.501h10.301v7.8
		h-28.502c-6.899,2.7-12.399,5.9-12.399,13.001c0,7.701,4.6,11.701,13.199,11.701c8.4,0,14.102-3.602,15.001-11.801h10.701
		c-0.699,12.001-10.101,19.501-25.702,19.501c-14.801,0-23.2-7.5-23.2-18.302c0-6.699,2.899-11.001,7-14.102h-8.7v-7.8H1508.949z"/>
	<path d="M1718.346,1359.5v-11c-15.001-2.399-23.401-16-23.401-36.002c0-19.802,9.301-33.401,23.401-36.002v-11h9.199v10.801
		c11.302,1.398,19.901,9.101,21.803,23.801h-11.201c-1.199-9.2-5.1-14.2-10.602-15.7v56.304c5.502-1.5,9.401-6.4,10.602-15.802
		h11.201c-1.9,14.802-10.501,22.401-21.803,23.802v10.802h-9.199V1359.5z M1718.346,1340.399v-55.604
		c-7.2,2.699-12.801,11.7-12.801,27.702C1705.546,1328.898,1710.646,1337.8,1718.346,1340.399z"/>
	<path d="M225.668,1635.5v-12h-16.899v-70.004h16.899v-12.001h9.201v12.2c10.5,0.801,20.301,5.4,20.301,17.502
		c0,7.4-5,14.102-11.399,15.9c7.399,1,14.301,5.5,14.301,15.801c0,12.901-9.7,20.002-23.201,20.602v12.002h-9.202V1635.5z
		 M225.668,1584.397v-23.201h-6.8v23.201H225.668z M225.668,1615.8v-23.803h-6.8v23.803H225.668z M234.869,1561.396v22.701
		c6.2-1.2,9.9-5.4,9.9-12.301C244.77,1565.096,240.869,1562.196,234.869,1561.396z M234.869,1592.097v23.702
		c8.9-0.602,12.801-5.2,12.801-12.901C247.67,1595.298,242.369,1592.498,234.869,1592.097z"/>
	<path d="M464.51,1609.099c-3.7,2.398-8.302,3.7-13.602,3.7c-5.399,0-10.001-1.302-13.701-3.7l-7.8,7.8l-6.201-6.2l7.802-7.801
		c-2.8-4.2-4.2-9.5-4.2-15.4c0-5.899,1.399-11.101,4.2-15.301l-7.802-7.801l6.201-6.301l7.8,7.899c3.7-2.398,8.302-3.8,13.701-3.8
		c5.3,0,10,1.4,13.701,3.8l7.8-7.899l6.2,6.301l-7.8,7.801c2.7,4.2,4.2,9.4,4.2,15.301c0,5.901-1.5,11.2-4.2,15.4l7.8,7.801
		l-6.2,6.2L464.51,1609.099z M463.608,1587.498c0-11.7-4.7-17.7-12.7-17.7c-8.001,0-12.701,6-12.701,17.7s4.7,17.802,12.701,17.802
		C458.908,1605.299,463.608,1599.198,463.608,1587.498z"/>
	<path d="M645.246,1623.5l4.801-18.9h-6.7v-8.801h9.001l3.8-14.9h-7.801v-8.801h10.102l4.8-18.602h10.2l-4.8,18.602h11.801
		l4.8-18.602h10.201l-4.801,18.602h6.801v8.801h-9.101l-3.8,14.9h7.899v8.801h-10.201l-4.8,18.9h-10.201l4.802-18.9h-11.802
		l-4.801,18.9H645.246z M662.548,1595.798h11.801l3.801-14.9h-11.801L662.548,1595.798z"/>
	<path d="M881.986,1632.801v-8.201c-10.399-1.399-16.801-7.3-17.201-17.102h9.901c0.5,5.302,3.3,8.502,7.3,9.9v-18.4
		c-8.301-1.899-16.399-4.801-16.399-15.4c0-8.4,6.699-14.401,16.399-15.602v-8.101h8.9v8.3c10.201,1.4,16.001,7.201,16.501,16.401
		h-9.9c-0.398-4.801-2.899-7.801-6.601-9.101v16.9c8.399,2,17.001,5.2,17.001,15.9c0,8.9-7.4,15.201-17.001,16.501v8.001h-8.9
		V1632.801z M881.986,1590.398v-15.401c-4.1,0.9-7.2,3.5-7.2,7.602C874.786,1586.998,877.887,1589.097,881.986,1590.398z
		 M890.887,1601v16.801c4.301-1,7.899-3.801,7.899-8.501C898.787,1604.799,895.287,1602.5,890.887,1601z"/>
	<path d="M1092.027,1632.801v-8.201c-9.901-1.8-14.602-10-14.602-21.201c0-11,4.699-19.201,14.602-21.101v-8.201h8.9v8.201
		c8,1.3,12.899,6.5,13.7,13.699h-9.102c-0.8-4.199-2.199-6.199-4.6-7.101V1618c2.399-0.899,3.8-2.899,4.5-7h9.101
		c-0.8,7.199-5.7,12.301-13.601,13.601v8.201L1092.027,1632.801L1092.027,1632.801z M1092.027,1617.599v-28.302
		c-3.601,1.8-5.501,6.199-5.501,14.101C1086.526,1611.399,1088.526,1615.8,1092.027,1617.599z"/>
	<path d="M1280.365,1623.5v-7h6.4v-15.2h-6.4v-7.001h6.4v-9.9c0-10.601,8.001-16.601,17.802-16.601c10.3,0,17.701,5.1,18.201,15.399
		h-9.801c-0.801-6.3-4-8.601-8.4-8.601c-4.501,0-8.301,2.501-8.301,8.801v10.9h16.801v7.001h-16.801v15.201h24.802v7H1280.365
		L1280.365,1623.5z"/>
	<path d="M1507.307,1623.5v-6.801h-13.701v-6.899h13.701v-8.7h-13.701v-6.9h11.301l-16.101-25.002h10.501l13.4,21.901l12.5-21.901
		h9.2l-15.301,25.002h11.301v6.9h-13.701v8.7h13.701v6.899h-13.701v6.801H1507.307z"/>
	<path d="M1729.548,1607.899v16.601c0,10.602-7.802,16.603-17.001,16.603c-9.4,0-16.602-5.101-17.102-14.501h9.9
		c0.7,5.6,3.7,7.7,7.2,7.7c3.899,0,7.399-2.2,7.399-8.802v-17.601h-11.801v-7.001h11.801v-16.501
		c0-10.601,7.802-16.601,17.001-16.601c9.4,0,16.501,5.1,17.103,14.501h-9.9c-0.7-5.701-3.701-7.701-7.201-7.701
		c-4,0-7.399,2.2-7.399,8.801v17.501h12.001v7.001H1729.548z"/>
	<path d="M220.168,1883.799c2,6.899,6,10.301,11.501,10.301c6.101,0,10-3.4,11.2-12.102h10.301
		C251.47,1894.8,242.47,1901,231.669,1901c-11.201,0-18.602-6.5-21.502-17.201h-6.6v-6.9h5.398c-0.198-1.4-0.198-2.9-0.198-4.5
		c0-1.4,0.1-2.8,0.198-4.101h-5.398v-6.801h6.5c2.8-10.9,10.301-17.7,21.602-17.7c10.802,0,19.802,6.199,21.501,19h-10.301
		c-1.2-8.699-5.101-12.101-11.2-12.101c-5.601,0-9.7,3.601-11.7,10.801h14.301v6.801h-15.4c-0.101,1.301-0.101,2.699-0.101,4.101
		c0,1.6,0.101,3.1,0.2,4.5h15.301v6.9H220.168z"/>
	<path d="M444.552,1884.098c1.2-7.3,1.899-13.2,1.899-18.001c0-9.3-3.399-13.9-12.601-13.9h-7.7v47.303h-8.201v-54.304h16.701
		c13.001,0,19.802,4.9,19.802,20.302c0,5.102-0.601,11.2-2.001,18.602L444.552,1884.098L444.552,1884.098z M431.751,1899.5v-38.803
		h8.2v31.803h6.8c9.502,0,13.401-6.5,13.401-19.802c0-7.2-1.301-17.601-3.399-27.502h7.801c1.898,8.201,3.6,19.603,3.6,27.002
		c0,20.103-7.5,27.302-20.601,27.302H431.751z"/>
	<path d="M629.232,1908.801l5.7-17.901c-3.102-4.8-4.8-11.101-4.8-18.501c0-15.301,7.2-26.002,19.801-28.202l2.7-8.3h8.899
		l-2.699,8.2c1.699,0.2,3.199,0.5,4.699,1l3-9.2h8.901l-4.301,13.4c3.5,3.199,5.899,7.601,6.7,13.501h-10.2l-0.3-1.7L656.635,1894
		c6.001-0.5,9.801-4.101,11.001-12h10.199c-1.6,12.801-11.301,19-23,19h-0.4l-2.5,7.802h-8.801l2.899-9.201
		c-1.5-0.5-3-1.199-4.399-2l-3.601,11.201L629.232,1908.801L629.232,1908.801z M639.433,1877l7.701-24.103
		c-4.802,3.2-7.901,9.7-7.901,19.501C639.232,1873.998,639.232,1875.598,639.433,1877z M648.233,1892.8l13.102-40.703
		c-1.399-0.699-2.9-1.101-4.601-1.3l-12.602,39.003C645.333,1891.099,646.733,1892.099,648.233,1892.8z"/>
	<path d="M852.115,1908l16.602-23.701v-10c0-6.001-1.899-8.802-7.3-8.802c-4.2,0-8.302,2.5-10.802,5v29.002h-8.899v-40.103h8.899
		v5.2c3.7-3.801,8.4-6.5,13.602-6.5c5.801,0,9.801,2.1,11.801,6.5c2.8-2.7,6.601-4.801,10.501-5.801l6-8.601h9.001l-5.9,8.4
		c5.5,1.399,9,5.699,9,13.701v27.2h-8.899v-25.2c0-5.102-1.4-7.802-5.102-8.602l-13,18.701v15.101h-8.9v-2.3L861.115,1908H852.115z
		 M877.517,1871.598l3.101-4.4c-1.301,0.601-2.399,1.399-3.199,2.2C877.517,1870.098,877.517,1870.898,877.517,1871.598z"/>
	<path d="M1104.7,1899.5l-8.701-15.7h-14.601v15.7h-8.5v-15.7h-7.701v-6.9h7.701v-8.601h-7.701v-6.801h7.701v-16.302h9.8
		l9.001,16.302h14.302v-16.302h8.5v16.302h7.7v6.801h-7.7v8.601h7.7v6.9h-7.7v15.7H1104.7z M1081.3,1861.498h2.398l-2.398-4.301
		V1861.498z M1081.398,1868.298v8.601h10.801l-4.801-8.601H1081.398z M1100.199,1876.898h5.802v-8.601h-10.502L1100.199,1876.898z
		 M1106.1,1883.799h-2l2.101,3.801L1106.1,1883.799z"/>
	<path d="M1313.583,1864.298c-1,9.501-8.4,13.899-17.602,14.801l21.602,20.401h-12.102l-21.301-20.302v-6.801h8.3
		c6.201,0,10.501-2.4,11.301-8.101h-25.2v-6.802h24.602c-1.5-3.5-5-5.3-9.7-5.5h-14.9v-6.801h8.399h1.102h30.502v6.801h-9.001
		c1.6,1.602,2.699,3.4,3.399,5.5h5.602v6.802L1313.583,1864.298L1313.583,1864.298z"/>
	<path d="M1527.066,1899.5l-4.601-15.7h-15.2l-4.301,15.7h-8.7l-4.501-15.7h-13.301v-6.9h11.301l-2.5-8.601h-8.801v-6.801h6.899
		l-4.699-16.302h10.501l3.899,16.302h13.102l4.601-16.302h8.601l4.7,16.302h12.9l3.601-16.302h9.2l-4.3,16.302h6.5v6.801h-8.302
		l-2.198,8.601h10.5v6.9h-12.302l-4.1,15.7H1527.066z M1496.665,1876.898h5.101l2.5-8.601h-9.601L1496.665,1876.898z
		 M1499.064,1887.699l1-3.899h-1.899L1499.064,1887.699z M1509.165,1876.898h11.302l-2.5-8.601h-6.4L1509.165,1876.898z
		 M1513.365,1861.498h2.602l-1.301-4.899L1513.365,1861.498z M1528.468,1876.898h5.1l1.9-8.601h-9.5L1528.468,1876.898z
		 M1531.468,1887.799l0.8-4h-1.9L1531.468,1887.799z"/>
	<path d="M1735.948,1888.099v-4.301c-2.801,3.601-6.399,5.501-11.501,5.501c-7.399,0-15.102-5.501-15.102-17.001
		c0-11.501,8.201-17.002,16.302-17.002c4.4,0,8.3,2.001,10.301,4.801v-7.7h-9.701v-6.301h9.701v-4.3h8.602v4.3h5.199v6.301h-5.199
		v35.702H1735.948L1735.948,1888.099z M1709.346,1899.5v-6.801h40.402v6.801H1709.346z M1735.948,1865.898
		c-2.501-2.501-5.101-4.001-9.4-4.001c-4.2,0-8.2,3-8.2,10.401c0,7.5,3.601,10.399,7.801,10.399c4.3,0,7.3-1.7,9.801-4.301
		L1735.948,1865.898L1735.948,1865.898z"/>
	<path d="M228.868,2144.898v6l9.701-4.102v7.302l-9.701,4.101v17.301h-9.5v-13.301l-9.701,4.102v-7.4l9.701-4.001v-6l-9.701,4
		v-7.399l9.701-4v-13.301h-14.901v-7.002h39.304v7.002h-14.901v9.301l9.701-4.102v7.4L228.868,2144.898z"/>
	<path d="M486.749,2141.998c-1.601,9.802-10.501,14.4-19.9,14.4h-7.2v19.102h-9.401v-33.502h-7.1v-6.801h7.1v-14.001h16.603
		c9.301,0,18.001,4.602,19.801,14.001h6.101v6.801H486.749z M459.647,2135.197h17.301c-1.101-5-4.899-7.101-10.101-7.101h-7.2
		V2135.197L459.647,2135.197z M466.848,2149.498c5.3,0,9.2-2.1,10.2-7.5h-17.4v7.5H466.848z"/>
	<path d="M714.027,2152c-5.101,2-9.201,4.5-9.201,9.899c0,5,3.802,8.3,9.701,8.3c6.7,0,10.5-3,11.102-8.399h9.899
		c-0.601,9.301-8.399,15.2-21.001,15.2c-12.001,0-18.9-5.899-18.9-14.399c0-4.899,1.8-8.201,4.601-10.601h-6.9v-6.802h21.802
		c5.801-2.101,10.601-4.5,10.601-10.301c0-5.101-3.7-8.301-9.7-8.301c-6.701,0-9.701,2.899-10.501,8.399h-9.801
		c0.601-9.399,7.701-15.199,20.302-15.199c12,0,18.9,5.899,18.9,14.301c0,5.3-2.199,8.699-5.3,11.101h8.199V2152H714.027z"/>
	<path d="M962.307,2184.801v-8.201c-12.7-2.1-19.9-12.801-19.9-28.201c0-15.301,7.2-26.102,19.9-28.201v-8.301h8.9v8.2
		c9.801,1.3,17.502,7.5,18.9,18.701h-10.2c-1.101-6.9-4-10.4-8.7-11.602v42.502c4.7-1.198,7.601-4.8,8.7-11.7h10.2
		c-1.398,11.302-9.101,17.401-18.9,18.701v8.102H962.307z M962.307,2169.3v-41.703c-6.2,2.301-9.8,9.301-9.8,20.802
		C952.508,2160,956.106,2167,962.307,2169.3z"/>
	<path d="M1211.888,2184.801v-9.301h-13.603v-54.305h13.603v-9.3h8.899v9.399c9.602,0.801,17.201,5,17.201,14.502
		c0,5.699-4.001,10.101-9.101,11.5c5.899,0.801,11.399,4.899,11.399,12.801c0,10.001-8,15.001-19.5,15.4v9.301h-8.899V2184.801z
		 M1211.888,2144.798v-16.802h-4.2v16.802H1211.888z M1211.888,2168.699v-17.201h-4.2v17.201H1211.888z M1220.788,2128.197v16.4
		c4.601-0.801,7.5-3.301,7.5-8.5C1228.288,2130.998,1225.388,2128.797,1220.788,2128.197z M1220.788,2151.598v17.101
		c6.7-0.3,9.802-2.8,9.802-8.601C1230.59,2154.398,1226.488,2151.898,1220.788,2151.598z"/>
	<path d="M1479.169,2164.099c-3.101,1.898-6.9,2.898-11.102,2.898s-7.9-1-11.001-2.898l-6.8,6.6l-5.7-5.5l6.7-6.5
		c-2.102-3.101-3.2-6.899-3.2-11.101c0-4.101,1.101-7.899,3.2-11.001l-6.801-6.602l5.801-5.5l6.8,6.602
		c3.101-1.801,6.801-2.9,11.001-2.9s8.001,1.101,11.102,2.9l6.801-6.602l5.699,5.5l-6.801,6.602
		c2.102,3.102,3.301,6.801,3.301,11.001s-1.199,8-3.301,11.101l6.701,6.5l-5.601,5.5L1479.169,2164.099z M1468.067,2160.899
		c5.9,0,11.001-4.001,11.001-13.301c0-9.201-5.101-13.302-11.001-13.302c-5.8,0-10.9,4.101-10.9,13.302
		C1457.167,2156.898,1462.268,2160.899,1468.067,2160.899z"/>
	<path d="M1699.245,2175.5l3.802-14.399h-7.501v-6.801h9.301l3.101-11.701h-8.399v-6.8h10.199l3.9-14.603h8.7l-3.9,14.603h12.501
		l3.9-14.603h8.699l-3.899,14.603h7.601v6.8h-9.399l-3.101,11.701h8.5v6.801h-10.301l-3.8,14.399h-8.701l3.801-14.399h-12.501
		l-3.8,14.399H1699.245z M1713.547,2154.299h12.501l3.101-11.701h-12.501L1713.547,2154.299z"/>
</g>
</svg>
