<?xml version="1.0" encoding="utf-8"?>
<!-- Generator: Adobe Illustrator 16.0.3, SVG Export Plug-In . SVG Version: 6.00 Build 0)  -->
<!DOCTYPE svg PUBLIC "-//W3C//DTD SVG 1.1//EN" "http://www.w3.org/Graphics/SVG/1.1/DTD/svg11.dtd">
<svg version="1.1" id="Layer_1" xmlns="http://www.w3.org/2000/svg" xmlns:xlink="http://www.w3.org/1999/xlink" x="0px" y="0px"
	 width="1544.981px" height="650.205px" viewBox="203.467 167.596 1544.981 650.205"
	 enable-background="new 203.467 167.596 1544.981 650.205" xml:space="preserve">
<g>
	<path d="M245.069,243.5v-67.403c-2.5-0.601-5-0.899-7.7-0.899c-7.601,0-14.201,3.399-14.201,11.9v4.5h11.4v7.699h-11.4V243.5
		h-11.001v-44.203h-8.7v-7.699h8.7v-4.4c0-13.4,11.201-19.601,25.202-19.601c5,0,12.801,0.8,18.701,2.898v26.402
		c4.5-4.501,9.601-6.9,16.001-6.9c10.9,0,19.801,9.3,19.801,27.501S280.972,245,269.471,245c-5.5,0-10.302-2.399-13.4-6.101v4.601
		H245.069z M256.07,203.498v28.401c3,3,6.7,4.7,11.4,4.7c6.601,0,13.001-5.7,13.001-19.103c0-13.399-5.5-19.101-12.201-19.101
		C263.57,198.397,259.07,200.497,256.07,203.498z"/>
	<path d="M474.663,243.5v-44.203h-8.699v-7.699h8.699v-8.102c0-10.7,6.302-15.899,16.701-15.899c2.2,0,6.4,0.5,8.701,1.699v7.101
		c-2.301-0.5-4.601-0.899-6.501-0.899c-4.6,0-7.9,2.101-7.9,7.9v8.2h21.901v-8.102c0-10.7,6.301-15.899,16.701-15.899
		c2.2,0,6.4,0.5,8.7,1.699v7.101c-2.3-0.5-4.601-0.899-6.5-0.899c-4.602,0-7.9,2.101-7.9,7.9v8.2h14.4v7.699h-14.4V243.5h-11.001
		v-44.203h-21.901V243.5H474.663z"/>
	<path d="M747.761,243.5v-67.403c-2.5-0.601-5-0.899-7.7-0.899c-7.602,0-14.201,3.399-14.201,11.9v4.5h11.4v7.699h-11.4V243.5
		h-11.001v-44.203h-8.7v-7.699h8.7v-4.4c0-13.4,11.201-19.601,25.202-19.601c5,0,12.801,0.8,18.701,2.898v27.702
		c4.8-4.9,11.399-8.2,18.101-8.2c8.501,0,16.001,4.4,16.001,17.001V243.5h-11v-34.202c0-7.199-3.301-10.399-9.701-10.399
		c-4.8,0-10.301,2.8-13.399,5.899V243.5H747.761z"/>
	<path d="M1011.76,243.5v-44.203h-21.901V243.5h-11.001v-44.203h-8.7v-7.699h8.7v-8.102c0-10.7,6.301-15.899,16.701-15.899
		c2.2,0,6.101,0.5,8.399,1.699v7.101c-2.3-0.5-4.3-0.899-6.199-0.899c-4.601,0-7.9,2.101-7.9,7.9v8.2h32.902V243.5H1011.76z
		 M1017.26,184.096c-3.899,0-6.9-3.001-6.9-6.802c0-3.8,3.001-6.899,6.9-6.899s6.9,3.101,6.9,6.899
		C1024.16,181.094,1021.159,184.096,1017.26,184.096z"/>
	<path d="M1243.654,264.3v-65.004h-21.9V243.5h-11.001v-44.203h-8.7v-7.699h8.7v-8.102c0-10.7,6.301-15.899,16.701-15.899
		c2.199,0,6.101,0.5,8.399,1.699v7.101c-2.3-0.5-4.3-0.899-6.2-0.899c-4.6,0-7.899,2.101-7.899,7.9v8.2h32.901V264.3H1243.654z
		 M1249.154,184.096c-3.898,0-6.899-3.001-6.899-6.802c0-3.8,3.001-6.899,6.899-6.899c3.9,0,6.9,3.101,6.9,6.899
		C1256.054,181.094,1253.055,184.096,1249.154,184.096z"/>
	<path d="M1475.552,243.5v-67.504c-2.5-0.601-5-0.899-7.7-0.899c-7.601,0-14.201,3.5-14.201,12.001v4.5h11.4v7.699h-11.4V243.5
		h-11.001v-44.203h-8.7v-7.699h8.7v-4.4c0-13.4,11.201-19.601,25.202-19.601c5,0,12.801,0.8,18.701,2.898v44.803l19.901-23.7h11.601
		l-20.603,23.2l22.603,28.702h-13.301l-20.201-26.701V243.5H1475.552z"/>
	<path d="M1733.347,243.5v-67.403c-2.5-0.601-5-0.899-7.7-0.899c-7.601,0-14.201,3.399-14.201,11.9v4.5h11.4v7.699h-11.4V243.5
		h-11.001v-44.203h-8.7v-7.699h8.7v-4.4c0-13.4,11.201-19.601,25.202-19.601c5,0,12.801,0.8,18.701,2.898V243.5H1733.347z"/>
	<path d="M256.07,475.297v29.201c0,5.802,2.2,8.602,6.8,8.602c2.001,0,5.201-0.7,8.001-1.5v7.101c-3.101,1.399-8.501,2.3-11.601,2.3
		c-8.001,0-14.201-4.399-14.201-14.399v-31.303h-21.901V519.5h-11.001v-44.202h-8.7v-7.7h8.7v-8.102
		c0-10.699,6.301-15.899,16.701-15.899c2.2,0,6.4,0.5,8.701,1.7v7.1c-2.301-0.5-4.602-0.899-6.501-0.899c-4.601,0-7.9,2.101-7.9,7.9
		v8.2h21.901v-14.102h11.001v14.102h14.101v7.7L256.07,475.297L256.07,475.297z"/>
	<path d="M477.283,519.5v-44.202h-8.7v-7.7h8.7v-8.102c0-10.699,6.302-15.899,16.701-15.899c2.2,0,6.4,0.5,8.701,1.7v7.1
		c-2.301-0.5-4.601-0.899-6.501-0.899c-4.6,0-7.9,2.101-7.9,7.9v8.2h21.901v-14.102h11.001v14.102h11.4v7.7h-11.4V519.5h-11.001
		v-44.202h-21.901V519.5H477.283z"/>
	<path d="M804.803,519.5v-67.403c-2.5-0.601-5.001-0.899-7.701-0.899c-7.6,0-14.2,3.399-14.2,11.9v4.5h11.4v7.7h-11.4V519.5H771.9
		v-44.202h-21.901V519.5h-11v-44.202h-8.7v-7.7h8.7v-8.102c0-10.699,6.301-15.899,16.7-15.899c2.2,0,6.4,0.5,8.701,1.7v7.1
		c-2.301-0.5-4.601-0.899-6.501-0.899c-4.6,0-7.9,2.101-7.9,7.9v8.2H771.9v-4.4c0-13.399,11.201-19.601,25.201-19.601
		c5.001,0,12.801,0.8,18.701,2.898v26.402c4.501-4.501,9.601-6.9,16.001-6.9c10.9,0,19.802,9.301,19.802,27.501
		c0,18.201-10.9,27.502-22.401,27.502c-5.5,0-10.301-2.399-13.4-6.101v4.601H804.803z M815.803,507.899c3.001,3,6.701,4.7,11.4,4.7
		c6.602,0,13.001-5.7,13.001-19.103c0-13.399-5.501-19.101-12.2-19.101c-4.7,0-9.2,2.1-12.201,5.101V507.899z"/>
	<path d="M1158.121,519.5v-34.201c0-7.2-3.3-10.4-9.699-10.4c-4.802,0-10.302,2.8-13.401,5.9V519.5h-11v-67.403
		c-2.5-0.601-5.001-0.899-7.701-0.899c-7.6,0-14.2,3.399-14.2,11.9v4.5h11.4v7.7h-11.4V519.5h-11.001v-44.202h-21.9V519.5h-11.001
		v-44.202h-8.7v-7.7h8.7v-8.102c0-10.699,6.301-15.899,16.701-15.899c2.199,0,6.399,0.5,8.7,1.7v7.1
		c-2.301-0.5-4.601-0.899-6.5-0.899c-4.601,0-7.9,2.101-7.9,7.9v8.2h21.9v-4.4c0-13.399,11.201-19.601,25.201-19.601
		c5.001,0,12.802,0.8,18.701,2.898v27.702c4.801-4.899,11.401-8.2,18.103-8.2c8.501,0,16.001,4.4,16.001,17.001V519.5H1158.121z"/>
	<path d="M1378.931,519.5v-44.202h-8.7v-7.7h8.7v-8.102c0-10.699,6.301-15.899,16.701-15.899c2.2,0,6.399,0.5,8.701,1.7v7.1
		c-2.302-0.5-4.602-0.899-6.501-0.899c-4.601,0-7.9,2.101-7.9,7.9v8.2h21.901v-8.102c0-10.699,6.301-15.899,16.7-15.899
		c2.2,0,6.102,0.5,8.4,1.7v7.1c-2.3-0.5-4.3-0.899-6.2-0.899c-4.601,0-7.899,2.101-7.899,7.9v8.2h32.9V519.5h-11v-44.202h-21.9
		V519.5h-11.001v-44.202h-21.901V519.5H1378.931z M1450.235,460.096c-3.9,0-6.9-3.001-6.9-6.801c0-3.801,3-6.9,6.9-6.9
		s6.9,3.101,6.9,6.9C1457.135,457.094,1454.136,460.096,1450.235,460.096z"/>
	<path d="M1667.547,519.5v-44.202h-8.7v-7.7h8.7v-8.102c0-10.699,6.301-15.899,16.7-15.899c2.2,0,6.4,0.5,8.701,1.7v7.1
		c-2.301-0.5-4.601-0.899-6.501-0.899c-4.6,0-7.899,2.101-7.899,7.9v8.2h21.9v-8.102c0-10.699,6.302-15.899,16.701-15.899
		c2.2,0,6.102,0.5,8.4,1.7v7.1c-2.3-0.5-4.3-0.899-6.2-0.899c-4.601,0-7.899,2.101-7.899,7.9v8.2h32.9v72.703h-11v-65.004h-21.9
		V519.5h-11.002v-44.202h-21.9V519.5H1667.547z M1738.851,460.096c-3.9,0-6.9-3.001-6.9-6.801c0-3.801,3-6.9,6.9-6.9
		c3.899,0,6.899,3.101,6.899,6.9C1745.751,457.094,1742.751,460.096,1738.851,460.096z"/>
	<path d="M212.167,795.5v-44.202h-8.7v-7.7h8.7v-8.102c0-10.699,6.301-15.899,16.701-15.899c2.2,0,6.4,0.5,8.701,1.7v7.1
		c-2.301-0.5-4.601-0.899-6.501-0.899c-4.601,0-7.9,2.101-7.9,7.9v8.2h21.901v-8.102c0-10.699,6.301-15.899,16.701-15.899
		c2.2,0,6.101,0.5,8.399,1.7v7.1c-2.3-0.5-4.3-0.899-6.199-0.899c-4.602,0-7.9,2.101-7.9,7.9v8.2h32.901V801.9
		c0,10.7-6.601,15.901-17.302,15.901c-2.199,0-5.601-0.602-7.8-1.7V809c2,0.5,4.5,1,6.601,1c4.199,0,7.501-2.199,7.501-8v-50.703
		H256.07V795.5h-11.001v-44.202h-21.901V795.5H212.167z M283.472,736.096c-3.9,0-6.9-3.001-6.9-6.801c0-3.801,3-6.9,6.9-6.9
		c3.899,0,6.899,3.101,6.899,6.9C290.372,733.094,287.372,736.096,283.472,736.096z"/>
	<path d="M563.428,795.5v-67.403c-2.5-0.601-5.001-0.899-7.701-0.899c-7.6,0-14.2,3.399-14.2,11.9v4.5h11.4v7.7h-11.4V795.5h-11.001
		v-44.202h-21.9V795.5h-11.002v-44.202h-8.699v-7.7h8.699v-8.102c0-10.699,6.302-15.899,16.701-15.899c2.2,0,6.4,0.5,8.701,1.7v7.1
		c-2.301-0.5-4.601-0.899-6.501-0.899c-4.6,0-7.899,2.101-7.899,7.9v8.2h21.9v-4.4c0-13.399,11.201-19.601,25.201-19.601
		c5.001,0,12.801,0.8,18.701,2.898v44.804l19.9-23.701h11.602l-20.602,23.201l22.603,28.701h-13.301l-20.202-26.7v26.7H563.428z"/>
	<path d="M808.978,795.5v-44.202h-8.7v-7.7h8.7v-8.102c0-10.699,6.301-15.899,16.701-15.899c2.2,0,6.399,0.5,8.701,1.7v7.1
		c-2.302-0.5-4.602-0.899-6.501-0.899c-4.601,0-7.9,2.101-7.9,7.9v8.2h21.901v-4.4c0-13.399,11.2-19.601,25.202-19.601
		c5,0,12.801,0.8,18.699,2.898V795.5h-11v-67.203c-2.5-0.5-4.899-0.801-7.601-0.801c-7.602,0-14.301,3.101-14.301,11.602v4.5h11.399
		v7.7h-11.399V795.5h-11v-44.202h-21.901V795.5H808.978z"/>
	<path d="M1191.74,794.7c-3.101,1.399-8.501,2.3-11.602,2.3c-8,0-14.2-4.399-14.2-14.399v-31.303h-21.901V795.5h-11.001v-44.202
		h-21.9V795.5h-11.001v-44.202h-8.7v-7.7h8.7v-8.102c0-10.699,6.301-15.899,16.701-15.899c2.199,0,6.399,0.5,8.7,1.7v7.1
		c-2.301-0.5-4.601-0.899-6.5-0.899c-4.601,0-7.9,2.101-7.9,7.9v8.2h21.9v-8.102c0-10.699,6.302-15.899,16.701-15.899
		c2.2,0,6.4,0.5,8.7,1.7v7.1c-2.3-0.5-4.6-0.899-6.5-0.899c-4.601,0-7.899,2.101-7.899,7.9v8.2h21.9v-14.102h11v14.102h14.103v7.7
		h-14.103V780.5c0,5.801,2.2,8.601,6.801,8.601c2,0,5.2-0.7,8.001-1.5V794.7L1191.74,794.7z"/>
	<path d="M1462.095,795.5v-44.202h-21.901V795.5h-11.001v-44.202h-21.901V795.5h-11v-44.202h-8.7v-7.7h8.7v-8.102
		c0-10.699,6.301-15.899,16.7-15.899c2.2,0,6.4,0.5,8.701,1.7v7.1c-2.301-0.5-4.601-0.899-6.501-0.899c-4.6,0-7.899,2.101-7.899,7.9
		v8.2h21.9v-8.102c0-10.699,6.302-15.899,16.701-15.899c2.2,0,6.4,0.5,8.7,1.7v7.1c-2.3-0.5-4.6-0.899-6.5-0.899
		c-4.602,0-7.9,2.101-7.9,7.9v8.2h21.901v-14.102h11v14.102h11.401v7.7h-11.401V795.5H1462.095z"/>
	<path d="M1748.448,794.7c-3.101,1.399-8.5,2.3-11.601,2.3c-8.001,0-14.201-4.399-14.201-14.399v-31.303h-23.901V780.5
		c0,5.801,2.2,8.601,6.802,8.601c2,0,5.199-0.7,8-1.5v7.101c-3.101,1.399-8.5,2.301-11.602,2.301c-8,0-14.201-4.4-14.201-14.4
		v-31.303h-8.699v-7.7h8.699v-14.102h11.001v14.102h23.901v-14.102h11.001v14.102h14.101v7.7h-14.101v29.202
		c0,5.801,2.2,8.601,6.801,8.601c2,0,5.2-0.7,8-1.5V794.7z"/>
</g>
</svg>
