<?xml version="1.0" encoding="utf-8"?>
<!-- Generator: Adobe Illustrator 16.0.3, SVG Export Plug-In . SVG Version: 6.00 Build 0)  -->
<!DOCTYPE svg PUBLIC "-//W3C//DTD SVG 1.1//EN" "http://www.w3.org/Graphics/SVG/1.1/DTD/svg11.dtd">
<svg version="1.1" id="Layer_1" xmlns="http://www.w3.org/2000/svg" xmlns:xlink="http://www.w3.org/1999/xlink" x="0px" y="0px"
	 width="1546.08px" height="3943.705px" viewBox="204.567 173.496 1546.08 3943.705"
	 enable-background="new 204.567 173.496 1546.08 3943.705" xml:space="preserve">
<g>
	<path d="M240.369,213.498l-12.301-29.201l-12.501,29.201h-9.102l17.303-40.002h9.101l17.301,40.002H240.369z"/>
	<path d="M469.624,202.897c-4.5,10.101-10.5,12.601-15.7,12.601c-9.602,0-14.102-8.2-20.302-8.2c-2.899,0-5.399,2-8.199,7.5
		l-7.4-3.898c4.5-10.102,10.601-12.501,15.801-12.501c9.602,0,14.001,8.101,20.201,8.101c2.9,0,5.4-1.899,8.2-7.399L469.624,202.897
		z"/>
	<path d="M644.677,214.198c-4.102,0-7.201-3-7.201-7.2s3.101-7.201,7.201-7.201c4.1,0,7.2,3.001,7.2,7.201
		S648.775,214.198,644.677,214.198z"/>
	<path d="M839.93,230.298v-18.899h-18.802v-8.901h18.802v-18.801h8.899v18.801h18.901v8.901H848.83v18.899H839.93z"/>
	<path d="M1036.982,211.398v-8.901h46.604v8.901H1036.982z"/>
	<path d="M1271.639,228.199v-18.901h-18.802v-8.899h18.802v-18.801h8.9v18.801h18.9v8.899h-18.9v18.901H1271.639z M1252.838,243.5
		V234.6h46.604v8.899H1252.838z"/>
	<path d="M1491.692,213.198l-15.201,15.301l-6.301-6.301l15.302-15.2l-15.302-15.201l6.301-6.301l15.201,15.201l15.301-15.301
		l6.301,6.301l-15.4,15.301l15.4,15.301l-6.301,6.2L1491.692,213.198z"/>
	<path d="M1713.647,212.498l-27.401,27.401l-5.501-5.5l27.502-27.401l-27.502-27.502l5.501-5.5l27.401,27.501l27.602-27.501l5.5,5.4
		l-27.602,27.602l27.602,27.501l-5.5,5.501L1713.647,212.498z"/>
	<path d="M206.467,487.398v-8.901h46.604v8.901H206.467z M229.769,470.697c-3.7,0-6.602-2.899-6.602-6.501
		c0-3.6,2.9-6.399,6.602-6.399s6.601,2.801,6.601,6.399C236.369,467.797,233.469,470.697,229.769,470.697z M229.769,508.099
		c-3.7,0-6.602-2.9-6.602-6.501s2.9-6.4,6.602-6.4s6.601,2.801,6.601,6.4C236.369,505.199,233.469,508.099,229.769,508.099z"/>
	<path d="M419.535,487.398v-9.201l46.604-19.701v8.9l-35.702,15.102l35.702,15.102v9.501L419.535,487.398z"/>
	<path d="M632.604,507.099v-8.901l35.702-15.2l-35.702-15.102v-9.4l46.604,19.701v9.201L632.604,507.099z"/>
	<path d="M845.673,485.298v-9.2l46.604-19.701v8.9l-35.702,15.101l35.702,15.101V505L845.673,485.298z M845.673,519.5V510.6h46.604
		v8.899H845.673z"/>
	<path d="M1058.74,504.999v-8.899l35.702-15.201l-35.702-15.101v-9.4l46.604,19.701v9.2L1058.74,504.999z M1058.74,519.5V510.6
		h46.604v8.899H1058.74z"/>
	<path d="M1271.81,477.097v-8.9h46.604v8.9H1271.81z M1271.81,497.698v-8.899h46.604v8.899H1271.81z"/>
	<path d="M1491.679,514l6.2-16.302h-13.002v-8.899h16.303l4.5-11.7h-20.803v-8.9h24.103l6.2-16.201h9.4l-6.201,16.201h13.103v8.9
		h-16.401l-4.5,11.7h20.901v8.899h-24.202l-6.2,16.302H1491.679z"/>
	<path d="M1748.149,468.596c-4.5,10.101-10.5,12.601-15.701,12.601c-9.601,0-14.101-8.2-20.301-8.2c-2.9,0-5.4,2-8.2,7.501
		l-7.399-3.899c4.5-10.102,10.601-12.501,15.801-12.501c9.601,0,14.001,8.101,20.201,8.101c2.899,0,5.399-1.899,8.199-7.399
		L1748.149,468.596z M1748.149,489.198c-4.5,10.102-10.5,12.602-15.701,12.602c-9.601,0-14.101-8.2-20.301-8.2c-2.9,0-5.4,2-8.2,7.5
		l-7.399-3.9c4.5-10.101,10.601-12.5,15.801-12.5c9.601,0,14.001,8.102,20.201,8.102c2.899,0,5.399-1.9,8.199-7.401
		L1748.149,489.198z"/>
	<path d="M244.169,782.299v-18.9h-37.702v-8.901h46.604V782.3L244.169,782.299L244.169,782.299z"/>
	<path d="M426.036,811.5v-98.006h10.602V811.5H426.036z"/>
	<path d="M613.604,753.497v-40.002h10.601v40.002H613.604z M613.604,811.5v-45.503h10.601V811.5H613.604z"/>
	<path d="M814.974,779c-10.201,0-17.802-8.2-17.802-18.802c0-10.601,7.601-18.802,17.802-18.802c7.8,0,13.601,5.501,18.501,11.601
		c4.9-6.1,10.601-11.601,18.501-11.601c10.101,0,17.801,8.201,17.801,18.802c0,10.602-7.7,18.802-17.801,18.802
		c-7.9,0-13.602-5.5-18.501-11.602C828.574,773.5,822.773,779,814.974,779z M815.474,750.297c-5.301,0-8.801,4.501-8.801,9.9
		c0,5.4,3.5,9.9,8.801,9.9c4.6,0,8.399-4.5,12.5-9.9C823.874,754.897,820.073,750.297,815.474,750.297z M851.476,770.098
		c5.3,0,8.801-4.5,8.801-9.9c0-5.399-3.501-9.9-8.801-9.9c-4.7,0-8.501,4.601-12.501,9.9
		C842.975,765.598,846.775,770.098,851.476,770.098z"/>
	<path d="M1057.542,795.5l-18.803-35.002l18.803-35.002h11l18.802,35.002l-18.802,35.002H1057.542z M1076.742,760.498
		l-13.701-24.802l-13.7,24.802l13.7,24.901L1076.742,760.498z"/>
	<path d="M1297.812,758.597c0.3-3.2,0.5-6.5,0.5-10.102c0-14.2-5.5-20.7-12.201-20.7c-5.5,0-9.3,2.899-11.399,8.899h-11.802
		c3-10.7,11.701-17.101,24.701-17.101c13.103,0,22.202,11.5,22.202,30.602c0,28.502-12.001,46.803-33.104,46.803
		c-11.801,0-20.7-7.601-20.7-19.801c0-16.802,10.501-27.002,25.502-27.002C1288.212,750.197,1294.611,753.798,1297.812,758.597z
		 M1296.611,766.198c-2.5-4.101-7.899-7.2-13.801-7.2c-10.2,0-15.101,7.9-15.101,17.602c0,7.2,4,12.301,10.601,12.301
		C1286.712,788.899,1293.511,780.598,1296.611,766.198z"/>
	<path d="M1514.479,795.5v-6.801c-4.101,4.2-9.701,7.4-15.401,7.9c-2.601,0.101-5.101-0.199-7.199-0.899v20.601h-11.001v-72.704
		h11.001v34.103c0,7.2,3.1,10.4,9.399,10.4c4.801,0,10.2-2.9,13.201-6v-38.503h11V795.5H1514.479z"/>
	<path d="M1733.348,795.5v-44.202h-23.103V795.5h-11.001v-51.902h45.104V795.5H1733.348z"/>
	<path d="M204.467,1071.5v-8.801l21.603-61.203h12.001l22.601,61.203v8.801H204.467z M235.969,1027.197l-4.602-14.899l-4.398,14.899
		l-11.603,35.502h33.003L235.969,1027.197z"/>
	<path d="M466.869,1071.5v-61.104h-33.202v61.104h-11.601v-70.004h56.403v70.004H466.869z"/>
	<path d="M645.266,1071.5v-8.899l20.9-26.502l-20.9-25.701v-8.9h43.203v8.9h-30.104l16.901,20.801v8.9l-17.801,22.502h31.002v8.899
		H645.266z"/>
	<path d="M887.968,1071.5v-8.899c6.6-4.801,12.899-14.501,12.899-27.802c0-16.802-8.2-25.901-20.001-25.901
		s-20.002,9.101-20.002,25.901c0,13.301,6.201,23.001,12.901,27.802v8.899h-26.002v-8.899h16.801
		c-8.7-5.7-16.101-17.401-16.101-30.002c0-18.201,12.601-32.603,32.401-32.603c19.802,0,32.302,14.4,32.302,32.603
		c0,12.601-7.5,24.302-16.2,30.002h16.9v8.899H887.968z"/>
	<path d="M1097.466,1071.5l-16.102-44.202h-10.101v-7.7h19.201l8.7,25.9l4.399,14.603l4.3-14.603l13.701-44.002h10.4l-23.701,70.004
		H1097.466L1097.466,1071.5z"/>
	<path d="M1289.662,1085.1c5.001,0,9.602-2.8,9.602-11v-53.104c0-13.301,8.9-21.001,21.102-21.001v8.7c-5,0-9.601,2.8-9.601,11.001
		v53.104c0,13.301-8.9,21.002-21.103,21.002V1085.1z"/>
	<path d="M1543.966,1057.099c-5.9,9.7-16.603,16-28.902,16c-18.701,0-33.702-14.4-33.702-33.701
		c0-19.302,15.001-33.803,33.702-33.803s33.702,14.501,33.702,33.803h-52.303v23.901c5,4.1,11.5,6.5,18.601,6.5
		c10.201,0,18.901-5,24.202-12.7H1543.966z M1496.463,1036.097h37.302l-0.1-20.603c-5.002-4.1-11.502-6.6-18.603-6.6
		s-13.601,2.5-18.601,6.6L1496.463,1036.097L1496.463,1036.097z"/>
	<path d="M1740.861,1070.7c-3.101,1.399-8.501,2.3-11.601,2.3c-8.001,0-14.201-4.399-14.201-14.399v-8.801c-3,1.699-5.9,3.1-8.7,4.3
		v-7.102c2.899-1.398,5.8-3.1,8.7-4.898v-13.501c0-18.802,6.7-28.603,17.101-28.603c6.501,0,12.901,3.2,12.901,14.302
		c0,10.2-8.701,20.501-19.302,28.602v13.601c0,5.802,2.501,8.602,7.101,8.602c2,0,5.2-0.7,8.001-1.5V1070.7L1740.861,1070.7z
		 M1725.76,1033.697c5.501-5.399,9.4-11.899,9.4-19.301c0-3.8-0.899-6.801-3.501-6.801c-4.1,0-5.899,8.101-5.899,21.002V1033.697z"
		/>
	<path d="M211.468,1339.5l4.5-7.101c-5.801-5.101-9.501-12.602-9.501-21.502c0-16.301,12.401-28.201,28.103-28.201
		c4.101,0,8.001,0.899,11.501,2.399l4.601-7.2l7.2,4.4l-4.601,7.301c5.801,5,9.4,12.501,9.4,21.301
		c0,16.302-12.4,28.202-28.103,28.202c-4.101,0-7.9-0.8-11.4-2.2l-4.5,7.102L211.468,1339.5z M220.768,1324.799l20.4-32.104
		c-2-0.699-4.3-1.1-6.601-1.1c-10.7,0-19.201,7.699-19.201,19.301C215.367,1316.597,217.468,1321.398,220.768,1324.799z
		 M253.77,1310.897c0-5.6-2.101-10.4-5.399-13.7l-20.302,32.002c2,0.601,4.2,1,6.5,1
		C245.27,1330.199,253.77,1322.498,253.77,1310.897z"/>
	<path d="M439.121,1292.396c0-9.4,7.001-16.4,16.401-16.4s16.401,7,16.401,16.4s-7.001,16.401-16.401,16.401
		S439.121,1301.797,439.121,1292.396z M464.022,1292.396c0-5.101-3.399-8.9-8.5-8.9s-8.501,3.801-8.501,8.9s3.4,8.9,8.501,8.9
		S464.022,1297.497,464.022,1292.396z"/>
	<path d="M665.677,1303.497v-3c-2.2,1.9-5.501,3.9-10.102,3.9c-6.601,0-9.801-3.7-9.801-8.4c0-5.699,4.5-9.601,15.301-9.601
		c1.4,0,2.9,0.1,4.602,0.3v-3c0-3.601-2.4-5.001-5.102-5.001c-3.899,0-5.601,2.2-5.7,5.102h-8.301
		c0.101-7.102,6-10.802,14.001-10.802c5.7,0,13.302,2.102,13.302,10.001v20.501H665.677z M665.677,1291.297
		c-1.602-0.102-2.9-0.2-4.2-0.2c-5.801,0-7.501,2-7.501,4.101c0,2.301,1.601,3.5,4.601,3.5s5.801-1.699,7.102-2.801
		L665.677,1291.297L665.677,1291.297z"/>
	<path d="M845.43,1288.696c0-9.399,6.101-15.701,15.601-15.701c9.4,0,15.401,6.302,15.401,15.701
		c0,9.302-6.001,15.701-15.401,15.701C851.53,1304.397,845.43,1297.997,845.43,1288.696z M868.132,1288.696
		c0-6.899-2.601-10.001-7.102-10.001c-4.6,0-7.2,3.102-7.2,10.001c0,6.802,2.602,9.9,7.2,9.9
		C865.531,1298.596,868.132,1295.497,868.132,1288.696z"/>
	<path d="M1051.083,1303.997l-1.5-26.501h10.802l-1.601,26.501H1051.083z"/>
	<path d="M1238.338,1303.997l-1.5-26.501h10.801l-1.601,26.501H1238.338z M1254.538,1303.997l-1.5-26.501h10.802l-1.602,26.501
		H1254.538z"/>
	<path d="M1439.29,1357.9v-8.9h42.004v8.9H1439.29z"/>
	<path d="M1655.745,1324.299v-8.9h92.006v8.9H1655.745z"/>
	<path d="M205.467,1600.299v-8.9h42.004v8.9H205.467z"/>
	<path d="M430.393,1600.299v-8.9h24.302v8.9H430.393z"/>
	<path d="M638.617,1601.198v-9.7l24.002-19.4v12.001l-14.9,12.001l14.9,11.9v12.601L638.617,1601.198z"/>
	<path d="M846.545,1620.599v-12.001l14.9-12l-14.9-11.901v-12.601l24.002,19.401v9.699L846.545,1620.599z"/>
	<path d="M1054.47,1601.198v-9.7l24.002-19.4v12.001l-14.901,12.001l14.901,11.9v12.601L1054.47,1601.198z M1077.271,1601.198v-9.7
		l24.001-19.4v12.001l-14.9,12.001l14.9,11.9v12.601L1077.271,1601.198z"/>
	<path d="M1285.194,1620.599v-12.001l14.901-12l-14.901-11.901v-12.601l24.002,19.401v9.699L1285.194,1620.599z M1307.996,1620.599
		v-12.001l14.9-12l-14.9-11.901v-12.601l24.001,19.401v9.699L1307.996,1620.599z"/>
	<path d="M1514.02,1639.5l7.3-25.9h11.401l-9.501,25.9H1514.02z"/>
	<path d="M1712.845,1639.5l7.3-25.9h11.401l-9.501,25.9H1712.845z M1729.945,1639.5l7.301-25.9h11.4l-9.501,25.9H1729.945z"/>
	<path d="M204.567,1839.396l7.3-25.901h11.401l-9.501,25.901H204.567z"/>
	<path d="M386.452,1839.396l7.3-25.901h11.401l-9.501,25.901H386.452z M403.553,1839.396l7.301-25.901h11.4l-9.501,25.901H403.553z"
		/>
	<path d="M585.438,1839.396l9.5-25.901h9.201l-7.301,25.901H585.438z"/>
	<path d="M767.322,1839.396l9.5-25.901h9.201l-7.301,25.901H767.322z M784.424,1839.396l9.501-25.901h9.199l-7.301,25.901H784.424z"
		/>
	<path d="M952.708,1915.5l2-27.4h11.002l-3.9,27.4H952.708z"/>
	<path d="M1139.493,1901c-4.101,0-7.199-3-7.199-7.199c0-4.2,3.1-7.2,7.199-7.2c4.101,0,7.2,3,7.2,7.2
		C1146.693,1898,1143.594,1901,1139.493,1901z"/>
	<path d="M1320.478,1860.798c-4.101,0-7.2-3-7.2-7.2c0-4.201,3.101-7.201,7.2-7.201s7.2,3,7.2,7.201
		C1327.678,1857.798,1324.577,1860.798,1320.478,1860.798z M1320.478,1901c-4.101,0-7.2-3-7.2-7.199c0-4.2,3.101-7.2,7.2-7.2
		s7.2,3,7.2,7.2C1327.678,1898,1324.577,1901,1320.478,1901z"/>
	<path d="M1501.463,1860.798c-4.102,0-7.2-3-7.2-7.2c0-4.201,3.1-7.201,7.2-7.201c4.1,0,7.199,3,7.199,7.201
		C1508.662,1857.798,1505.562,1860.798,1501.463,1860.798z M1494.262,1914.1l2-26.001h11l-3.9,26.001H1494.262z"/>
	<path d="M1682.446,1901c-4.101,0-7.199-3-7.199-7.199c0-4.2,3.1-7.2,7.199-7.2c4.101,0,7.2,3,7.2,7.2
		C1689.646,1898,1686.547,1901,1682.446,1901z M1711.147,1901c-4.1,0-7.2-3-7.2-7.199c0-4.2,3.102-7.2,7.2-7.2
		c4.101,0,7.101,3,7.101,7.2C1718.248,1898,1715.249,1901,1711.147,1901z M1739.751,1901c-4.102,0-7.201-3-7.201-7.199
		c0-4.2,3.101-7.2,7.201-7.2c4.1,0,7.199,3,7.199,7.2C1746.95,1898,1743.85,1901,1739.751,1901z"/>
	<path d="M221.668,2153.898c-4-20.201,17.201-15.102,17.201-31.502c0-6.4-4.101-9.701-10.399-9.701
		c-5.802,0-10.401,3.4-11.201,11.301h-12.102c0.7-12.6,9.801-20,23.303-20c13.501,0,22.301,6.7,22.301,18.401
		c0,19.899-21.801,16.201-17.801,31.502L221.668,2153.898L221.668,2153.898z M227.469,2177c-4.102,0-7.201-3-7.201-7.2
		c0-4.199,3.101-7.199,7.201-7.199c4.1,0,7.199,3,7.199,7.199C234.669,2174,231.568,2177,227.469,2177z"/>
	<path d="M480.865,2177.8c-0.8,12.602-9.8,20.002-23.4,20.002c-13.5,0-22.201-6.701-22.201-18.4c0-19.901,21.701-16.2,17.701-31.502
		h11.301c4,20.201-17.102,15.101-17.102,31.502c0,6.4,4.101,9.699,10.301,9.699c5.801,0,10.501-3.399,11.2-11.301H480.865z
		 M458.466,2139.197c-4.102,0-7.102-3-7.102-7.201c0-4.198,3-7.198,7.102-7.198c4.1,0,7.199,3,7.199,7.198
		C465.665,2136.197,462.564,2139.197,458.466,2139.197z"/>
	<path d="M677.061,2177c-4.102,0-7.2-3-7.2-7.2c0-4.199,3.101-7.199,7.2-7.199s7.2,3,7.2,7.199
		C684.261,2174,681.161,2177,677.061,2177z M672.761,2153.898l-2.001-48.403h12.701l-2,48.403H672.761z"/>
	<path d="M885.557,2139.197c-4.102,0-7.2-3-7.2-7.201c0-4.198,3.1-7.198,7.2-7.198c4.1,0,7.2,3,7.2,7.198
		C892.758,2136.197,889.657,2139.197,885.557,2139.197z M879.257,2196.302l2.001-48.402h8.699l2,48.402H879.257z"/>
	<path d="M1104.055,2188c-9.701-9-20.002-25.502-20.002-47.502c0-22.002,10.301-38.502,20.002-47.502h10.5
		c-11.102,11.101-18.102,30.101-18.102,47.502c0,17.4,7,36.402,18.102,47.502H1104.055z"/>
	<path d="M1291.249,2188c11.102-11.1,18.103-30.102,18.103-47.502c0-17.401-7.001-36.402-18.103-47.502h10.502
		c9.601,9,20,25.5,20,47.502c0,22-10.399,38.502-20,47.502H1291.249z"/>
	<path d="M1516.249,2188v-95.004h21.5v7.601h-9.899v79.805h9.899v7.601h-21.5V2188z"/>
	<path d="M1718.244,2188v-7.6h10.001v-79.805h-10.001v-7.602h21.501V2188H1718.244z"/>
	<path d="M235.068,2464c-11.7,0-18.801-5.698-18.801-16.399v-18.402c0-5.198-2.9-8.6-10-8.6v-8.201c7.1,0,10-3.399,10-8.601v-18.401
		c0-10.699,7.101-16.4,18.801-16.4h2.7v7.603h-2.7c-5.399,0-7.2,4.299-7.2,7.799v18.502c0,6.701-3.8,12.201-9,13.602
		c5.2,1.4,9,7,9,13.699v18.402c0,3.5,1.801,7.801,7.2,7.801h2.7v7.601h-2.7V2464z"/>
	<path d="M415.894,2464v-7.6h2.8c5.4,0,7.201-4.301,7.201-7.801v-18.402c0-6.699,3.8-12.299,9-13.699c-5.2-1.399-9-6.899-9-13.602
		v-18.502c0-3.5-1.801-7.799-7.201-7.799h-2.8v-7.603h2.8c11.701,0,18.701,5.701,18.701,16.399v18.402
		c0,5.199,2.9,8.601,10.001,8.601v8.2c-7.101,0-10.001,3.4-10.001,8.601v18.402c0,10.7-7,16.399-18.701,16.399h-2.8V2464z"/>
	<path d="M638.32,2464v-95.006h23.103v7.603h-7.201v79.805h7.201v7.601H638.32V2464z M647.922,2376.596h-3.302v79.805h3.302
		V2376.596z"/>
	<path d="M839.546,2464v-7.6h7.301v-79.805h-7.301v-7.603h23.102V2464H839.546z M856.346,2376.596h-3.2v79.805h3.2V2376.596z"/>
	<path d="M1050.77,2455.5l31.502-78.006h11.301l-31.502,78.006H1050.77z"/>
	<path d="M1303.197,2455.5l-31.502-78.006h11.302l31.502,78.006H1303.197z"/>
	<path d="M1518.923,2403.798l2.8,15.602h-11.101l2.899-15.602l-12.301,10.301l-5.601-9.502l14.602-5.199l-14.602-5.301l5.601-9.601
		l12.201,10.4l-2.802-15.4h11.102l-2.8,15.4l12.2-10.4l5.601,9.601l-14.7,5.301l14.7,5.199l-5.601,9.502L1518.923,2403.798z"/>
	<path d="M1733.847,2429.498c-7.101,0-13.001-5.399-13.001-13c0-7.502,5.9-13.002,13.001-13.002c7.001,0,12.901,5.5,12.901,13.002
		C1746.749,2424.098,1740.848,2429.498,1733.847,2429.498z"/>
	<path d="M246.069,2668.496c-0.8-9.301-5.7-12.801-13.801-12.801c-7.4,0-13.001,2.801-13.001,9.201c0,8.1,7.399,9.299,15.801,10.301
		c11.001,1.299,23.902,2.799,23.902,16.699c0,5.602-3.501,10.301-8.102,13.602c3.8,2.601,6.4,6.701,6.4,13.302
		c0,11.801-10.301,19.2-24.401,19.2c-16.102,0-25.102-7.399-26.002-21.399h12.201c0.8,9.199,5.7,12.699,13.801,12.699
		c7.4,0,13-2.8,13-9.199c0-8.103-7.399-9.301-15.801-10.301c-11-1.302-23.901-2.802-23.901-16.603c0-5.6,3.5-10.399,8.102-13.701
		c-3.9-2.6-6.4-6.6-6.4-13.301c0-11.801,10.301-19.201,24.401-19.201c16.102,0,25.102,7.4,25.9,21.502H246.069z M248.17,2693.998
		c0-7.301-6.899-8.399-14.9-9.301c-4.101-0.5-8.5-1.1-12.4-2.201c-2.301,1.9-3.899,5.603-3.899,8.502c0,7.3,6.801,8.4,14.9,9.302
		c4.101,0.5,8.5,1.1,12.4,2.299C246.47,2700.598,248.17,2696.898,248.17,2693.998z"/>
	<path d="M465.697,2727.5v-44.104h-14.101v-8.9h14.101v-17h11.602v17h14.101v8.9h-14.101v44.104H465.697z"/>
	<path d="M699.027,2727.5v-17.002h-14.101v-8.899h14.101v-18.201h-14.101v-8.899h14.101v-17h11.602v17h14.101v8.899h-14.101v18.201
		h14.101v8.899h-14.101v17.002H699.027z"/>
	<path d="M961.759,2727.5v-61.305h-7.4v61.305h-9.2v-30.502h-3.899c-11.602,0-23.201-5.801-23.201-19.7
		c0-13.9,11.601-19.802,23.201-19.802h29.701v70.004H961.759z"/>
	<path d="M1204.789,2729c-20.9,0-36.503-16.401-36.503-36.502c0-20.102,15.603-36.502,36.503-36.502s36.502,16.4,36.502,36.502
		C1241.292,2712.598,1225.689,2729,1204.789,2729z M1233.79,2692.498c0-16.401-12.601-29.702-29-29.702
		c-16.401,0-29.002,13.301-29.002,29.702c0,16.4,12.601,29.701,29.002,29.701C1221.189,2722.199,1233.79,2708.898,1233.79,2692.498z
		 M1221.39,2699.498c-1.2,10-8,14.5-16.901,14.5c-11.801,0-18.201-8.399-18.201-21.5c0-13.002,7.4-21.401,18.201-21.401
		c8.901,0,15.701,4.399,16.901,14.502h-8.7c-0.801-5.701-3.2-8.302-8.201-8.302c-5.8,0-9.699,5.302-9.699,15.201
		c0,9.9,3.399,15.301,9.699,15.301c5.001,0,7.4-2.602,8.201-8.301H1221.39L1221.39,2699.498z"/>
	<path d="M1470.118,2729c-20.9,0-36.503-16.401-36.503-36.502c0-20.102,15.603-36.502,36.503-36.502
		c20.901,0,36.502,16.4,36.502,36.502C1506.62,2712.598,1491.02,2729,1470.118,2729z M1499.119,2692.498
		c0-16.401-12.601-29.702-29.001-29.702s-29.002,13.301-29.002,29.702c0,16.4,12.602,29.701,29.002,29.701
		C1486.519,2722.199,1499.119,2708.898,1499.119,2692.498z M1458.017,2713.199v-41.303h13.602c7.602,0,15.7,4.1,15.7,13.5
		c0,9.102-8.1,13.4-15.7,13.4h-5.601v14.401L1458.017,2713.199L1458.017,2713.199z M1471.618,2692.697
		c4.5,0,7.602-2.399,7.602-7.301c0-5.1-3.102-7.4-7.602-7.4h-5.601v14.701H1471.618z"/>
	<path d="M1722.847,2703.598c-13.7,0-23.901-10.601-23.901-23.802c0-13.2,10.201-23.801,23.901-23.801
		c13.701,0,23.901,10.601,23.901,23.801C1746.749,2692.998,1736.549,2703.598,1722.847,2703.598z M1740.648,2679.798
		c0-10-7.701-18.302-17.802-18.302c-10.2,0-17.801,8.302-17.801,18.302c0,10.1,7.601,18.301,17.801,18.301
		C1732.947,2698.098,1740.648,2689.896,1740.648,2679.798z M1727.147,2692.197l-6.2-9.701h-1.399v9.701h-5.7v-25.502h8.7
		c4.699,0,10.001,2.201,10.001,7.801c0,4.101-2.7,6.4-5.9,7.4l6.9,10.301H1727.147z M1722.548,2677.996c2.801,0,4.301-1.1,4.301-3.5
		c0-2.198-1.5-3.399-4.301-3.399h-3v6.899H1722.548z"/>
	<path d="M214.268,2963.396v-24.602h-7.802v-5.3h22.303v5.3h-8.001v24.602H214.268z M258.07,2963.396v-9.5l0.1-8.301l-7,16.399h-4.5
		l-7.399-16.899l0.1,8.899v9.4h-6.101v-29.9h7.001l8.8,20.601l8.801-20.601h6.602v29.9L258.07,2963.396L258.07,2963.396z"/>
	<path d="M466.181,2941.896c-0.3-3.102-2.5-3.801-5.001-3.801c-2.101,0-4.8,0.5-4.8,3.1c0,2.801,3.101,3.201,6.801,4
		c4.6,0.801,10.2,1.9,10.2,9.301c0,5.9-5,9.701-11.4,9.701c-7.001,0-12.001-3.1-12.401-9.801h6.802c0.5,3.801,2.899,4.4,5.601,4.4
		c2.101,0,4.9-0.802,4.9-3.802c0-2.899-3.001-3.299-6.701-4c-4.601-0.899-10.3-2-10.3-9.301c0-5.5,4.8-9,11.3-9
		c6.899,0,11.501,3.101,11.901,9.201L466.181,2941.896L466.181,2941.896z M502.982,2963.396v-9.5l0.2-8.301l-7,16.399h-4.501
		l-7.5-16.899l0.2,8.899v9.4h-6.102v-29.9h6.9l8.899,20.601l8.802-20.601h6.5v29.9L502.982,2963.396L502.982,2963.396z"/>
	<path d="M763.696,3021.5c-5.7,2.103-17.001,4.302-26.4,4.302c-21.401,0-41.804-13.201-41.804-40.603
		c0-30.502,22.603-53.203,56.404-53.203c20.601,0,37.702,13.4,37.702,34.603c0,26.301-17.603,38.402-30.002,38.402
		c-5.301,0-9.9-2.101-10.701-7.4c-5.8,5.199-10.9,7.4-17.001,7.4c-8,0-14.7-7.103-14.7-20.802c0-22.502,14-34.202,27.103-34.202
		c4.5,0,8.699,2.301,11.199,6l0.801-4.4h11.001l-7,39.902c-0.7,4.002,0.698,6.002,3,6.002c8.301,0,16.2-13.402,16.2-29.803
		c0-16.201-10.101-28.402-29.502-28.402c-24.302,0-44.303,17.603-44.303,44.303c0,24.002,14.4,34.902,34.302,34.902
		c8.102,0,19.401-2.101,24.901-4.199L763.696,3021.5z M754.297,2963.098c-2.301-3.103-5.5-4.701-9.4-4.701
		c-8,0-16.201,8.201-16.201,24.701c0,9.301,4.2,13.502,8.501,13.502c4.5,0,8.7-2.103,12.102-5.103L754.297,2963.098z"/>
	<path d="M1033.408,2966.396c0,8.4-2.3,16.602-6.5,23.402l14.102,13.701h-15.001l-5.9-5.603c-5.1,4.399-11.5,7.103-19.001,7.103
		c-13.801,0-25.001-7.201-25.001-20.201c0-8,4.4-14.9,11.2-19.201c-3.4-4.201-6.102-9.102-6.102-14.9
		c0-10.401,8.802-18.7,21.103-18.7c13.801,0,21.802,6.399,22.602,19.2h-12.101c-0.8-8.2-5.001-10.502-10.501-10.502
		c-5.4,0-9.7,3.4-9.7,9.201c0,4.101,1.7,7.9,6.7,12.801l20.102,19.701c1.7-4.6,2.601-10.102,2.601-16.002H1033.408
		L1033.408,2966.396z M1013.708,2991.6l-20.602-20.002c-4.101,2.899-5.9,6.701-5.9,12c0,7.701,6.4,12.701,14.2,12.701
		C1006.407,2996.3,1010.508,2994.6,1013.708,2991.6z"/>
	<path d="M1221.219,2971.398v-8.902h92.006v8.902H1221.219z"/>
	<path d="M1496.331,2971.398v-8.902h42.004v8.902H1496.331z"/>
	<path d="M1722.445,2971.398v-8.902h24.302v8.902H1722.445z"/>
	<path d="M206.467,3248.197v-9.701l24.003-19.399v12l-14.901,12.002l14.901,11.899v12.603L206.467,3248.197z"/>
	<path d="M400.051,3267.6v-12.002l14.9-12l-14.9-11.899v-12.603l24.002,19.399v9.701L400.051,3267.6z"/>
	<path d="M593.634,3248.197v-9.701l24.002-19.399v12l-14.901,12.002l14.901,11.899v12.603L593.634,3248.197z M616.435,3248.197
		v-9.701l24.001-19.399v12l-14.9,12.002l14.9,11.899v12.603L616.435,3248.197z"/>
	<path d="M810.015,3267.6v-12.002l14.901-12l-14.901-11.899v-12.603l24.002,19.399v9.701L810.015,3267.6z M832.816,3267.6v-12.002
		l14.9-12l-14.9-11.899v-12.603l24.001,19.399v9.701L832.816,3267.6z"/>
	<path d="M1071.001,3260.998c-0.802,12.603-9.802,20.002-23.402,20.002c-13.5,0-22.201-6.7-22.201-18.401
		c0-19.9,21.701-16.199,17.701-31.502h11.301c4,20.2-17.101,15.102-17.101,31.502c0,6.399,4.1,9.7,10.3,9.7
		c5.801,0,10.501-3.399,11.201-11.301H1071.001L1071.001,3260.998z M1041.499,3215.195c0-4.199,3-7.199,7.1-7.199
		c4.101,0,7.201,3,7.201,7.199c0,4.201-3.102,7.201-7.201,7.201S1041.499,3219.396,1041.499,3215.195z"/>
	<path d="M1250.28,3222.396c-4.101,0-7.199-3-7.199-7.201c0-4.199,3.1-7.199,7.199-7.199c4.101,0,7.2,3,7.2,7.199
		C1257.48,3219.396,1254.382,3222.396,1250.28,3222.396z M1243.979,3279.5l2.001-48.403h8.7l2,48.403H1243.979z"/>
	<path d="M1500.065,3289.5c-5.7,2.101-17.001,4.302-26.401,4.302c-21.4,0-41.803-13.201-41.803-40.604
		c0-30.502,22.603-53.203,56.404-53.203c20.601,0,37.702,13.4,37.702,34.604c0,26.301-17.603,38.402-30.002,38.402
		c-5.301,0-9.9-2.103-10.701-7.4c-5.8,5.199-10.9,7.4-17.001,7.4c-8,0-14.7-7.103-14.7-20.804c0-22.5,14-34.2,27.103-34.2
		c4.5,0,8.699,2.301,11.199,6l0.801-4.4h11.001l-7,39.902c-0.7,4,0.698,6,3,6c8.301,0,16.201-13.399,16.201-29.801
		c0-16.201-10.102-28.402-29.502-28.402c-24.303,0-44.304,17.603-44.304,44.303c0,24.002,14.4,34.902,34.302,34.902
		c8.102,0,19.401-2.101,24.901-4.201L1500.065,3289.5z M1490.665,3231.096c-2.3-3.101-5.5-4.699-9.399-4.699
		c-8,0-16.201,8.201-16.201,24.701c0,9.301,4.2,13.5,8.501,13.5c4.5,0,8.7-2.101,12.101-5.101L1490.665,3231.096z"/>
	<path d="M1744.247,3250.798c0,6.301-1.899,12.502-5.301,17.7l11.701,11.002h-13.801l-4.301-3.899
		c-4.301,3.301-9.7,5.399-15.9,5.399c-11.602,0-19.701-6-19.701-16.002c0-6.1,3.6-11.399,9-14.801c-2.7-3.199-4.9-7.1-4.9-11.6
		c0-8.103,7.201-14.801,17.501-14.801c10.901,0,18.201,5.399,18.901,15.399h-11.2c-0.601-6.101-3.601-7.5-7.701-7.5
		c-3.8,0-6.8,2.199-6.8,6.299c0,3.201,1.6,6.302,5.5,9.902l14.801,14c1-3.199,1.602-7,1.602-11.103h10.6V3250.798z M1726.746,3270.1
		l-15.7-14.902c-2.602,2.302-3.9,5.002-3.9,8.802c0,6.102,5.101,9.102,10.4,9.102C1721.346,3273.1,1724.346,3272,1726.746,3270.1z"
		/>
	<path d="M218.268,3538.398c-3.2-15.602,13.801-11.301,13.801-24.002c0-5-3.4-6.699-7.602-6.699c-3.8,0-7.5,1.799-8.199,7.9h-11.102
		c0.601-9.801,8.501-15.801,19.301-15.801c10.901,0,18.401,5.5,18.401,14.6c0,15.102-17.301,12.502-14.101,24.002H218.268z
		 M223.269,3557c-3.602,0-6.302-2.6-6.302-6.301c0-3.6,2.7-6.201,6.302-6.201c3.8,0,6.399,2.603,6.399,6.201
		C229.669,3554.4,227.068,3557,223.269,3557z"/>
	<path d="M444.167,3541.199c-0.6,9.801-8.5,15.801-19.301,15.801s-18.4-5.399-18.4-14.602c0-15.102,17.4-12.5,14.2-24.002h10.501
		c3.2,15.602-13.9,11.301-13.9,24.002c0,5,3.399,6.701,7.601,6.701c3.8,0,7.602-1.701,8.2-7.9H444.167z M426.066,3512.298
		c-3.7,0-6.399-2.601-6.399-6.201s2.699-6.299,6.399-6.299c3.601,0,6.3,2.698,6.3,6.299S429.666,3512.298,426.066,3512.298z"/>
	<path d="M618.663,3557c-3.699,0-6.399-2.6-6.399-6.301c0-3.6,2.7-6.201,6.399-6.201c3.7,0,6.301,2.603,6.301,6.201
		C624.964,3554.4,622.363,3557,618.663,3557z M614.464,3538.398l-1.602-37.203h11.602l-1.601,37.203H614.464z"/>
	<path d="M804.66,3512.197c-3.7,0-6.399-2.6-6.399-6.201c0-3.6,2.699-6.301,6.399-6.301s6.3,2.701,6.3,6.301
		C810.961,3509.598,808.36,3512.197,804.66,3512.197z M798.859,3555.5l1.602-37.202h8.399l1.601,37.202H798.859z"/>
	<path d="M993.557,3525.197c-7.501,0-13.103-5.399-13.103-12.701c0-7.299,5.602-12.698,13.103-12.698
		c7.5,0,13.101,5.399,13.101,12.698C1006.657,3519.798,1001.057,3525.197,993.557,3525.197z M999.656,3512.496
		c0-3.5-2.5-6.198-6.1-6.198c-3.602,0-6.102,2.698-6.102,6.198c0,3.502,2.5,6.201,6.102,6.201
		C997.156,3518.697,999.656,3515.998,999.656,3512.496z"/>
	<path d="M1173.454,3521.798l-1.199-20.603h9.9l-1.199,20.603H1173.454z"/>
	<path d="M1348.952,3521.798l-1.199-20.603h9.9l-1.199,20.603H1348.952z M1362.953,3521.798l-1.199-20.603h9.899l-1.199,20.603
		H1362.953z"/>
	<path d="M1536.849,3508.896l5.899-20.102h10.5l-7.601,20.102H1536.849z"/>
	<path d="M1717.246,3508.896l5.9-20.102h10.5l-7.601,20.102H1717.246z M1732.446,3508.896l5.801-20.102h10.502l-7.502,20.102
		H1732.446z"/>
	<path d="M206.067,3784.896l7.601-20.102h8.8l-5.8,20.102H206.067z"/>
	<path d="M382.577,3784.896l7.602-20.102h8.8l-5.8,20.102H382.577z M397.777,3784.896l7.501-20.102h8.801l-5.801,20.102H397.777z"/>
	<path d="M588.688,3821.498v-14.1h-14.901v-8.201h14.901v-14.1h8.301v14.1h14.9v8.201h-14.9v14.1H588.688z"/>
	<path d="M773.596,3807.398v-8.201h38.103v8.201H773.596z"/>
	<path d="M973.404,3798.398v-8.201h38.104v8.201H973.404z M973.404,3816.398v-8.201h38.104v8.201H973.404z"/>
	<path d="M1190.215,3841.199c-7.7-7-16.001-19.801-16.001-36.801c0-17.002,8.301-29.902,16.001-36.803h10.001
		c-8.9,8.6-14.501,23.301-14.501,36.803c0,13.5,5.601,28.201,14.501,36.801H1190.215z"/>
	<path d="M1352.124,3841.199c8.9-8.6,14.5-23.301,14.5-36.801c0-13.502-5.6-28.203-14.5-36.803h10.101
		c7.701,6.899,15.901,19.801,15.901,36.803c0,17-8.2,29.801-15.901,36.801H1352.124z"/>
	<path d="M1547.835,3841.199v-73.604h18.102v7.1h-7.2v59.404h7.2v7.1H1547.835L1547.835,3841.199z"/>
	<path d="M1721.644,3841.199v-7.1h7.101v-59.404h-7.101v-7.1h18.103v73.604H1721.644L1721.644,3841.199z"/>
	<path d="M230.169,4117.199c-9.701,0-15.9-4.699-15.9-12.899v-13.9c0-4.101-2.301-6.4-8-6.4v-7.301c5.699,0,8-2.199,8-6.301v-13.802
		c0-8.399,6.199-13,15.9-13h2.2v7.101h-1.399c-4.302,0-5.802,3-5.802,5.801v13.201c0,5.201-3,9.6-7.199,10.701
		c4.199,1.1,7.199,5.5,7.199,10.698v13.201c0,2.701,1.5,5.801,5.802,5.801h1.399v7.101h-2.2V4117.199z"/>
	<path d="M386.366,4117.199v-7.1h1.4c4.3,0,5.699-3.1,5.699-5.801v-13.201c0-5.199,3.102-9.6,7.302-10.699
		c-4.2-1.102-7.302-5.5-7.302-10.7v-13.201c0-2.801-1.399-5.801-5.699-5.801h-1.4v-7.101h2.2c9.7,0,15.901,4.601,15.901,13v13.801
		c0,4.103,2.3,6.302,8,6.302v7.301c-5.7,0-8,2.301-8,6.399v13.901c0,8.201-6.201,12.9-15.901,12.9H386.366L386.366,4117.199z"/>
	<path d="M569.266,4110.601l25.201-60.504h10.701l-25.201,60.504H569.266z"/>
	<path d="M784.365,4110.601l-25.201-60.504h10.701l25.201,60.504H784.365z"/>
	<path d="M952.062,4082.998v-7.899h74.205v7.899H952.062z"/>
	<path d="M1186.262,4082.998v-7.899h33.901v7.899H1186.262z"/>
	<path d="M1380.161,4082.998v-7.899h20.603v7.899H1380.161z"/>
</g>
</svg>
