<?xml version="1.0" encoding="utf-8"?>
<!-- Generator: Adobe Illustrator 16.0.3, SVG Export Plug-In . SVG Version: 6.00 Build 0)  -->
<!DOCTYPE svg PUBLIC "-//W3C//DTD SVG 1.1//EN" "http://www.w3.org/Graphics/SVG/1.1/DTD/svg11.dtd">
<svg version="1.1" id="Layer_1" xmlns="http://www.w3.org/2000/svg" xmlns:xlink="http://www.w3.org/1999/xlink" x="0px" y="0px"
	 width="1545.882px" height="4212.404px" viewBox="204.167 171.996 1545.882 4212.404"
	 enable-background="new 204.167 171.996 1545.882 4212.404" xml:space="preserve">
<g>
	<path d="M206.167,208.498c0-22.102,10.201-36.502,27.002-36.502c16.802,0,26.901,14.4,26.901,36.502
		c0,22.103-10.1,36.502-26.901,36.502C216.368,245,206.167,230.599,206.167,208.498z M247.869,208.498
		c0-18.501-5.898-27.602-14.7-27.602c-8.801,0-14.801,9.101-14.801,27.602s6,27.603,14.801,27.603
		C241.97,236.1,247.869,226.999,247.869,208.498z"/>
	<path d="M426.735,208.498c0-22.102,10.201-36.502,27.002-36.502s26.901,14.4,26.901,36.502c0,22.103-10.101,36.502-26.901,36.502
		S426.735,230.599,426.735,208.498z M440.536,225.398l20.303-42.402c-2-1.398-4.4-2.1-7.102-2.1
		c-9.101,0-15.501,9.101-15.501,27.602C438.236,215.498,439.036,221.098,440.536,225.398z M469.238,208.498
		c0-6.899-0.801-12.501-2.399-16.801l-20.302,42.302c2.101,1.4,4.5,2.102,7.2,2.102
		C462.839,236.099,469.238,226.999,469.238,208.498z"/>
	<path d="M662.806,243.5v-59.804l-16.501,8.801v-10.001l16.501-9h11.601V243.5H662.806z"/>
	<path d="M892.376,234.599v8.899h-45.902v-8.899c20.102-19.001,33.002-30.402,33.002-42.503c0-7.801-4.2-11.4-10.4-11.4
		c-6.801,0-11.399,3.9-12.201,14.101h-12.101c0.7-14.899,9.801-22.801,24.302-22.801c13.501,0,22.302,7,22.302,20.102
		c0,12.7-10.9,24.4-30.401,42.503L892.376,234.599L892.376,234.599z"/>
	<path d="M1072.044,211.998v-8.899h7.101c9.3,0,13.801-5.4,13.801-11.802c0-7.101-4.601-10.601-10.801-10.601
		c-6.7,0-11.201,3.601-12.201,11.801h-12.2c1-12.9,10-20.501,24.401-20.501c13.399,0,22.602,6.9,22.602,19.301
		c0,6.302-4.301,13.302-12.101,15.701c10.101,1.8,13.9,9.5,13.9,16.4c0,13.201-10.701,21.602-24.401,21.602
		c-16.201,0-24.401-7.399-25.103-20.4h12.102c0.8,8.2,5.4,11.7,13.001,11.7c7.3,0,12.601-5.001,12.601-12.9
		c0-6.4-4.601-11.4-15.601-11.4L1072.044,211.998L1072.044,211.998z"/>
	<path d="M1301.012,221.598v-17.102h10.899v17.102h9.4v8.899h-9.4V243.5h-10.899v-13.001h-29.603v-8.899l20.201-48.104h11.101
		l-20.302,48.104L1301.012,221.598L1301.012,221.598z"/>
	<path d="M1498.778,225.999c0.8,7.5,5.2,10.301,11.602,10.301c7.101,0,11.602-5.501,11.602-15.602
		c0-10.5-3.801-15.101-11.301-15.101c-4.801,0-9.102,1.899-12.201,6.301h-10.001v-38.402h41.203v8.9h-31.202v21.801
		c3.601-4.8,9.4-7.4,15.101-7.4c11.901,0,20.302,7.501,20.302,23.901c0,15.602-10.399,24.302-23.502,24.302
		c-14.899,0-23-6.7-23.7-19.001H1498.778L1498.778,225.999z"/>
	<path d="M1736.049,189.096c-1.101-6-4-8.4-9.602-8.4c-8.5,0-13.399,7.4-14.301,25.602c4-4.699,10.301-8.199,17.001-8.199
		c12.601,0,20.901,7.899,20.901,23.301c0,14.602-11.2,23.602-24.502,23.602c-16.802,0-25.701-12.399-25.701-32.802
		c0-26.102,10.501-40.202,26.602-40.202c13.001,0,20.603,6.4,21.701,17.102h-12.1V189.096z M1712.048,213.797
		c0.3,15.701,4.899,22.502,13.5,22.502c7.801,0,12.602-5.899,12.602-14.9c0-8.801-3.7-14.501-11.9-14.501
		C1720.447,206.897,1715.146,209.797,1712.048,213.797z"/>
	<path d="M212.067,519.5l24.802-61.104h-31.702v-8.9h42.304v8.9L223.269,519.5H212.067z"/>
	<path d="M464.067,500.799c0,14.101-11.001,20.201-25.602,20.201c-14.602,0-25.603-6.2-25.603-20.201
		c0-8.302,4.9-15.302,13.602-17.501c-6.9-2.602-11.7-8.001-11.7-15.901c0-12.4,9.601-19.4,23.701-19.4c14.1,0,23.7,7,23.7,19.4
		c0,7.9-4.699,13.301-11.699,15.901C459.167,485.498,464.067,492.498,464.067,500.799z M438.467,488.298
		c-9.501,0-13.9,5.101-13.9,12.2c0,8.2,5.8,11.802,13.9,11.802c8.1,0,13.9-3.602,13.9-11.802
		C452.367,493.398,447.968,488.298,438.467,488.298z M438.467,456.696c-7,0-12.102,3.7-12.102,11.001c0,6.8,3.7,11.7,12.102,11.7
		c8.4,0,12.101-4.9,12.101-11.7C450.566,460.396,445.468,456.696,438.467,456.696z"/>
	<path d="M671.063,484.897c-3.9,4.801-10.301,8.301-17.001,8.301c-12.601,0-20.901-7.101-20.901-22.102
		c0-14.4,11.201-23.102,24.502-23.102c16.802,0,25.701,12.4,25.701,32.803c0,26.102-9.801,40.202-26.701,40.202
		c-13.2,0-21.802-6.5-22.602-18.802h12.101c0.9,7.4,4.801,10.102,10.501,10.102C666.264,512.3,670.563,504.399,671.063,484.897z
		 M671.063,477.697c-0.6-14.601-5.2-21.001-13.4-21.001c-7.801,0-12.7,5.3-12.7,14.4c0,8.4,3.8,13.301,12.001,13.301
		C662.663,484.397,667.863,481.597,671.063,477.697z"/>
	<path d="M852.458,490.998c0-17.801,8.502-29.9,24.201-29.9c15.701,0,24.103,12.101,24.103,29.9c0,17.803-8.4,30.002-24.103,30.002
		C860.96,521,852.458,508.8,852.458,490.998z M889.061,490.998c0-15.399-4.4-22.001-12.401-22.001c-8,0-12.5,6.602-12.5,22.001
		c0,15.401,4.5,22.103,12.5,22.103C884.66,513.099,889.061,506.399,889.061,490.998z"/>
	<path d="M1069.854,490.998c0-17.801,8.501-29.9,24.201-29.9c15.701,0,24.102,12.101,24.102,29.9
		c0,17.803-8.399,30.002-24.102,30.002C1078.355,521,1069.854,508.8,1069.854,490.998z M1082.655,504.699l16.801-34.502
		c-1.6-0.801-3.398-1.2-5.399-1.2c-8.3,0-13.301,6.602-13.301,22.001C1080.756,496.698,1081.355,501.299,1082.655,504.699z
		 M1107.258,490.998c0-5.699-0.7-10.199-2-13.601l-16.701,34.502c1.601,0.8,3.399,1.2,5.5,1.2
		C1102.356,513.099,1107.258,506.399,1107.258,490.998z"/>
	<path d="M1302.453,519.5v-46.702l-16.2,8.801v-10.001l16.2-9h11.302V519.5H1302.453z"/>
	<path d="M1531.15,510.499v9.001h-43.901v-9.001c20.4-14.101,31.002-21.4,31.002-31.502c0-6.1-3.5-9.699-9.7-9.699
		c-6.701,0-10.802,3.699-11.501,12.501h-11.501c0.7-13.501,8.501-20.701,23.002-20.701c13.501,0,21.201,6.5,21.201,17.899
		c0,11.001-8.701,18.201-27.002,31.502H1531.15z"/>
	<path d="M1713.246,500.898v-8.2h7.4c9.3,0,13.801-5,13.801-12.399c0-7.9-4.899-11.001-11.201-11.001
		c-7.5,0-11.801,3.399-12.801,12.301h-11.5c1-12.9,10-20.501,24.401-20.501c13.399,0,22.601,6.899,22.601,19.301
		c0,6.301-4.3,13.501-12.101,15.801c10.101,1.801,13.9,9.701,13.9,16.603c0,13.2-10.701,21.602-24.4,21.602
		c-16.201,0-24.401-7.401-25.103-20.401h11.802c0.698,8.9,5.399,12.2,13.399,12.2c7.301,0,12.801-3.8,12.801-13.301
		c0-7.4-4.601-12.001-15.601-12.001h-7.399V500.898z"/>
	<path d="M234.369,786.5v-17.602h10.602V786.5h10v9h-10v13.4h-10.602v-13.4h-29.302v-9l20.201-47.902h11L215.867,786.5H234.369z"/>
	<path d="M430.692,791.099c0.7,8.2,5.5,11.101,11.9,11.101c7.399,0,11.9-4.899,11.9-16.2c0-11.5-4.699-15.602-12.101-15.602
		c-4.9,0-8.801,2.2-11.801,6.602h-9.901v-38.402h41.203v9h-31.302v20.9c3.6-4.199,9-6.6,14.699-6.6
		c11.901,0,20.803,7.7,20.803,24.102c0,15.602-10.4,24.401-23.502,24.401c-14.9,0-23.001-7.001-23.701-19.302H430.692
		L430.692,791.099z"/>
	<path d="M668.119,738.696c-1-8.7-6.3-10.899-10.8-10.899c-8.701,0-14.501,7-15.001,30.701c3.899-4.801,10.602-8.399,17.602-8.399
		c12.601,0,20.9,7.899,20.9,23.301C680.82,788,669.62,797,656.318,797c-16.801,0-25.701-12.5-25.701-34.901
		c0-29.502,10.501-42.502,26.702-42.502c12.9,0,21.201,6.399,22.301,19.101L668.119,738.696L668.119,738.696z M642.419,766.298
		c0.699,15.802,5.801,22.502,13.899,22.502c7.801,0,12.801-5.102,12.801-15.103c0-9.8-3.898-15.101-12.101-15.101
		C651.318,758.597,645.519,762.097,642.419,766.298z"/>
	<path d="M848.944,808.9l24.802-61.304h-31.702v-9h42.304v9L860.146,808.9H848.944z"/>
	<path d="M1099.973,775.199c0,14.102-11.401,21.801-26.103,21.801c-14.602,0-26.002-7.699-26.002-21.801
		c0-8.201,5.302-16.502,14.102-19.002c-7-2.6-12.2-8.3-12.2-16.501c0-12.5,10.101-20.101,24.102-20.101
		c14.102,0,24.201,7.601,24.201,20.101c0,8.201-5.199,13.901-12.201,16.501C1094.572,758.697,1099.973,766.998,1099.973,775.199z
		 M1059.37,775.098c0,9.2,6.2,13.701,14.501,13.701s14.501-4.501,14.501-13.701c0-7.4-4.801-14.102-14.501-14.102
		C1064.171,760.998,1059.37,767.698,1059.37,775.098z M1061.271,739.797c0,7.101,4.2,12.601,12.601,12.601
		c8.5,0,12.602-5.5,12.602-12.601c0-8.302-5.5-12.001-12.602-12.001C1066.87,727.796,1061.271,731.496,1061.271,739.797z"/>
	<path d="M1303.697,774.198c-3.899,4.802-10.602,8.401-17.602,8.401c-12.602,0-20.901-7.201-20.901-22.502
		c0-14.602,11.201-23.001,24.502-23.001c16.801,0,25.701,12.2,25.701,34.602c0,27.402-10.501,38.703-26.701,38.703
		c-12.9,0-21.502-6.101-22.702-18.802h11.501c1.102,8.701,6.7,10.601,11.201,10.601
		C1297.496,802.2,1303.298,796.599,1303.697,774.198z M1303.497,766.498c-0.899-15.001-5.899-21.2-13.801-21.2
		c-7.801,0-12.801,4.399-12.801,14.501c0,9.001,3.898,14.301,12.101,14.301C1294.696,774.098,1300.396,770.698,1303.497,766.498z"/>
	<path d="M1480.22,760.498c0-22.102,8.9-36.502,25.702-36.502c16.801,0,25.701,14.4,25.701,36.502
		c0,22.103-8.9,36.502-25.701,36.502C1489.121,797,1480.22,782.599,1480.22,760.498z M1519.322,760.498
		c0-18.501-4.899-27.602-13.399-27.602c-8.501,0-13.501,9.101-13.501,27.602s5,27.603,13.501,27.603
		C1514.423,788.099,1519.322,779,1519.322,760.498z"/>
	<path d="M1696.047,760.498c0-22.102,8.9-36.502,25.702-36.502c16.801,0,25.7,14.4,25.7,36.502c0,22.103-8.899,36.502-25.7,36.502
		C1704.947,797,1696.047,782.599,1696.047,760.498z M1708.947,776.5l19.901-41.304c-2-1.5-4.4-2.3-7.102-2.3
		c-9,0-14.5,9.102-14.5,27.602C1707.247,766.998,1707.847,772.299,1708.947,776.5z M1736.249,760.498
		c0-6.501-0.601-11.801-1.801-15.9l-19.801,41.303c2,1.5,4.3,2.2,7.101,2.2C1730.749,788.099,1736.249,779,1736.249,760.498z"/>
	<path d="M210.468,1071.5v-8.899h16.7v-50.903l-16.7,8.801v-10.001l16.7-9h11.603v61.104h16.399v8.9h-44.702V1071.5z"/>
	<path d="M468.866,1062.599v8.9h-45.901v-8.9c20.102-19.001,32.901-30.402,32.901-42.503c0-7.8-4.101-11.4-10.4-11.4
		c-6.7,0-11.4,3.9-12.102,14.102h-12.101c0.7-14.9,9.801-22.802,24.201-22.802c13.501,0,22.302,7,22.302,20.102
		c0,12.701-10.801,24.4-30.302,42.503L468.866,1062.599L468.866,1062.599z"/>
	<path d="M648.162,1039.998v-8.899h7.102c9.2,0,13.7-5.4,13.7-11.801c0-7.102-4.5-10.602-10.7-10.602
		c-6.7,0-11.301,3.602-12.301,11.801h-12.102c1-12.9,10-20.501,24.401-20.501c13.399,0,22.602,6.9,22.602,19.302
		c0,6.301-4.399,13.301-12.101,15.7c10.101,1.801,13.899,9.5,13.899,16.4c0,13.201-10.801,21.603-24.4,21.603
		c-16.301,0-24.401-7.4-25.103-20.401h12.102c0.7,8.201,5.399,11.701,13.001,11.701c7.301,0,12.501-5.001,12.501-12.901
		c0-6.399-4.602-11.399-15.501-11.399h-7.101V1039.998z"/>
	<path d="M875.159,1049.598v-17.101h10.9v17.101h9.401v8.899h-9.401v13.002h-10.9v-13.002h-29.602v-8.899l20.201-48.104h11.101
		l-20.301,48.104H875.159z"/>
	<path d="M1072.056,1054c0.7,7.5,5.2,10.301,11.601,10.301c7.001,0,11.602-5.501,11.602-15.603c0-10.5-3.801-15.101-11.301-15.101
		c-4.801,0-9.201,1.9-12.201,6.301h-10.101v-38.402h41.202v8.9h-31.102v21.801c3.601-4.8,9.399-7.399,15.101-7.399
		c11.901,0,20.201,7.501,20.201,23.9c0,15.603-10.4,24.303-23.401,24.303c-14.9,0-23.001-6.7-23.701-19.001H1072.056L1072.056,1054z
		"/>
	<path d="M1307.454,1017.096c-1.101-6-4.101-8.4-9.601-8.4c-8.501,0-13.401,7.4-14.301,25.603c4-4.7,10.3-8.2,17.001-8.2
		c12.601,0,20.899,7.899,20.899,23.301c0,14.603-11.199,23.603-24.501,23.603c-16.801,0-25.701-12.4-25.701-32.803
		c0-26.102,10.4-40.201,26.603-40.201c13,0,20.601,6.399,21.701,17.101h-12.101V1017.096z M1283.452,1041.798
		c0.301,15.7,4.9,22.502,13.501,22.502c7.802,0,12.602-5.9,12.602-14.901c0-8.801-3.7-14.501-11.9-14.501
		C1291.853,1034.897,1286.553,1037.798,1283.452,1041.798z"/>
	<path d="M1493.149,1071.5l26.802-61.104h-33.702v-8.9h44.304v8.9l-26.201,61.104H1493.149z"/>
	<path d="M1747.349,1052.799c0,14.101-11.001,20.201-25.603,20.201c-14.601,0-25.602-6.2-25.602-20.201
		c0-8.302,4.9-15.302,13.601-17.501c-7-2.602-11.7-8.001-11.7-15.901c0-12.4,9.602-19.4,23.701-19.4c14.101,0,23.701,7,23.701,19.4
		c0,7.9-4.8,13.301-11.699,15.901C1742.448,1037.498,1747.349,1044.498,1747.349,1052.799z M1721.747,1040.298
		c-9.501,0-13.9,5.101-13.9,12.2c0,8.2,5.801,11.802,13.9,11.802c8.101,0,13.9-3.602,13.9-11.802
		C1735.647,1045.398,1731.247,1040.298,1721.747,1040.298z M1721.747,1008.696c-7.001,0-12.101,3.7-12.101,11.001
		c0,6.8,3.7,11.7,12.101,11.7c8.401,0,12.102-4.9,12.102-11.7C1733.848,1012.396,1728.747,1008.696,1721.747,1008.696z"/>
	<path d="M244.67,1312.897c-3.899,4.801-10.301,8.301-17.002,8.301c-12.601,0-20.899-7.101-20.899-22.102
		c0-14.4,11.199-23.102,24.501-23.102c16.801,0,25.701,12.4,25.701,32.803c0,26.102-9.801,40.202-26.701,40.202
		c-13.302,0-21.803-6.5-22.603-18.802h12.102c0.899,7.4,4.801,10.102,10.501,10.102
		C239.869,1340.3,244.169,1332.399,244.67,1312.897z M244.67,1305.697c-0.601-14.601-5.2-21.001-13.4-21.001
		c-7.802,0-12.802,5.3-12.802,14.4c0,8.401,3.9,13.301,12.102,13.301C236.269,1312.397,241.469,1309.597,244.67,1305.697z"/>
	<path d="M425.063,1318.998c0-17.801,8.501-29.9,24.201-29.9c15.701,0,24.102,12.101,24.102,29.9
		c0,17.803-8.399,30.002-24.102,30.002C433.564,1349,425.063,1336.8,425.063,1318.998z M461.666,1318.998c0-15.399-4.399-22-12.4-22
		c-8,0-12.5,6.601-12.5,22c0,15.401,4.5,22.103,12.5,22.103C457.266,1341.099,461.666,1334.399,461.666,1318.998z"/>
	<path d="M641.661,1318.998c0-17.801,8.501-29.9,24.201-29.9c15.701,0,24.103,12.101,24.103,29.9c0,17.803-8.4,30.002-24.103,30.002
		C650.162,1349,641.661,1336.8,641.661,1318.998z M654.463,1332.699l16.801-34.502c-1.601-0.801-3.399-1.199-5.4-1.199
		c-8.3,0-13.301,6.601-13.301,22C652.562,1324.698,653.162,1329.299,654.463,1332.699z M679.063,1318.998
		c0-5.699-0.7-10.199-2-13.601l-16.701,34.502c1.602,0.8,3.4,1.2,5.5,1.2C674.163,1341.099,679.063,1334.399,679.063,1318.998z"/>
	<path d="M873.46,1347.5v-46.702l-16.201,8.801v-10.001l16.201-9h11.301v56.902H873.46z"/>
	<path d="M1101.357,1338.5v9h-43.901v-9c20.4-14.102,31.002-21.401,31.002-31.502c0-6.101-3.5-9.7-9.7-9.7
		c-6.701,0-10.802,3.7-11.501,12.501h-11.501c0.7-13.501,8.501-20.701,23.002-20.701c13.501,0,21.201,6.5,21.201,17.9
		c0,11-8.701,18.2-27.002,31.502H1101.357z"/>
	<path d="M1282.653,1328.898v-8.2h7.4c9.3,0,13.801-5,13.801-12.399c0-7.9-4.9-11.001-11.201-11.001
		c-7.5,0-11.801,3.399-12.801,12.301h-11.501c1.001-12.9,10.001-20.501,24.401-20.501c13.4,0,22.602,6.9,22.602,19.301
		c0,6.301-4.3,13.501-12.102,15.801c10.102,1.802,13.901,9.701,13.901,16.603c0,13.2-10.701,21.602-24.401,21.602
		c-16.2,0-24.401-7.4-25.102-20.4h11.801c0.699,8.899,5.4,12.2,13.4,12.2c7.301,0,12.801-3.801,12.801-13.302
		c0-7.399-4.601-12.001-15.601-12.001h-7.399V1328.898z"/>
	<path d="M1512.951,1338.5v-17.602h10.602v17.602h10v9h-10v13.4h-10.602v-13.4h-29.302v-9l20.201-47.902h11l-20.401,47.902H1512.951
		z"/>
	<path d="M1712.346,1343.099c0.699,8.2,5.5,11.101,11.899,11.101c7.4,0,11.901-4.899,11.901-16.201c0-11.5-4.7-15.601-12.101-15.601
		c-4.9,0-8.802,2.2-11.802,6.601h-9.9v-38.401h41.203v9h-31.303v20.9c3.601-4.199,9-6.6,14.7-6.6c11.901,0,20.802,7.7,20.802,24.101
		c0,15.603-10.399,24.402-23.502,24.402c-14.899,0-23.001-7.001-23.701-19.302H1712.346L1712.346,1343.099z"/>
	<path d="M243.669,1566.696c-1-8.7-6.3-10.899-10.8-10.899c-8.701,0-14.501,7-15.001,30.701c3.899-4.801,10.602-8.399,17.602-8.399
		c12.601,0,20.9,7.899,20.9,23.301c0,14.603-11.2,23.603-24.501,23.603c-16.802,0-25.702-12.501-25.702-34.902
		c0-29.502,10.501-42.502,26.702-42.502c12.9,0,21.201,6.4,22.301,19.101h-11.501V1566.696z M217.968,1594.298
		c0.7,15.802,5.802,22.502,13.901,22.502c7.8,0,12.801-5.102,12.801-15.103c0-9.8-3.899-15.101-12.102-15.101
		C226.868,1586.597,221.068,1590.097,217.968,1594.298z"/>
	<path d="M423.466,1636.9l24.802-61.304h-31.702v-9h42.303v9l-24.2,61.304H423.466z"/>
	<path d="M673.466,1603.199c0,14.102-11.401,21.801-26.103,21.801c-14.602,0-26.002-7.699-26.002-21.801
		c0-8.201,5.301-16.502,14.102-19.002c-7-2.6-12.2-8.3-12.2-16.501c0-12.5,10.101-20.101,24.102-20.101
		c14.102,0,24.201,7.601,24.201,20.101c0,8.201-5.2,13.901-12.201,16.501C668.064,1586.697,673.466,1594.998,673.466,1603.199z
		 M632.862,1603.098c0,9.2,6.2,13.701,14.501,13.701c8.3,0,14.501-4.501,14.501-13.701c0-7.4-4.801-14.101-14.501-14.101
		C637.662,1588.998,632.862,1595.698,632.862,1603.098z M634.763,1567.797c0,7.101,4.2,12.601,12.601,12.601
		c8.5,0,12.602-5.5,12.602-12.601c0-8.302-5.5-12.001-12.602-12.001C640.362,1555.796,634.763,1559.496,634.763,1567.797z"/>
	<path d="M876.16,1602.198c-3.898,4.802-10.601,8.401-17.601,8.401c-12.602,0-20.901-7.201-20.901-22.502
		c0-14.602,11.201-23.001,24.502-23.001c16.802,0,25.701,12.2,25.701,34.602c0,27.402-10.501,38.703-26.701,38.703
		c-12.9,0-21.502-6.101-22.702-18.802h11.501c1.102,8.701,6.7,10.601,11.201,10.601
		C869.961,1630.2,875.761,1624.599,876.16,1602.198z M875.962,1594.498c-0.9-15-5.9-21.2-13.802-21.2
		c-7.801,0-12.801,4.399-12.801,14.501c0,9.001,3.899,14.301,12.101,14.301C867.16,1602.098,872.86,1598.698,875.962,1594.498z"/>
	<path d="M1053.155,1594.998c0-17.801,8.5-29.9,24.201-29.9s24.201,12.101,24.201,29.9c0,17.803-8.5,30.002-24.201,30.002
		S1053.155,1612.8,1053.155,1594.998z M1089.857,1594.998c0-15.399-4.501-22-12.501-22c-8.001,0-12.501,6.601-12.501,22
		c0,15.401,4.5,22.103,12.501,22.103C1085.356,1617.099,1089.857,1610.399,1089.857,1594.998z"/>
	<path d="M1268.352,1595.098c0-17.701,8.201-29.802,23.802-29.802c15.501,0,23.802,12.101,23.802,29.802
		c0,17.801-8.301,29.901-23.802,29.901C1276.553,1625,1268.352,1612.899,1268.352,1595.098z M1280.553,1610l17.601-36.303
		c-1.8-0.899-3.8-1.399-6-1.399c-8.601,0-13.901,6.699-13.901,22.802C1278.253,1601.5,1279.053,1606.399,1280.553,1610z
		 M1306.054,1595.098c0-6.4-0.8-11.301-2.399-14.901l-17.602,36.303c1.8,1,3.801,1.399,6.101,1.399
		C1300.755,1617.899,1306.054,1611.299,1306.054,1595.098z"/>
	<path d="M1485.648,1623.5v-9h17.501v-37.603l-17.501,9v-10.301l17.501-9h11.301v47.901h16.501v9.001L1485.648,1623.5
		L1485.648,1623.5z"/>
	<path d="M1745.148,1614.5v9h-43.902v-9c20.4-14.102,31.002-21.401,31.002-31.502c0-6.101-3.501-9.7-9.7-9.7
		c-6.7,0-10.802,3.7-11.502,12.501h-11.5c0.7-13.501,8.5-20.701,23.002-20.701c13.5,0,21.2,6.5,21.2,17.9
		c0,11-8.699,18.2-27.001,31.502H1745.148z"/>
	<path d="M221.668,1880.898v-8.2h7.4c9.201,0,13.701-5,13.701-12.399c0-7.9-4.801-11.001-11.201-11.001
		c-7.4,0-11.7,3.399-12.7,12.301h-11.501c1-12.9,10.001-20.501,24.401-20.501c13.4,0,22.602,6.9,22.602,19.301
		c0,6.301-4.399,13.501-12.101,15.801c10.101,1.802,13.899,9.701,13.899,16.603c0,13.2-10.801,21.602-24.4,21.602
		c-16.201,0-24.401-7.4-25.103-20.4h11.801c0.7,8.899,5.302,12.2,13.302,12.2c7.301,0,12.9-3.801,12.9-13.302
		c0-7.399-4.701-12.001-15.602-12.001h-7.399V1880.898z"/>
	<path d="M449.737,1890.5v-17.602h10.602v17.602h10.001v9h-10.001v13.4h-10.602v-13.4h-29.302v-9l20.201-47.902h11.001
		l-20.401,47.902H449.737z"/>
	<path d="M646.604,1895.099c0.7,8.2,5.5,11.101,11.9,11.101c7.301,0,11.9-4.899,11.9-16.201c0-11.5-4.7-15.601-12.201-15.601
		c-4.8,0-8.699,2.2-11.699,6.601h-10.001v-38.401h41.202v9h-31.201v20.9c3.5-4.199,8.899-6.6,14.601-6.6
		c11.9,0,20.802,7.7,20.802,24.101c0,15.603-10.4,24.402-23.401,24.402c-14.9,0-23.001-7.001-23.701-19.302H646.604
		L646.604,1895.099z"/>
	<path d="M884.274,1842.696c-1.1-8.7-6.4-10.899-10.9-10.899c-8.501,0-14.4,6.899-15.001,30.102c4-4.9,10.602-8.4,17.602-8.4
		c12.601,0,21.002,7.9,21.002,23.603c0,14.901-11.201,23.901-24.502,23.901c-16.801,0-25.802-12.501-25.802-34.902
		c0-29.502,10.601-42.502,26.701-42.502c13.002,0,21.302,6.4,22.401,19.101h-11.501V1842.696z M858.473,1869.698
		c0.601,16.201,5.801,23.103,14.001,23.103c7.7,0,12.801-5.102,12.801-15.401c0-10.101-4-15.399-12.101-15.399
		C867.373,1861.998,861.573,1865.498,858.473,1869.698z"/>
	<path d="M1071.341,1912.9l26.802-61.304h-35.103v-9h45.702v9l-26.302,61.304H1071.341z"/>
	<path d="M1325.311,1879.199c0,14.102-11.4,21.801-26.001,21.801s-26.002-7.699-26.002-21.801c0-8.201,5.301-16.502,14.001-19.002
		c-7-2.6-12.2-8.3-12.2-16.501c0-12.5,10.102-20.101,24.201-20.101c14.101,0,24.103,7.601,24.103,20.101
		c0,8.201-5.2,13.901-12.102,16.501C1320.011,1862.697,1325.311,1870.998,1325.311,1879.199z M1284.809,1879.098
		c0,9.2,6.2,13.701,14.501,13.701s14.501-4.501,14.501-13.701c0-7.4-4.801-14.101-14.501-14.101
		C1289.608,1864.998,1284.809,1871.698,1284.809,1879.098z M1286.71,1843.797c0,7.101,4.199,12.601,12.601,12.601
		s12.601-5.5,12.601-12.601c0-8.302-5.601-12.001-12.601-12.001C1292.309,1831.796,1286.71,1835.496,1286.71,1843.797z"/>
	<path d="M1525.979,1878.198c-4,4.802-10.601,8.401-17.601,8.401c-12.603,0-21.002-7.201-21.002-22.502
		c0-14.602,11.2-23.001,24.502-23.001c16.801,0,25.802,12.2,25.802,34.602c0,27.402-10.602,38.703-26.702,38.703
		c-13.001,0-21.603-6.101-22.701-18.802h11.501c1.1,8.701,6.7,10.601,11.2,10.601
		C1519.778,1906.2,1525.578,1900.599,1525.979,1878.198z M1525.778,1870.498c-0.898-15-6-21.2-13.9-21.2
		c-7.699,0-12.801,4.399-12.801,14.501c0,9.001,4,14.301,12.102,14.301C1516.879,1878.098,1522.679,1874.698,1525.778,1870.498z"/>
	<path d="M1701.145,1872.398c0-17.201,8.9-28.602,23.002-28.602c14,0,22.901,11.399,22.901,28.602
		c0,17.101-8.901,28.602-22.901,28.602C1710.046,1901,1701.145,1889.5,1701.145,1872.398z M1735.646,1872.398
		c0-13.601-4.9-20.501-11.5-20.501c-6.801,0-11.603,6.9-11.603,20.501s4.802,20.501,11.603,20.501
		C1730.746,1892.899,1735.646,1886,1735.646,1872.398z"/>
	<path d="M206.268,2148.398c0-17.201,8.6-28.602,22.501-28.602c14.001,0,22.501,11.399,22.501,28.602
		c0,17.102-8.5,28.602-22.501,28.602C214.867,2177,206.268,2165.5,206.268,2148.398z M218.067,2161.599l16.401-33.003
		c-1.7-1.199-3.7-1.8-5.7-1.8c-7.2,0-12.802,6.899-12.802,21.602C215.968,2153.898,216.668,2158.199,218.067,2161.599z
		 M241.669,2148.398c0-5.5-0.8-9.9-2.199-13.201l-16.501,33.104c1.699,1.1,3.699,1.699,5.801,1.699
		C235.969,2170,241.669,2163.099,241.669,2148.398z"/>
	<path d="M439.735,2175.5v-45.002l-13.201,6.801v-9.102l13.201-7.001h10.9v54.304H439.735z"/>
	<path d="M669.007,2167.399v8.101h-37.104v-8.101c16.001-14.399,26.103-22.501,26.103-31.901c0-5-3.4-7.801-7.7-7.801
		c-5.201,0-8.001,3.2-8.701,10h-11.102c0.602-11.5,8.302-17.899,19.803-17.899c10.899,0,18.301,5.5,18.301,15.7
		c0,9.601-7.7,18.102-23.302,31.901H669.007z"/>
	<path d="M856.571,2151.498v-7.8h5.602c7.399,0,10.801-3.899,10.801-8.7c0-4.5-3.1-7.301-8-7.301c-5.4,0-8.501,2.9-9.401,8.2
		h-11.101c0.801-9.899,8.899-16.101,20.502-16.101c12.101,0,19.101,5.199,19.101,14.899c0,5.2-3.5,10.701-10,12.501
		c8.4,1.4,11.4,7.501,11.4,12.9c0,10.2-8.301,16.9-20.603,16.9c-13,0-20.4-6.102-21-16.201h11.101c0.7,5.4,3.9,8.301,9.9,8.301
		c5.899,0,9.601-3.199,9.601-9c0-4.899-3.5-8.602-12.301-8.602h-5.602V2151.498z"/>
	<path d="M1090.241,2133.397c-0.899-4.2-3.3-5.7-7.301-5.7c-6.3,0-9.9,5.2-10.7,17.701c3.4-3.102,8-5.102,12.9-5.102
		c10.701,0,17.802,6.102,17.802,18.002c0,11.399-9.701,18.7-20.701,18.7c-13.701,0-21.302-9.899-21.302-25.7
		c0-20.303,8.4-31.502,22.302-31.502c10.301,0,17.301,5.3,18.102,13.601H1090.241z M1072.141,2152
		c0.1,11.699,3.1,17.101,10.101,17.101c6.2,0,9.7-4.399,9.7-10.801c0-6.102-3-10.501-9.501-10.501
		C1078.342,2147.798,1074.641,2149.598,1072.141,2152z"/>
	<path d="M1281.51,2175.5l19.701-46.202h-25.103v-8.102h35.302v8.102l-19.399,46.202H1281.51z"/>
	<path d="M1528.882,2161c0,10.899-9.501,16-21.502,16c-12,0-21.501-5.101-21.501-16c0-6.4,4.101-11.802,10.899-13.602
		c-5.6-1.9-9.5-6.301-9.5-12.4c0-9.7,8.5-15.2,20.102-15.2s20.102,5.5,20.102,15.2c0,6.101-3.9,10.5-9.5,12.4
		C1524.882,2149.198,1528.882,2154.598,1528.882,2161z M1507.38,2151.799c-6.7,0-10.301,3.399-10.301,9
		c0,6.399,4.7,8.399,10.301,8.399c5.501,0,10.4-2,10.4-8.399C1517.78,2155.199,1514.08,2151.799,1507.38,2151.799z
		 M1507.38,2127.596c-4.7,0-9,2.101-9,7.801c0,5.2,3.199,8.399,9,8.399s9.001-3.199,9.001-8.399
		C1516.381,2129.697,1512.08,2127.596,1507.38,2127.596z"/>
	<path d="M1735.646,2150.098c-3.399,3-8.1,5-12.9,5c-10.699,0-17.7-5.4-17.7-17.001c0-11.7,9.601-18.301,20.602-18.301
		c13.801,0,21.401,9.899,21.401,25.7c0,20.302-8.4,31.502-22.303,31.502c-10.399,0-18.2-4.7-19.2-15.001h11.2
		c0.899,5.301,4.2,7.102,8.301,7.102C1731.548,2169.099,1735.048,2163.599,1735.646,2150.098z M1735.747,2143.498
		c-0.3-10.801-3.301-15.801-10.101-15.801c-6.101,0-9.701,4.101-9.701,10.4c0,5.801,3.101,9.501,9.601,9.501
		C1729.548,2147.598,1733.247,2145.998,1735.747,2143.498z"/>
	<path d="M204.167,2386.496c0-13.301,7.602-21.9,18.801-21.9c11.102,0,18.803,8.602,18.803,21.9
		c0,13.301-7.701,21.901-18.803,21.901C211.768,2408.397,204.167,2399.797,204.167,2386.496z M231.769,2386.496
		c0-10.101-3.602-14.7-8.802-14.7c-5.3,0-8.899,4.601-8.899,14.7c0,10.101,3.601,14.802,8.899,14.802
		C228.168,2401.297,231.769,2396.596,231.769,2386.496z"/>
	<path d="M408.353,2407.498v-33.702l-10.301,5.301v-8.301l10.301-5.3h9.5v42.002H408.353z"/>
	<path d="M608.639,2400.396v7.102h-31.103v-7.102c13.102-11.102,21.303-16.602,21.303-22.801c0-4.301-2.102-6.102-6.102-6.102
		c-3.7,0-6.001,2.2-6.501,6.801h-9.7c0.4-9,6.802-13.7,16.201-13.7c9.102,0,15.701,4.399,15.701,13.001
		c0,7.601-5.701,12.199-18.401,22.801H608.639z"/>
	<path d="M775.821,2389.396v-7.001h5.201c4.8,0,7.8-1.899,7.8-5.7c0-3.8-2.6-5.199-6.3-5.199c-4.101,0-6.101,1.699-6.701,5.399h-9.8
		c0.699-7.801,7.2-12.301,16.501-12.301c9.3,0,15.801,4.399,15.801,11.899c0,3.7-2.601,7.701-8.001,9.102
		c6.9,1.101,9.201,5.699,9.201,9.899c0,7.901-7.801,12.901-16.701,12.901c-10.501,0-16.801-4.4-17.201-12.301h9.7
		c0.5,3.699,2.7,5.399,7.501,5.399c4.4,0,7.102-1.8,7.102-6.001c0-3.7-2.7-6.1-8.9-6.1h-5.202V2389.396z"/>
	<path d="M974.707,2393.396v-9.301h8.9v9.301h6.4v7.301h-6.4v6.801h-8.9v-6.801h-18.9v-7.301l13.101-27.9h9.201l-13.302,27.9
		H974.707z"/>
	<path d="M1154.79,2372.795v9.5c2.302-2.199,5.602-3.301,9.302-3.301c7.7,0,13.801,5.001,13.801,14.803
		c0,9.399-7.9,14.601-16.4,14.601c-9.7,0-15.501-4-15.9-11.399h9.7c0.5,2.699,2.199,4.5,6.2,4.5c4.301,0,6.9-2.5,6.9-7.7
		c0-5.302-2.101-7.9-6.701-7.9c-3.1,0-5.399,1.101-6.899,2.899h-8.102v-23.301h28.302v7.3L1154.79,2372.795L1154.79,2372.795z"/>
	<path d="M1357.376,2374.996c-1-2.5-2.699-3.5-5.5-3.5c-4.699,0-7.301,3.8-8,12.399c2.601-2.3,6-3.7,9.601-3.7
		c9.201,0,14.802,4.801,14.802,14.001c0,8.802-7.801,14.201-16.502,14.201c-11.2,0-17.9-7.399-17.9-19.701
		c0-15.7,7.301-24.102,18.002-24.102c8.699,0,14.5,4,15.2,10.399h-9.702V2374.996z M1343.775,2389.896
		c0.2,7.602,2.601,11.602,8,11.602c5.101,0,7.001-3.302,7.001-7.302c0-3.899-2.101-7.101-7.101-7.101
		C1348.575,2387.095,1345.775,2388.196,1343.775,2389.896z"/>
	<path d="M1558.963,2396.196c0,8.501-7.602,12.201-17.303,12.201c-9.8,0-17.399-3.7-17.399-12.201c0-4.899,3.199-9.101,8.899-10.5
		c-4.5-1.399-7.699-4.7-7.699-9.501c0-7.399,6.8-11.601,16.199-11.601c9.302,0,16.103,4.2,16.103,11.601
		c0,4.801-3.2,8.102-7.7,9.501C1555.762,2387.095,1558.963,2391.295,1558.963,2396.196z M1541.66,2389.496c-5.1,0-7.8,2-7.8,5.802
		c0,4.7,3.6,6.2,7.8,6.2c4.102,0,7.701-1.5,7.701-6.2C1549.361,2391.496,1546.661,2389.496,1541.66,2389.496z M1541.66,2371.496
		c-3.5,0-6.6,1.5-6.6,5.699c0,3.4,2.2,5.4,6.6,5.4c4.302,0,6.501-2,6.501-5.4C1548.161,2372.996,1545.061,2371.496,1541.66,2371.496
		z"/>
	<path d="M1739.246,2389.196c-2.501,2.3-6.001,3.602-9.501,3.602c-9.199,0-14.801-4.802-14.801-14.001
		c0-8.801,7.801-14.201,16.501-14.201c11.2,0,17.901,7.4,17.901,19.701c0,15.701-7.301,24.102-18.001,24.102
		c-8.701,0-14.901-4.199-15.501-11.201h9.699c0.9,3.2,3,4.302,5.802,4.302C1736.047,2401.498,1738.646,2397.696,1739.246,2389.196z
		 M1739.445,2383.196c-0.199-7.7-2.7-11.7-8-11.7c-5.101,0-7,3.3-7,7.301c0,3.898,2.101,7.199,7.101,7.199
		C1734.547,2385.996,1737.346,2384.895,1739.445,2383.196z"/>
	<path d="M213.468,2729c-4.101,0-7.199-3-7.199-7.2c0-4.199,3.1-7.199,7.199-7.199c4.101,0,7.2,3,7.2,7.199
		C220.668,2726,217.567,2729,213.468,2729z"/>
	<path d="M389.627,2743.5l2-27.399h11.002l-3.9,27.399H389.627z"/>
	<path d="M581.387,2676.197v-10.902h-11.602v-7.399h11.602v-11h7.501v11h11.8v7.399h-11.8v10.902H581.387z"/>
	<path d="M765.746,2665.196v-7.301h30.902v7.301H765.746z"/>
	<path d="M961.705,2658.595v-7.301h30.902v7.301H961.705z M961.705,2671.797v-7.302h30.902v7.302H961.705z"/>
	<path d="M1170.667,2690.998c-6.302-5.399-13.002-15.301-13.002-28.502c0-13.2,6.7-23.102,13.002-28.502h8.801
		c-7.201,6.7-11.801,18.103-11.801,28.502c0,10.4,4.6,21.802,11.801,28.502H1170.667z"/>
	<path d="M1339.323,2690.998c7.201-6.7,11.701-18.102,11.701-28.502c0-10.399-4.5-21.802-11.701-28.502h8.801
		c6.2,5.4,13.002,15.302,13.002,28.502c0,13.202-6.802,23.103-13.002,28.502H1339.323z"/>
	<path d="M1526.184,2718.498c0-13.301,7.601-21.899,18.801-21.899c11.102,0,18.802,8.601,18.802,21.899
		c0,13.301-7.7,21.902-18.802,21.902C1533.784,2740.4,1526.184,2731.8,1526.184,2718.498z M1553.785,2718.498
		c0-10.1-3.601-14.698-8.801-14.698c-5.3,0-8.899,4.6-8.899,14.698c0,10.103,3.601,14.804,8.899,14.804
		C1550.185,2733.302,1553.785,2728.6,1553.785,2718.498z"/>
	<path d="M1738.144,2739.5v-33.7l-10.301,5.299v-8.299l10.301-5.302h9.5v42.002H1738.144z"/>
	<path d="M236.269,3008.4v7.1h-31.103v-7.1c13.102-11.102,21.303-16.602,21.303-22.803c0-4.299-2.102-6.101-6.102-6.101
		c-3.7,0-6.001,2.199-6.501,6.802h-9.7c0.4-9,6.801-13.701,16.201-13.701c9.102,0,15.701,4.399,15.701,13
		c0,7.602-5.701,12.201-18.401,22.803H236.269z"/>
	<path d="M405.841,2997.398v-7h5.2c4.801,0,7.801-1.9,7.801-5.699c0-3.801-2.601-5.201-6.301-5.201c-4.101,0-6.101,1.699-6.7,5.4
		h-9.801c0.699-7.801,7.2-12.301,16.502-12.301c9.3,0,15.801,4.399,15.801,11.899c0,3.701-2.602,7.701-8.001,9.103
		c6.899,1.1,9.2,5.699,9.2,9.899c0,7.9-7.801,12.9-16.7,12.9c-10.501,0-16.802-4.4-17.201-12.302h9.7c0.5,3.699,2.699,5.4,7.501,5.4
		c4.399,0,7.101-1.801,7.101-6c0-3.701-2.7-6.102-8.899-6.102h-5.202V2997.398z"/>
	<path d="M607.112,3001.398v-9.299h8.9v9.299h6.399v7.301h-6.399v6.801h-8.9v-6.801h-18.9v-7.301l13.101-27.9h9.2l-13.301,27.9
		H607.112z"/>
	<path d="M789.583,2980.8v9.5c2.302-2.201,5.602-3.302,9.302-3.302c7.7,0,13.801,5,13.801,14.802c0,9.399-7.9,14.602-16.4,14.602
		c-9.7,0-15.501-4-15.9-11.399h9.7c0.5,2.699,2.199,4.5,6.2,4.5c4.301,0,6.9-2.5,6.9-7.701c0-5.299-2.101-7.9-6.701-7.9
		c-3.1,0-5.399,1.101-6.899,2.9h-8.102V2973.5h28.302v7.301L789.583,2980.8L789.583,2980.8z"/>
	<path d="M994.557,2982.998c-1-2.5-2.7-3.5-5.5-3.5c-4.7,0-7.301,3.802-8.001,12.4c2.601-2.299,6.001-3.699,9.601-3.699
		c9.201,0,14.801,4.799,14.801,14c0,8.801-7.8,14.201-16.5,14.201c-11.2,0-17.9-7.4-17.9-19.701c0-15.701,7.3-24.102,18.001-24.102
		c8.7,0,14.501,4,15.201,10.399L994.557,2982.998L994.557,2982.998z M980.956,2997.898c0.2,7.602,2.602,11.602,8,11.602
		c5.102,0,7.001-3.301,7.001-7.301c0-3.899-2.101-7.1-7.101-7.1C985.757,2995.1,982.956,2996.199,980.956,2997.898z"/>
	<path d="M1166.629,3015.5l16.102-34.7h-19.602v-7.302h28.502v7.302l-15.803,34.7H1166.629z"/>
	<path d="M1384.701,3004.199c0,8.5-7.601,12.201-17.302,12.201c-9.8,0-17.4-3.701-17.4-12.201c0-4.899,3.2-9.1,8.9-10.5
		c-4.5-1.399-7.7-4.701-7.7-9.5c0-7.399,6.801-11.602,16.2-11.602c9.301,0,16.103,4.201,16.103,11.602c0,4.799-3.2,8.101-7.7,9.5
		C1381.501,2995.1,1384.701,2999.3,1384.701,3004.199z M1367.399,2997.5c-5.1,0-7.8,2-7.8,5.8c0,4.7,3.6,6.2,7.8,6.2
		c4.102,0,7.701-1.5,7.701-6.2C1375.101,2999.5,1372.4,2997.5,1367.399,2997.5z M1367.399,2979.498c-3.5,0-6.6,1.5-6.6,5.701
		c0,3.398,2.199,5.4,6.6,5.4c4.301,0,6.501-2.002,6.501-5.4C1373.9,2980.998,1370.801,2979.498,1367.399,2979.498z"/>
	<path d="M1567.374,2997.199c-2.502,2.301-6.002,3.601-9.502,3.601c-9.199,0-14.801-4.8-14.801-14
		c0-8.802,7.801-14.201,16.501-14.201c11.2,0,17.901,7.399,17.901,19.701c0,15.7-7.301,24.102-18.001,24.102
		c-8.701,0-14.901-4.2-15.501-11.2h9.7c0.899,3.2,3,4.301,5.801,4.301C1564.174,3009.5,1566.772,3005.699,1567.374,2997.199z
		 M1567.572,2991.199c-0.198-7.701-2.7-11.701-8-11.701c-5.101,0-7,3.302-7,7.302c0,3.899,2.101,7.198,7.101,7.198
		C1562.674,2993.998,1565.473,2992.898,1567.572,2991.199z"/>
	<path d="M1742.744,3016.4c-3.399,0-5.899-2.5-5.899-5.801s2.5-5.801,5.899-5.801c3.301,0,5.802,2.5,5.802,5.801
		S1746.044,3016.4,1742.744,3016.4z"/>
	<path d="M204.167,3302.5l1.3-17.801h9.002l-2.602,17.801H204.167z"/>
	<path d="M383.679,3284.199V3273.3h-11.602v-7.4h11.602v-11h7.501v11h11.801v7.4H391.18v10.899H383.679z"/>
	<path d="M560.588,3273.199v-7.301h30.9v7.301H560.588z"/>
	<path d="M749.097,3266.6v-7.301h30.9v7.301H749.097z M749.097,3279.8v-7.3h30.9v7.3H749.097z"/>
	<path d="M950.607,3299c-6.301-5.399-13.001-15.301-13.001-28.502c0-13.198,6.7-23.1,13.001-28.5h8.801
		c-7.2,6.699-11.801,18.101-11.801,28.5c0,10.402,4.6,21.804,11.801,28.502H950.607z"/>
	<path d="M1111.814,3299c7.201-6.698,11.701-18.1,11.701-28.502c0-10.399-4.5-21.801-11.701-28.5h8.801
		c6.2,5.4,13.001,15.302,13.001,28.5c0,13.201-6.801,23.103-13.001,28.502H1111.814z"/>
	<path d="M1293.225,3244.498c0-22.102,10.201-36.502,27.002-36.502s26.9,14.4,26.9,36.502c0,22.103-10.101,36.502-26.9,36.502
		S1293.225,3266.6,1293.225,3244.498z M1334.928,3244.498c0-18.502-5.9-27.602-14.701-27.602s-14.801,9.1-14.801,27.602
		c0,18.5,6,27.603,14.801,27.603S1334.928,3262.998,1334.928,3244.498z"/>
	<path d="M1524.236,3279.5v-59.805l-16.501,8.801v-10l16.501-9h11.601v70.004H1524.236z"/>
	<path d="M1748.749,3270.6v8.899h-45.902v-8.899c20.102-19.002,33.002-30.402,33.002-42.504c0-7.799-4.2-11.399-10.4-11.399
		c-6.801,0-11.399,3.899-12.201,14.102h-12.101c0.7-14.9,9.801-22.801,24.302-22.801c13.501,0,22.301,7,22.301,20.1
		c0,12.701-10.899,24.402-30.4,42.504L1748.749,3270.6L1748.749,3270.6z"/>
	<path d="M220.868,3523.998v-8.899h7.102c9.3,0,13.801-5.399,13.801-11.801c0-7.103-4.602-10.603-10.801-10.603
		c-6.7,0-11.201,3.603-12.201,11.801h-12.2c1-12.899,10-20.5,24.401-20.5c13.399,0,22.602,6.9,22.602,19.302
		c0,6.301-4.301,13.301-12.102,15.7c10.102,1.8,13.9,9.5,13.9,16.4c0,13.201-10.7,21.602-24.4,21.602
		c-16.201,0-24.401-7.399-25.103-20.401h12.101c0.801,8.2,5.4,11.7,13.002,11.7c7.301,0,12.601-5,12.601-12.899
		c0-6.399-4.601-11.399-15.601-11.399h-7.102V3523.998z"/>
	<path d="M448.638,3533.598v-17.101h10.899v17.101h9.4v8.899h-9.4v13.002h-10.899v-13.002h-29.603v-8.899l20.201-48.103h11.102
		l-20.303,48.103H448.638z"/>
	<path d="M645.203,3537.998c0.802,7.5,5.2,10.302,11.602,10.302c7.101,0,11.601-5.5,11.601-15.603c0-10.5-3.8-15.1-11.3-15.1
		c-4.801,0-9.101,1.899-12.201,6.301h-10.001v-38.402h41.203v8.9h-31.202v21.801c3.602-4.801,9.4-7.4,15.102-7.4
		c11.9,0,20.302,7.5,20.302,23.9c0,15.602-10.4,24.303-23.502,24.303c-14.9,0-23.001-6.701-23.701-19.002H645.203L645.203,3537.998z
		"/>
	<path d="M881.273,3501.096c-1.1-6-4-8.4-9.601-8.4c-8.5,0-13.4,7.4-14.302,25.603c4-4.699,10.302-8.199,17.001-8.199
		c12.602,0,20.901,7.9,20.901,23.301c0,14.603-11.2,23.603-24.501,23.603c-16.802,0-25.702-12.4-25.702-32.804
		c0-26.102,10.501-40.2,26.603-40.2c13.001,0,20.602,6.399,21.7,17.1h-12.1V3501.096z M857.272,3525.798
		c0.3,15.7,4.9,22.502,13.501,22.502c7.8,0,12.601-5.9,12.601-14.9c0-8.801-3.699-14.502-11.9-14.502
		C865.674,3518.896,860.372,3521.798,857.272,3525.798z"/>
	<path d="M1063.641,3555.5l24.802-61.104h-31.702v-8.9h42.303v8.9l-24.2,61.104H1063.641z"/>
	<path d="M1312.012,3536.8c0,14.1-11.001,20.2-25.603,20.2c-14.601,0-25.602-6.2-25.602-20.2c0-8.302,4.899-15.302,13.601-17.502
		c-6.9-2.601-11.7-8-11.7-15.9c0-12.399,9.602-19.399,23.701-19.399c14.101,0,23.701,7,23.701,19.399c0,7.9-4.7,13.302-11.7,15.9
		C1307.111,3521.498,1312.012,3528.498,1312.012,3536.8z M1286.41,3524.298c-9.5,0-13.899,5.102-13.899,12.2
		c0,8.201,5.8,11.802,13.899,11.802c8.101,0,13.901-3.601,13.901-11.802C1300.312,3529.398,1295.911,3524.298,1286.41,3524.298z
		 M1286.41,3492.695c-7,0-12.101,3.701-12.101,11.002c0,6.799,3.7,11.699,12.101,11.699c8.401,0,12.102-4.9,12.102-11.699
		C1298.511,3496.396,1293.411,3492.695,1286.41,3492.695z"/>
	<path d="M1515.38,3520.896c-3.9,4.801-10.302,8.301-17.001,8.301c-12.602,0-20.901-7.1-20.901-22.102
		c0-14.4,11.201-23.101,24.502-23.101c16.801,0,25.701,12.4,25.701,32.802c0,26.102-9.801,40.202-26.701,40.202
		c-13.201,0-21.802-6.5-22.602-18.801h12.101c0.899,7.399,4.8,10.101,10.501,10.101
		C1510.579,3548.3,1514.88,3540.398,1515.38,3520.896z M1515.38,3513.697c-0.601-14.602-5.2-21.002-13.4-21.002
		c-7.801,0-12.701,5.301-12.701,14.4c0,8.402,3.8,13.301,12.001,13.301C1506.979,3520.396,1512.179,3517.598,1515.38,3513.697z"/>
	<path d="M1693.146,3520.498c0-22.102,10.201-36.502,27.002-36.502s26.901,14.4,26.901,36.502c0,22.103-10.102,36.502-26.902,36.502
		S1693.146,3542.6,1693.146,3520.498z M1734.848,3520.498c0-18.502-5.899-27.602-14.7-27.602s-14.801,9.1-14.801,27.602
		c0,18.5,6,27.603,14.801,27.603S1734.848,3538.998,1734.848,3520.498z"/>
	<path d="M221.668,3831.5v-59.805l-16.501,8.801v-10l16.501-9h11.602v70.004H221.668z"/>
	<path d="M453.425,3822.6v8.899h-45.902v-8.899c20.102-19.002,33.002-30.402,33.002-42.504c0-7.799-4.2-11.399-10.4-11.399
		c-6.801,0-11.399,3.899-12.2,14.102h-12.102c0.7-14.9,9.801-22.801,24.302-22.801c13.502,0,22.302,7,22.302,20.1
		c0,12.701-10.9,24.402-30.401,42.504L453.425,3822.6L453.425,3822.6z"/>
	<path d="M635.276,3799.998v-8.899h7.102c9.3,0,13.801-5.399,13.801-11.801c0-7.103-4.602-10.603-10.801-10.603
		c-6.7,0-11.201,3.603-12.201,11.801h-12.2c1-12.899,10-20.5,24.401-20.5c13.399,0,22.602,6.9,22.602,19.302
		c0,6.301-4.301,13.301-12.102,15.7c10.102,1.8,13.9,9.5,13.9,16.4c0,13.201-10.7,21.602-24.4,21.602
		c-16.201,0-24.401-7.399-25.103-20.401h12.102c0.8,8.2,5.399,11.7,13.001,11.7c7.301,0,12.601-5,12.601-12.899
		c0-6.399-4.601-11.399-15.601-11.399h-7.102V3799.998z"/>
	<path d="M866.432,3809.598v-17.101h10.9v17.101h9.399v8.899h-9.399v13.002h-10.9v-13.002H836.83v-8.899l20.201-48.103h11.102
		l-20.303,48.103H866.432z"/>
	<path d="M1090.485,3777.096c-1.1-6-4-8.4-9.601-8.4c-8.5,0-13.4,7.4-14.302,25.603c4-4.699,10.302-8.199,17.002-8.199
		c12.601,0,20.9,7.9,20.9,23.301c0,14.603-11.2,23.603-24.502,23.603c-16.801,0-25.701-12.4-25.701-32.804
		c0-26.102,10.501-40.2,26.603-40.2c13.001,0,20.602,6.399,21.701,17.1h-12.101V3777.096z M1066.484,3801.798
		c0.3,15.7,4.9,22.502,13.5,22.502c7.801,0,12.603-5.9,12.603-14.9c0-8.801-3.7-14.502-11.901-14.502
		C1074.885,3794.896,1069.585,3797.798,1066.484,3801.798z"/>
	<path d="M1276.237,3831.5l24.803-61.104h-31.702v-8.9h42.303v8.9l-24.201,61.104H1276.237z"/>
	<path d="M1527.995,3812.8c0,14.1-11.001,20.2-25.602,20.2c-14.602,0-25.603-6.2-25.603-20.2c0-8.302,4.9-15.302,13.602-17.502
		c-6.9-2.601-11.7-8-11.7-15.9c0-12.399,9.601-19.399,23.701-19.399c14.1,0,23.701,7,23.701,19.399c0,7.9-4.7,13.302-11.7,15.9
		C1523.095,3797.498,1527.995,3804.498,1527.995,3812.8z M1502.394,3800.298c-9.501,0-13.9,5.102-13.9,12.2
		c0,8.201,5.801,11.802,13.9,11.802s13.901-3.601,13.901-11.802C1516.296,3805.398,1511.895,3800.298,1502.394,3800.298z
		 M1502.394,3768.695c-7,0-12.101,3.701-12.101,11.002c0,6.799,3.699,11.699,12.101,11.699s12.101-4.9,12.101-11.699
		C1514.494,3772.396,1509.395,3768.695,1502.394,3768.695z"/>
	<path d="M1734.747,3796.896c-3.899,4.801-10.301,8.301-17.001,8.301c-12.601,0-20.9-7.1-20.9-22.102
		c0-14.4,11.201-23.101,24.502-23.101c16.801,0,25.701,12.4,25.701,32.802c0,26.102-9.802,40.202-26.701,40.202
		c-13.201,0-21.802-6.5-22.603-18.801h12.102c0.899,7.399,4.8,10.101,10.501,10.101
		C1729.947,3824.3,1734.247,3816.398,1734.747,3796.896z M1734.747,3789.697c-0.6-14.602-5.199-21.002-13.399-21.002
		c-7.802,0-12.701,5.301-12.701,14.4c0,8.402,3.8,13.301,12.001,13.301C1726.347,3796.396,1731.548,3793.598,1734.747,3789.697z"/>
	<path d="M216.768,4079.498v-33.702l-10.302,5.301v-8.301l10.302-5.3h9.501v42.002H216.768z M214.567,4107.5l44.703-70.004h11.001
		l-44.703,70.004H214.567z M266.671,4093.398v-9.301h8.9v9.301h6.4v7.301h-6.4v6.801h-8.9v-6.801h-18.9v-7.301l13.101-27.902h9.201
		l-13.301,27.902H266.671L266.671,4093.398z"/>
	<path d="M454.097,4079.498v-33.702l-10.301,5.301v-8.301l10.301-5.3h9.501v42.002H454.097z M451.896,4107.5l44.703-70.004h11
		l-44.702,70.004H451.896z M522.302,4100.398v7.102h-31.103v-7.102c13.102-11.1,21.302-16.6,21.302-22.801
		c0-4.301-2.101-6.101-6.101-6.101c-3.7,0-6.001,2.199-6.501,6.8h-9.7c0.399-9,6.8-13.699,16.201-13.699c9.102,0,15.7,4.399,15.7,13
		c0,7.6-5.7,12.201-18.4,22.801H522.302z"/>
	<path d="M694.326,4061.396v-7h5.2c4.8,0,7.801-1.9,7.801-5.701c0-3.799-2.601-5.199-6.301-5.199c-4.101,0-6.101,1.699-6.7,5.4
		h-9.801c0.7-7.801,7.2-12.301,16.501-12.301s15.801,4.399,15.801,11.899c0,3.699-2.6,7.701-8,9.101c6.9,1.102,9.2,5.701,9.2,9.902
		c0,7.899-7.801,12.899-16.701,12.899c-10.5,0-16.801-4.399-17.2-12.301h9.7c0.5,3.698,2.7,5.399,7.5,5.399
		c4.4,0,7.102-1.801,7.102-6c0-3.701-2.7-6.102-8.9-6.102h-5.201V4061.396z M700.227,4107.5l44.702-70.004h11.001l-44.703,70.004
		H700.227z M752.329,4093.398v-9.301h8.901v9.301h6.4v7.301h-6.4v6.801h-8.901v-6.801h-18.899v-7.301l13.101-27.902h9.2
		l-13.301,27.902H752.329L752.329,4093.398z"/>
	<path d="M939.655,4079.498v-33.702l-10.301,5.301v-8.301l10.301-5.3h9.501v42.002H939.655z M937.455,4107.5l44.703-70.004h11
		l-44.702,70.004H937.455z M1010.06,4096.199c0,8.5-7.601,12.201-17.301,12.201c-9.802,0-17.401-3.701-17.401-12.201
		c0-4.9,3.2-9.102,8.9-10.502c-4.5-1.397-7.7-4.698-7.7-9.5c0-7.399,6.801-11.6,16.201-11.6c9.301,0,16.101,4.199,16.101,11.6
		c0,4.802-3.2,8.103-7.7,9.5C1006.859,4087.098,1010.06,4091.3,1010.06,4096.199z M992.76,4089.498c-5.102,0-7.802,2-7.802,5.802
		c0,4.7,3.602,6.2,7.802,6.2c4.101,0,7.7-1.5,7.7-6.2C1000.46,4091.498,997.76,4089.498,992.76,4089.498z M992.76,4071.498
		c-3.5,0-6.602,1.5-6.602,5.699c0,3.4,2.2,5.4,6.602,5.4c4.3,0,6.5-2,6.5-5.4C999.26,4072.998,996.159,4071.498,992.76,4071.498z"/>
	<path d="M1181.986,4061.396v-7h5.2c4.8,0,7.801-1.9,7.801-5.701c0-3.799-2.601-5.199-6.301-5.199c-4.102,0-6.102,1.699-6.7,5.4
		h-9.801c0.7-7.801,7.2-12.301,16.501-12.301s15.801,4.399,15.801,11.899c0,3.699-2.6,7.701-8,9.101c6.9,1.102,9.2,5.701,9.2,9.902
		c0,7.899-7.801,12.899-16.701,12.899c-10.5,0-16.801-4.399-17.201-12.301h9.701c0.5,3.698,2.7,5.399,7.5,5.399
		c4.4,0,7.101-1.801,7.101-6c0-3.701-2.699-6.102-8.899-6.102h-5.201V4061.396z M1187.887,4107.5l44.702-70.004h11.001
		l-44.703,70.004H1187.887z M1260.391,4096.199c0,8.5-7.602,12.201-17.301,12.201c-9.802,0-17.401-3.701-17.401-12.201
		c0-4.9,3.2-9.102,8.9-10.502c-4.5-1.397-7.7-4.698-7.7-9.5c0-7.399,6.801-11.6,16.201-11.6c9.301,0,16.101,4.199,16.101,11.6
		c0,4.802-3.2,8.103-7.7,9.5C1257.19,4087.098,1260.391,4091.3,1260.391,4096.199z M1243.091,4089.498c-5.102,0-7.802,2-7.802,5.802
		c0,4.7,3.602,6.2,7.802,6.2c4.101,0,7.699-1.5,7.699-6.2C1250.79,4091.498,1248.091,4089.498,1243.091,4089.498z
		 M1243.091,4071.498c-3.5,0-6.602,1.5-6.602,5.699c0,3.4,2.2,5.4,6.602,5.4c4.3,0,6.5-2,6.5-5.4
		C1249.591,4072.998,1246.49,4071.498,1243.091,4071.498z"/>
	<path d="M1431.417,4044.795v9.502c2.301-2.2,5.601-3.301,9.301-3.301c7.701,0,13.802,5,13.802,14.801
		c0,9.4-7.901,14.603-16.401,14.603c-9.701,0-15.501-4-15.9-11.399h9.701c0.5,2.698,2.199,4.5,6.199,4.5c4.301,0,6.9-2.5,6.9-7.701
		c0-5.301-2.101-7.9-6.7-7.9c-3.101,0-5.399,1.101-6.899,2.9h-8.102v-23.301h28.303v7.299h-20.203V4044.795z M1436.317,4107.5
		l44.702-70.004h11.001l-44.703,70.004H1436.317z M1508.821,4096.199c0,8.5-7.601,12.201-17.301,12.201
		c-9.801,0-17.401-3.701-17.401-12.201c0-4.9,3.2-9.102,8.9-10.502c-4.5-1.397-7.7-4.698-7.7-9.5c0-7.399,6.801-11.6,16.201-11.6
		c9.301,0,16.102,4.199,16.102,11.6c0,4.802-3.2,8.103-7.7,9.5C1505.621,4087.098,1508.821,4091.3,1508.821,4096.199z
		 M1491.521,4089.498c-5.101,0-7.801,2-7.801,5.802c0,4.7,3.601,6.2,7.801,6.2c4.101,0,7.7-1.5,7.7-6.2
		C1499.221,4091.498,1496.521,4089.498,1491.521,4089.498z M1491.521,4071.498c-3.5,0-6.601,1.5-6.601,5.699
		c0,3.4,2.199,5.4,6.601,5.4c4.3,0,6.5-2,6.5-5.4C1498.021,4072.998,1494.922,4071.498,1491.521,4071.498z"/>
	<path d="M1674.146,4079.498l16.101-34.702h-19.602v-7.3h28.502v7.3l-15.801,34.702H1674.146z M1674.146,4107.5l44.702-70.004
		h11.001l-44.703,70.004H1674.146z M1746.65,4096.199c0,8.5-7.601,12.201-17.301,12.201c-9.801,0-17.401-3.701-17.401-12.201
		c0-4.9,3.2-9.102,8.9-10.502c-4.5-1.397-7.7-4.698-7.7-9.5c0-7.399,6.801-11.6,16.201-11.6c9.301,0,16.101,4.199,16.101,11.6
		c0,4.802-3.199,8.103-7.699,9.5C1743.45,4087.098,1746.65,4091.3,1746.65,4096.199z M1729.35,4089.498
		c-5.102,0-7.801,2-7.801,5.802c0,4.7,3.601,6.2,7.801,6.2c4.1,0,7.7-1.5,7.7-6.2
		C1737.051,4091.498,1734.35,4089.498,1729.35,4089.498z M1729.35,4071.498c-3.5,0-6.602,1.5-6.602,5.699c0,3.4,2.2,5.4,6.602,5.4
		c4.3,0,6.5-2,6.5-5.4C1735.85,4072.998,1732.751,4071.498,1729.35,4071.498z"/>
	<path d="M216.768,4355.498v-33.703l-10.302,5.301v-8.301l10.302-5.299h9.501v42.002H216.768z M214.567,4383.5l44.703-70.004h11.001
		l-44.703,70.004H214.567z M262.87,4365.398v-7h5.201c4.8,0,7.8-1.9,7.8-5.701s-2.6-5.199-6.3-5.199c-4.101,0-6.101,1.699-6.701,5.4
		h-9.8c0.699-7.801,7.2-12.301,16.501-12.301c9.3,0,15.801,4.399,15.801,11.899c0,3.699-2.601,7.699-8.001,9.101
		c6.9,1.102,9.201,5.701,9.201,9.899c0,7.899-7.801,12.901-16.701,12.901c-10.501,0-16.801-4.399-17.201-12.301h9.7
		c0.5,3.699,2.7,5.4,7.501,5.4c4.4,0,7.102-1.801,7.102-6.002c0-3.699-2.7-6.1-8.9-6.1h-5.202V4365.398z"/>
	<path d="M478.669,4348.396v7.102h-31.104v-7.102c13.102-11.1,21.302-16.6,21.302-22.801c0-4.301-2.101-6.1-6.101-6.1
		c-3.7,0-6,2.199-6.5,6.801h-9.701c0.4-9.002,6.801-13.701,16.201-13.701c9.101,0,15.701,4.399,15.701,13
		c0,7.602-5.7,12.201-18.401,22.801H478.669L478.669,4348.396z M464.767,4383.5l44.703-70.004h11.001l-44.703,70.004H464.767z
		 M513.069,4365.398v-7h5.201c4.8,0,7.8-1.9,7.8-5.701s-2.6-5.199-6.3-5.199c-4.102,0-6.102,1.699-6.701,5.4h-9.8
		c0.699-7.801,7.2-12.301,16.501-12.301c9.3,0,15.801,4.399,15.801,11.899c0,3.699-2.601,7.699-8.001,9.101
		c6.9,1.102,9.201,5.701,9.201,9.899c0,7.899-7.801,12.901-16.701,12.901c-10.501,0-16.801-4.399-17.201-12.301h9.7
		c0.5,3.699,2.7,5.4,7.501,5.4c4.4,0,7.102-1.801,7.102-6.002c0-3.699-2.7-6.1-8.9-6.1h-5.202V4365.398z"/>
	<path d="M696.766,4334.496c0-13.301,7.601-21.899,18.802-21.899c11.102,0,18.801,8.601,18.801,21.899
		c0,13.301-7.699,21.902-18.801,21.902C704.366,4356.398,696.766,4347.797,696.766,4334.496z M724.367,4334.496
		c0-10.1-3.6-14.701-8.8-14.701c-5.301,0-8.9,4.603-8.9,14.701c0,10.103,3.601,14.801,8.9,14.801
		C720.768,4349.297,724.367,4344.599,724.367,4334.496z M713.968,4383.5l44.703-70.004h11l-44.702,70.004H713.968z M749.77,4362.498
		c0-13.301,7.6-21.899,18.801-21.899c11.102,0,18.801,8.601,18.801,21.899c0,13.301-7.699,21.902-18.801,21.902
		C757.369,4384.4,749.77,4375.799,749.77,4362.498z M777.371,4362.498c0-10.1-3.601-14.701-8.801-14.701
		c-5.301,0-8.899,4.603-8.899,14.701c0,10.103,3.6,14.801,8.899,14.801C773.771,4377.299,777.371,4372.601,777.371,4362.498z"/>
	<path d="M947.365,4334.496c0-13.301,7.602-21.899,18.802-21.899c11.102,0,18.802,8.601,18.802,21.899
		c0,13.301-7.7,21.902-18.802,21.902C954.967,4356.398,947.365,4347.797,947.365,4334.496z M974.968,4334.496
		c0-10.1-3.601-14.701-8.801-14.701c-5.301,0-8.899,4.603-8.899,14.701c0,10.103,3.6,14.801,8.899,14.801
		C971.367,4349.297,974.968,4344.599,974.968,4334.496z M964.566,4383.5l44.703-70.004h11l-44.702,70.004H964.566z
		 M1000.369,4362.498c0-13.301,7.601-21.899,18.802-21.899c11.101,0,18.801,8.601,18.801,21.899c0,13.301-7.7,21.902-18.801,21.902
		C1007.969,4384.4,1000.369,4375.799,1000.369,4362.498z M1027.971,4362.498c0-10.1-3.602-14.701-8.801-14.701
		c-5.302,0-8.9,4.603-8.9,14.701c0,10.103,3.6,14.801,8.9,14.801C1024.37,4377.299,1027.971,4372.601,1027.971,4362.498z
		 M1041.972,4362.498c0-13.301,7.601-21.899,18.801-21.899c11.101,0,18.801,8.601,18.801,21.899
		c0,13.301-7.699,21.902-18.801,21.902C1049.572,4384.4,1041.972,4375.799,1041.972,4362.498z M1069.573,4362.498
		c0-10.1-3.601-14.701-8.801-14.701c-5.301,0-8.9,4.603-8.9,14.701c0,10.103,3.601,14.801,8.9,14.801
		C1065.973,4377.299,1069.573,4372.601,1069.573,4362.498z"/>
</g>
</svg>
