<?xml version="1.0" encoding="utf-8"?>
<!-- Generator: Adobe Illustrator 16.0.3, SVG Export Plug-In . SVG Version: 6.00 Build 0)  -->
<!DOCTYPE svg PUBLIC "-//W3C//DTD SVG 1.1//EN" "http://www.w3.org/Graphics/SVG/1.1/DTD/svg11.dtd">
<svg version="1.1" id="Layer_1" xmlns="http://www.w3.org/2000/svg" xmlns:xlink="http://www.w3.org/1999/xlink" x="0px" y="0px"
	 width="1550.779px" height="4195.704px" viewBox="199.967 187.796 1550.779 4195.704"
	 enable-background="new 199.967 187.796 1550.779 4195.704" xml:space="preserve">
<g>
	<path d="M242.77,243.5l-4.9-13.399h-20.302l-4.601,13.399h-10.501l20.201-54.304h10.302L254.57,243.5H242.77z M220.268,222.098
		h14.602l-3.899-10.802l-3.602-10.899l-3.399,10.899L220.268,222.098z"/>
	<path d="M421.606,243.5v-54.304h19.901c11.101,0,20.9,3.801,20.9,14.501c0,5.501-3.7,10.001-9.001,11.401
		c6.301,1.1,11.201,5.399,11.201,12.899c0,10.602-9.301,15.501-21.401,15.501L421.606,243.5L421.606,243.5z M441.509,212.398
		c5.801,0,9.801-2.102,9.801-8.001c0-5.9-4.102-7.602-9.801-7.602h-9.001v15.603H441.509z M443.208,235.899c7,0,10.4-2.101,10.4-8
		c0-6.001-4.5-8.001-10.4-8.001h-10.7v16.001H443.208z"/>
	<path d="M680.148,225.499c-1.5,13.102-11.4,19.501-23.401,19.501c-15.7,0-25.102-11.399-25.102-28.602s9.4-28.603,25.102-28.603
		c12.001,0,21.901,6.301,23.401,19.401h-11.501c-1.1-8.201-5.1-11.501-11.9-11.501c-8.601,0-13.601,7.4-13.601,20.701
		s5,20.701,13.601,20.701c6.802,0,10.802-3.301,11.9-11.602h11.501V225.499z"/>
	<path d="M850.586,243.5v-54.304h18.001c18.302,0,29.901,10.001,29.901,27.202c0,17.101-11.601,27.102-29.901,27.102H850.586z
		 M868.587,235.599c10.7,0,18.4-5.2,18.4-19.201s-7.7-19.201-18.4-19.201h-7.102v38.402H868.587z"/>
	<path d="M1069.225,243.5v-54.304h35.202v8.001h-24.302v13.9h22.701v7.899h-22.701v16.603h24.302v7.899L1069.225,243.5
		L1069.225,243.5z"/>
	<path d="M1275.765,243.5v-54.304h34.302v8.001h-23.4v15.4h21.802v7.9h-21.802V243.5H1275.765z"/>
	<path d="M1513.606,243.5V238.6c-3.399,3.5-9.601,6.399-15.301,6.399c-14.7,0-22.201-11.399-22.201-28.602s9.4-28.603,25.102-28.603
		c12.001,0,21.701,6.2,23.201,18.201h-11.5c-1.101-7.101-4.899-10.301-11.701-10.301c-8.601,0-13.601,7.4-13.601,20.701
		s4.4,20.701,13.301,20.701c4.9,0,9.7-2.602,12.7-5.5v-7.9h-12.301v-7.701h22.702V243.5H1513.606z"/>
	<path d="M1732.447,243.5v-24.502h-25.102V243.5h-10.9v-54.304h10.9v21.901h25.102v-21.901h10.901V243.5H1732.447z"/>
	<path d="M209.867,519.5v-54.304h10.9V519.5H209.867z"/>
	<path d="M420.967,465.196h10.899V502c0,12.899-9.399,19-19.602,19c-10.602,0-19.802-4.899-20.201-19.602h11.601
		c0.4,8.901,3.602,11.501,8.602,11.501c5.601,0,8.701-3.3,8.701-9.301V465.196L420.967,465.196z"/>
	<path d="M607.562,519.5v-54.304h10.9v25.402l19.4-25.402h11.201l-19.901,24.902l23.001,29.4h-13.199l-20.502-27.602V519.5H607.562z
		"/>
	<path d="M822.958,519.5v-54.304h10.901v46.403h21.701v7.9H822.958L822.958,519.5z"/>
	<path d="M1075.458,519.5v-25.9l0.199-9.9l-13.399,32.701h-9.201l-14-33.802l0.1,11.001v25.9h-9.801v-54.304h11.801l16.701,40.104
		l16.901-40.104h10.899V519.5H1075.458z"/>
	<path d="M1297.553,519.5l-25.501-39.303l0.1,11.001V519.5h-9.801v-54.304h10.701l25.602,39.402l-0.301-11.102v-28.302h9.901V519.5
		H1297.553z"/>
	<path d="M1481.249,492.398c0-17.201,10.801-28.602,26.701-28.602c15.802,0,26.701,11.399,26.701,28.602S1523.751,521,1507.95,521
		C1492.05,521,1481.249,509.599,1481.249,492.398z M1523.052,492.398c0-13.301-6.2-20.701-15.102-20.701
		c-9.001,0-15.201,7.4-15.201,20.701s6.2,20.701,15.201,20.701C1516.851,513.099,1523.052,505.699,1523.052,492.398z"/>
	<path d="M1707.645,519.5v-54.304h19.401c10.699,0,20.7,5.9,20.7,18.002c0,12-10,17.9-20.7,17.9h-8.501V519.5H1707.645z
		 M1727.047,493.198c5.5,0,9.699-2.6,9.699-10s-4.199-10.201-9.699-10.201h-8.501v20.201H1727.047z"/>
	<path d="M206.167,768.398c0-17.201,10.801-28.602,26.702-28.602c15.801,0,26.701,11.399,26.701,28.602
		c0,12.2-5.4,21.401-14.201,25.802l12.701,13.001h-13.201l-9.7-10.301c-0.8,0-1.601,0.1-2.3,0.1
		C216.968,797,206.167,785.599,206.167,768.398z M247.97,768.398c0-13.301-6.2-20.701-15.102-20.701
		c-9.001,0-15.201,7.4-15.201,20.701s6.2,20.701,15.201,20.701C241.77,789.099,247.97,781.699,247.97,768.398z"/>
	<path d="M423.863,768.398c0-17.201,10.8-28.602,26.501-28.602s26.401,11.399,26.401,28.602S466.065,797,450.364,797
		S423.863,785.599,423.863,768.398z M466.766,768.398c0-14.301-7.001-21.701-16.401-21.701c-9.399,0-16.399,7.4-16.399,21.701
		s7,21.701,16.399,21.701C459.765,790.099,466.766,782.699,466.766,768.398z M439.965,807.701v-6.899h29.502v6.899H439.965z"/>
	<path d="M675.062,795.5l-13.301-20.102h-6.001V795.5h-10.9v-54.304h18.901c10.7,0,20.801,5.602,20.801,17.302
		c0,8.4-5.3,13.501-12.2,15.7l15.301,21.302H675.062z M663.761,767.898c5.601,0,9.7-2.4,9.7-9.4c0-7.101-4.101-9.501-9.7-9.501
		h-8.001v18.901H663.761z"/>
	<path d="M880.357,756.697c-0.7-6.2-4.9-9.2-11.101-9.2c-5.301,0-10.001,2.5-10.001,7.4c0,5.801,6.101,7.2,12.501,8.501
		c9.301,1.8,20.302,4.2,20.302,16.7c0,10.001-9.701,16.901-21.002,16.901c-13.602,0-22.301-6-22.801-17.701h11.101
		c0.7,7.001,5.5,10.001,11.7,10.001c5.399,0,10.601-2.602,10.601-8.102c0-5.801-6.3-7.7-12.801-9.001
		c-9.2-1.7-20.001-3.8-20.001-16.399c0-9.501,8.701-16.001,20.401-16.001c13.601,0,21.501,6,22.2,16.899L880.357,756.697
		L880.357,756.697z"/>
	<path d="M1066.553,795.5v-46.303h-14.602v-8.001h40.104v8.001h-14.602V795.5H1066.553z"/>
	<path d="M1292.754,741.196h9.899V775.3c0,13.7-9.199,21.7-22.4,21.7c-13.9,0-23.001-7.199-23.001-20.2v-35.604h10.899V775.3
		c0,8,3.301,13.601,12.102,13.601c8.899,0,12.501-5.601,12.501-12.101V741.196z"/>
	<path d="M1488.249,795.5l-21.7-54.304h11.801l11.399,30.402l4.002,11.801l3.898-11.801l10.501-30.402h10.501L1498.45,795.5
		H1488.249z"/>
	<path d="M1725.646,795.5l-8.9-28.701l-3.199-11.602l-2.9,11.602l-8.301,28.701h-10.3l-16.603-54.304h11.801l7.802,28.702
		l2.898,11.4l2.9-11.4l8.201-28.702h9.699l8.7,28.702l3.2,11.501l2.7-11.501l7.001-28.702h10.399l-15.301,54.304H1725.646z"/>
	<path d="M238.77,1071.5l-12.501-20l-12.302,20h-10.7l17.7-27.002l-17.601-27.302h12l11.301,18.401l11.302-18.401h10.601
		l-16.7,25.502l18.7,28.802H238.77z"/>
	<path d="M425.493,1071.5v-20.801l-18.301-33.503h11.801l12.7,25.502l12.001-25.502h10.301l-17.602,34.104v20.2H425.493z"/>
	<path d="M612.219,1071.5v-7.899l25.702-38.402h-25.103v-8.001h36.603v8.001L623.72,1063.6h25.701v7.899H612.219z"/>
	<path d="M844.547,1071.5V1058.1h-17.901l-8.9,13.399h-11.801l37.702-54.304h36.103v8.001h-24.302v13.9h22.701v7.9h-22.701v16.602
		h24.302v7.9H844.547L844.547,1071.5z M831.945,1050.098h12.602v-19.701l-5.9,9.601L831.945,1050.098z"/>
	<path d="M1054.672,1032.197l0.1,11.001v28.302h-9.801v-54.304h10.701l25.602,39.402l-0.301-11.101v-28.303h9.901v54.305
		c0,13.399-8.802,17.301-18.103,17.301c-1.7,0-5.7-0.5-7.5-1.399v-7.601c2,0.5,5.2,0.898,6.9,0.898c5.6,0,8.699-2.3,8.699-8
		L1054.672,1032.197z"/>
	<path d="M1259.297,1071.5v-30.102c0-16.602,10-24.202,24.001-24.202h18.301v7.001l-11.9,16.4
		c12.602,2.601,15.301,11.9,15.301,17.102c0,10.2-8.699,15.301-16.7,15.301c-8.9,0-14.602-4.8-14.7-12.601h8.4
		c0.398,4,2.899,6,6.699,6c4,0,6.9-2.8,6.9-8.601c0-6-4.602-10.801-13.102-10.801h-2.199v-7.101l11.399-15.701h-8.601
		c-8,0-14.301,3.5-14.301,16.201v31.103H1259.297L1259.297,1071.5z"/>
	<path d="M1469.721,1071.5v-22.9h-8v-8.102h8v-23.302h18.001c18.302,0,29.901,10.001,29.901,27.202
		c0,17.102-11.601,27.103-29.901,27.103L1469.721,1071.5L1469.721,1071.5z M1487.722,1063.599c10.701,0,18.401-5.2,18.401-19.201
		s-7.7-19.201-18.401-19.201h-7.101v15.301h10.301v8.102h-10.301v15.001L1487.722,1063.599L1487.722,1063.599z"/>
	<path d="M1682.244,1071.5v-54.304h10.9v54.304H1682.244z M1733.348,1017.196h10.9V1054c0,12.899-9.4,19-19.603,19
		c-10.601,0-19.801-4.899-20.201-19.602h11.601c0.4,8.901,3.602,11.501,8.602,11.501c5.601,0,8.701-3.3,8.701-9.301V1017.196
		L1733.348,1017.196z"/>
	<path d="M208.167,1354.5l6.7-12c-5.5-5-8.7-12.7-8.7-22.102c0-17.201,10.801-28.602,26.702-28.602c3.3,0,6.4,0.5,9.3,1.5l3.9-7.002
		h11.401l-6.701,12.002c5.501,5,8.801,12.7,8.801,22.102c0,17.201-10.9,28.602-26.701,28.602c-3.399,0-6.601-0.5-9.401-1.5l-3.898,7
		H208.167z M220.168,1332.899l17.901-32.202c-1.601-0.699-3.4-1-5.2-1c-9.001,0-15.201,7.4-15.201,20.701
		C217.668,1325.5,218.567,1329.699,220.168,1332.899z M247.97,1320.398c0-5-0.9-9.2-2.5-12.501l-17.901,32.202
		c1.601,0.7,3.4,1,5.301,1C241.77,1341.099,247.97,1333.699,247.97,1320.398z"/>
	<path d="M431.294,1347.5v-54.304h10.899v8.401h8.501c10.7,0,20.701,5.9,20.701,17.9c0,12.101-10.001,18-20.701,18h-8.501v10.002
		H431.294L431.294,1347.5z M450.694,1329.699c5.5,0,9.7-2.801,9.7-10.201c0-7.399-4.2-10.101-9.7-10.101h-8.501v20.302H450.694z"/>
	<path d="M675.321,1347.5l-4.899-13.399h-20.303l-4.6,13.399h-10.501l20.201-54.304h10.301l21.602,54.304H675.321z M660.72,1289.196
		h-9.2l10.601-10.899h13.001L660.72,1289.196z M652.819,1326.098h14.603l-3.9-10.801l-3.601-10.9l-3.4,10.9L652.819,1326.098z"/>
	<path d="M888.048,1347.5l-4.9-13.399h-20.302l-4.601,13.399h-10.501l20.201-54.304h10.301l21.603,54.304H888.048z
		 M886.048,1278.296c0,7.801-6.001,11.601-13.302,11.601c-7.399,0-13.301-3.8-13.301-11.601h7.5c0,2.399,1.602,4.3,5.801,4.3
		c4.2,0,5.7-1.899,5.7-4.3H886.048z M865.546,1326.098h14.602l-3.9-10.801l-3.601-10.9l-3.4,10.9L865.546,1326.098z"/>
	<path d="M1100.771,1347.5l-4.9-13.399h-20.302l-4.6,13.399h-10.501l20.201-54.304h10.301l21.602,54.304H1100.771z
		 M1092.771,1289.196l-7.3-4.101l-7.102,4.101h-9.501l12.501-10.899h8.4l12.4,10.899H1092.771z M1078.27,1326.098h14.602
		l-3.899-10.801l-3.601-10.9l-3.4,10.9L1078.27,1326.098z"/>
	<path d="M1313.497,1347.5l-4.899-13.399h-20.302l-4.601,13.399h-10.501l20.201-54.304h10.301l21.603,54.304H1313.497z
		 M1289.495,1288.797c-3.199,0-5.899-2.302-5.899-5.501c0-3.301,2.7-5.602,5.899-5.602c3.2,0,5.9,2.302,5.9,5.602
		C1295.396,1286.496,1292.695,1288.797,1289.495,1288.797z M1290.995,1326.098h14.603l-3.9-10.801l-3.601-10.9l-3.4,10.9
		L1290.995,1326.098z M1306.896,1288.797c-3.101,0-5.801-2.302-5.801-5.501c0-3.301,2.7-5.602,5.801-5.602
		c3.2,0,5.9,2.302,5.9,5.602C1312.798,1286.496,1310.097,1288.797,1306.896,1288.797z"/>
	<path d="M1526.223,1347.5l-4.9-13.399h-20.302l-4.6,13.399h-10.501l20.201-54.304h10.301l21.602,54.304H1526.223z
		 M1510.923,1289.196l-14.501-10.899h13.101l10.501,10.899H1510.923z M1503.721,1326.098h14.602l-3.899-10.801l-3.602-10.9
		l-3.399,10.9L1503.721,1326.098z"/>
	<path d="M1738.948,1347.5l-4.899-13.399h-20.303l-4.6,13.399h-10.501l20.201-54.304h10.301l21.603,54.304H1738.948z
		 M1710.746,1287.496v-7.199h26.002v7.199H1710.746z M1716.446,1326.098h14.603l-3.9-10.801l-3.601-10.9l-3.4,10.9
		L1716.446,1326.098z"/>
	<path d="M254.57,1645.901c-2.301,1.3-5.9,2.4-10.001,2.4c-6.801,0-10.9-4.4-10.9-10.001c0-5.801,3.801-10.7,11.102-14.801h-2
		l-4.9-13.4h-20.302l-4.601,13.4h-10.501l20.201-54.305h10.302l21.602,54.305c-7.9,4.101-11.901,8.199-11.901,13.301
		c0,3,2.4,4.699,4.802,4.699c2.3,0,4.8-0.899,7.101-2.1v6.501H254.57z M220.268,1602.098h14.602l-3.899-10.801l-3.602-10.9
		l-3.399,10.9L220.268,1602.098z"/>
	<path d="M454.194,1623.5l-4.899-13.399h-20.303l-4.6,13.399h-10.501l20.201-54.304h10.301l21.602,54.304H454.194z
		 M439.193,1567.297c-5.5,0-9.501-2.9-9.501-7.602s4.001-7.601,9.501-7.601s9.5,2.899,9.5,7.601S444.693,1567.297,439.193,1567.297z
		 M431.692,1602.098h14.603l-3.9-10.801l-3.601-10.9l-3.4,10.9L431.692,1602.098z M439.193,1556.496c-2,0-3.301,1.2-3.301,3.2
		s1.301,3.101,3.301,3.101s3.3-1.101,3.3-3.101S441.193,1556.496,439.193,1556.496z"/>
	<path d="M665.62,1623.5l-4.899-13.399h-20.302l-4.601,13.399h-10.501l20.201-54.304h10.301l21.603,54.304H665.62z M665.72,1557.095
		c-2,5.101-5.3,7.601-9.102,7.601c-4.399,0-9.5-3-12.399-3c-1.4,0-2.4,0.4-3.7,2.7l-5.7-2.7c2.1-5.2,5.4-7.7,9.2-7.7
		c4.399,0,9.399,3.2,12.301,3.2c1.5,0,2.5-0.601,3.7-2.899L665.72,1557.095z M643.118,1602.098h14.603l-3.9-10.801l-3.601-10.9
		l-3.4,10.9L643.118,1602.098z"/>
	<path d="M887.646,1605.5c-1.5,13.101-11.4,19.5-23.401,19.5c-15.7,0-25.102-11.399-25.102-28.602s9.4-28.602,25.102-28.602
		c12.001,0,21.901,6.3,23.401,19.4h-11.501c-1.1-8.201-5.1-11.501-11.9-11.501c-8.601,0-13.601,7.4-13.601,20.701
		s5,20.701,13.601,20.701c6.802,0,10.802-3.3,11.9-11.601h11.501V1605.5z M863.046,1565.196h-9.2l10.601-10.899h13.001
		L863.046,1565.196z"/>
	<path d="M1102.572,1605.5c-1.5,13.101-11.399,19.5-23.4,19.5c-15.701,0-25.103-11.399-25.103-28.602s9.4-28.602,25.103-28.602
		c12.001,0,21.9,6.3,23.4,19.4h-11.501c-1.1-8.201-5.1-11.501-11.899-11.501c-8.602,0-13.602,7.4-13.602,20.701
		s5,20.701,13.602,20.701c6.801,0,10.801-3.3,11.899-11.601h11.501V1605.5z M1082.471,1565.196h-8.4l-12.5-10.899h9.5l7.102,4.199
		l7.301-4.199h9.399L1082.471,1565.196z"/>
	<path d="M1284.296,1641.301c2.199,1,4.399,1.301,6.399,1.301c2.4,0,5.2-1.2,5.2-3.9c0-2.699-2.8-3.801-5.2-3.801
		c-1,0-2.7,0.2-4,0.602l-2.101-3.602l5.4-7.2c-13.2-1.8-21.002-12.601-21.002-28.302c0-17.201,9.4-28.602,25.103-28.602
		c12.001,0,21.901,6.3,23.401,19.4h-11.501c-1.101-8.201-5.101-11.501-11.9-11.501c-8.601,0-13.601,7.4-13.601,20.701
		s5,20.701,13.601,20.701c6.801,0,10.801-3.3,11.9-11.601h11.501c-1.4,12.101-10.001,18.501-20.802,19.4l-3.801,5.101
		c5.7-0.399,11.201,2.199,11.201,8.4c0,6.5-6.101,9.9-12.601,9.9c-2.501,0-4.9-0.3-7.201-1.4v-5.599H1284.296z"/>
	<path d="M1532.423,1605.5c-1.5,13.101-11.4,19.5-23.401,19.5c-15.701,0-25.103-11.399-25.103-28.602s9.4-28.602,25.103-28.602
		c12.001,0,21.901,6.3,23.401,19.4h-11.501c-1.101-8.201-5.101-11.501-11.9-11.501c-8.601,0-13.601,7.4-13.601,20.701
		s5,20.701,13.601,20.701c6.801,0,10.801-3.3,11.9-11.601h11.501V1605.5z M1515.321,1565.196l-7.301-4.101l-7.101,4.101h-9.5
		l12.5-10.899h8.399l12.401,10.899H1515.321z"/>
	<path d="M1747.348,1605.5c-1.5,13.101-11.4,19.5-23.401,19.5c-15.701,0-25.102-11.399-25.102-28.602s9.399-28.602,25.102-28.602
		c12.001,0,21.901,6.3,23.401,19.4h-11.501c-1.101-8.201-5.101-11.501-11.9-11.501c-8.601,0-13.601,7.4-13.601,20.701
		s5,20.701,13.601,20.701c6.802,0,10.802-3.3,11.9-11.601h11.501V1605.5z M1723.047,1564.797c-3.2,0-6-2.2-6-5.501
		s2.8-5.602,6-5.602c3.199,0,6.001,2.302,6.001,5.602C1729.048,1562.596,1726.246,1564.797,1723.047,1564.797z"/>
	<path d="M209.867,1899.5v-54.304h18.001c18.302,0,29.902,10.001,29.902,27.202c0,17.102-11.602,27.103-29.902,27.103
		L209.867,1899.5L209.867,1899.5z M233.068,1841.196h-8.4l-12.501-10.899h9.501l7.102,4.199l7.301-4.199h9.4L233.068,1841.196z
		 M227.868,1891.599c10.701,0,18.401-5.2,18.401-19.201s-7.7-19.201-18.401-19.201h-7.101v38.402H227.868L227.868,1891.599z"/>
	<path d="M432.991,1899.5v-22.9h-8v-8.102h8v-23.302h18.001c18.303,0,29.902,10.001,29.902,27.202
		c0,17.102-11.601,27.103-29.902,27.103L432.991,1899.5L432.991,1899.5z M450.992,1891.599c10.701,0,18.401-5.2,18.401-19.201
		s-7.7-19.201-18.401-19.201h-7.101v15.301h10.301v8.102h-10.301v15.001L450.992,1891.599L450.992,1891.599z"/>
	<path d="M656.115,1899.5v-54.304h35.202v8.001h-24.302v13.9h22.702v7.9h-22.702v16.602h24.302v7.9H656.115L656.115,1899.5z
		 M671.718,1841.196h-9.201l10.601-10.899h13.001L671.718,1841.196z"/>
	<path d="M867.141,1899.5v-54.304h35.202v8.001h-24.302v13.9h22.701v7.9h-22.701v16.602h24.302v7.9H867.141L867.141,1899.5z
		 M897.544,1830.296c0,7.801-6.001,11.601-13.302,11.601c-7.399,0-13.301-3.8-13.301-11.601h7.5c0,2.399,1.601,4.3,5.801,4.3
		s5.7-1.899,5.7-4.3H897.544z"/>
	<path d="M1078.167,1899.5v-54.304h35.201v8.001h-24.302v13.9h22.702v7.9h-22.702v16.602h24.302v7.9H1078.167L1078.167,1899.5z
		 M1099.469,1841.196h-8.4l-12.501-10.899h9.5l7.102,4.199l7.301-4.199h9.399L1099.469,1841.196z"/>
	<path d="M1289.191,1899.5v-54.304h35.202v8.001h-24.302v13.9h22.702v7.9h-22.702v16.602h24.302v7.9H1289.191L1289.191,1899.5z
		 M1313.493,1841.196l-7.301-4.101l-7.101,4.101h-9.5l12.501-10.899h8.399l12.4,10.899H1313.493z"/>
	<path d="M1500.217,1899.5v-54.304h35.202v8.001h-24.303v13.9h22.702v7.9h-22.702v16.602h24.303v7.9H1500.217L1500.217,1899.5z
		 M1508.616,1840.797c-3.199,0-5.899-2.302-5.899-5.501c0-3.301,2.699-5.602,5.899-5.602s5.9,2.302,5.9,5.602
		C1514.517,1838.496,1511.816,1840.797,1508.616,1840.797z M1526.018,1840.797c-3.102,0-5.801-2.302-5.801-5.501
		c0-3.301,2.699-5.602,5.801-5.602c3.2,0,5.9,2.302,5.9,5.602C1531.919,1838.496,1529.219,1840.797,1526.018,1840.797z"/>
	<path d="M1711.241,1899.5v-54.304h35.202v8.001h-24.302v13.9h22.702v7.9h-22.702v16.602h24.302v7.9H1711.241L1711.241,1899.5z
		 M1728.242,1840.797c-3.2,0-6-2.2-6-5.501s2.8-5.602,6-5.602s6.001,2.302,6.001,5.602
		C1734.243,1838.596,1731.442,1840.797,1728.242,1840.797z"/>
	<path d="M209.867,2175.5v-54.304h35.202v8.001h-24.302v13.9h22.702v7.899h-22.702v16.603h24.302v7.899L209.867,2175.5
		L209.867,2175.5z M227.168,2117.196l-14.5-10.899h13.102l10.5,10.899H227.168z"/>
	<path d="M416.465,2175.5v-54.304h35.201v8.001h-24.302v13.9h22.702v7.899h-22.702v16.603h24.302v7.899L416.465,2175.5
		L416.465,2175.5z M420.465,2115.496v-7.199h26.002v7.199H420.465z"/>
	<path d="M658.163,2197.901c-2.301,1.3-5.899,2.399-10.001,2.399c-6.801,0-10.899-4.399-10.899-10c0-5.801,3.8-10.7,11.101-14.802
		h-25.302v-54.304h35.202v8.001h-24.302v13.899h22.701v7.9h-22.701v16.602h24.302v7.9h-0.101c-7.899,4.102-11.9,8.2-11.9,13.301
		c0,3,2.4,4.7,4.801,4.7c2.3,0,4.8-0.899,7.102-2.101v6.503H658.163z"/>
	<path d="M863.46,2175.5v-4.899c-3.399,3.5-9.602,6.399-15.302,6.399c-14.7,0-22.201-11.399-22.201-28.602s9.4-28.602,25.103-28.602
		c12.001,0,21.701,6.199,23.201,18.2h-11.5c-1.102-7.101-4.9-10.301-11.701-10.301c-8.602,0-13.602,7.399-13.602,20.701
		c0,13.301,4.4,20.7,13.302,20.7c4.899,0,9.7-2.601,12.7-5.5v-7.899h-12.302v-7.701h22.702v27.502L863.46,2175.5L863.46,2175.5z
		 M863.659,2106.295c0,7.802-6,11.602-13.301,11.602c-7.4,0-13.301-3.8-13.301-11.602h7.501c0,2.4,1.6,4.301,5.8,4.301
		s5.7-1.899,5.7-4.301H863.659z"/>
	<path d="M1080.155,2175.5v-4.899c-3.398,3.5-9.601,6.399-15.301,6.399c-14.7,0-22.201-11.399-22.201-28.602
		s9.4-28.602,25.103-28.602c12.001,0,21.7,6.199,23.2,18.2h-11.5c-1.101-7.101-4.899-10.301-11.7-10.301
		c-8.602,0-13.602,7.399-13.602,20.701c0,13.301,4.4,20.7,13.302,20.7c4.899,0,9.699-2.601,12.699-5.5v-7.899h-12.301v-7.701h22.702
		v27.502L1080.155,2175.5L1080.155,2175.5z M1074.256,2117.196l-7.301-4.101l-7.101,4.101h-9.501l12.501-10.899h8.4l12.4,10.899
		H1074.256z"/>
	<path d="M1296.853,2175.5v-4.899c-3.399,3.5-9.601,6.399-15.301,6.399c-14.7,0-22.201-11.399-22.201-28.602
		s9.399-28.602,25.102-28.602c12.001,0,21.701,6.199,23.201,18.2h-11.5c-1.101-7.101-4.899-10.301-11.701-10.301
		c-8.601,0-13.601,7.399-13.601,20.701c0,13.301,4.4,20.7,13.301,20.7c4.9,0,9.7-2.601,12.7-5.5v-7.899h-12.301v-7.701h22.702
		v27.502L1296.853,2175.5L1296.853,2175.5z M1277.651,2200.302l2.001-18.603h10.2l-4.5,18.603H1277.651z"/>
	<path d="M1513.551,2175.5v-4.899c-3.399,3.5-9.602,6.399-15.302,6.399c-14.699,0-22.2-11.399-22.2-28.602
		s9.399-28.602,25.102-28.602c12.001,0,21.701,6.199,23.201,18.2h-11.5c-1.101-7.101-4.9-10.301-11.701-10.301
		c-8.601,0-13.601,7.399-13.601,20.701c0,13.301,4.399,20.7,13.301,20.7c4.9,0,9.7-2.601,12.7-5.5v-7.899h-12.302v-7.701h22.702
		v27.502L1513.551,2175.5L1513.551,2175.5z M1500.449,2116.797c-3.2,0-6-2.2-6-5.502c0-3.3,2.8-5.601,6-5.601
		s6.001,2.301,6.001,5.601C1506.45,2114.596,1503.649,2116.797,1500.449,2116.797z"/>
	<path d="M1732.447,2175.5v-23.302h-25.102v23.302h-10.9v-38.603h-5.399v-7.899h5.399v-7.802h10.9v7.802h25.102v-7.802h10.901v7.802
		h5.4v7.899h-5.4v38.603H1732.447z M1732.447,2144.298v-7.4h-25.102v7.4H1732.447z"/>
	<path d="M245.869,2451.5v-24.502h-25.102v24.502h-10.9v-54.304h10.9v21.901h25.102v-21.901h10.901v54.304H245.869z
		 M240.469,2393.196l-7.301-4.101l-7.101,4.101h-9.501l12.501-10.899h8.399l12.401,10.899H240.469z"/>
	<path d="M438.091,2393.196h-9.2l10.601-10.899h13.001L438.091,2393.196z M431.689,2451.5v-54.304h10.9v54.304H431.689z"/>
	<path d="M636.312,2382.295c0,7.802-6,11.602-13.301,11.602c-7.4,0-13.302-3.8-13.302-11.602h7.502c0,2.4,1.6,4.301,5.8,4.301
		s5.7-1.899,5.7-4.301H636.312z M617.512,2451.5v-54.304h10.899v54.304H617.512z"/>
	<path d="M816.135,2393.196l-7.301-4.101l-7.101,4.101h-9.501l12.501-10.899h8.4l12.399,10.899H816.135z M803.335,2451.5v-54.304
		h10.899v54.304H803.335z"/>
	<path d="M986.757,2392.797c-3.101,0-5.9-2.302-5.9-5.502c0-3.3,2.801-5.601,5.9-5.601c3.199,0,5.899,2.301,5.899,5.601
		C992.656,2390.496,989.956,2392.797,986.757,2392.797z M989.156,2451.5v-54.304h10.9v54.304H989.156z M1002.458,2392.797
		c-3.101,0-5.801-2.302-5.801-5.502c0-3.3,2.7-5.601,5.801-5.601c3.199,0,5.899,2.301,5.899,5.601
		C1008.357,2390.496,1005.657,2392.797,1002.458,2392.797z"/>
	<path d="M1180.38,2392.797c-3.2,0-6-2.2-6-5.502c0-3.3,2.8-5.601,6-5.601c3.199,0,6,2.301,6,5.601
		C1186.38,2390.596,1183.579,2392.797,1180.38,2392.797z M1174.979,2451.5v-54.304h10.9v54.304H1174.979z"/>
	<path d="M1365.102,2393.196l-14.501-10.899h13.101l10.501,10.899H1365.102z M1360.802,2451.5v-54.304h10.899v54.304H1360.802z"/>
	<path d="M1539.223,2391.496v-7.199h26.002v7.199H1539.223z M1546.624,2451.5v-54.304h10.899v54.304H1546.624z"/>
	<path d="M1743.446,2473.901c-2.301,1.3-5.899,2.399-10.001,2.399c-6.8,0-10.899-4.399-10.899-10c0-5.801,3.8-10.7,11.101-14.802
		h-1.2v-54.304h10.9v54.304h0.101c-7.899,4.102-11.9,8.2-11.9,13.302c0,3,2.399,4.699,4.801,4.699c2.3,0,4.8-0.899,7.101-2.1v6.501
		H1743.446z"/>
	<path d="M230.868,2661.095c-2,5.101-5.3,7.601-9.101,7.601c-4.399,0-9.5-3-12.4-3c-1.4,0-2.4,0.4-3.7,2.7l-5.7-2.7
		c2.101-5.2,5.4-7.7,9.2-7.7c4.4,0,9.4,3.2,12.301,3.2c1.5,0,2.5-0.601,3.7-2.899L230.868,2661.095z M209.867,2727.5v-54.304h10.9
		v54.304H209.867z"/>
	<path d="M429.809,2673.196h10.9v36.802c0,12.9-9.4,19.002-19.603,19.002c-10.601,0-19.801-4.899-20.201-19.602h11.602
		c0.399,8.9,3.601,11.5,8.601,11.5c5.602,0,8.701-3.299,8.701-9.301V2673.196L429.809,2673.196z M442.409,2669.196l-7.301-4.101
		l-7.101,4.101h-9.5l12.5-10.899h8.4l12.4,10.899H442.409z"/>
	<path d="M625.247,2727.5v-54.304h10.9v25.402l19.401-25.402h11.2l-19.9,24.902l23.001,29.402h-13.2l-20.502-27.603v27.603
		L625.247,2727.5L625.247,2727.5z M636.748,2752.302l2-18.603h10.2l-4.5,18.603H636.748z"/>
	<path d="M856.987,2669.196h-9.201l10.603-10.899h13L856.987,2669.196z M849.486,2727.5v-54.304h10.901v46.404h21.701v7.899H849.486
		z"/>
	<path d="M1065.526,2727.5v-54.304h10.901v46.404h21.701v7.899H1065.526z M1082.129,2689.896v-22.602h9.899l-2.199,22.602H1082.129z
		"/>
	<path d="M1281.565,2727.5v-54.304h10.901v46.404h21.7v7.899H1281.565z M1290.468,2752.302l2-18.603h10.199l-4.5,18.603H1290.468z"
		/>
	<path d="M1497.604,2727.5v-54.304h10.901v46.404h21.7v7.899H1497.604z M1520.307,2705.8c-3.2,0-6.001-2.201-6.001-5.5
		c0-3.302,2.801-5.603,6.001-5.603s6,2.301,6,5.603C1526.307,2703.598,1523.508,2705.8,1520.307,2705.8z"/>
	<path d="M1713.644,2727.5v-19.401l-6.2,3.602v-9.002l6.2-3.6v-25.902h10.901v19.601l10.399-6v9l-10.399,6.002v17.802h21.701v7.899
		H1713.644L1713.644,2727.5z"/>
	<path d="M245.069,3003.5l-25.501-39.303l0.1,11v28.303h-9.801v-54.305h10.701l25.602,39.402l-0.301-11.1v-28.304h9.901v54.306
		H245.069L245.069,3003.5z M232.869,2945.195h-9.201l10.602-10.899h13.001L232.869,2945.195z"/>
	<path d="M492.949,3003.5l-25.501-39.303l0.101,11v28.303h-9.802v-54.305h10.701l25.603,39.402l-0.302-11.1v-28.304h9.901v54.306
		H492.949L492.949,3003.5z M484.648,2945.195h-8.4l-12.5-10.899h9.5l7.102,4.2l7.301-4.2h9.4L484.648,2945.195z"/>
	<path d="M740.83,3003.5l-25.501-39.303l0.101,11v28.303h-9.801v-54.305h10.7l25.603,39.402l-0.301-11.1v-28.304h9.9v54.306H740.83
		L740.83,3003.5z M722.729,3028.302l2-18.603h10.2l-4.5,18.603H722.729z"/>
	<path d="M988.711,3003.5l-25.501-39.303l0.1,11v28.303h-9.801v-54.305h10.701l25.602,39.402l-0.301-11.1v-28.304h9.9v54.306
		H988.711L988.711,3003.5z M991.51,2937.096c-2,5.1-5.3,7.6-9.101,7.6c-4.399,0-9.501-3-12.4-3c-1.4,0-2.4,0.4-3.7,2.701l-5.7-2.701
		c2.102-5.198,5.4-7.698,9.2-7.698c4.4,0,9.401,3.198,12.301,3.198c1.5,0,2.5-0.6,3.7-2.899L991.51,2937.096z"/>
	<path d="M1197.688,2976.398c0-17.201,10.801-28.602,26.702-28.602c15.801,0,26.701,11.399,26.701,28.602S1240.19,3005,1224.39,3005
		C1208.488,3005,1197.688,2993.6,1197.688,2976.398z M1239.49,2976.398c0-13.301-6.2-20.701-15.101-20.701
		c-9.001,0-15.201,7.4-15.201,20.701s6.2,20.701,15.201,20.701C1233.29,2997.1,1239.49,2989.699,1239.49,2976.398z
		 M1224.489,2945.195h-9.199l10.601-10.899h13L1224.489,2945.195z"/>
	<path d="M1445.667,2976.398c0-17.201,10.802-28.602,26.702-28.602c15.802,0,26.701,11.399,26.701,28.602
		S1488.171,3005,1472.369,3005C1456.469,3005,1445.667,2993.6,1445.667,2976.398z M1487.47,2976.398
		c0-13.301-6.2-20.701-15.102-20.701c-9.001,0-15.2,7.4-15.2,20.701s6.199,20.701,15.2,20.701
		C1481.27,2997.1,1487.47,2989.699,1487.47,2976.398z M1485.671,2934.295c0,7.802-6.001,11.603-13.302,11.603
		c-7.399,0-13.301-3.801-13.301-11.603h7.5c0,2.4,1.601,4.302,5.801,4.302s5.7-1.9,5.7-4.302H1485.671z"/>
	<path d="M1693.646,2976.398c0-17.201,10.801-28.602,26.702-28.602c15.801,0,26.701,11.399,26.701,28.602
		s-10.9,28.602-26.701,28.602C1704.446,3005,1693.646,2993.6,1693.646,2976.398z M1727.549,2945.195l-7.302-4.1l-7.101,4.1h-9.5
		l12.5-10.899h8.401l12.399,10.899H1727.549z M1735.448,2976.398c0-13.301-6.199-20.701-15.101-20.701
		c-9.001,0-15.201,7.4-15.201,20.701s6.2,20.701,15.201,20.701C1729.249,2997.1,1735.448,2989.699,1735.448,2976.398z"/>
	<path d="M206.167,3252.398c0-17.201,10.801-28.602,26.702-28.602c15.801,0,26.701,11.399,26.701,28.602S248.67,3281,232.869,3281
		C216.968,3281,206.167,3269.6,206.167,3252.398z M247.97,3252.398c0-13.301-6.2-20.701-15.102-20.701
		c-9.001,0-15.201,7.4-15.201,20.701s6.2,20.701,15.201,20.701C241.77,3273.1,247.97,3265.699,247.97,3252.398z M224.168,3220.798
		c-3.2,0-5.899-2.302-5.899-5.502c0-3.3,2.699-5.601,5.899-5.601s5.9,2.301,5.9,5.601
		C230.068,3218.496,227.368,3220.798,224.168,3220.798z M241.569,3220.798c-3.101,0-5.801-2.302-5.801-5.502
		c0-3.3,2.7-5.601,5.801-5.601c3.2,0,5.9,2.301,5.9,5.601C247.47,3218.496,244.77,3220.798,241.569,3220.798z"/>
	<path d="M422.479,3252.398c0-17.201,10.801-28.602,26.702-28.602c15.801,0,26.701,11.399,26.701,28.602S464.981,3281,449.181,3281
		C433.279,3281,422.479,3269.6,422.479,3252.398z M464.281,3252.398c0-13.301-6.2-20.701-15.101-20.701
		c-9.001,0-15.201,7.4-15.201,20.701s6.2,20.701,15.201,20.701C458.081,3273.1,464.281,3265.699,464.281,3252.398z
		 M449.181,3221.195l-14.501-10.899h13.101l10.501,10.899H449.181z"/>
	<path d="M638.789,3252.398c0-17.201,10.802-28.602,26.702-28.602c15.802,0,26.701,11.399,26.701,28.602S681.292,3281,665.491,3281
		C649.591,3281,638.789,3269.6,638.789,3252.398z M658.19,3221.195h-8.601l8.801-10.899h12.2L658.19,3221.195z M680.593,3252.398
		c0-13.301-6.2-20.701-15.102-20.701c-9.001,0-15.201,7.4-15.201,20.701s6.2,20.701,15.201,20.701
		C674.392,3273.1,680.593,3265.699,680.593,3252.398z M674.991,3221.195h-8.699l8.699-10.899h12.302L674.991,3221.195z"/>
	<path d="M855.101,3252.398c0-17.201,10.801-28.602,26.702-28.602c15.801,0,26.701,11.399,26.701,28.602S897.604,3281,881.803,3281
		C865.901,3281,855.101,3269.6,855.101,3252.398z M896.903,3252.398c0-13.301-6.2-20.701-15.101-20.701
		c-9.001,0-15.201,7.4-15.201,20.701s6.2,20.701,15.201,20.701C890.703,3273.1,896.903,3265.699,896.903,3252.398z
		 M868.701,3219.496v-7.2h26.002v7.2H868.701z"/>
	<path d="M1071.411,3252.398c0-17.201,10.802-28.602,26.702-28.602c15.802,0,26.701,11.399,26.701,28.602
		S1113.915,3281,1098.113,3281C1082.213,3281,1071.411,3269.6,1071.411,3252.398z M1113.514,3213.096c-2,5.1-5.3,7.6-9.102,7.6
		c-4.399,0-9.5-3-12.399-3c-1.4,0-2.4,0.4-3.7,2.701l-5.7-2.701c2.101-5.198,5.4-7.698,9.2-7.698c4.4,0,9.4,3.198,12.301,3.198
		c1.5,0,2.5-0.6,3.7-2.899L1113.514,3213.096z M1113.215,3252.398c0-13.301-6.2-20.701-15.102-20.701
		c-9.001,0-15.201,7.4-15.201,20.701s6.2,20.701,15.201,20.701C1107.014,3273.1,1113.215,3265.699,1113.215,3252.398z"/>
	<path d="M1321.626,3279.5l-13.302-20.102h-6.001v20.102h-10.899v-54.305h18.9c10.7,0,20.802,5.603,20.802,17.303
		c0,8.4-5.301,13.5-12.2,15.699l15.301,21.303H1321.626z M1307.524,3221.195h-9.201l10.602-10.899h13.001L1307.524,3221.195z
		 M1310.324,3251.898c5.602,0,9.7-2.4,9.7-9.4c0-7.102-4.1-9.502-9.7-9.502h-8.001v18.902H1310.324L1310.324,3251.898z"/>
	<path d="M1529.035,3279.5l-13.301-20.102h-6.001v20.102h-10.9v-54.305h18.901c10.7,0,20.801,5.603,20.801,17.303
		c0,8.4-5.3,13.5-12.199,15.699l15.301,21.303H1529.035z M1520.135,3221.195h-8.4l-12.501-10.899h9.5l7.101,4.2l7.302-4.2h9.399
		L1520.135,3221.195z M1517.734,3251.898c5.601,0,9.7-2.4,9.7-9.4c0-7.102-4.1-9.502-9.7-9.502h-8.001v18.902H1517.734
		L1517.734,3251.898z"/>
	<path d="M1736.446,3279.5l-13.301-20.102h-6.001v20.102h-10.9v-54.305h18.901c10.7,0,20.801,5.603,20.801,17.303
		c0,8.4-5.3,13.5-12.199,15.699l15.301,21.303H1736.446z M1725.146,3251.898c5.601,0,9.7-2.4,9.7-9.4c0-7.102-4.101-9.502-9.7-9.502
		h-8.001v18.902H1725.146L1725.146,3251.898z M1717.845,3304.302l2-18.603h10.201l-4.5,18.603H1717.845z"/>
	<path d="M238.669,3516.697c-0.699-6.201-4.899-9.201-11.101-9.201c-5.301,0-10.001,2.5-10.001,7.4
		c0,5.801,6.101,7.201,12.501,8.502c9.301,1.799,20.302,4.199,20.302,16.699c0,10.002-9.701,16.902-21.002,16.902
		c-13.601,0-22.301-6-22.801-17.701h11.101c0.7,7,5.5,10,11.7,10c5.4,0,10.602-2.601,10.602-8.101c0-5.801-6.301-7.7-12.802-9.002
		c-9.199-1.698-20.001-3.799-20.001-16.399c0-9.5,8.7-16,20.401-16c13.601,0,21.501,6,22.201,16.899L238.669,3516.697
		L238.669,3516.697z M227.568,3497.195h-9.2l10.602-10.899h13.001L227.568,3497.195z"/>
	<path d="M456.236,3516.697c-0.7-6.201-4.899-9.201-11.101-9.201c-5.3,0-10.001,2.5-10.001,7.4c0,5.801,6.101,7.201,12.501,8.502
		c9.301,1.799,20.302,4.199,20.302,16.699c0,10.002-9.701,16.902-21.002,16.902c-13.602,0-22.301-6-22.801-17.701h11.101
		c0.7,7,5.5,10,11.7,10c5.4,0,10.601-2.601,10.601-8.101c0-5.801-6.3-7.7-12.801-9.002c-9.2-1.698-20.001-3.799-20.001-16.399
		c0-9.5,8.701-16,20.401-16c13.601,0,21.501,6,22.201,16.899L456.236,3516.697L456.236,3516.697z M449.636,3497.195h-8.4
		l-12.501-10.899h9.501l7.102,4.2l7.301-4.2h9.399L449.636,3497.195z"/>
	<path d="M654.005,3573.302c2.199,1,4.399,1.301,6.399,1.301c2.399,0,5.2-1.201,5.2-3.899c0-2.701-2.801-3.802-5.2-3.802
		c-1,0-2.7,0.199-4.001,0.601l-2.1-3.601l5.4-7.2c-10.9-1.3-17.603-7.101-18.002-17.4h11.102c0.7,7,5.5,10,11.7,10
		c5.399,0,10.601-2.6,10.601-8.1c0-5.802-6.3-7.701-12.801-9.002c-9.2-1.699-20.001-3.8-20.001-16.4c0-9.5,8.701-16,20.401-16
		c13.601,0,21.501,6,22.2,16.9h-11.101c-0.7-6.201-4.9-9.201-11.102-9.201c-5.3,0-10,2.5-10,7.399c0,5.802,6.101,7.201,12.5,8.502
		c9.302,1.8,20.303,4.199,20.303,16.699c0,9.502-8.701,16.103-19.103,16.803l-3.8,5.101c5.7-0.4,11.2,2.199,11.2,8.399
		c0,6.5-6.101,9.9-12.601,9.9c-2.5,0-4.9-0.3-7.2-1.4v-5.6H654.005z"/>
	<path d="M891.372,3516.697c-0.699-6.201-4.899-9.201-11.101-9.201c-5.301,0-10.001,2.5-10.001,7.4
		c0,5.801,6.101,7.201,12.501,8.502c9.301,1.799,20.302,4.199,20.302,16.699c0,10.002-9.701,16.902-21.002,16.902
		c-13.601,0-22.301-6-22.801-17.701h11.101c0.7,7,5.5,10,11.7,10c5.4,0,10.602-2.601,10.602-8.101c0-5.801-6.301-7.7-12.802-9.002
		c-9.199-1.698-20.001-3.799-20.001-16.399c0-9.5,8.7-16,20.401-16c13.601,0,21.501,6,22.201,16.899L891.372,3516.697
		L891.372,3516.697z M887.673,3497.195l-7.302-4.1l-7.1,4.1h-9.501l12.501-10.899h8.4l12.399,10.899H887.673z"/>
	<path d="M1108.939,3516.697c-0.7-6.201-4.9-9.201-11.101-9.201c-5.301,0-10.001,2.5-10.001,7.4c0,5.801,6.101,7.201,12.501,8.502
		c9.301,1.799,20.302,4.199,20.302,16.699c0,10.002-9.701,16.902-21.002,16.902c-13.601,0-22.301-6-22.801-17.701h11.101
		c0.7,7,5.5,10,11.7,10c5.399,0,10.601-2.601,10.601-8.101c0-5.801-6.3-7.7-12.801-9.002c-9.2-1.698-20.001-3.799-20.001-16.399
		c0-9.5,8.701-16,20.401-16c13.601,0,21.5,6,22.2,16.899L1108.939,3516.697L1108.939,3516.697z M1091.639,3580.302l2-18.603h10.2
		l-4.5,18.603H1091.639z"/>
	<path d="M1303.906,3555.5v-22.901h-9.8v-8.101h9.8v-15.301h-14.601v-8.002h40.103v8.002h-14.601v15.301h9.801v8.101h-9.801v22.901
		H1303.906z"/>
	<path d="M1513.574,3555.5v-46.303h-14.601v-8.002h40.103v8.002h-14.601v46.303H1513.574z M1523.275,3497.195h-8.399l-12.502-10.899
		h9.502l7.1,4.2l7.301-4.2h9.4L1523.275,3497.195z"/>
	<path d="M1719.344,3573.302c2.199,1,4.399,1.301,6.399,1.301c2.399,0,5.2-1.201,5.2-3.899c0-2.701-2.801-3.802-5.2-3.802
		c-1,0-2.699,0.199-4.001,0.601l-2.1-3.601l6.3-8.399h-2.698v-46.303h-14.603v-8.002h40.103v8.002h-14.601v46.303h-1.301l-4.899,6.5
		c5.7-0.4,11.2,2.199,11.2,8.399c0,6.5-6.101,9.9-12.601,9.9c-2.5,0-4.9-0.3-7.2-1.4L1719.344,3573.302L1719.344,3573.302z"/>
	<path d="M219.068,3831.5v-46.303h-14.603v-8.002h40.104v8.002h-14.602v46.303H219.068z M217.468,3856.302l2-18.603h10.201
		l-4.501,18.603H217.468z"/>
	<path d="M443.853,3777.195h9.9v34.104c0,13.7-9.2,21.7-22.401,21.7c-13.9,0-23.001-7.2-23.001-20.2v-35.604h10.899v34.104
		c0,8,3.302,13.6,12.102,13.6c8.9,0,12.501-5.6,12.501-12.1V3777.195z M430.652,3773.195h-9.201l10.602-10.899h13.001
		L430.652,3773.195z"/>
	<path d="M658.836,3777.195h9.899v34.104c0,13.7-9.2,21.7-22.4,21.7c-13.9,0-23.001-7.2-23.001-20.2v-35.604h10.899v34.104
		c0,8,3.301,13.6,12.102,13.6c8.899,0,12.501-5.6,12.501-12.1V3777.195L658.836,3777.195z M659.336,3762.295
		c0,7.802-6,11.603-13.302,11.603c-7.399,0-13.301-3.801-13.301-11.603h7.501c0,2.4,1.6,4.302,5.8,4.302s5.7-1.9,5.7-4.302H659.336z
		"/>
	<path d="M873.816,3777.195h9.9v34.104c0,13.7-9.2,21.7-22.401,21.7c-13.9,0-23.001-7.2-23.001-20.2v-35.604h10.9v34.104
		c0,8,3.301,13.6,12.101,13.6c8.901,0,12.501-5.6,12.501-12.1V3777.195L873.816,3777.195z M868.217,3773.195l-7.3-4.1l-7.102,4.1
		h-9.501l12.501-10.899h8.4l12.4,10.899H868.217z"/>
	<path d="M1088.8,3777.195h9.899v34.104c0,13.7-9.2,21.7-22.4,21.7c-13.9,0-23.001-7.2-23.001-20.2v-35.604h10.899v34.104
		c0,8,3.302,13.6,12.102,13.6c8.9,0,12.501-5.6,12.501-12.1V3777.195z M1067.197,3772.798c-3.2,0-5.899-2.302-5.899-5.502
		c0-3.3,2.699-5.601,5.899-5.601s5.9,2.301,5.9,5.601C1073.098,3770.496,1070.397,3772.798,1067.197,3772.798z M1084.599,3772.798
		c-3.101,0-5.8-2.302-5.8-5.502c0-3.3,2.698-5.601,5.8-5.601c3.2,0,5.899,2.301,5.899,5.601
		C1090.499,3770.496,1087.8,3772.798,1084.599,3772.798z"/>
	<path d="M1303.781,3777.195h9.9v34.104c0,13.7-9.2,21.7-22.401,21.7c-13.899,0-23.001-7.2-23.001-20.2v-35.604h10.9v34.104
		c0,8,3.301,13.6,12.101,13.6c8.901,0,12.501-5.6,12.501-12.1V3777.195z M1283.68,3773.195h-8.6l8.8-10.899h12.201L1283.68,3773.195
		z M1300.481,3773.195h-8.701l8.701-10.899h12.301L1300.481,3773.195z"/>
	<path d="M1518.764,3777.195h9.9v34.104c0,13.7-9.2,21.7-22.401,21.7c-13.9,0-23.001-7.2-23.001-20.2v-35.604h10.9v34.104
		c0,8,3.301,13.6,12.101,13.6c8.901,0,12.501-5.6,12.501-12.1V3777.195z M1492.862,3771.496v-7.2h26.002v7.2H1492.862z"/>
	<path d="M1733.745,3777.195h9.9v34.104c0,10.899-5.9,18.2-14.9,20.7c-7.301,3.9-10.899,7.9-10.899,12.802
		c0,3,2.398,4.698,4.8,4.698c2.3,0,4.801-0.899,7.101-2.1v6.5c-2.3,1.301-5.899,2.4-10.001,2.4c-6.8,0-10.899-4.4-10.899-10
		c0-5.201,3-9.701,8.801-13.502c-11.801-1.101-19.401-8.101-19.401-20v-35.604h10.9v34.104c0,8,3.301,13.6,12.101,13.6
		c8.9,0,12.501-5.6,12.501-12.1v-35.604H1733.745z"/>
	<path d="M245.069,4053.195h9.9v34.104c0,13.7-9.2,21.7-22.401,21.7c-13.9,0-23.001-7.201-23.001-20.2v-35.604h10.899v34.104
		c0,8,3.302,13.6,12.102,13.6c8.899,0,12.501-5.601,12.501-12.101V4053.195L245.069,4053.195z M232.169,4051.298
		c-5.501,0-9.501-2.9-9.501-7.603c0-4.699,4-7.6,9.501-7.6c5.5,0,9.5,2.899,9.5,7.6
		C241.669,4048.396,237.669,4051.298,232.169,4051.298z M232.169,4040.496c-2,0-3.301,1.199-3.301,3.199s1.301,3.101,3.301,3.101
		s3.301-1.101,3.301-3.101S234.169,4040.496,232.169,4040.496z"/>
	<path d="M484.05,4053.195h9.899v34.104c0,13.7-9.2,21.7-22.4,21.7c-13.9,0-23.001-7.201-23.001-20.2v-35.604h10.899v34.104
		c0,8,3.301,13.6,12.102,13.6c8.9,0,12.501-5.601,12.501-12.101V4053.195z M486.55,4041.096c-2,5.1-5.301,7.6-9.102,7.6
		c-4.399,0-9.5-3-12.399-3c-1.4,0-2.4,0.4-3.7,2.701l-5.7-2.701c2.1-5.198,5.4-7.698,9.2-7.698c4.399,0,9.399,3.198,12.301,3.198
		c1.5,0,2.5-0.6,3.7-2.899L486.55,4041.096z"/>
	<path d="M730.63,4107.5l-8.9-28.702l-3.2-11.601l-2.899,11.601l-8.302,28.702h-10.3l-16.602-54.305h11.801l7.801,28.703l2.899,11.4
		l2.899-11.4l8.201-28.703h9.7l8.7,28.703l3.2,11.5l2.699-11.5l7.001-28.703h10.4L740.43,4107.5H730.63z M719.129,4049.195h-9.2
		l10.601-10.899h13.001L719.129,4049.195z"/>
	<path d="M985.309,4107.5l-8.9-28.702l-3.199-11.601l-2.9,11.601l-8.301,28.702h-10.301l-16.602-54.305h11.801l7.801,28.703
		l2.899,11.4l2.9-11.4l8.2-28.703h9.7l8.7,28.703l3.2,11.5l2.7-11.5l7.001-28.703h10.399l-15.301,54.305H985.309z M980.708,4049.195
		l-7.3-4.1l-7.101,4.1h-9.501l12.501-10.899h8.4l12.4,10.899H980.708z"/>
	<path d="M1239.989,4107.5l-8.899-28.702l-3.2-11.601l-2.9,11.601l-8.301,28.702h-10.301l-16.602-54.305h11.802l7.801,28.703
		l2.899,11.4l2.899-11.4l8.201-28.703h9.7l8.699,28.703l3.2,11.5l2.7-11.5l7.001-28.703h10.4l-15.302,54.305H1239.989z
		 M1219.388,4048.798c-3.2,0-5.9-2.302-5.9-5.502c0-3.3,2.7-5.601,5.9-5.601s5.899,2.301,5.899,5.601
		C1225.288,4046.496,1222.589,4048.798,1219.388,4048.798z M1236.789,4048.798c-3.101,0-5.801-2.302-5.801-5.502
		c0-3.3,2.7-5.601,5.801-5.601c3.2,0,5.9,2.301,5.9,5.601C1242.689,4046.496,1239.989,4048.798,1236.789,4048.798z"/>
	<path d="M1494.669,4107.5l-8.899-28.702l-3.2-11.601l-2.9,11.601l-8.301,28.702h-10.301l-16.601-54.305h11.801l7.801,28.703
		l2.899,11.4l2.899-11.4l8.201-28.703h9.7l8.7,28.703l3.2,11.5l2.699-11.5l7.001-28.703h10.4l-15.301,54.305H1494.669z
		 M1481.769,4049.195l-14.501-10.899h13.101l10.501,10.899H1481.769z"/>
	<path d="M1719.847,4107.5v-20.801l-18.301-33.504h11.801l12.7,25.502l12.001-25.502h10.301l-17.603,34.104v20.2H1719.847z
		 M1725.647,4049.195h-9.201l10.602-10.899h13L1725.647,4049.195z"/>
	<path d="M223.168,4383.5v-20.801l-18.301-33.504h11.801l12.7,25.502l12.001-25.502h10.301l-17.602,34.104v20.201L223.168,4383.5
		L223.168,4383.5z M235.969,4325.195l-7.302-4.1l-7.1,4.1h-9.501l12.501-10.9h8.399l12.4,10.9H235.969z"/>
	<path d="M426.768,4383.5v-20.801l-18.301-33.504h11.801l12.7,25.502l12.001-25.502h10.301l-17.602,34.104v20.201L426.768,4383.5
		L426.768,4383.5z M423.669,4324.797c-3.2,0-5.9-2.301-5.9-5.502c0-3.299,2.7-5.6,5.9-5.6c3.199,0,5.899,2.301,5.899,5.6
		C429.568,4322.496,426.868,4324.797,423.669,4324.797z M441.068,4324.797c-3.1,0-5.8-2.301-5.8-5.502c0-3.299,2.7-5.6,5.8-5.6
		c3.2,0,5.9,2.301,5.9,5.6C446.969,4322.496,444.269,4324.797,441.068,4324.797z"/>
	<path d="M630.367,4383.5v-20.801l-18.301-33.504h11.801l12.7,25.502l12.001-25.502h10.301l-17.602,34.104v20.201L630.367,4383.5
		L630.367,4383.5z M634.867,4325.195l-14.5-10.9h13.102l10.5,10.9H634.867z"/>
	<path d="M815.566,4383.5v-7.899l25.702-38.401h-25.102v-8.002h36.602v8.002l-25.701,38.401h25.701v7.899H815.566z
		 M833.868,4325.195h-9.201l10.602-10.9h13.001L833.868,4325.195z"/>
	<path d="M1010.766,4383.5v-7.899l25.702-38.401h-25.103v-8.002h36.603v8.002l-25.701,38.401h25.701v7.899H1010.766z
		 M1033.968,4325.195h-8.4l-12.5-10.9h9.5l7.102,4.201l7.301-4.201h9.399L1033.968,4325.195z"/>
	<path d="M1205.966,4383.5v-7.899l25.701-38.401h-25.102v-8.002h36.602v8.002l-25.7,38.401h25.7v7.899H1205.966z M1224.566,4324.797
		c-3.2,0-6.001-2.201-6.001-5.502c0-3.299,2.801-5.6,6.001-5.6s6,2.301,6,5.6
		C1230.566,4322.597,1227.767,4324.797,1224.566,4324.797z"/>
	<path d="M1436.767,4383.5v-13.399h-17.901l-8.899,13.399h-11.802l37.702-54.305h36.104v8.002h-24.302v13.9h22.7v7.899h-22.7v16.603
		h24.302v7.899L1436.767,4383.5L1436.767,4383.5z M1424.167,4362.099h12.601v-19.701l-5.9,9.603L1424.167,4362.099z
		 M1446.167,4325.195h-9.199l10.601-10.9h13.001L1446.167,4325.195z"/>
</g>
</svg>
