<?xml version="1.0" encoding="utf-8"?>
<!-- Generator: Adobe Illustrator 16.0.3, SVG Export Plug-In . SVG Version: 6.00 Build 0)  -->
<!DOCTYPE svg PUBLIC "-//W3C//DTD SVG 1.1//EN" "http://www.w3.org/Graphics/SVG/1.1/DTD/svg11.dtd">
<svg version="1.1" id="Layer_1" xmlns="http://www.w3.org/2000/svg" xmlns:xlink="http://www.w3.org/1999/xlink" x="0px" y="0px"
	 width="1551.584px" height="4487.504px" viewBox="0 0 1551.584 4487.504" enable-background="new 0 0 1551.584 4487.504"
	 xml:space="preserve">
<g>
	<path fill="#010101" d="M52.903,71.504l-6.301-18.103H20l-5.899,18.103H2.999L27.602,1.5h12.101l25.702,70.004H52.903z
		 M22.802,44.703h20.802l-6.101-17.501l-4.601-14.9l-4.399,14.9L22.802,44.703z"/>
	<path fill="#010101" d="M259.798,71.504V1.5h22.701c12.201,0,24.802,4,24.802,17.801c0,7.101-4.601,13.701-11.2,15.601
		c7.9,1.4,14.102,6.2,14.102,16.001c0,13.701-11.201,20.603-25.503,20.603L259.798,71.504L259.798,71.504z M282.499,31.901
		c7.701,0,13.001-3.8,13.001-11.699c0-7.802-5.4-10.001-13.001-10.001h-11.102v21.7H282.499z M284.698,62.804
		c9.102,0,13.603-4.2,13.603-11.901c0-7.899-5.9-10.5-13.603-10.5h-13.301v22.401H284.698z"/>
	<path fill="#010101" d="M562.596,48.303c-1.9,16.9-12.601,24.701-27.702,24.701c-19.9,0-30.302-14.4-30.302-36.502
		C504.592,14.399,516.593,0,534.894,0c15.103,0,25.802,7.8,27.702,24.701h-12.601c-1.302-11.002-6.501-15.802-15.103-15.802
		c-10.2,0-17.901,9.102-17.901,27.603s6.802,27.602,17.901,27.602c8.602,0,13.801-4.801,15.103-15.801H562.596L562.596,48.303z"/>
	<path fill="#010101" d="M760.388,71.504V1.5h22.001c21.502,0,35.803,12.899,35.803,35.002c0,22.102-14.301,35.002-35.803,35.002
		H760.388z M782.389,62.604c13.501,0,23.502-7.601,23.502-26.102s-10.001-26.103-23.502-26.103h-10.4v52.203L782.389,62.604
		L782.389,62.604z"/>
	<path fill="#010101" d="M1016.286,71.504V1.5h41.803v8.899h-30.202V30.2h28.202v8.9h-28.202v23.502h30.202v8.9L1016.286,71.504
		L1016.286,71.504z"/>
	<path fill="#010101" d="M1256.78,71.504V1.5h40.804v8.899h-29.202v21.901h27.202V41.2h-27.202v30.303L1256.78,71.504
		L1256.78,71.504z"/>
	<path fill="#010101" d="M1535.081,44.803h-15.602v-8.601h26.803v35.302h-11.201v-6.7c-4.2,4.6-11.9,8.2-19.001,8.2
		c-17.602,0-27.303-14.102-27.303-36.502c0-22.103,12.001-36.502,30.603-36.502c14.701,0,24.802,7.6,26.902,23.101h-12.603
		c-1.399-9.7-6.1-14.2-14.301-14.2c-10.5,0-18.201,9.102-18.201,27.603c0,18.801,8.101,27.701,18.102,27.701
		c6.102,0,12.102-3.101,15.802-6.801V44.803z"/>
	<path fill="#010101" d="M55.203,347.504v-32.402H22.001v32.402H10.4V277.5h11.601v28.701h33.202V277.5h11.602v70.004H55.203z"/>
	<path fill="#010101" d="M269.997,347.504V277.5h11.601v70.004H269.997z"/>
	<path fill="#010101" d="M514.996,277.501h11.501v48.803c0,16.102-11.603,22.701-23.402,22.701c-13.102,0-23.201-6-23.701-24.401
		h12.001c0.4,11.802,4.5,15.701,11.7,15.701c7.601,0,11.901-3.899,11.901-12.001V277.501z"/>
	<path fill="#010101" d="M728.689,347.504V277.5h11.602v32.701l24.502-32.701h12.001l-25.002,32.302l28.802,37.702h-14.201
		l-26.102-35.702v35.702H728.689z"/>
	<path fill="#010101" d="M977.787,347.504V277.5h11.601v61.104h27.002v8.9H977.787z"/>
	<path fill="#010101" d="M1274.587,347.504v-37.002l0.199-12.901l-18.4,45.903h-10.602l-19.2-47.003l0.199,14.2v36.803h-10.501
		V277.5h12.701l22.501,54.503l22.502-54.503h11.602v70.004H1274.587z"/>
	<path fill="#010101" d="M1532.182,347.504l-33.103-52.903l0.301,14.201v38.702h-10.602V277.5h11.701l33.103,52.903l-0.3-14.201
		V277.5h10.601v70.004H1532.182z"/>
	<path fill="#010101" d="M6.7,588.503c0-22.102,12.602-36.502,32.402-36.502s32.302,14.4,32.302,36.502
		s-12.501,36.502-32.302,36.502C19.302,625.004,6.7,610.604,6.7,588.503z M59.104,588.503c0-18.501-8.2-27.602-20.001-27.602
		s-20.002,9.101-20.002,27.602s8.201,27.602,20.002,27.602S59.104,607.004,59.104,588.503z"/>
	<path fill="#010101" d="M266.563,623.504V553.5h22.603c12.899,0,25.4,7.2,25.4,22.801c0,15.603-12.501,22.701-25.4,22.701h-11.001
		v24.502H266.563z M289.166,590.302c7.7,0,13.601-4.399,13.601-14.001c0-9.601-5.9-14.101-13.601-14.101h-11.001v28.102H289.166z"/>
	<path fill="#010101" d="M551.93,638.604l-12.501-13.699c-1,0.1-2,0.1-3,0.1c-19.802,0-32.402-14.4-32.402-36.502
		c0-22.103,12.602-36.502,32.402-36.502s32.302,14.399,32.302,36.502c0,16.101-6.7,28.102-17.9,33.502l15.7,16.601L551.93,638.604
		L551.93,638.604z M536.43,616.104c11.801,0,20.001-9.101,20.001-27.602s-8.2-27.602-20.001-27.602s-20.002,9.101-20.002,27.602
		S524.629,616.104,536.43,616.104z"/>
	<path fill="#010101" d="M792.593,625.004c-19.802,0-32.402-14.4-32.402-36.502S772.792,552,792.593,552s32.302,14.4,32.302,36.502
		S812.393,625.004,792.593,625.004z M792.593,616.104c11.801,0,20.001-9.101,20.001-27.602s-8.2-27.602-20.001-27.602
		s-20.002,9.101-20.002,27.602S780.792,616.104,792.593,616.104z M779.592,638.005v-8.9h36.901v8.9H779.592z"/>
	<path fill="#010101" d="M1057.555,623.504l-17.2-26.802h-8.701v26.802h-11.601V553.5h22.103c12.899,0,25.4,6.2,25.4,21.601
		c0,11.501-6.9,17.803-15.701,20.303l19.401,28.102L1057.555,623.504L1057.555,623.504z M1042.154,588.203
		c7.7,0,13.602-3.501,13.602-13.103c0-9.399-5.9-12.899-13.602-12.899h-10.501v26.002H1042.154z"/>
	<path fill="#010101" d="M1299.42,573.502c-0.7-9.301-5.701-12.801-13.802-12.801c-7.4,0-13,3.199-13,10.301
		c0,9.101,8,10.4,16.5,12.2c10.4,2.2,23.201,4.7,23.201,20.002c0,12.801-11.501,21.801-25.102,21.801
		c-16.102,0-26.201-7.301-26.802-22.401h12.101c0.8,10.302,6.601,13.701,14.701,13.701c7.4,0,13.801-3.801,13.801-11.601
		c0-9.102-8.4-10.401-16.9-12.201c-10.4-2.3-22.901-5-22.901-20.201c0-12.301,10.301-20.301,24.401-20.301
		c16.2,0,25.201,7.4,26.002,21.501H1299.42z"/>
	<path fill="#010101" d="M1518.881,623.504V562.4h-18.802v-8.9h49.203v8.9h-18.802v61.104H1518.881z"/>
	<path fill="#010101" d="M53.903,829.501h10.501v45.002c0,17.103-10.701,26.502-27.302,26.502c-16.603,0-27.702-8.4-27.702-24.501
		v-47.003h11.601v45.002c0,11.301,4.302,17.603,16.103,17.603s16.801-6.302,16.801-15.602L53.903,829.501L53.903,829.501z"/>
	<path fill="#010101" d="M274.598,899.504L249.196,829.5h12.501l15.001,43.103l4.601,14.9l4.501-14.9l14.001-43.103h11.2
		l-24.303,70.004H274.598z"/>
	<path fill="#010101" d="M549.298,899.504L538.196,859.4l-3.699-15.101l-3.601,15.101l-10.801,40.104h-12.103L488.692,829.5h12.4
		l10.4,41.502l3.399,14.9l3.501-14.9l10.801-41.502h12l11.201,41.502l3.6,15.201l3.2-15.201l9.501-41.502h10.9l-18.201,70.004
		H549.298L549.298,899.504z"/>
	<path fill="#010101" d="M801.392,899.504l-16.4-27.302l-15.802,27.302h-11.2l21.603-35.502L758.391,829.5h12.7l14.9,25.001
		l14.4-25.001h11.201l-20.201,33.201l22.602,36.803H801.392L801.392,899.504z"/>
	<path fill="#010101" d="M1015.987,899.504v-25.502L993.786,829.5h12.502l16.5,35.302l15.502-35.302h10.601l-21.302,44.502v25.502
		H1015.987L1015.987,899.504z"/>
	<path fill="#010101" d="M1230.983,899.504v-8.9l33.104-52.203h-32.402v-8.899h45.403v8.899l-33.104,52.203h33.104v8.9H1230.983z"/>
	<path fill="#010101" d="M1505.083,899.504v-18.102h-23.201l-11.701,18.102h-12.7l47.003-70.004h42.502v8.9h-30.302v19.801h28.302
		v8.899h-28.302v23.502h30.302v8.9L1505.083,899.504L1505.083,899.504z M1487.481,872.703h17.602V844.9l-8.102,13.102
		L1487.481,872.703z"/>
	<path fill="#010101" d="M20.701,1122.601l0.3,14.201v38.702H10.4V1105.5h11.701l33.102,52.903l-0.3-14.201V1105.5h10.602v70.004
		c0,17.301-11.302,22.302-22.603,22.302c-2.1,0-6-0.601-8.2-1.7v-8.2c2.601,0.801,6,1.199,8.2,1.199
		c7.001,0,11.801-2.398,11.801-12.301L20.701,1122.601z"/>
	<path fill="#010101" d="M252.813,1175.504v-39.902c0-21.602,10.9-30.502,27.502-30.502h24.103v8.802l-15.103,22.001
		c15.803,3.101,19.201,14.701,19.201,21.501c0,13.301-10.3,19.602-20.501,19.602c-11.501,0-18.301-5.8-18.601-15.201h11.601
		c0.399,4.802,3,6.9,7.3,6.9c4.801,0,8.4-3.101,8.4-10.7c0-7.7-5.3-14.001-16.2-14.001h-3.001v-8.899l14.602-21.201h-11.801
		c-9.801,0-15.9,5.6-15.9,20.701v40.901L252.813,1175.504L252.813,1175.504z"/>
	<path fill="#010101" d="M491.427,1175.504v-30.302h-10.4v-8.9h10.4V1105.5h22.002c21.501,0,35.802,12.9,35.802,35.002
		s-14.301,35.002-35.802,35.002H491.427L491.427,1175.504z M513.429,1166.604c13.5,0,23.501-7.601,23.501-26.102
		s-10.001-26.103-23.501-26.103h-10.401v21.901h14.701v8.9h-14.701v21.4h10.401V1166.604z"/>
	<path fill="#010101" d="M732.841,1175.504V1105.5h11.601v70.004H732.841z M791.345,1105.501h11.5v48.803
		c0,16.101-11.602,22.701-23.401,22.701c-13.101,0-23.2-6-23.7-24.401h12c0.4,11.802,4.5,15.701,11.7,15.701
		c7.602,0,11.901-3.899,11.901-12.001V1105.501z"/>
	<path fill="#010101" d="M1022.256,1175.504c-21.401,0-35.802-12.9-35.802-35.002s14.399-35.002,35.802-35.002h49.503v8.9h-30.302
		v19.801h28.302v8.9h-28.302v23.502h30.302v8.899L1022.256,1175.504L1022.256,1175.504z M1029.956,1114.4h-7.7
		c-13.4,0-23.401,7.602-23.401,26.103s10.001,26.103,23.401,26.103h7.7V1114.4z"/>
	<path fill="#010101" d="M1254.866,1184.505l8.3-15.302c-7-6.301-10.9-16.301-10.9-28.701c0-22.103,12.601-36.502,32.402-36.502
		c4.6,0,8.8,0.8,12.601,2.3l5.3-9.801h11.901l-8.301,15.401c6.899,6.3,10.801,16.301,10.801,28.602
		c0,22.102-12.501,36.502-32.302,36.502c-4.602,0-8.9-0.8-12.602-2.2l-5.301,9.701H1254.866L1254.866,1184.505z M1268.667,1159.004
		l24.102-44.402c-2.501-1.101-5.201-1.699-8.101-1.699c-11.801,0-20.002,9.101-20.002,27.602
		C1264.666,1148.403,1266.065,1154.504,1268.667,1159.004z M1304.669,1140.503c0-7.801-1.5-13.901-4.102-18.401l-24.001,44.304
		c2.4,1.199,5.102,1.699,8.102,1.699C1296.469,1168.104,1304.669,1159.004,1304.669,1140.503z"/>
	<path fill="#010101" d="M1500.579,1175.504V1105.5h11.601v11.301h11.001c12.9,0,25.401,7.1,25.401,22.701
		c0,15.601-12.501,22.801-25.401,22.801h-11.001v13.201H1500.579L1500.579,1175.504z M1523.18,1153.504
		c7.7,0,13.601-4.4,13.601-14.001s-5.899-14.001-13.601-14.001h-11.001v28.002H1523.18z"/>
	<path fill="#010101" d="M52.903,1451.504l-6.301-18.102H20l-5.899,18.102H2.999l24.603-70.004h12.101l25.702,70.004H52.903z
		 M32.602,1376.299h-9.801l13.201-14.101h14.7L32.602,1376.299z M22.802,1424.703h20.802l-6.101-17.501l-4.601-14.9l-4.399,14.9
		L22.802,1424.703z"/>
	<path fill="#010101" d="M300.55,1451.504l-6.301-18.102h-26.603l-5.899,18.102h-11.102l24.603-70.004h12.101l25.702,70.004H300.55z
		 M296.749,1362.199c0,10.101-6.801,15.102-15.602,15.102s-15.701-5.001-15.701-15.102h7.7c0,3.699,2.501,6.601,8.001,6.601
		c5.4,0,7.9-2.9,7.9-6.601H296.749z M270.447,1424.703h20.802l-6.102-17.501l-4.6-14.9l-4.4,14.9L270.447,1424.703z"/>
	<path fill="#010101" d="M548.195,1451.504l-6.301-18.102h-26.601l-5.9,18.102h-11.101l24.602-70.004h12.102l25.701,70.004H548.195z
		 M538.495,1376.299l-9.801-6.6l-9.7,6.6h-10.4l14.801-14.101h10.602l14.9,14.101H538.495z M518.095,1424.703h20.801l-6.101-17.501
		l-4.601-14.9l-4.399,14.9L518.095,1424.703z"/>
	<path fill="#010101" d="M795.842,1451.504l-6.301-18.102h-26.603l-5.899,18.102h-11.102l24.603-70.004h12.101l25.702,70.004
		H795.842z M765.54,1375.2c-3.802,0-6.802-2.8-6.802-6.5s3-6.602,6.802-6.602c3.699,0,6.699,2.9,6.699,6.602
		C772.239,1372.4,769.239,1375.2,765.54,1375.2z M765.738,1424.703h20.803l-6.102-17.501l-4.6-14.9l-4.4,14.9L765.738,1424.703z
		 M787.24,1375.2c-3.801,0-6.801-2.8-6.801-6.5s3-6.602,6.801-6.602s6.801,2.9,6.801,6.602
		C794.041,1372.4,791.041,1375.2,787.24,1375.2z"/>
	<path fill="#010101" d="M1043.487,1451.504l-6.301-18.102h-26.602l-5.9,18.102h-11.101l24.602-70.004h12.101l25.702,70.004
		H1043.487z M1024.887,1376.299l-18.101-14.101h14.699l13.201,14.101H1024.887z M1013.386,1424.703h20.802l-6.101-17.501l-4.6-14.9
		l-4.4,14.9L1013.386,1424.703z"/>
	<path fill="#010101" d="M1291.134,1451.504l-6.301-18.102h-26.603l-5.899,18.102h-11.102l24.603-70.004h12.101l25.702,70.004
		H1291.134z M1255.431,1373.1v-7.801h32.502v7.801H1255.431z M1261.032,1424.703h20.801l-6.102-17.501l-4.6-14.9l-4.4,14.9
		L1261.032,1424.703z"/>
	<path fill="#010101" d="M1551.18,1473.906c-2.3,1.3-5.9,2.399-10,2.399c-6.801,0-10.901-4.399-10.901-10.001
		c0-5.8,3.802-10.699,11.102-14.801h-2.601l-6.301-18.102h-26.602l-5.9,18.102h-11.101l24.602-70.004h12.102l25.701,70.004h-0.101
		c-7.9,4.101-11.9,8.2-11.9,13.301c0,3,2.4,4.7,4.801,4.7c2.301,0,4.801-0.9,7.101-2.1L1551.18,1473.906L1551.18,1473.906z
		 M1508.679,1424.703h20.801l-6.101-17.501l-4.601-14.9l-4.399,14.9L1508.679,1424.703z"/>
	<path fill="#010101" d="M52.903,1727.504l-6.301-18.102H20l-5.899,18.102H2.999l24.603-70.004h12.101l25.702,70.004H52.903z
		 M52.203,1641.398c-2.5,6.7-7,9.9-11.399,9.9c-5.501,0-11.501-4.5-14.801-4.5c-1.9,0-3.701,0.9-5.302,4.102l-6-2.802
		c2.601-6.7,7.101-9.899,11.4-9.899c5.5,0,11.601,4.501,14.801,4.501c1.8,0,3.7-0.9,5.301-4.102L52.203,1641.398z M22.802,1700.703
		h20.802l-6.101-17.501l-4.601-14.9l-4.399,14.9L22.802,1700.703z"/>
	<path fill="#010101" d="M306.852,1704.303c-1.899,16.9-12.601,24.701-27.702,24.701c-19.9,0-30.302-14.4-30.302-36.502
		S260.849,1656,279.149,1656c15.103,0,25.803,7.8,27.702,24.701h-12.601c-1.301-11.001-6.501-15.801-15.103-15.801
		c-10.2,0-17.9,9.101-17.9,27.602s6.801,27.603,17.9,27.603c8.602,0,13.802-4.802,15.103-15.802H306.852L306.852,1704.303z
		 M275.551,1652.299h-9.801l13.2-14.101h14.7L275.551,1652.299z"/>
	<path fill="#010101" d="M554.298,1704.303c-1.9,16.9-12.602,24.701-27.702,24.701c-19.901,0-30.302-14.4-30.302-36.502
		S508.295,1656,526.596,1656c15.102,0,25.802,7.8,27.702,24.701h-12.602c-1.301-11.001-6.501-15.801-15.102-15.801
		c-10.2,0-17.901,9.101-17.901,27.602s6.802,27.603,17.901,27.603c8.601,0,13.801-4.802,15.102-15.802H554.298L554.298,1704.303z
		 M530.496,1652.299h-10.602l-14.801-14.101h10.399l9.701,6.601l9.801-6.601h10.4L530.496,1652.299z"/>
	<path fill="#010101" d="M763.042,1745.305c2.198,1,4.398,1.301,6.399,1.301c2.399,0,5.2-1.199,5.2-3.899s-2.801-3.801-5.2-3.801
		c-1.001,0-2.7,0.199-4.001,0.601l-2.1-3.601l5.4-7.302c-16.501-2.3-25.002-16.001-25.002-36.102c0-22.103,12-36.502,30.302-36.502
		c15.102,0,25.802,7.8,27.702,24.701h-12.602c-1.301-11.001-6.501-15.801-15.102-15.801c-10.2,0-17.901,9.101-17.901,27.602
		s6.801,27.602,17.901,27.602c8.601,0,13.801-4.801,15.102-15.801h12.602c-1.9,16.4-12.001,24.201-26.303,24.701l-3.801,5
		c5.701-0.398,11.201,2.2,11.201,8.401c0,6.5-6.102,9.899-12.602,9.899c-2.5,0-4.899-0.3-7.199-1.399v-5.601H763.042z"/>
	<path fill="#010101" d="M1049.188,1704.303c-1.899,16.9-12.601,24.701-27.702,24.701c-19.9,0-30.302-14.4-30.302-36.502
		s12.001-36.502,30.302-36.502c15.103,0,25.803,7.8,27.702,24.701h-12.601c-1.301-11.001-6.501-15.801-15.103-15.801
		c-10.199,0-17.9,9.101-17.9,27.602s6.801,27.603,17.9,27.603c8.602,0,13.802-4.802,15.103-15.802H1049.188L1049.188,1704.303z
		 M1029.888,1652.299l-9.801-6.6l-9.7,6.6h-10.4l14.802-14.101h10.601l14.901,14.101H1029.888z"/>
	<path fill="#010101" d="M1296.635,1704.303c-1.9,16.9-12.601,24.701-27.702,24.701c-19.901,0-30.302-14.4-30.302-36.502
		s12.001-36.502,30.302-36.502c15.102,0,25.802,7.8,27.702,24.701h-12.601c-1.302-11.001-6.502-15.801-15.103-15.801
		c-10.2,0-17.901,9.101-17.901,27.602s6.802,27.603,17.901,27.603c8.601,0,13.801-4.802,15.103-15.802H1296.635L1296.635,1704.303z
		 M1267.532,1651.4c-3.801,0-6.9-2.9-6.9-6.7c0-3.802,3.101-6.701,6.9-6.701c3.899,0,7,2.899,7,6.701
		C1274.532,1648.5,1271.432,1651.4,1267.532,1651.4z"/>
	<path fill="#010101" d="M1489.775,1727.504V1657.5h22.002c21.501,0,35.802,12.9,35.802,35.002s-14.301,35.002-35.802,35.002
		H1489.775L1489.775,1727.504z M1516.978,1652.299h-10.601l-14.802-14.101h10.4l9.7,6.601l9.801-6.601h10.4L1516.978,1652.299z
		 M1511.777,1718.604c13.5,0,23.501-7.601,23.501-26.102s-10.001-26.103-23.501-26.103h-10.4v52.203L1511.777,1718.604
		L1511.777,1718.604z"/>
	<path fill="#010101" d="M10.4,2003.504v-30.302H0v-8.9h10.4V1933.5h22.002c21.501,0,35.802,12.9,35.802,35.002
		s-14.301,35.002-35.802,35.002H10.4z M32.402,1994.604c13.5,0,23.501-7.601,23.501-26.102S45.902,1942.4,32.402,1942.4H22.001v21.9
		h14.701v8.9H22.001v21.4h10.401V1994.604z"/>
	<path fill="#010101" d="M272.364,2003.504V1933.5h41.804v8.9h-30.202v19.801h28.202v8.899h-28.202v23.502h30.202v8.9
		L272.364,2003.504L272.364,2003.504z M291.366,1928.299h-9.802l13.201-14.102h14.701L291.366,1928.299z"/>
	<path fill="#010101" d="M518.928,2003.504V1933.5h41.803v8.9h-30.202v19.801h28.202v8.899h-28.202v23.502h30.202v8.9
		L518.928,2003.504L518.928,2003.504z M555.43,1914.199c0,10.101-6.8,15.102-15.601,15.102c-8.802,0-15.701-5.001-15.701-15.102
		h7.701c0,3.699,2.5,6.601,8,6.601c5.399,0,7.899-2.899,7.899-6.601H555.43z"/>
	<path fill="#010101" d="M765.489,2003.504V1933.5h41.804v8.9h-30.202v19.801h28.202v8.899h-28.202v23.502h30.202v8.9
		L765.489,2003.504L765.489,2003.504z M791.691,1928.299H781.09l-14.801-14.102h10.4l9.7,6.602l9.801-6.602h10.4L791.691,1928.299z"
		/>
	<path fill="#010101" d="M1012.054,2003.504V1933.5h41.803v8.9h-30.202v19.801h28.202v8.899h-28.202v23.502h30.202v8.9
		L1012.054,2003.504L1012.054,2003.504z M1022.055,1927.2c-3.801,0-6.801-2.8-6.801-6.5s3-6.602,6.801-6.602
		c3.7,0,6.7,2.9,6.7,6.602S1025.755,1927.2,1022.055,1927.2z M1043.756,1927.2c-3.801,0-6.801-2.8-6.801-6.5s3-6.602,6.801-6.602
		c3.8,0,6.801,2.9,6.801,6.602S1047.555,1927.2,1043.756,1927.2z"/>
	<path fill="#010101" d="M1258.616,2003.504V1933.5h41.803v8.9h-30.202v19.801h28.202v8.899h-28.202v23.502h30.202v8.9
		L1258.616,2003.504L1258.616,2003.504z M1279.418,1927.4c-3.802,0-6.9-2.9-6.9-6.7c0-3.802,3.101-6.701,6.9-6.701
		c3.898,0,7,2.899,7,6.701C1286.418,1924.5,1283.316,1927.4,1279.418,1927.4z"/>
	<path fill="#010101" d="M1505.179,2003.504V1933.5h41.803v8.9h-30.202v19.801h28.202v8.899h-28.202v23.502h30.202v8.9
		L1505.179,2003.504L1505.179,2003.504z M1525.479,1928.299l-18.102-14.102h14.701l13.199,14.102H1525.479z"/>
	<path fill="#010101" d="M10.4,2279.504V2209.5h41.803v8.9H22.002v19.801h28.201v8.899H22.002v23.502h30.201v8.9L10.4,2279.504
		L10.4,2279.504z M15.001,2201.1v-7.801h32.503v7.801H15.001z"/>
	<path fill="#010101" d="M289.917,2301.906c-2.301,1.3-5.9,2.399-10.001,2.399c-6.801,0-10.9-4.399-10.9-10.001
		c0-5.8,3.8-10.699,11.101-14.801h-32.003V2209.5h41.804v8.9h-30.202v19.801h28.202v8.899h-28.202v23.502h30.202v8.9
		c-7.9,4.101-11.9,8.2-11.9,13.301c0,3,2.399,4.7,4.8,4.7c2.3,0,4.802-0.9,7.102-2.101L289.917,2301.906L289.917,2301.906z"/>
	<path fill="#010101" d="M528.43,2252.803h-15.601v-8.601h26.802v35.302H528.43v-6.7c-4.2,4.601-11.9,8.2-19.001,8.2
		c-17.602,0-27.302-14.102-27.302-36.502c0-22.102,12.001-36.502,30.602-36.502c14.701,0,24.802,7.6,26.902,23.102h-12.602
		c-1.399-9.7-6.101-14.2-14.302-14.2c-10.5,0-18.201,9.101-18.201,27.602c0,18.802,8.102,27.701,18.103,27.701
		c6.101,0,12.101-3.101,15.801-6.8V2252.803z M526.83,2190.199c0,10.101-6.802,15.102-15.603,15.102c-8.8,0-15.7-5.001-15.7-15.102
		h7.7c0,3.699,2.5,6.601,8,6.601c5.4,0,7.9-2.899,7.9-6.601H526.83z"/>
	<path fill="#010101" d="M778.843,2252.803h-15.602v-8.601h26.803v35.302h-11.201v-6.7c-4.2,4.601-11.9,8.2-19.001,8.2
		c-17.601,0-27.302-14.102-27.302-36.502c0-22.102,12.001-36.502,30.602-36.502c14.701,0,24.802,7.6,26.902,23.102h-12.603
		c-1.398-9.7-6.1-14.2-14.301-14.2c-10.5,0-18.201,9.101-18.201,27.602c0,18.802,8.102,27.701,18.103,27.701
		c6.101,0,12.101-3.101,15.801-6.8V2252.803z M771.343,2204.299l-9.801-6.6l-9.701,6.6h-10.4l14.801-14.102h10.602l14.901,14.102
		H771.343z"/>
	<path fill="#010101" d="M1029.256,2252.803h-15.601v-8.601h26.802v35.302h-11.201v-6.7c-4.2,4.601-11.9,8.2-19.001,8.2
		c-17.603,0-27.302-14.102-27.302-36.502c0-22.102,12.001-36.502,30.602-36.502c14.701,0,24.802,7.6,26.902,23.102h-12.602
		c-1.399-9.7-6.101-14.2-14.302-14.2c-10.5,0-18.201,9.101-18.201,27.602c0,18.802,8.102,27.701,18.103,27.701
		c6.101,0,12.101-3.101,15.801-6.8V2252.803L1029.256,2252.803z M1006.653,2304.306l2.001-18.602h10.2l-4.5,18.602H1006.653z"/>
	<path fill="#010101" d="M1279.669,2252.803h-15.602v-8.601h26.803v35.302h-11.201v-6.7c-4.2,4.601-11.9,8.2-19.001,8.2
		c-17.602,0-27.302-14.102-27.302-36.502c0-22.102,12-36.502,30.602-36.502c14.701,0,24.802,7.6,26.902,23.102h-12.603
		c-1.399-9.7-6.1-14.2-14.301-14.2c-10.5,0-18.201,9.101-18.201,27.602c0,18.802,8.101,27.701,18.103,27.701
		c6.101,0,12.101-3.101,15.801-6.8V2252.803z M1262.067,2203.4c-3.801,0-6.899-2.9-6.899-6.7c0-3.802,3.1-6.701,6.899-6.701
		c3.9,0,7,2.899,7,6.701C1269.067,2200.5,1265.969,2203.4,1262.067,2203.4z"/>
	<path fill="#010101" d="M1532.282,2279.504v-30.902h-33.202v30.902h-11.602v-50.703h-7.7v-8.899h7.7v-10.4h11.602v10.4h33.202
		v-10.4h11.601v10.4h7.701v8.899h-7.701v50.703H1532.282z M1532.282,2239.702v-10.9h-33.202v10.9H1532.282z"/>
	<path fill="#010101" d="M55.203,2555.504v-32.402H22.001v32.402H10.4V2485.5h11.601v28.701h33.202V2485.5h11.602v70.004H55.203z
		 M48.304,2480.299l-9.801-6.6l-9.7,6.6h-10.4l14.801-14.102h10.602l14.899,14.102H48.304z"/>
	<path fill="#010101" d="M272.212,2480.299h-9.8l13.199-14.102h14.701L272.212,2480.299z M266.212,2555.504V2485.5h11.601v70.004
		H266.212z"/>
	<path fill="#010101" d="M498.624,2466.199c0,10.101-6.802,15.102-15.602,15.102c-8.801,0-15.701-5.001-15.701-15.102h7.7
		c0,3.699,2.5,6.601,8.001,6.601c5.4,0,7.9-2.899,7.9-6.601H498.624z M477.222,2555.504V2485.5h11.601v70.004H477.222z"/>
	<path fill="#010101" d="M703.835,2480.299l-9.801-6.6l-9.701,6.6h-10.4l14.801-14.102h10.601l14.9,14.102H703.835z
		 M688.232,2555.504V2485.5h11.602v70.004H688.232z"/>
	<path fill="#010101" d="M896.845,2479.2c-3.7,0-6.7-2.8-6.7-6.5s3-6.602,6.7-6.602c3.801,0,6.801,2.9,6.801,6.602
		S900.645,2479.2,896.845,2479.2z M899.245,2555.504V2485.5h11.601v70.004H899.245z M913.146,2479.2c-3.801,0-6.801-2.8-6.801-6.5
		s3-6.602,6.801-6.602c3.7,0,6.801,2.9,6.801,6.602S916.846,2479.2,913.146,2479.2z"/>
	<path fill="#010101" d="M1115.956,2479.4c-3.801,0-6.9-2.9-6.9-6.7c0-3.802,3.101-6.701,6.9-6.701c3.899,0,7.001,2.899,7.001,6.701
		C1122.957,2476.5,1119.855,2479.4,1115.956,2479.4z M1110.256,2555.504V2485.5h11.601v70.004H1110.256z"/>
	<path fill="#010101" d="M1324.167,2480.299l-18.103-14.102h14.701l13.201,14.102H1324.167z M1321.266,2555.504V2485.5h11.601
		v70.004H1321.266z"/>
	<path fill="#010101" d="M1525.477,2477.1v-7.801h25.101v7.801H1525.477z M1532.276,2555.504V2485.5h11.602v70.004H1532.276z"/>
	<path fill="#010101" d="M22.001,2853.906c-2.3,1.3-5.899,2.399-10,2.399c-6.801,0-10.9-4.399-10.9-10.001
		c0-5.8,3.801-10.699,11.101-14.801h-1.8V2761.5h11.602v70.004c-7.9,4.102-11.9,8.2-11.9,13.301c0,3,2.4,4.7,4.8,4.7
		c2.301,0,4.801-0.899,7.102-2.101v6.502H22.001z"/>
	<path fill="#010101" d="M229.812,2745.398c-2.5,6.7-7,9.9-11.399,9.9c-5.501,0-11.501-4.5-14.802-4.5
		c-1.899,0-3.699,0.9-5.301,4.102l-6-2.802c2.6-6.7,7.102-9.899,11.4-9.899c5.5,0,11.601,4.501,14.801,4.501
		c1.8,0,3.7-0.9,5.301-4.102L229.812,2745.398z M205.212,2831.504V2761.5h11.601v70.004H205.212z"/>
	<path fill="#010101" d="M430.225,2761.501h11.501v48.803c0,16.102-11.602,22.701-23.402,22.701c-13.101,0-23.2-6-23.7-24.401
		h12.001c0.399,11.802,4.5,15.701,11.699,15.701c7.602,0,11.901-3.899,11.901-12.001V2761.501z M445.726,2756.299l-9.801-6.6
		l-9.7,6.6h-10.401l14.802-14.102h10.601l14.901,14.102H445.726z"/>
	<path fill="#010101" d="M623.934,2831.504V2761.5h11.602v32.701l24.502-32.701h12.001l-25.002,32.302l28.802,37.702h-14.201
		l-26.102-35.702v35.702H623.934z M638.034,2856.306l2.002-18.602h10.199l-4.5,18.602H638.034z"/>
	<path fill="#010101" d="M859.046,2756.299h-9.801l13.2-14.102h14.701L859.046,2756.299z M853.046,2831.504V2761.5h11.601v61.104
		h27.002v8.9H853.046z"/>
	<path fill="#010101" d="M1071.557,2831.504V2761.5h11.601v61.104h27.002v8.9H1071.557z M1088.759,2773.801v-22.602h9.9l-2.2,22.602
		H1088.759z"/>
	<path fill="#010101" d="M1290.067,2831.504V2761.5h11.602v61.104h27.002v8.9H1290.067z M1301.568,2856.306l2-18.602h10.2
		l-4.5,18.602H1301.568z"/>
	<path fill="#010101" d="M1508.579,2831.504V2761.5h11.601v61.104h27.002v8.9H1508.579z M1534.78,2802.203
		c-4.101,0-7.201-3-7.201-7.2s3.102-7.201,7.201-7.201c4.101,0,7.2,3.001,7.2,7.201S1538.881,2802.203,1534.78,2802.203z"/>
	<path fill="#010101" d="M53.804,3107.504l-33.103-52.903l0.3,14.201v38.702H10.4V3037.5h11.701l33.102,52.902l-0.3-14.2V3037.5
		h10.602v70.004H53.804z M37.103,3032.299h-9.801l13.2-14.102h14.7L37.103,3032.299z"/>
	<path fill="#010101" d="M299.099,3107.504l-33.102-52.903l0.3,14.201v38.702h-10.602V3037.5h11.701l33.103,52.902l-0.301-14.2
		V3037.5H310.8v70.004H299.099z M288.499,3032.299h-10.602l-14.801-14.102h10.4l9.7,6.602l9.802-6.602h10.399L288.499,3032.299z"/>
	<path fill="#010101" d="M544.396,3107.504l-33.102-52.903l0.3,14.201v38.702h-10.6V3037.5h11.7l33.103,52.902l-0.3-14.2V3037.5
		h10.601v70.004H544.396z M521.694,3132.306l2-18.602h10.201l-4.501,18.602H521.694z"/>
	<path fill="#010101" d="M789.691,3107.504l-33.102-52.903l0.3,14.201v38.702h-10.601V3037.5h11.7l33.103,52.902l-0.3-14.2V3037.5
		h10.601v70.004H789.691z M792.593,3021.398c-2.5,6.7-7,9.9-11.4,9.9c-5.5,0-11.501-4.5-14.801-4.5c-1.9,0-3.7,0.9-5.301,4.102
		l-6-2.802c2.6-6.7,7.101-9.899,11.399-9.899c5.501,0,11.602,4.501,14.802,4.501c1.801,0,3.699-0.9,5.301-4.102L792.593,3021.398z"
		/>
	<path fill="#010101" d="M987.886,3072.503c0-22.103,12.601-36.502,32.402-36.502c19.801,0,32.302,14.399,32.302,36.502
		s-12.501,36.502-32.302,36.502C1000.485,3109.004,987.886,3094.604,987.886,3072.503z M1040.289,3072.503
		c0-18.501-8.2-27.603-20.001-27.603c-11.802,0-20.002,9.102-20.002,27.603s8.201,27.603,20.002,27.603
		S1040.289,3091.004,1040.289,3072.503z M1019.388,3032.299h-9.801l13.201-14.102h14.701L1019.388,3032.299z"/>
	<path fill="#010101" d="M1235.382,3072.503c0-22.103,12.601-36.502,32.402-36.502c19.801,0,32.302,14.399,32.302,36.502
		s-12.501,36.502-32.302,36.502C1247.981,3109.004,1235.382,3094.604,1235.382,3072.503z M1287.784,3072.503
		c0-18.501-8.199-27.603-20-27.603c-11.802,0-20.002,9.102-20.002,27.603s8.2,27.603,20.002,27.603
		C1279.585,3100.105,1287.784,3091.004,1287.784,3072.503z M1283.284,3018.199c0,10.101-6.801,15.102-15.602,15.102
		c-8.8,0-15.7-5.001-15.7-15.102h7.7c0,3.699,2.5,6.601,8,6.601c5.4,0,7.9-2.899,7.9-6.601H1283.284z"/>
	<path fill="#010101" d="M1482.879,3072.503c0-22.103,12.601-36.502,32.401-36.502c19.802,0,32.303,14.399,32.303,36.502
		s-12.501,36.502-32.303,36.502C1495.479,3109.004,1482.879,3094.604,1482.879,3072.503z M1535.282,3072.503
		c0-18.501-8.2-27.603-20.002-27.603c-11.801,0-20.002,9.102-20.002,27.603s8.201,27.603,20.002,27.603
		C1527.082,3100.105,1535.282,3091.004,1535.282,3072.503z M1504.38,3031.2c-3.801,0-6.801-2.8-6.801-6.5s3-6.602,6.801-6.602
		c3.699,0,6.701,2.9,6.701,6.602S1508.08,3031.2,1504.38,3031.2z M1526.082,3031.2c-3.802,0-6.802-2.8-6.802-6.5
		s3-6.602,6.802-6.602c3.8,0,6.8,2.9,6.8,6.602S1529.882,3031.2,1526.082,3031.2z"/>
	<path fill="#010101" d="M6.7,3348.503c0-22.103,12.602-36.502,32.402-36.502s32.302,14.399,32.302,36.502
		s-12.501,36.502-32.302,36.502C19.302,3385.004,6.7,3370.604,6.7,3348.503z M59.104,3348.503c0-18.501-8.2-27.603-20.001-27.603
		s-20.002,9.102-20.002,27.603s8.201,27.603,20.002,27.603S59.104,3367.004,59.104,3348.503z M29.503,3308.299h-9.102l10.9-14.102
		h13.701L29.503,3308.299z M48.703,3308.299h-9.101l10.9-14.102h13.7L48.703,3308.299z"/>
	<path fill="#010101" d="M260.914,3348.503c0-22.103,12.601-36.502,32.401-36.502s32.303,14.399,32.303,36.502
		s-12.502,36.502-32.303,36.502C273.514,3385.004,260.914,3370.604,260.914,3348.503z M313.316,3348.503
		c0-18.501-8.2-27.603-20.001-27.603s-20.002,9.102-20.002,27.603s8.201,27.603,20.002,27.603S313.316,3367.004,313.316,3348.503z
		 M277.014,3305.1v-7.801h32.503v7.801H277.014z"/>
	<path fill="#010101" d="M515.127,3348.503c0-22.103,12.601-36.502,32.401-36.502c19.802,0,32.303,14.399,32.303,36.502
		s-12.501,36.502-32.303,36.502C527.727,3385.004,515.127,3370.604,515.127,3348.503z M567.529,3348.503
		c0-18.501-8.199-27.603-20.001-27.603c-11.801,0-20.002,9.102-20.002,27.603s8.201,27.603,20.002,27.603
		C559.33,3376.105,567.529,3367.004,567.529,3348.503z M566.229,3297.398c-2.5,6.7-7.001,9.9-11.4,9.9c-5.5,0-11.5-4.5-14.802-4.5
		c-1.898,0-3.7,0.9-5.3,4.102l-6.001-2.802c2.602-6.7,7.102-9.899,11.401-9.899c5.5,0,11.601,4.501,14.801,4.501
		c1.8,0,3.7-0.9,5.3-4.102L566.229,3297.398z"/>
	<path fill="#010101" d="M810.542,3383.504l-17.2-26.802h-8.701v26.802H773.04V3313.5h22.102c12.9,0,25.401,6.2,25.401,21.602
		c0,11.5-6.9,17.802-15.701,20.302l19.401,28.102L810.542,3383.504L810.542,3383.504z M791.541,3308.299h-9.802l13.201-14.102
		h14.701L791.541,3308.299z M795.141,3348.203c7.7,0,13.601-3.501,13.601-13.103c0-9.399-5.899-12.899-13.601-12.899H784.64v26.002
		H795.141z"/>
	<path fill="#010101" d="M1040.354,3308.299h-10.601l-14.801-14.102h10.4l9.7,6.602l9.801-6.602h10.4L1040.354,3308.299z
		 M1052.654,3383.504l-17.199-26.802h-8.701v26.802h-11.602V3313.5h22.103c12.9,0,25.4,6.2,25.4,21.602
		c0,11.5-6.899,17.802-15.7,20.302l19.4,28.102L1052.654,3383.504L1052.654,3383.504z M1037.255,3348.203
		c7.699,0,13.601-3.501,13.601-13.103c0-9.399-5.899-12.899-13.601-12.899h-10.501v26.002H1037.255z"/>
	<path fill="#010101" d="M1294.769,3383.504l-17.2-26.802h-8.7v26.802h-11.602V3313.5h22.103c12.899,0,25.4,6.2,25.4,21.602
		c0,11.5-6.899,17.802-15.701,20.302l19.401,28.102L1294.769,3383.504L1294.769,3383.504z M1279.368,3348.203
		c7.7,0,13.602-3.501,13.602-13.103c0-9.399-5.9-12.899-13.602-12.899h-10.5v26.002H1279.368z M1272.368,3408.306l2-18.602h10.2
		l-4.5,18.602H1272.368z"/>
	<path fill="#010101" d="M1534.683,3333.502c-0.7-9.301-5.701-12.801-13.802-12.801c-7.4,0-13,3.199-13,10.301
		c0,9.102,8,10.4,16.501,12.2c10.4,2.2,23.201,4.7,23.201,20.002c0,12.801-11.501,21.801-25.103,21.801
		c-16.101,0-26.201-7.301-26.802-22.401h12.101c0.801,10.302,6.602,13.701,14.701,13.701c7.4,0,13.802-3.801,13.802-11.601
		c0-9.102-8.4-10.401-16.901-12.201c-10.4-2.3-22.901-5-22.901-20.201c0-12.301,10.301-20.301,24.401-20.301
		c16.201,0,25.202,7.399,26.002,21.501H1534.683z M1518.782,3308.299h-9.802l13.201-14.102h14.7L1518.782,3308.299z"/>
	<path fill="#010101" d="M45.703,3609.502c-0.699-9.301-5.7-12.801-13.802-12.801c-7.4,0-13,3.199-13,10.301
		c0,9.102,8,10.4,16.501,12.2c10.4,2.2,23.201,4.7,23.201,20.002c0,12.801-11.501,21.801-25.103,21.801
		c-16.101,0-26.2-7.301-26.802-22.401h12.102c0.801,10.302,6.601,13.701,14.7,13.701c7.4,0,13.802-3.801,13.802-11.601
		c0-9.102-8.4-10.401-16.901-12.201c-10.4-2.3-22.901-5-22.901-20.201c0-12.301,10.302-20.301,24.401-20.301
		c16.201,0,25.202,7.399,26.002,21.501H45.703z M36.902,3584.299H26.302L11.5,3570.197h10.4l9.7,6.602l9.801-6.602h10.4
		L36.902,3584.299z"/>
	<path fill="#010101" d="M274.548,3677.305c2.2,1,4.399,1.301,6.399,1.301c2.4,0,5.2-1.199,5.2-3.899s-2.8-3.801-5.2-3.801
		c-1,0-2.699,0.2-4,0.601l-2.1-3.601l5.3-7.2c-13.201-1.3-21.4-8.602-21.9-22.102h12.101c0.8,10.301,6.601,13.7,14.701,13.7
		c7.399,0,13.801-3.801,13.801-11.601c0-9.102-8.399-10.401-16.901-12.201c-10.399-2.3-22.9-5-22.9-20.201
		c0-12.301,10.301-20.301,24.4-20.301c16.201,0,25.202,7.4,26.002,21.501h-12.199c-0.7-9.301-5.701-12.801-13.803-12.801
		c-7.399,0-13,3.2-13,10.301c0,9.101,8,10.399,16.501,12.2c10.4,2.199,23.201,4.699,23.201,20.002
		c0,12.199-10.501,20.899-23.201,21.701l-3.801,5.1c5.7-0.398,11.201,2.2,11.201,8.4c0,6.5-6.101,9.9-12.601,9.9
		c-2.501,0-4.9-0.3-7.201-1.4V3677.305L274.548,3677.305z"/>
	<path fill="#010101" d="M548.796,3609.502c-0.7-9.301-5.701-12.801-13.802-12.801c-7.4,0-13,3.199-13,10.301
		c0,9.102,8,10.4,16.501,12.2c10.399,2.2,23.2,4.7,23.2,20.002c0,12.801-11.501,21.801-25.102,21.801
		c-16.101,0-26.201-7.301-26.802-22.401h12.101c0.801,10.302,6.602,13.701,14.701,13.701c7.4,0,13.801-3.801,13.801-11.601
		c0-9.102-8.399-10.401-16.9-12.201c-10.4-2.3-22.901-5-22.901-20.201c0-12.301,10.301-20.301,24.401-20.301
		c16.2,0,25.201,7.399,26.002,21.501H548.796z M545.495,3584.299l-9.802-6.6l-9.7,6.6h-10.399l14.801-14.102h10.602l14.899,14.102
		H545.495z"/>
	<path fill="#010101" d="M800.343,3609.502c-0.7-9.301-5.701-12.801-13.802-12.801c-7.4,0-13,3.199-13,10.301
		c0,9.102,8,10.4,16.501,12.2c10.399,2.2,23.201,4.7,23.201,20.002c0,12.801-11.502,21.801-25.103,21.801
		c-16.101,0-26.201-7.301-26.802-22.401h12.101c0.802,10.302,6.602,13.701,14.701,13.701c7.4,0,13.801-3.801,13.801-11.601
		c0-9.102-8.399-10.401-16.9-12.201c-10.4-2.3-22.901-5-22.901-20.201c0-12.301,10.301-20.301,24.401-20.301
		c16.2,0,25.202,7.399,26.002,21.501H800.343z M780.44,3684.306l2-18.602h10.2l-4.5,18.602H780.44z"/>
	<path fill="#010101" d="M1027.987,3659.504v-30.302h-12.801v-8.9h12.801v-21.9h-18.802v-8.9h49.203v8.9h-18.801v21.9h13.101v8.9
		h-13.101v30.302H1027.987z"/>
	<path fill="#010101" d="M1273.433,3659.504V3598.4h-18.802v-8.9h49.203v8.9h-18.8v61.104H1273.433z M1284.534,3584.299h-10.602
		l-14.802-14.102h10.401l9.699,6.602l9.801-6.602h10.4L1284.534,3584.299z"/>
	<path fill="#010101" d="M1515.478,3677.305c2.2,1,4.4,1.301,6.4,1.301c2.398,0,5.199-1.199,5.199-3.899s-2.801-3.801-5.199-3.801
		c-1,0-2.7,0.2-4.001,0.601l-2.101-3.601l6.302-8.4h-3.2v-61.104h-18.802v-8.9h49.202v8.9h-18.801v61.104h-1.5l-4.899,6.5
		c5.699-0.398,11.199,2.2,11.199,8.401c0,6.5-6.101,9.899-12.601,9.899c-2.5,0-4.9-0.3-7.2-1.399L1515.478,3677.305
		L1515.478,3677.305z"/>
	<path fill="#010101" d="M23.803,3935.504V3874.4H5v-8.9h49.203v8.9H35.402v61.104H23.803z M22.501,3960.307l2-18.603h10.201
		l-4.5,18.603H22.501z"/>
	<path fill="#010101" d="M287.782,3865.501h10.502v45.002c0,17.103-10.701,26.502-27.303,26.502s-27.702-8.399-27.702-24.501
		v-47.003h11.602v45.002c0,11.301,4.301,17.603,16.102,17.603c11.802,0,16.802-6.302,16.802-15.602v-47.003H287.782z
		 M269.281,3860.299h-9.801l13.201-14.102h14.7L269.281,3860.299z"/>
	<path fill="#010101" d="M536.964,3865.501h10.5v45.002c0,17.103-10.7,26.502-27.301,26.502c-16.603,0-27.702-8.399-27.702-24.501
		v-47.003h11.601v45.002c0,11.301,4.301,17.603,16.103,17.603c11.801,0,16.801-6.302,16.801-15.602L536.964,3865.501
		L536.964,3865.501z M535.562,3846.199c0,10.101-6.8,15.102-15.601,15.102s-15.701-5.001-15.701-15.102h7.7
		c0,3.699,2.5,6.601,8.001,6.601c5.399,0,7.899-2.899,7.899-6.601H535.562z"/>
	<path fill="#010101" d="M786.143,3865.501h10.5v45.002c0,17.103-10.7,26.502-27.301,26.502c-16.603,0-27.702-8.399-27.702-24.501
		v-47.003h11.601v45.002c0,11.301,4.302,17.603,16.103,17.603s16.801-6.302,16.801-15.602L786.143,3865.501L786.143,3865.501z
		 M778.942,3860.299l-9.801-6.6l-9.701,6.6h-10.399l14.801-14.102h10.601l14.901,14.102H778.942z"/>
	<path fill="#010101" d="M1035.323,3865.501h10.502v45.002c0,17.103-10.701,26.502-27.303,26.502s-27.702-8.399-27.702-24.501
		v-47.003h11.602v45.002c0,11.301,4.301,17.603,16.102,17.603c11.802,0,16.802-6.302,16.802-15.602v-47.003H1035.323z
		 M1007.423,3859.2c-3.801,0-6.801-2.8-6.801-6.5s3-6.602,6.801-6.602c3.7,0,6.7,2.9,6.7,6.602S1011.123,3859.2,1007.423,3859.2z
		 M1029.124,3859.2c-3.802,0-6.802-2.8-6.802-6.5s3-6.602,6.802-6.602c3.8,0,6.8,2.9,6.8,6.602S1032.924,3859.2,1029.124,3859.2z"/>
	<path fill="#010101" d="M1284.504,3865.501h10.501v45.002c0,17.103-10.701,26.502-27.303,26.502s-27.701-8.399-27.701-24.501
		v-47.003h11.601v45.002c0,11.301,4.301,17.603,16.103,17.603c11.801,0,16.801-6.302,16.801-15.602L1284.504,3865.501
		L1284.504,3865.501z M1268.803,3860.299l-18.101-14.102h14.699l13.201,14.102H1268.803z"/>
	<path fill="#010101" d="M1533.684,3865.501h10.5v45.002c0,17.103-10.7,26.502-27.301,26.502c-16.603,0-27.702-8.399-27.702-24.501
		v-47.003h11.601v45.002c0,11.301,4.302,17.603,16.103,17.603s16.801-6.302,16.801-15.602L1533.684,3865.501L1533.684,3865.501z
		 M1507.182,3860.299h-9.101l10.9-14.102h13.7L1507.182,3860.299z M1526.384,3860.299h-9.102l10.901-14.102h13.7L1526.384,3860.299z
		"/>
	<path fill="#010101" d="M53.903,4141.501h10.501v45.002c0,17.103-10.701,26.502-27.302,26.502
		c-16.603,0-27.702-8.399-27.702-24.501v-47.003h11.601v45.002c0,11.301,4.302,17.603,16.103,17.603s16.801-6.301,16.801-15.602
		L53.903,4141.501L53.903,4141.501z M20.602,4133.1v-7.801h32.502v7.801H20.602z"/>
	<path fill="#010101" d="M282.434,4233.906c-2.301,1.299-5.899,2.399-10.001,2.399c-6.8,0-10.9-4.399-10.9-10.001
		c0-5.2,2.9-9.602,8.7-13.4c-15.301-0.699-25.4-9-25.4-24.4v-47.003h11.601v45.002c0,11.301,4.301,17.603,16.103,17.603
		c11.801,0,16.801-6.301,16.801-15.602v-47.003h10.5v45.002c0,13.801-6.9,22.603-18.301,25.401c-7.302,4-11.001,8-11.001,12.9
		c0,3,2.399,4.7,4.801,4.7c2.3,0,4.8-0.899,7.101-2.101v6.502H282.434z"/>
	<path fill="#010101" d="M524.764,4141.501h10.5v45.002c0,17.103-10.7,26.502-27.301,26.502c-16.603,0-27.702-8.399-27.702-24.501
		v-47.003h11.601v45.002c0,11.301,4.302,17.603,16.103,17.603s16.801-6.301,16.801-15.602L524.764,4141.501L524.764,4141.501z
		 M507.663,4139.3c-6.5,0-11.7-3.801-11.7-9.901c0-6.1,5.2-9.899,11.7-9.899c6.601,0,11.801,3.801,11.801,9.899
		C519.464,4135.5,514.263,4139.3,507.663,4139.3z M511.062,4128.199c-0.8-2.301-2.6-2.899-4.6-2.199c-2.102,0.6-2.9,2.299-2.102,4.6
		c0.7,2.2,2.602,2.9,4.602,2.2S511.763,4130.4,511.062,4128.199z"/>
	<path fill="#010101" d="M760.194,4141.501h10.501v45.002c0,17.103-10.7,26.502-27.302,26.502s-27.702-8.399-27.702-24.501v-47.003
		h11.602v45.002c0,11.301,4.301,17.603,16.102,17.603s16.801-6.301,16.801-15.602L760.194,4141.501L760.194,4141.501z
		 M761.995,4125.398c-2.5,6.701-7,9.9-11.4,9.9c-5.5,0-11.501-4.5-14.801-4.5c-1.9,0-3.7,0.9-5.302,4.102l-6-2.801
		c2.601-6.701,7.102-9.9,11.4-9.9c5.5,0,11.601,4.501,14.801,4.501c1.802,0,3.7-0.899,5.302-4.101L761.995,4125.398z"/>
	<path fill="#010101" d="M1005.325,4211.504l-11.102-40.104l-3.7-15.101l-3.6,15.101l-10.801,40.104h-12.103L944.72,4141.5h12.4
		l10.4,41.502l3.399,14.9l3.501-14.9l10.801-41.502h12l11.201,41.502l3.6,15.201l3.2-15.201l9.501-41.502h10.9l-18.201,70.004
		H1005.325z M988.624,4136.299h-9.801l13.2-14.102h14.701L988.624,4136.299z"/>
	<path fill="#010101" d="M1263.154,4211.504l-11.101-40.104l-3.7-15.101l-3.6,15.101l-10.801,40.104h-12.103l-19.301-70.004h12.4
		l10.4,41.502l3.399,14.9l3.501-14.9l10.801-41.502h12l11.201,41.502l3.6,15.201l3.2-15.201l9.501-41.502h10.9l-18.201,70.004
		H1263.154z M1257.755,4136.299l-9.801-6.6l-9.7,6.6h-10.4l14.801-14.102h10.602l14.9,14.102H1257.755z"/>
	<path fill="#010101" d="M1520.983,4211.504l-11.101-40.104l-3.7-15.101l-3.601,15.101l-10.8,40.104h-12.103l-19.301-70.004h12.399
		l10.401,41.502l3.4,14.9l3.5-14.9l10.801-41.502h12l11.201,41.502l3.6,15.201l3.2-15.201l9.501-41.502h10.899l-18.2,70.004
		H1520.983z M1494.883,4135.199c-3.8,0-6.8-2.799-6.8-6.5c0-3.699,3-6.601,6.8-6.601c3.7,0,6.7,2.899,6.7,6.601
		S1498.583,4135.199,1494.883,4135.199z M1516.584,4135.199c-3.8,0-6.8-2.799-6.8-6.5c0-3.699,3-6.601,6.8-6.601
		c3.801,0,6.801,2.899,6.801,6.601S1520.385,4135.199,1516.584,4135.199z"/>
	<path fill="#010101" d="M63.604,4487.504L52.503,4447.4l-3.7-15.101l-3.601,15.101l-10.801,40.104H22.3L2.998,4417.5h12.4
		l10.401,41.502l3.398,14.9l3.501-14.9L43.5,4417.5h12l11.201,41.502l3.601,15.201l3.2-15.201l9.501-41.502h10.899l-18.201,70.004
		H63.604z M50.004,4412.299l-18.103-14.102h14.701l13.201,14.102H50.004z"/>
	<path fill="#010101" d="M297.53,4487.504v-25.502l-22.2-44.502h12.501l16.501,35.302l15.501-35.302h10.601l-21.302,44.502v25.502
		H297.53z M301.632,4412.299h-9.801l13.199-14.102h14.701L301.632,4412.299z"/>
	<path fill="#010101" d="M535.462,4487.504v-25.502l-22.201-44.502h12.501l16.501,35.302l15.501-35.302h10.601l-21.302,44.502
		v25.502H535.462z M550.562,4412.299l-9.801-6.6l-9.7,6.6h-10.399l14.801-14.102h10.601l14.901,14.102H550.562z"/>
	<path fill="#010101" d="M773.392,4487.504v-25.502L751.19,4417.5h12.501l16.501,35.302l15.501-35.302h10.602l-21.303,44.502v25.502
		H773.392z M767.892,4411.199c-3.801,0-6.801-2.799-6.801-6.5c0-3.699,3-6.601,6.801-6.601c3.7,0,6.7,2.899,6.7,6.601
		S771.593,4411.199,767.892,4411.199z M789.594,4411.199c-3.801,0-6.801-2.799-6.801-6.5c0-3.699,3-6.601,6.801-6.601
		c3.8,0,6.8,2.899,6.8,6.601S793.393,4411.199,789.594,4411.199z"/>
	<path fill="#010101" d="M1011.322,4487.504v-25.502l-22.2-44.502h12.5l16.502,35.302l15.5-35.302h10.602l-21.302,44.502v25.502
		H1011.322z M1017.924,4412.299l-18.103-14.102h14.701l13.201,14.102H1017.924z"/>
	<path fill="#010101" d="M1228.651,4487.504v-8.9l33.104-52.203h-32.402v-8.899h45.403v8.899l-33.104,52.203h33.104v8.9H1228.651z
		 M1251.653,4411.4c-3.801,0-6.899-2.9-6.899-6.701s3.1-6.701,6.899-6.701c3.9,0,7,2.9,7,6.701S1255.555,4411.4,1251.653,4411.4z"/>
	<path fill="#010101" d="M1505.084,4487.504v-18.102h-23.201l-11.701,18.102h-12.7l47.003-70.004h42.502v8.9h-30.302v19.801h28.302
		v8.899h-28.302v23.502h30.302v8.899h-41.902V4487.504z M1487.482,4460.703h17.602v-27.802l-8.102,13.101L1487.482,4460.703z
		 M1516.984,4412.299h-9.801l13.2-14.102h14.701L1516.984,4412.299z"/>
</g>
</svg>
