<?xml version="1.0" encoding="utf-8"?>
<!-- Generator: Adobe Illustrator 16.0.3, SVG Export Plug-In . SVG Version: 6.00 Build 0)  -->
<!DOCTYPE svg PUBLIC "-//W3C//DTD SVG 1.1//EN" "http://www.w3.org/Graphics/SVG/1.1/DTD/svg11.dtd">
<svg version="1.1" id="Layer_1" xmlns="http://www.w3.org/2000/svg" xmlns:xlink="http://www.w3.org/1999/xlink" x="0px" y="0px"
	 width="1540.28px" height="597.104px" viewBox="226.467 191.397 1540.28 597.104"
	 enable-background="new 226.467 191.397 1540.28 597.104" xml:space="preserve">
<g>
	<path fill="#231F20" d="M239.168,219.199l12.701,21.701l-1.501,0.899l-23.901-23.802v-1.6l23.901-23.802l1.501,0.899
		l-12.701,21.701h38.902v4h-38.902V219.199z"/>
	<path fill="#231F20" d="M471.852,240.9l12.601-21.701H445.65v-4h38.803l-12.601-21.701l1.5-0.899l23.901,23.802v1.6l-23.901,23.8
		L471.852,240.9z"/>
	<path fill="#231F20" d="M713.136,216.798l-21.702-12.601V243h-4v-38.803l-21.701,12.601l-0.9-1.5l23.803-23.9h1.601l23.801,23.9
		L713.136,216.798z"/>
	<path fill="#231F20" d="M908.217,230.299l21.702-12.699l0.898,1.5L907.016,243h-1.6l-23.803-23.9l0.9-1.5l21.701,12.699v-38.901h4
		L908.217,230.299L908.217,230.299z"/>
	<path fill="#231F20" d="M1136.6,200.098l-24.202,6.5L1139.8,234.1l-2.801,2.699l-27.4-27.401l-6.501,24.302l-1.7-0.4v-33.802
		l1.101-1.1h33.803L1136.6,200.098z"/>
	<path fill="#231F20" d="M1310.882,198.398h33.802l1.1,1.1V233.3l-1.7,0.4l-6.5-24.302l-27.4,27.401l-2.801-2.699l27.401-27.502
		l-24.202-6.5L1310.882,198.398z"/>
	<path fill="#231F20" d="M1519.562,235.2l24.202-6.5l-27.402-27.502l2.801-2.8l27.401,27.501l6.5-24.301l1.7,0.398V235.7l-1.1,1.101
		h-33.803L1519.562,235.2z"/>
	<path fill="#231F20" d="M1739.346,228.7l24.201,6.5l-0.301,1.601h-33.802l-1.1-1.101v-33.702l1.698-0.398l6.502,24.301l27.4-27.501
		l2.801,2.8L1739.346,228.7z"/>
	<path fill="#231F20" d="M239.168,495.199l12.701,21.701l-1.501,0.9l-23.901-23.803v-1.6l23.901-23.802l1.501,0.899l-12.701,21.701
		h84.905v4h-84.905V495.199z"/>
	<path fill="#231F20" d="M572.118,516.9l12.602-21.701h-84.807v-4h84.807l-12.602-21.701l1.5-0.899l23.901,23.802v1.601
		l-23.901,23.8L572.118,516.9z"/>
	<path fill="#231F20" d="M787.462,484.198l17.001,27.402l-1.5,0.899l-29.604-29.502v-1.601l29.604-29.502l1.5,0.9l-16.803,27.4
		h46.203v4h-46.401V484.198z"/>
	<path fill="#231F20" d="M1039.107,511.6l16.9-27.402h-46.304v-4h46.203l-16.801-27.4l1.5-0.9l29.603,29.502v1.602l-29.603,29.501
		L1039.107,511.6z"/>
	<path fill="#231F20" d="M1305.757,483.098l-27.502-16.901V512.5h-3.9v-46.201l-27.401,16.801l-0.899-1.5l29.502-29.603h1.5
		l29.603,29.603L1305.757,483.098z"/>
	<path fill="#231F20" d="M1514.701,498.5l27.502-17.002l0.9,1.4l-29.603,29.602h-1.5l-29.502-29.602l0.899-1.4l27.401,16.901
		v-46.402h3.899V498.5H1514.701z"/>
	<path fill="#231F20" d="M1765.35,461.997l-31.402,7.602l32.803,32.702l-2.899,2.8l-32.702-32.701l-7.501,31.201l-1.699-0.399
		v-41.803l1.101-1h41.901L1765.35,461.997z"/>
	<path fill="#231F20" d="M228.268,736.397h41.901l1.101,1V779.2l-1.7,0.399l-7.6-31.302l-32.702,32.802l-2.802-2.8l32.702-32.702
		l-31.302-7.602L228.268,736.397z"/>
	<path fill="#231F20" d="M435.666,779.399l31.303-7.4l-32.702-32.802l2.801-2.8l32.702,32.802l7.6-31.401l1.7,0.399V780l-1.1,1.101
		h-41.902L435.666,779.399z"/>
	<path fill="#231F20" d="M657.065,772l31.402,7.399l-0.4,1.7h-41.902l-1.101-1.1v-41.804l1.7-0.399l7.501,31.303l32.702-32.702
		l2.898,2.8L657.065,772z"/>
	<path fill="#231F20" d="M863.966,760.198l17.001,27.402l-1.5,0.898l-29.604-29.501v-1.601l29.604-29.502l1.5,0.9l-16.803,27.4
		h101.207v4H863.966V760.198z"/>
	<path fill="#231F20" d="M1209.768,787.6l16.9-27.402h-101.307v-4h101.206l-16.801-27.4l1.5-0.9l29.603,29.502V759l-29.603,29.502
		L1209.768,787.6z"/>
</g>
</svg>
