<?xml version="1.0" encoding="utf-8"?>
<!-- Generator: Adobe Illustrator 16.0.3, SVG Export Plug-In . SVG Version: 6.00 Build 0)  -->
<!DOCTYPE svg PUBLIC "-//W3C//DTD SVG 1.1//EN" "http://www.w3.org/Graphics/SVG/1.1/DTD/svg11.dtd">
<svg version="1.1" id="Layer_1" xmlns="http://www.w3.org/2000/svg" xmlns:xlink="http://www.w3.org/1999/xlink" x="0px" y="0px"
	 width="1544.981px" height="1464.205px" viewBox="224.167 164.296 1544.981 1464.205"
	 enable-background="new 224.167 164.296 1544.981 1464.205" xml:space="preserve">
<g>
	<path fill="#231F20" d="M227.367,222.699h1.5c4.102,8.7,9.001,13.4,14.201,14.501v-26.201c-8.301-4.602-17.302-9.4-17.302-19.401
		c0-11.001,8.801-16.601,17.302-17.701v-9.601h4.5v9.399c4.2,0.102,8.9,0.802,15.101,2.9v13.601h-1.5
		c-4.3-8.101-8.601-11.699-13.601-12.5v23.401c8.501,4.8,17.901,10.101,17.901,20.801c0,11.501-9.102,17.802-17.901,19.001v9.701
		h-4.5v-9.399c-5.001-0.2-10.801-1.2-15.701-3.701V222.699L227.367,222.699z M243.068,198.498v-20.802
		c-4.7,0.699-8.701,4-8.701,9.602C234.367,192.197,238.168,195.498,243.068,198.498z M247.568,213.699V237.3
		c5.399-0.801,9.399-4.9,9.399-11.101C256.969,220.599,252.769,216.899,247.568,213.699z"/>
	<path fill="#231F20" d="M446.064,250.601V241c-9.4-1.2-16.001-8.501-16.001-20.303c0-11,6.7-19.801,16.001-22.001v-10.001h4.601
		v9.4h0.101c4,0,9.501,0.801,14.001,4.101l-4.7,9.102h-1.5c-2.601-4.602-5.2-7.7-7.899-9.001v31.002c0.5,0.101,1,0.101,1.6,0.101
		c3.7,0,8.9-1.7,11.301-5.399l1.5,0.899c-3.2,8.101-8.899,11.5-14.399,12.2v9.501H446.064L446.064,250.601z M446.064,231.7v-29.902
		c-3.9,1.001-6.801,5.701-6.801,13.802C439.264,223.899,442.064,229.2,446.064,231.7z"/>
	<path fill="#231F20" d="M630.361,239.6v-1.5c9.2-6.301,12.4-13.9,12.4-19.201c0-3.199-1.2-6.399-2.7-9.601h-10.601v-3.7h8.699
		c-2.1-4.301-4.1-8.801-4.1-13.901c0-9.399,7.9-18.001,22.301-18.001c4.9,0,10.701,0.802,17.302,3.102v15.101h-1.601
		c-5.601-10.7-10.7-14.399-16.801-14.399c-6.501,0-10.9,4.699-10.9,11c0,5.399,3.399,11.201,5.9,17.102h18.201v3.7H651.66
		c0.602,2.1,1.102,4.2,1.102,6.301c0,5.399-5.102,10.602-10.001,14.7v0.5h16.4c6.102,0,9.602-0.399,13.9-8.7h1.5V239.6H630.361z"/>
	<path fill="#231F20" d="M875.462,225.799v4.8c0,4.501,1.199,5.801,10.5,7.501v1.5H854.26v-1.5c9.3-1.7,10.5-3,10.5-7.501v-4.8
		h-16.2v-3.7h16.2v-8.101h-16.2v-3.7h14.101l-15.102-26.002c-2.199-3.9-4.1-5.8-9-7.5v-1.5h26.302v1.5c-6.7,1.7-6.399,3.7-4.301,7.5
		l12.501,23.302h0.7l9.399-19.901c3.102-6.399,2.4-9.199-4.3-10.899v-1.5h20.4v1.5c-4.7,1.7-8.5,4.601-11.9,11.501l-10.899,22.001
		h14.801v3.7h-15.801v8.101h15.801v3.7L875.462,225.799L875.462,225.799z"/>
	<path fill="#231F20" d="M1082.558,209.298h-14.001v-3.7h14.001v-13.201c0-10.5,8-18.701,19.701-18.701c3.899,0,7.5,0.5,13.101,2.7
		v12.801h-1.5c-5-8.801-9.101-11.699-12.9-11.699c-5.399,0-7.7,3.699-7.7,10v18.102h14.001v3.7h-14.001V222.6
		c0,10.4-8,18.603-19.701,18.603c-3.9,0-7.5-0.501-13.102-2.7V225.7h1.5c5.001,8.8,9.102,11.699,12.901,11.699
		c5.4,0,7.7-3.699,7.7-10.001V209.298L1082.558,209.298z"/>
	<path fill="#231F20" d="M1296.154,217.699c2.4,8.699,7.9,15.2,17.701,15.2c6.801,0,12.101-2.699,15.901-6.301l1.3,1.3
		c-5,8.901-12.701,13.303-21.001,13.303c-12.102,0-23.302-7.401-26.402-23.502h-6.699v-3.7h6.101c-0.2-1.9-0.3-3.9-0.3-6v-2.001
		h-5.801v-3.7h6.101c2.399-17.4,15.501-28.603,29.102-28.603c4.602,0,10.201,0.602,17.103,3.2v15.301h-1.602
		c-5.601-10.699-10.399-14.699-16.5-14.699c-9.2,0-15.401,10.199-16.302,24.801h21.401v3.7h-21.502v0.101c0,2.7,0.2,5.4,0.601,7.9
		h20.901v3.699L1296.154,217.699L1296.154,217.699z"/>
	<path fill="#231F20" d="M1501.351,239.6v-64.304h15.899c19.603,0,24.103,9.801,15.701,46.202h-2.1
		c1-35.502-2.601-37.401-18.401-37.401h-6.501V239.6H1501.351z M1515.552,239.6v-44.303h4.601v35.502h7.4
		c15.9,0,19.501-2.399,18.501-55.503h2.101c8.4,51.103,3.8,64.304-15.801,64.304H1515.552L1515.552,239.6z"/>
	<path fill="#231F20" d="M1724.146,249.201l4.9-15.401c-5.4-5.399-8.9-13.9-8.9-25.801c0-20.002,13.401-33.402,27.902-34.202
		l3-9.501l4.399,1.399l-2.601,8.102c2,0.199,4.2,0.5,6.5,1l3.301-10.501l4.4,1.399l-3.302,10.2c0.9,0.3,1.802,0.7,2.802,1v15.301
		h-1.5c-1.501-2.699-2.9-5-4.2-6.899l-15.001,47.304c1.6,0.5,3.399,0.699,5.4,0.699c6.699,0,12-2.899,15.899-6.7l1.301,1.3
		c-5,8.901-12.802,13.303-21.002,13.303c-1.5,0-2.899-0.102-4.3-0.302l-3.001,9.701l-4.398-1.399l2.898-9.4
		c-2-0.7-4-1.601-5.8-2.801l-4.301,13.602L1724.146,249.201z M1733.647,219.099l13.201-41.402
		c-9.102,1.199-15.103,12.7-15.103,28.401C1731.747,210.598,1732.348,215.098,1733.647,219.099z M1741.648,230.5l15.601-49.403
		c-1.8-1.7-3.699-2.7-5.699-3.2l-15.001,47.304C1737.947,227.299,1739.647,229.2,1741.648,230.5z"/>
	<path fill="#231F20" d="M243.769,524.3l12.2-18.201v-16.4c0-5.801-2-9.399-6.801-9.399c-4.201,0-7.801,3.398-7.801,10.899V515.6
		h-10.101v-29.502c0-4.7-1-4.9-6.102-4.9v-1.5l14.602-5h1.601v6.602h0.601c2.399-4.2,7.001-7.201,12.101-7.201
		c4.701,0,9.401,2.601,11.102,8.101h0.699c2.602-4.5,6.801-7.399,11.301-8l6.4-9.501l3.5,2.2l-5.1,7.602
		c4.899,1.3,8.699,5.5,8.699,13.101v28H280.67v-25.901c0-4-1-6.899-3.198-8.399L265.97,498.6v17h-10.001v-1.9l-8.602,12.901
		L243.769,524.3z M265.97,491.098l7.101-10.7C269.27,480.798,265.97,484.098,265.97,491.098z"/>
	<path fill="#231F20" d="M537.483,516.8l-21.301-28.402h-19.201v14.802c0,7.2,3.3,9.2,11,10.9v1.5H482.48v-1.5
		c6.6-1.7,9.9-3.7,9.9-10.9v-14.802h-11v-3.7h11.001v-8.1h-11.001v-3.7h11.001v-9.201c0-7.2-3.302-9.2-9.9-10.899v-1.5h18.801
		l16.001,21.602h18.501v-9.201c0-7.2-3.399-9.2-11.101-10.899v-1.5h24.802v1.5c-5.801,1.699-9.101,3.699-9.101,10.899v9.201h10.601
		v3.7h-10.601v8.1h10.601v3.7h-10.601V516.8H537.483z M496.681,462.996l0.101,9.901h7.9l-7.4-9.901H496.681z M496.981,484.698
		h16.501l-6.101-8.1h-10.501l0.101,6.2V484.698z M525.982,484.698h9.901l-0.102-7.3v-0.8h-15.801L525.982,484.698z M535.885,488.398
		h-7.102l6.602,8.901h0.698L535.885,488.398z"/>
	<path fill="#231F20" d="M766.797,515.6l-22.202-27.502v-1.5c14.301,0,19.502-7.602,19.502-16.602c0-1.101-0.102-2.199-0.301-3.301
		h-27.103v-3.7h26.202c-2.101-5.199-6.801-8-13.602-8h-12.602v-3.699h45.403v3.699h-15.201c3.5,2,6.2,4.602,7.601,8h7.602v3.7
		h-6.701c0.102,0.7,0.2,1.4,0.2,2.102c0,11.899-10,17.601-21.301,19.001l25.802,26.302v1.5H766.797z"/>
	<path fill="#231F20" d="M1032.11,516.8l-10.101-29.103h-13.201l-9.101,29.103h-2.801l-9.801-29.103h-19.401v-3.801h18.103l-2.7-8
		h-15.401v-3.7h14.201l-4-11.9c-1.501-4.2-2.101-5.801-9.101-7.5v-1.5h27.4v1.5c-7.301,1.699-7.899,3.3-6.601,7.5l3.5,11.9h16.802
		l6.9-21.9h2.898l7.501,21.9h17.302l2.5-8.501c2-6.8,0.199-9.2-7.102-10.899v-1.5h22.603v1.5
		c-5.602,1.699-8.801,4.199-11.102,11.501l-2.5,7.899h15.102v3.7h-16.301l-2.5,8h18.801v3.801h-20.001l-9.102,29.103H1032.11z
		 M996.607,483.898h9.603l2.5-8h-14.502L996.607,483.898z M1001.708,498.299l3.302-10.602h-7.201l3.2,10.602H1001.708z
		 M1010.01,483.898h10.7l-2.801-8h-5.3L1010.01,483.898z M1013.71,472.198h2.899l-1.101-3.301h-0.7L1013.71,472.198z
		 M1031.21,483.898h9.802l2.399-8h-15.001L1031.21,483.898z M1036.811,498.299l3.1-10.602h-7.399l3.601,10.602H1036.811z"/>
	<path fill="#231F20" d="M1280.021,506.599h-1.5v-6.2h-0.7c-2.898,4.4-7.5,6.801-12.699,6.801c-9.002,0-17.103-6.601-17.103-20.001
		c0-14.001,9.801-23.102,21.901-23.102c1.899,0,5.301,0.398,8.601,2v-8.102h-12.7v-3.699h12.7v-1.801c0-4.601-1.1-4.801-6.2-4.801
		v-1.6l14.701-5.001h1.5v13.201h8v3.699h-8v37.202c0,4.602,1.1,4.801,6.2,4.801v1.601L1280.021,506.599z M1250.021,515.6v-3.7
		h44.603v3.7H1250.021z M1278.521,490.998v-17.601c-2.6-4.601-6.3-6.101-9.3-6.101c-6.701,0-10.801,6.399-10.801,17.101
		c0,8.501,2.699,16.602,10.601,16.602C1274.423,500.999,1278.521,497.698,1278.521,490.998z"/>
	<path fill="#231F20" d="M1505.534,526.601V517.1c-13.201-1.3-24.502-11.7-24.502-33.103c0-18.4,11.401-31.201,24.502-33.803v-9.899
		h4.601v9.399h0.301c4.6,0,10.2,0.602,17.001,3.2v15.301h-1.5c-5.4-10.3-10.101-14.399-15.802-14.7v55.304
		c0.601,0.101,1.301,0.101,2.001,0.101c6.699,0,12-2.7,15.899-6.301l1.301,1.3c-4.7,8.301-11.7,12.603-19.201,13.201v9.501H1505.534
		L1505.534,526.601z M1505.534,507.699v-53.503c-7.801,2.7-12.501,13.5-12.501,27.901
		C1493.033,493.298,1496.533,504.199,1505.534,507.699z"/>
	<path fill="#231F20" d="M1755.147,499.899c-3.601,2.9-8.301,4.601-13.401,4.601c-5.1,0-9.8-1.601-13.399-4.601l-8.4,8.501
		l-3.101-3.101l8.399-8.4c-2.898-3.601-4.6-8.2-4.6-13.601c0-5.302,1.7-9.9,4.6-13.501l-8.399-8.501l3.101-3.101l8.4,8.5
		c3.601-2.898,8.301-4.6,13.399-4.6c5.102,0,9.802,1.7,13.401,4.6l8.5-8.5l3.101,3.101l-8.5,8.501
		c2.801,3.601,4.601,8.199,4.601,13.501c0,5.3-1.7,9.899-4.601,13.501l8.5,8.5l-3.101,3.101L1755.147,499.899z M1758.447,483.298
		c0-10.201-7.399-17.401-16.701-17.401c-9.3,0-16.699,7.2-16.699,17.401c0,10.199,7.399,17.399,16.699,17.399
		C1751.048,500.698,1758.447,493.498,1758.447,483.298z"/>
	<path fill="#231F20" d="M228.467,790.9l6.502-17.101h-9.502v-3.7h10.901l8.2-21.302h-12.102v-3.7h13.502l7.3-18.801l4.301,1.699
		l-6.601,17.102h20.602l7.3-18.801l4.301,1.699l-6.601,17.102h10.601v3.7H275.17l-8.199,21.302h13.199v3.7h-14.601l-7.2,18.801
		l-4.301-1.7l6.501-17.101h-20.603l-7.199,18.801L228.467,790.9z M241.368,770.099h20.603l8.199-21.302h-20.602L241.368,770.099z"/>
	<path fill="#231F20" d="M452.379,774.698h1.601c4.101,8.9,9.9,13.603,16.101,14.501v-26.302c-9.3-4.6-19.2-9.4-19.2-19.301
		c0-11.201,9.301-16.701,19.2-17.701v-9.602h4.602v9.4c5.2,0.102,10.7,0.801,17.101,2.9v13.601h-1.6
		c-4.3-8.2-9.501-11.801-15.501-12.5v23.701c9.399,4.7,19.801,9.9,19.801,20.501c0,11.701-9.601,18.001-19.801,19.102v9.602h-4.602
		v-9.4c-5.899-0.2-12.699-1.2-17.7-3.701L452.379,774.698L452.379,774.698z M470.079,750.997v-21.4
		c-6.1,0.601-10.699,3.899-10.699,9.701C459.38,744.397,464.079,747.797,470.079,750.997z M474.68,765.298V789.3
		c6.899-0.7,11.301-4.802,11.301-11.102C485.98,772.399,480.881,768.599,474.68,765.298z"/>
	<path fill="#231F20" d="M682.691,802.601v-9.602c-10.4-1-18.001-8.399-18.001-20.302c0-11.101,7.7-20.001,18.001-22.102v-9.9h4.6
		v9.4h0.102c5.101,0,11.399,0.801,16.001,4.101l-4.7,9.102h-1.601c-2.7-5-6.101-8.2-9.802-9.302v31.303
		c0.5,0.101,1.001,0.101,1.602,0.101c4.7,0,10.801-1.7,13.201-5.4l1.6,0.9c-3.3,8.3-9.9,11.602-16.401,12.2v9.501H682.691z
		 M682.691,784.1v-30.303c-5.001,0.801-8.801,5.501-8.801,13.802C673.891,776.499,677.592,781.799,682.691,784.1z"/>
	<path fill="#231F20" d="M901.902,777.799v4.8c0,4.501,1.2,5.801,10.501,7.501v1.5h-31.603v-1.5c9.301-1.7,10.501-3,10.501-7.501
		v-4.8H875.1v-3.7h16.201v-8.102H875.1v-3.699h14.4l-13.4-26.002c-2.101-4-3.5-5.801-8.4-7.5v-1.5h25.302v1.5
		c-6,1.699-5.699,3.5-4,7.5l10.5,23.302h0.7l8.102-19.901c2.601-6.7,2-9.2-3.9-10.899v-1.5h19.302v1.5
		c-4.601,1.699-8.2,4.5-11.301,11.501l-9.601,22.001h14.899v3.699h-15.801v8.102h15.801v3.7L901.902,777.799L901.902,777.799z"/>
	<path fill="#231F20" d="M1101.913,761.298h-14.001v-3.7h14.001v-13.201c0-10.5,7.9-18.701,18.603-18.701c4,0,6.601,0.5,12.101,2.7
		v12.801h-1.5c-4.899-8.801-8.101-11.7-11.899-11.7c-4.302,0-6.701,3.7-6.701,10v18.103h14.001v3.7h-14.001V774.6
		c0,10.4-7.9,18.602-18.602,18.602c-4,0-6.601-0.501-12.101-2.699v-12.803h1.5c4.9,8.8,8.101,11.7,11.9,11.7
		c4.301,0,6.699-3.7,6.699-10.001V761.298z"/>
	<path fill="#231F20" d="M1312.425,769.698c2.101,8.7,7.001,15.201,15.602,15.201c6.7,0,11.7-2.7,15.501-6.301l1.3,1.3
		c-5,8.901-12.399,13.302-20.602,13.302c-10.801,0-21.201-7.4-24.201-23.502h-6.601v-3.7h6.101c-0.2-1.899-0.3-3.899-0.3-6v-2.001
		h-5.802v-3.699h6.102c2.3-17.4,14.701-28.603,27.4-28.603c4.602,0,9.201,0.602,16.103,3.2v15.301h-1.601
		c-5.602-10.7-9.4-14.7-15.501-14.7c-8.2,0-13.802,10.2-14.602,24.802h18.701v3.699h-18.802v0.102c0,2.7,0.2,5.4,0.601,7.9h18.201
		v3.699H1312.425L1312.425,769.698z"/>
	<path fill="#231F20" d="M1506.934,791.6v-64.304h12.601c19.603,0,24.103,9.801,15.701,46.201h-2.1c1-35.502-2.602-37.4-18.401-37.4
		h-3.301V791.6H1506.934z M1519.435,791.6v-44.303h4.601v35.502h4.801c15.9,0,19.701-2.399,18.701-55.503h2
		c8.399,51.103,3.699,64.304-15.9,64.304H1519.435L1519.435,791.6z"/>
	<path fill="#231F20" d="M1721.047,801.2l5.3-16.801c-4.5-5.4-7.3-13.501-7.3-24.401c0-19.502,12.5-32.701,25.9-34.103l3-9.602
		l4.4,1.4l-2.601,8.102c2.101,0.1,4.199,0.398,6.601,0.898l3.301-10.4l4.3,1.4l-3.3,10.2c0.899,0.3,1.899,0.601,2.899,1v15.301
		h-1.601c-1.5-2.8-2.899-5.2-4.199-7.1l-14.901,47.103c1.7,0.7,3.601,1.101,5.7,1.101c6.701,0,11.701-2.899,15.501-6.7l1.301,1.3
		c-5.001,8.901-12.401,13.302-20.602,13.302c-1.601,0-3.102-0.199-4.602-0.501l-3.1,9.901l-4.4-1.4l3.1-9.699
		c-2-0.9-3.898-2.002-5.699-3.4l-4.601,14.501L1721.047,801.2z M1731.646,767.698l12.001-37.803
		c-7.801,2.2-12.901,13.301-12.901,28.202C1730.746,761.398,1730.946,764.598,1731.646,767.698z M1738.847,781.699l15.501-48.803
		c-1.8-1.801-3.7-2.801-5.801-3.2l-14.4,45.502C1735.347,777.799,1736.847,779.999,1738.847,781.699z"/>
	<path fill="#231F20" d="M236.168,1076.499l11.7-21.5v-14.302c0-5.399-0.7-8.399-4.7-8.399c-3.5,0-5.699,3.398-5.699,9.3v26.002
		h-9.302v-29.502c0-4.7-1.1-4.9-4.2-4.9v-1.5l12.002-5h1.5v5.4h0.699c2.4-4.101,5.5-6.001,9.602-6.001c4.399,0,7.7,2.001,8.7,6.9
		h0.699c1.5-2.899,3.602-4.899,5.9-5.9l5.5-10.2l3.7,2l-4,7.301c5.2,0.3,8.601,3.9,8.601,12.001v29.401h-9.399v-26.901
		c0-4.301-0.4-7.201-2.7-8.101l-7.602,14.101v20.901h-9.301v-3.7l-8,14.701L236.168,1076.499z M257.769,1036.798l1.601-3
		C258.669,1034.598,258.169,1035.499,257.769,1036.798z"/>
	<path fill="#231F20" d="M475.595,1058.599h-1.5v-6.2h-0.7c-2.801,4.4-7.501,6.801-12.701,6.801c-9,0-17.101-6.601-17.101-20.001
		c0-14.001,9.801-23.102,21.9-23.102c1.9,0,5.301,0.398,8.602,2v-8.102h-12.701v-3.699h12.701v-1.801c0-4.601-1-4.801-6.2-4.801
		v-1.6l14.7-5.001h1.5v13.201h8.001v3.7h-8.001v37.201c0,4.602,1.101,4.802,6.201,4.802v1.6L475.595,1058.599z M445.594,1067.6v-3.7
		h44.703v3.7H445.594z M474.095,1042.999v-17.602c-2.602-4.601-6.2-6.101-9.201-6.101c-6.8,0-10.9,6.399-10.9,17.101
		c0,8.501,2.801,16.603,10.602,16.603C469.994,1052.999,474.095,1049.698,474.095,1042.999z"/>
	<path fill="#231F20" d="M696.62,1067.6l-21.301-32.402h-0.7v23.401c0,4.501,1.2,5.801,7.8,7.501v1.5h-26.2v-1.5
		c6.601-1.7,7.801-3,7.801-7.501v-24.301h-8.701v-3.7h8.701v-18.302c0-4.5-1.2-5.801-7.801-7.5v-1.5h25.602v1.5
		c-6,1.699-7.2,3-7.2,7.5v18.302h0.7l13-15.301c4.602-5.501,6.602-8.802,0-10.501v-1.5h20.302v1.5
		c-6,1.6-10.601,5.899-15.301,11.199l-11.501,12.603l1.2,2h23.701v3.7h-21.103l24.202,31.802v1.5H696.62z"/>
	<path fill="#231F20" d="M882.245,1067.6v-1.5c9.301-1.7,10.5-3,10.5-7.501v-13l-11.301,5.8l-1.699-3.3l13-6.7v-8.301l-11.899,6.101
		l-1.602-3.399l13.501-7.001v-21.802h-2.898c-5.501,0-10.001,1.2-15.303,14.602h-1.5v-18.301h50.004v18.301h-1.5
		c-5.301-13.4-9.801-14.602-15.302-14.602h-2.899v16.4l11.301-5.9l1.7,3.4l-13.001,6.7v8.301l11.801-6.101l1.7,3.301l-13.501,7
		v18.501c0,4.501,1.2,5.801,10.501,7.501v1.5H882.245z"/>
	<path fill="#231F20" d="M1132.572,1030.497c-3.7,7.802-12.399,11.602-23.001,11.602h-3.199v16.501c0,4.501,1.198,5.801,10.5,7.501
		v1.5h-29.603v-1.5c7.301-1.7,8.501-3,8.501-7.501v-28.103h-9.701v-3.699h9.701v-8h-9.701v-3.7h9.701v-2.801
		c0-4.5-1.2-5.801-8.501-7.5v-1.5h23.201c10.101,0,19.401,3.699,22.602,11.801h7.802v3.7h-6.802c0.2,1,0.301,2,0.301,3
		c0,1.8-0.199,3.5-0.601,5h7.102v3.699H1132.572L1132.572,1030.497z M1106.371,1015.097h15.602c-2.102-5.2-6.602-8.102-12.701-8.102
		h-2.899L1106.371,1015.097L1106.371,1015.097z M1122.972,1018.797h-16.601v8h16.601c0.2-1.301,0.3-2.7,0.3-4.2
		C1123.271,1021.297,1123.173,1019.997,1122.972,1018.797z M1110.672,1038.398c5.301,0,9.301-2.899,11.2-7.9h-15.5v7.9H1110.672z"/>
	<path fill="#231F20" d="M1342.397,1051.899c-3.601,2.9-8.301,4.601-13.401,4.601c-5.1,0-9.8-1.601-13.399-4.601l-8.4,8.501
		l-3.101-3.101l8.399-8.4c-2.898-3.601-4.6-8.2-4.6-13.601c0-5.301,1.7-9.9,4.6-13.501l-8.399-8.501l3.101-3.101l8.4,8.5
		c3.601-2.898,8.301-4.6,13.399-4.6c5.102,0,9.802,1.7,13.401,4.6l8.5-8.5l3.101,3.101l-8.5,8.501
		c2.801,3.601,4.601,8.2,4.601,13.501c0,5.3-1.7,9.899-4.601,13.501l8.5,8.5l-3.101,3.101L1342.397,1051.899z M1345.697,1035.298
		c0-10.201-7.399-17.401-16.701-17.401c-9.3,0-16.699,7.2-16.699,17.401c0,10.199,7.399,17.399,16.699,17.399
		C1338.298,1052.698,1345.697,1045.499,1345.697,1035.298z"/>
	<path fill="#231F20" d="M1519.721,1066.9l6.5-17.101h-8.9v-3.7h10.301l8.2-21.302h-11.501v-3.7h12.901l7.3-18.801l4.301,1.699
		l-6.601,17.102h14.701l7.3-18.801l4.301,1.699l-6.601,17.102h10.001v3.7h-11.401l-8.2,21.302h12.602v3.7h-14.001l-7.2,18.801
		l-4.3-1.7l6.5-17.101h-14.701l-7.2,18.801L1519.721,1066.9z M1532.621,1046.099h14.701l8.2-21.302h-14.701L1532.621,1046.099z"/>
	<path fill="#231F20" d="M1735.847,1054.599h1.7c3.399,6.601,7.101,10.4,11.301,11.301v-19.301
		c-6.801-3.801-14.401-7.801-14.401-16.302c0-8.5,7.201-13,14.401-13.9v-7.5h4v7.3c3.801,0.102,7.4,0.7,12.201,2v11.102h-1.602
		c-3.6-6.2-6.8-9-10.601-9.7v17.602c6.801,3.899,14.603,8.3,14.603,16.9c0,8.801-7.201,13.701-14.603,14.801v7.601h-4v-7.3
		c-4.4-0.101-8.801-0.7-13.001-2.399L1735.847,1054.599L1735.847,1054.599z M1748.848,1034.798v-15.201
		c-3.5,0.6-6.301,3.101-6.301,7.101C1742.548,1029.997,1745.247,1032.497,1748.848,1034.798z M1752.848,1048.999v16.802
		c3.9-0.802,6.501-3.802,6.501-8.001C1759.349,1053.999,1756.549,1051.299,1752.848,1048.999z"/>
	<path fill="#231F20" d="M226.768,1343.6v-1.5c7.5-5,9.399-10.201,9.399-14.301c0-2.602-1-5.001-2.199-7.602h-7.802v-3h6.302
		c-1.501-3.101-2.9-6.501-2.9-10.201c0-7.3,6.101-14.801,18.201-14.801c4.7,0,9.301,0.9,14.101,2.4v11.7h-1.5
		c-4.5-7.7-8.7-10.9-13.601-10.9c-4.2,0-7.602,3-7.602,7.7c0,4.501,3,9.2,4.801,14.102h13.602v3h-12.602
		c0.301,1.3,0.501,2.5,0.501,3.8c0,4.2-3.9,8.102-7.501,11.001v0.7h11.2c4.899,0,8-0.5,12-7.001h1.5v14.901L226.768,1343.6
		L226.768,1343.6z"/>
	<path fill="#231F20" d="M439.323,1343.6v-1.5c7.4-1.3,8.4-2.3,8.4-6.4v-2.2h-13.001v-3h13.001v-6.399h-13.001v-3.101h11.101
		l-12.001-19.401c-2.2-3.5-3.7-5-7.7-6.3v-1.5h23.201v1.5c-5.601,1.3-5.399,2.8-3.3,6.3l9.301,16.102h0.699l6.701-13.2
		c2.7-5.2,2.2-7.9-3.4-9.2v-1.5h17.801v1.5c-4.5,1.3-7.699,4.3-10.899,10.399L458.124,1321h12.4v3.101h-12.801v6.4h12.801v3h-12.801
		v2.199c0,4.102,1.101,5.102,8.399,6.4v1.5L439.323,1343.6L439.323,1343.6z"/>
	<path fill="#231F20" d="M665.979,1320.798v8.101c0,10.901-8.4,16.302-17.102,16.302c-2.7,0-6.4-0.199-11.102-1.899V1332.6h1.5
		c4,6.899,7.501,9.399,10.501,9.399c3.9,0,6.2-2.698,6.2-7.899v-13.302h-11.9v-3.1h11.9v-9.201c0-10.899,8.4-16.301,17.102-16.301
		c2.7,0,6.5,0.2,11.102,1.9v10.699h-1.5c-4.001-6.899-7.501-9.399-10.501-9.399c-3.801,0-6.2,2.7-6.2,7.899v14.401h11.9v3.1
		L665.979,1320.798L665.979,1320.798z"/>
	<path fill="#231F20" d="M876.832,1329.599c0.101-2.6,0.101-4.9,0.101-7c0-20.002-3.602-20.901-14.801-20.901h-5.602v41.902h-4
		v-49.803h13.501c10.7,0,15.9,3.6,15.9,15.001c0,5.199-1.101,12-3.2,20.801H876.832z M864.031,1343.6v-34.302h3.899v26.4h6.301
		c10.9,0,14.9-1.3,14.9-31.802c0-3.101,0-6.4-0.101-10.101h1.9c2.1,12.301,3.2,21.701,3.2,28.9c0,16.103-5.301,20.901-16.103,20.901
		h-13.998V1343.6z"/>
	<path fill="#231F20" d="M1065.184,1350.999l3.8-11.5c-4.5-4.301-7.399-11-7.399-20.401c0-15.801,11.2-26.201,23.002-26.801
		l2.398-7.201l3.9,1.301l-2,6c1.601,0.1,3.301,0.3,5,0.7l2.699-8.001l3.802,1.301l-2.602,7.8l1.802,0.7v12.001h-1.501
		c-1-1.8-2-3.4-3-4.7l-11.802,35.502c1.302,0.3,2.7,0.5,4.2,0.5c5.601,0,9.601-2.601,12.401-5.399l1.199,1
		c-3.899,7.899-10.4,11.4-17.302,11.4c-1,0-2-0.101-2.898-0.199l-2.4,7.199l-3.801-1.199l2.2-6.9c-1.601-0.5-3-1.1-4.5-2
		l-3.301,10.101L1065.184,1350.999z M1073.284,1326.399l10.2-30.901c-7.301,1-11.2,9.4-11.2,22.102
		C1072.284,1320.698,1072.585,1323.698,1073.284,1326.399z M1079.585,1335.999l12.5-37.502c-1.399-1.301-2.8-2.199-4.3-2.699
		l-12.001,36.201C1076.784,1333.599,1078.085,1334.999,1079.585,1335.999z"/>
	<path fill="#231F20" d="M1281.939,1350.2l7.9-11.501v-15.801c0-3.899-1.2-6.399-4.7-6.399c-3.102,0-5.7,2.399-5.7,7.199v19.901
		h-9.601v-22.701c0-3.9-1.102-4-4.602-4v-1.4l12.802-4.301h1.399v5.4h0.7c2-3.5,5.6-5.9,9.9-5.9c3.699,0,7.3,2,8.699,6.4h0.7
		c2.2-3.399,5.5-5.9,9.4-6.3l5.101-7.4l3,1.898l-4,5.802c3.7,1.1,6.4,4.399,6.4,10.301v22.201h-9.602v-20.701
		c0-2.2-0.399-3.9-1.399-5l-8.801,12.9v12.801h-8.801l-5.801,8.501L1281.939,1350.2z M1299.54,1324.499l5.4-8
		c-3,0.1-5.4,2.5-5.4,7.199V1324.499z"/>
	<path fill="#231F20" d="M1537.595,1344.4l-8.602-23.201h-9l-7.601,23.201h-3.4l-8.301-23.201h-14.801v-3.101h13.701l-2.2-6.4
		h-11.501v-3.1h10.4l-2.5-7.001c-1.399-3.8-2-5-7.301-6.3v-1.5h23.401v1.5c-5.9,1.3-6.101,2.399-4.801,6.3l2.2,7.001h13.399
		l4.9-15.103h3.501l5.6,15.103h13.901l1.2-4.101c1.6-5.602-0.102-7.9-6.002-9.2v-1.5h19.201v1.5c-4.199,1.2-7.399,3.6-9.3,9.301
		l-1.301,4h11.301v3.1h-12.301l-2,6.4h14.301v3.101h-15.301l-7.301,23.201H1537.595L1537.595,1344.4z M1510.294,1318.098h7.301
		l2.1-6.4h-11.4L1510.294,1318.098z M1514.294,1328.399l2.301-7.2h-5.301l2.301,7.2H1514.294z M1520.994,1318.098h6.801l-2.301-6.4
		h-2.399L1520.994,1318.098z M1538.195,1318.098h7.5l1.9-6.4h-11.802L1538.195,1318.098z M1542.595,1328.399l2.101-7.2h-5.4l2.7,7.2
		H1542.595z"/>
	<path fill="#231F20" d="M1734.146,1343.6v-1.5c6.9-1.3,7.9-2.3,7.9-6.4v-8.101l-8.501,4.3l-1.399-2.8l9.9-5v-6.501l-9.4,4.7
		l-1.5-2.801l10.9-5.399v-17.102h-2.5c-4.602,0-8.4,1.2-13.001,11.602h-1.5v-14.802h44.103v14.802h-1.6
		c-4.4-10.4-8.302-11.602-12.802-11.602h-2.699v12.102l8.699-4.4l1.4,2.8l-10.101,5.102v6.5l9.601-4.899l1.399,2.8l-11,5.602v13.101
		c0,4.101,1.1,5.101,7.899,6.4v1.5h-25.8V1343.6z"/>
	<path fill="#231F20" d="M263.369,1591.499c-3.1,5.8-10.399,8.801-19.901,8.801h-2v11.399c0,4.102,1,5.102,8.4,6.4v1.5h-25.201v-1.5
		c5.801-1.3,6.801-2.3,6.801-6.4v-20.2h-7.301v-3.102h7.301v-6.4h-7.301v-3h7.301v-1.3c0-4.101-1-5.101-6.801-6.399v-1.5h19.701
		c9.102,0,16.701,3.1,19.401,9.199h6.3v3h-5.3c0.1,0.9,0.2,1.7,0.2,2.602c0,1.398-0.2,2.6-0.5,3.8h5.6v3.101H263.369
		L263.369,1591.499z M241.469,1578.997h11.7c-1.699-3.899-5.101-6.101-9.7-6.101h-2V1578.997z M253.969,1581.997h-12.502v6.4h12.502
		c0.199-1,0.3-2.1,0.3-3.3C254.269,1583.997,254.169,1582.997,253.969,1581.997z M244.269,1597.198c3.898,0,7.1-2,8.7-5.699h-11.502
		v5.699H244.269z"/>
	<path fill="#231F20" d="M446.169,1628.499v-8.899h-20.401v-1.5c5.801-1.3,6.801-2.3,6.801-6.4v-34.002c0-4.101-1-5.101-6.801-6.399
		v-1.5h20.401v-8.9h4v9c9.899,0.601,17.2,4,17.2,11.801c0,5.4-3.399,9.501-10.199,11.501v0.601
		c8.8,1.399,13.301,5.501,13.301,11.501c0,9.699-8.401,14.001-20.302,14.301v8.899h-4V1628.499z M446.169,1592.398v-19.501h-0.5
		h-3.102v19.501H446.169z M446.169,1616.499V1595.6h-3.602v20.899H446.169z M450.169,1573.497v18.502
		c3.801-1.102,6.399-4.2,6.399-9.302C456.568,1577.898,454.169,1574.797,450.169,1573.497z M450.169,1595.698v20.801
		c5.601-0.198,9.601-4.3,9.601-10.601C459.769,1599.999,456.17,1596.198,450.169,1595.698z"/>
	<path fill="#231F20" d="M658.567,1606.399c-2.9,2.2-6.5,3.4-10.601,3.4c-4,0-7.7-1.2-10.602-3.4l-6.601,6.601l-2.7-2.6l6.701-6.601
		c-2.301-2.7-3.7-6.302-3.7-10.4c0-4.001,1.399-7.601,3.7-10.401l-6.701-6.6l2.7-2.601l6.601,6.601c2.9-2.101,6.602-3.4,10.602-3.4
		s7.7,1.301,10.601,3.5l6.7-6.699l2.7,2.601l-6.8,6.601c2.3,2.801,3.699,6.399,3.699,10.4c0,4.1-1.399,7.7-3.601,10.4l6.7,6.601
		l-2.7,2.601L658.567,1606.399z M661.067,1593.399c0-7.801-5.8-13.001-13.101-13.001c-7.302,0-13.102,5.2-13.102,13.001
		c0,7.8,5.8,13,13.102,13C655.267,1606.399,661.067,1601.198,661.067,1593.399z"/>
	<path fill="#231F20" d="M829.365,1618.999l5.102-13h-7.501v-3.2h8.701l6.5-16.302h-9.602v-3.199h10.801l5.7-14.303l3.9,1.502
		l-5.102,12.801h15.701l5.7-14.303l3.9,1.502l-5.102,12.801h8.301v3.199h-9.501l-6.5,16.302h10.4v3.2h-11.7l-5.7,14.399
		l-3.801-1.399l5.102-13h-15.802l-5.701,14.399L829.365,1618.999z M840.167,1602.799h15.7l6.5-16.302h-15.7L840.167,1602.799z"/>
</g>
</svg>
