<?xml version="1.0" encoding="utf-8"?>
<!-- Generator: Adobe Illustrator 16.0.3, SVG Export Plug-In . SVG Version: 6.00 Build 0)  -->
<!DOCTYPE svg PUBLIC "-//W3C//DTD SVG 1.1//EN" "http://www.w3.org/Graphics/SVG/1.1/DTD/svg11.dtd">
<svg version="1.1" id="Layer_1" xmlns="http://www.w3.org/2000/svg" xmlns:xlink="http://www.w3.org/1999/xlink" x="0px" y="0px"
	 width="1552.284px" height="4784.905px" viewBox="219.867 168.495 1552.284 4784.905"
	 enable-background="new 219.867 168.495 1552.284 4784.905" xml:space="preserve">
<g>
	<path fill="#231F20" d="M265.67,235.1c-2.101,3.1-5.801,6.101-10.101,6.101c-3.4,0-7.501-1.7-8.301-7.801h-0.7
		c-2.8,5-7.9,7.801-13.101,7.801c-4.802,0-9.002-2.899-9.002-7.901c0-4.6,4-6.8,22.803-13.301v-6c0-5.801-2.801-8.601-8.001-8.601
		c-4.601,0-9.802,2.2-13.302,6.2l-1.398-1.101c3.8-6.2,11.601-12.4,20.201-12.4c6.399,0,12.5,3.101,12.5,12.4V230.5
		c0,3,0.801,5,3.301,5c1.3,0,2.7-0.6,4-1.6L265.67,235.1z M247.269,226.5V223c-11.701,4.2-13.001,6.3-13.001,8.5
		s1.699,3.5,4.199,3.5C241.969,235,247.269,231.799,247.269,226.5z"/>
	<path fill="#231F20" d="M471.865,240.6h-1.601v-6.2h-0.601c-2.899,4.399-7.601,6.801-12.801,6.801
		c-9.001,0-17.001-6.601-17.001-20.002c0-14.001,9.801-23.102,21.802-23.102c2.7,0,8.4,0.801,12.602,4.601l4.899-3h1.601
		l-0.4,11.001V229.2c0,4.6,1.001,4.8,6.102,4.8v1.602L471.865,240.6z M470.265,225v-17.802c-2.601-4.5-6.3-5.9-9.2-5.9
		c-6.801,0-10.801,6.4-10.801,17.103c0,8.5,2.7,16.601,10.501,16.601C466.165,235,470.265,231.7,470.265,225z"/>
	<path fill="#231F20" d="M671.261,236.7l-5,2.9h-1.5l0.398-11.001v-48.104c0-4.601-1-4.801-6.2-4.801v-1.6l14.701-5h1.5v35.802h0.7
		c2.9-4.4,7.5-6.801,12.701-6.801c9,0,17.101,6.501,17.101,20.002c0,13.899-9.801,23.102-21.9,23.102
		C680.963,241.201,675.361,240.4,671.261,236.7z M675.161,231.9c2.602,4.7,6.302,6.1,9.302,6.1c6.8,0,10.801-6.5,10.801-17.2
		c0-8.4-2.7-16.501-10.602-16.501c-5.301,0-9.501,3.2-9.501,10V231.9L675.161,231.9z"/>
	<path fill="#231F20" d="M917.76,228.9c-3.601,9.1-10.302,12.301-16.4,12.301c-10.701,0-18.602-7.701-18.602-20.502
		s9.101-22.602,20.7-22.602c4,0,9.501,0.801,14.001,4.101l-4.699,9.101h-1.5c-3.5-6.301-7.001-9.699-10.901-9.699
		c-4.7,0-8.4,4.8-8.4,14.001c0,12.199,6.201,17.801,13.001,17.801c3.7,0,8.9-1.7,11.302-5.4L917.76,228.9z"/>
	<path fill="#231F20" d="M1125.156,240.6h-1.5v-6.2h-0.7c-2.898,4.399-7.5,6.801-12.699,6.801c-9.001,0-17.103-6.601-17.103-20.002
		c0-14.001,9.802-23.102,21.901-23.102c1.9,0,5.301,0.399,8.601,2.001v-19.603c0-4.601-1.1-4.801-6.2-4.801v-1.6l14.701-5h1.5V229.2
		c0,4.6,1.101,4.8,6.2,4.8v1.602L1125.156,240.6z M1123.656,225v-17.602c-2.6-4.601-6.3-6.102-9.3-6.102
		c-6.701,0-10.801,6.4-10.801,17.103c0,8.5,2.699,16.601,10.601,16.601C1119.557,235,1123.656,231.7,1123.656,225z"/>
	<path fill="#231F20" d="M1350.055,228.9c-3.6,9.1-10.301,12.301-16.4,12.301c-10.701,0-18.602-7.701-18.602-20.502
		s8.601-22.602,19.701-22.602c7.601,0,15.701,4.199,15.101,14.802h-25.501c-0.101,0.898-0.101,1.8-0.101,2.7
		c0,12.199,6.2,17.801,13.001,17.801c3.699,0,8.899-1.7,11.301-5.4L1350.055,228.9z M1324.754,209.898h14.802
		c0.1-5.7-3.001-8.8-6.4-8.8C1328.153,201.098,1325.653,205.098,1324.754,209.898z"/>
	<path fill="#231F20" d="M1525.55,239.6v-1.5c5.601-1.4,6.199-2.5,6.199-5.802v-29.602h-7.199v-3h7.199l-2.1-8.501
		c-4-16.9,8.4-22.701,16.701-22.701c4.1,0,9.8,0.602,15.7,4.602l-4.7,9.399h-1.6c-3.9-6.601-7.9-10.801-11.9-10.801
		c-4.001,0-8.401,2.9-6.201,11.901l4.101,16.101h13.201v3h-13.201v29.602c0,3.302,0.4,4.4,8,5.802v1.5H1525.55L1525.55,239.6z"/>
	<path fill="#231F20" d="M1745.749,227.599c-1.7,0-3.301-0.101-4.9-0.399l-3.3,3.3c21.801,1.9,31.2,6.102,31.2,15.001
		c0,11.302-13.5,17.501-24.9,17.501c-10.602,0-18.301-3.899-18.301-11.199c0-5.4,5.199-10.602,13.301-13.501
		c-2.9-0.5-6.2-1-9.801-1.4l-0.801-1.5l9.302-9.2c-5.501-2.101-9.302-6.399-9.302-12.701c0-9.399,9.2-15.4,18.501-15.4
		c3.9,0,7.7,0.899,10.602,2.501l6.301-9.501h1.6l4.2,7.101l-9.5,4.2c2.7,2.399,4.4,5.601,4.4,9.7
		C1764.35,221.499,1755.05,227.599,1745.749,227.599z M1742.249,238.9c-5.302,2.7-7.302,7.801-7.302,10.701
		c0,6.6,5.802,9.8,12.001,9.8c7.102,0,13.301-3.8,13.301-8.8C1760.249,245.8,1755.849,241.701,1742.249,238.9z M1753.948,214.699
		c0-5.7-2.199-13.601-8.399-13.601c-4.602,0-7.102,4.1-7.102,9.899c0,5.7,2.302,13.501,8.4,13.501
		C1751.55,224.5,1753.948,220.499,1753.948,214.699z"/>
	<path fill="#231F20" d="M253.969,510.4c-2.9,4.4-7.602,6.801-12.802,6.801c-9.001,0-17.001-6.601-17.001-20.002
		c0-14.001,9.801-23.102,21.803-23.102c2.698,0,8.399,0.801,12.601,4.601l4.9-3h1.6l-0.399,11.001V506.2
		c2.301,4.101,4.101,9.5,4.101,13.4c0,13.301-11.7,19.401-21.901,19.401c-7,0-15.399-1.9-20.501-6l4.7-9.302h1.601
		c3.5,6.302,9.101,11.9,15.7,11.9c6.801,0,11.501-4.1,11.501-10.801c0-4.101-1.6-9.5-5.301-14.4L253.969,510.4L253.969,510.4z
		 M254.568,501v-17.802c-2.601-4.5-6.3-5.899-9.2-5.899c-6.801,0-10.801,6.399-10.801,17.102c0,8.5,2.7,16.602,10.501,16.602
		C250.469,511,254.568,507.7,254.568,501z"/>
	<path fill="#231F20" d="M473.81,515.6v-1.5c5.601-1.4,5.7-2.5,5.7-5.801v-18.201c0-5.8-2.4-9.8-7.9-9.8
		c-5.399,0-9.601,3.8-9.601,11.5V508.3c0,3.301,0.1,4.399,5.601,5.801v1.5h-21.802v-1.5c5.5-1.4,6.101-2.5,6.101-5.801v-51.804
		c0-4.601-1-4.801-6.101-4.801v-1.6l14.601-5h1.602v36.802h0.6c2.7-4.7,7.701-7.801,13.901-7.801c7.2,0,13.001,4.601,13.001,13.9
		v20.302c0,3.301,0.6,4.399,6.2,5.801v1.5L473.81,515.6L473.81,515.6z"/>
	<path fill="#231F20" d="M674.348,515.6v-1.5c5.5-1.4,6.101-2.5,6.101-5.801v-22.201c0-4.7-1-4.9-6.101-4.9v-1.5l14.601-5h1.602
		v33.603c0,3.301,0.6,4.399,6.101,5.801v1.5L674.348,515.6L674.348,515.6z M678.948,460.797c0-3.301,2.601-6.101,6.2-6.101
		c3.601,0,6.101,2.8,6.101,6.101c0,3.399-2.5,6.2-6.101,6.2S678.948,464.197,678.948,460.797z"/>
	<path fill="#231F20" d="M872.787,538.002c6.001-5,6.602-11.602,6.602-21.103v-30.802c0-4.7-1-4.9-6.101-4.9v-1.5l14.602-5h1.6
		V512.9c0,12.4-6.1,20.802-15.301,26.502L872.787,538.002z M877.888,460.797c0-3.301,2.601-6.101,6.2-6.101
		c3.601,0,6.101,2.8,6.101,6.101c0,3.399-2.5,6.2-6.101,6.2C880.488,466.998,877.888,464.197,877.888,460.797z"/>
	<path fill="#231F20" d="M1065.526,526.301h1.5c2.602,6.001,6.102,9.501,9.7,9.501c2.601,0,5.001-1.7,5.001-6.602
		c0-3.1-1.102-7.3-4.301-12.899v-30.202c0-4.7-1-4.9-6.102-4.9v-1.5l14.603-5h1.6v40.603c1.5,3.3,2.5,6.8,2.5,10.101
		c0,9.5-8.2,13.602-14.801,13.602c-3.9,0-9.5-1.101-13.7-4.602L1065.526,526.301z M1075.927,460.797c0-3.301,2.601-6.101,6.2-6.101
		c3.601,0,6.101,2.8,6.101,6.101c0,3.399-2.5,6.2-6.101,6.2C1078.527,466.998,1075.927,464.197,1075.927,460.797z"/>
	<path fill="#231F20" d="M1313.769,477.198c-6.301,2.2-9.9,4.602-13.501,8.102l-6.3,6.2l21.701,22.602v1.5h-12.302l-17.201-20.901
		v13.602c0,3.301,0.601,4.399,6.102,5.801v1.5h-22.302v-1.5c5.5-1.4,6.101-2.5,6.101-5.801v-51.804c0-4.601-1-4.801-6.101-4.801
		v-1.6l14.601-5h1.601V494.7l10.302-10.399c3.1-3.102,2.898-5.4-1.302-7.102v-1.5h18.603L1313.769,477.198L1313.769,477.198z"/>
	<path fill="#231F20" d="M1492.506,515.6v-1.5c5.5-1.4,6.101-2.5,6.101-5.801v-51.804c0-4.601-1-4.801-6.101-4.801v-1.6l14.601-5
		h1.601v63.203c0,3.301,0.601,4.399,6.102,5.801v1.5L1492.506,515.6L1492.506,515.6z"/>
	<path fill="#231F20" d="M1747.447,515.6v-1.5c5.4-1.4,5.501-2.5,5.501-5.801v-18.201c0-5.8-1.801-9.8-7.399-9.8
		c-5.602,0-9.102,3.8-9.102,11.301v16.7c0,3.301,0.2,4.399,5.7,5.801v1.5h-21.201v-1.5c5.3-1.4,5.4-2.5,5.4-5.801v-18.201
		c0-5.8-1.7-9.8-7.201-9.8c-5.3,0-9.5,3.8-9.5,11.301v16.7c0,3.301,0.1,4.399,5.4,5.801v1.5h-21.603v-1.5
		c5.5-1.4,6.101-2.5,6.101-5.801v-22.201c0-4.7-1-4.9-6.101-4.9v-1.5l14.601-5h1.602v7.2h0.6c2.7-4.7,7.602-7.801,13.801-7.801
		c5.4,0,9.901,2.601,11.701,7.9h0.7c2.8-4.801,7.8-7.9,14.001-7.9c7.2,0,12.601,4.601,12.601,13.901V508.3
		c0,3.301,0.601,4.399,6.102,5.801v1.5H1747.447L1747.447,515.6z"/>
	<path fill="#231F20" d="M253.169,791.6v-1.5c5.602-1.4,5.7-2.5,5.7-5.801v-18.201c0-5.8-2.399-9.8-7.899-9.8
		c-5.4,0-9.602,3.8-9.602,11.5V784.3c0,3.301,0.101,4.399,5.602,5.801v1.5h-21.803v-1.5c5.5-1.4,6.102-2.5,6.102-5.801v-22.201
		c0-4.7-1-4.9-6.102-4.9v-1.5l14.602-5h1.601v7.2h0.601c2.699-4.7,7.7-7.801,13.9-7.801c7.2,0,13.001,4.601,13.001,13.9V784.3
		c0,3.301,0.601,4.399,6.2,5.801v1.5H253.169z"/>
	<path fill="#231F20" d="M450.82,771.899c0-12.701,10.501-21.802,22.001-21.802c10.701,0,20.502,7.201,20.502,21.302
		c0,12.601-10.501,21.802-22.102,21.802C460.521,793.201,450.82,786,450.82,771.899z M482.723,774.5c0-8-2.602-20.9-11.801-20.9
		c-6.602,0-9.501,6.7-9.501,15.101c0,8,2.5,21.001,11.7,21.001C479.822,789.7,482.723,782.9,482.723,774.5z"/>
	<path fill="#231F20" d="M666.575,813.402v-1.501c5.602-1.398,6.2-2.5,6.2-5.8v-44.003c0-4.7-1-4.9-6.2-4.9v-1.5l14.701-5h1.5v6.2
		h0.7c2.9-4.4,7.5-6.801,12.701-6.801c9,0,17.101,6.501,17.101,20.002c0,13.9-9.801,23.102-21.9,23.102
		c-2,0-5.302-0.399-8.602-1.899v14.801c0,3.3,0.5,4.4,8.001,5.8v1.501L666.575,813.402L666.575,813.402z M682.776,783.9
		c2.602,4.7,6.301,6.1,9.301,6.1c6.801,0,10.802-6.5,10.802-17.199c0-8.401-2.7-16.501-10.602-16.501c-5.301,0-9.501,3.2-9.501,10
		V783.9L682.776,783.9z"/>
	<path fill="#231F20" d="M912.33,813.402v-1.501c7.602-1.398,8-2.5,8-5.8V786.4h-0.6c-2.9,4.4-7.601,6.801-12.801,6.801
		c-9.001,0-17.001-6.601-17.001-20.002c0-14.001,9.801-23.102,21.802-23.102c2.699,0,8.4,0.801,12.601,4.601l4.9-3h1.6
		l-0.398,11.001v43.402c0,3.3,0.6,4.4,6.1,5.8v1.501H912.33z M920.33,777v-17.802c-2.6-4.5-6.3-5.899-9.199-5.899
		c-6.802,0-10.802,6.399-10.802,17.102c0,8.5,2.7,16.602,10.501,16.602C916.23,787,920.33,783.7,920.33,777z"/>
	<path fill="#231F20" d="M1110.583,791.6v-1.5c5.601-1.4,6.199-2.5,6.199-5.801v-22.201c0-4.7-1.1-4.9-6.199-4.9v-1.5l14.7-5h1.5
		v11.501h0.7c1.9-6.701,8-12.501,14.501-12.102v9.4c-11.501,0-15.201,4.601-15.201,12.7V784.3c0,3.301,0.4,4.399,8,5.801v1.5
		H1110.583z"/>
	<path fill="#231F20" d="M1319.837,780.7h1.501c2.699,5.5,6.399,9.3,11,9.3c3.199,0,5.899-2.1,5.899-5.398
		c0-10.801-21.602-8.401-21.602-21.901c0-7.899,7.801-12.602,15.102-12.602c4,0,9.602,0.5,14.602,3.801l-4,7.602h-1.5
		c-3.302-5.4-7.2-8.201-10.4-8.201c-3.001,0-5.601,1.899-5.601,4.899c0,9.802,21.801,7.602,21.801,21.701
		c0,7.801-7.601,13.302-15.9,13.302c-3.7,0-9.899-0.501-15.102-3.801L1319.837,780.7z"/>
	<path fill="#231F20" d="M1552.192,786c-3,4.4-7.301,7.201-12.4,7.201c-7,0-11.601-4.301-11.601-13.201v-25.302h-6.201v-1.5
		l14.701-10.801h1.5v9.301h13.201v3h-13.201V778c0,6.602,2.601,9.2,6.301,9.2c1.801,0,4.801-0.899,6.602-2.399L1552.192,786z"/>
	<path fill="#231F20" d="M1746.946,792.801l-16.501-33.502c-1.398-2.9-2.3-4.602-6.2-6.102v-1.5h20.803v1.5
		c-3.602,1.5-4.9,2.8-3.7,5.4l9.7,21.4h0.699l8-19.7c1.302-3.4,0-5.4-4.199-7.102v-1.5h15.9v1.5c-4.801,1.602-6.5,4.3-8.101,8.102
		l-13.501,31.502L1746.946,792.801L1746.946,792.801z"/>
	<path fill="#231F20" d="M268.069,1068.801l-11.9-26.103h-0.699l-10.302,26.103h-2.8l-14.401-33.502c-1.3-2.9-2.3-4.602-6.199-6.102
		v-1.5h20.602v1.5c-3.601,1.5-4.7,2.7-3.601,5.4l7.701,20.102h0.6l10.4-27.002h2.899l11.9,27.002h0.7l6.301-18.4
		c1.2-3.4,0.1-5.4-4.2-7.102v-1.5h15.9v1.5c-4.801,1.602-6.601,4.301-8.102,8.102l-12,31.502H268.069L268.069,1068.801z"/>
	<path fill="#231F20" d="M479.137,1067.6v-1.5c3.6-1.601,3.6-3.101,1.899-5.4l-6.501-9.301h-0.699l-5.2,7.7
		c-2,3.001-2.3,5.201,2,7.001v1.5h-15.602v-1.5c4.5-1.602,7.4-4.802,9.9-8.001l7.399-9.5l-9.601-13.301
		c-2.1-3.102-3.8-4.9-7.601-6.102v-1.5h20.802v1.5c-3.602,1.5-3.7,3.102-2,5.4l5.1,7.399h0.7l3.9-5.801c1.899-3,2.101-5.3-2.101-7
		v-1.5h15.5v1.5c-4.398,1.601-7.3,4.7-9.8,8.001l-6.001,7.7L492.237,1060c2.102,3,4,4.9,7.7,6.102v1.5L479.137,1067.6
		L479.137,1067.6z"/>
	<path fill="#231F20" d="M670.104,1089.402v-1.501l13.7-19.601l-16.201-33.002c-1.399-2.9-2.3-4.602-6.2-6.102v-1.5h20.802v1.5
		c-3.601,1.5-4.899,2.801-3.699,5.4l10.101,22.201h0.7l7.8-20.501c1.2-3.4,0-5.4-4.3-7.101v-1.5h15.899v1.5
		c-4.699,1.601-6.5,4.3-8,8.101l-13.301,32.302l-6.501,19.802L670.104,1089.402L670.104,1089.402z"/>
	<path fill="#231F20" d="M872.273,1067.6v-1.5l21.601-34.702v-0.7h-5.399c-6.101,0-9.3,1.2-13.602,9.9h-1.6v-12.9h32.702v1.5
		l-21.602,34.702v0.6h5.5c6.101,0,9.301-1.1,13.601-10.199h1.5v13.301L872.273,1067.6L872.273,1067.6z"/>
	<path fill="#231F20" d="M1129.745,1056.9c-3.501,9.1-10.301,12.301-16.4,12.301c-7.7,0-13.701-3.899-16.701-10.501h-0.7
		c-3.399,7.4-10.2,10.501-15.399,10.501c-4.802,0-9.002-2.899-9.002-7.9c0-4.601,4-6.801,22.803-13.301v-6
		c0-5.802-2.801-8.602-8.001-8.602c-4.601,0-9.802,2.2-13.302,6.2l-1.398-1.101c3.8-6.199,11.601-12.4,20.201-12.4
		c4.1,0,8.199,1.301,10.399,4.601c3.301-2.899,7.602-4.601,12.2-4.601c7.602,0,15.802,4.2,15.103,14.802h-25.502
		c-0.101,0.899-0.101,1.8-0.101,2.7c0,12.2,6.2,17.801,13.001,17.801c3.7,0,8.9-1.7,11.302-5.4L1129.745,1056.9z M1094.344,1054.5
		v-3.5c-11.701,4.2-13.001,6.301-13.001,8.5c0,2.2,1.699,3.5,4.199,3.5C1089.042,1063,1094.344,1059.8,1094.344,1054.5z
		 M1104.443,1037.898h14.801c0.101-5.7-3-8.8-6.399-8.8C1107.844,1029.098,1105.344,1033.098,1104.443,1037.898z"/>
	<path fill="#231F20" d="M1323.714,1090.002c6-5,6.601-11.602,6.601-21.103v-26.802c0-5.801-2.4-9.801-7.9-9.801
		c-5.399,0-9.601,3.801-9.601,11.5v16.502c0,3.301,0.1,4.399,5.601,5.801v1.5h-21.802v-1.5c5.5-1.4,6.102-2.5,6.102-5.801v-22.201
		c0-4.7-1-4.9-6.102-4.9v-1.5l14.602-5h1.601v7.2h0.6c2.7-4.7,7.701-7.802,13.901-7.802c7.2,0,13.001,4.602,13.001,13.901v24.901
		c0,12.399-6.101,20.802-15.302,26.502L1323.714,1090.002z"/>
	<path fill="#231F20" d="M1536.28,1057.2h1.602c1.6,4.9,4.6,8.8,8.399,8.8c2.8,0,4.8-2.1,4.8-5.398c0-10.401-18-13.401-18-25.603
		c0-10.301,12.601-12.801,12.601-24.602c0-7.101-3.9-10.801-8.601-10.801c-11.4,0-12.5,11.899-12.5,24.301v36.402
		c0,3.301,0.398,4.399,4.898,5.801v1.5h-21.201v-1.5c5.602-1.4,6.2-2.5,6.2-5.801v-34.401c0-18.602,12.001-29.802,24.103-29.802
		c8.801,0,15.5,3.5,15.5,11.3c0,9.801-12.801,15.302-12.801,22.4c0,8.802,18.303,12.802,18.303,25.902
		c0,7.8-7.201,13.501-15.002,13.501c-2.601,0-8-0.7-12.101-3.801L1536.28,1057.2z"/>
	<path fill="#231F20" d="M1751.747,1009.297c10.001,8.899,17.303,21.201,17.303,35.201c0,14.401-8.9,24.702-22.303,24.702
		c-11.001,0-20.701-7.4-20.701-21.502c0-12.601,9.602-21.602,21.103-21.602c2,0,4.9,0.301,7.7,1.301
		c-2.102-5.501-4.9-10.601-8.602-15.201l-13.801,7.5l-2-3.6l13.102-7.101c-4.102-4.302-8.9-8.002-14.4-10.802l0.6-1.7
		c6.4,2.102,12.801,5.5,18.501,9.9l14.001-7.6l1.9,3.699L1751.747,1009.297z M1755.848,1030.398c-2.3-0.8-4.602-1.2-6.5-1.2
		c-7.301,0-12.801,6.2-12.801,17.102c0,7.4,2.6,19.4,12,19.4c7.801,0,10.001-8.899,10.001-18.001
		C1758.549,1041.899,1757.647,1036,1755.848,1030.398z"/>
	<path fill="#231F20" d="M224.467,1343.6v-1.5c5.602-1.4,6.2-2.5,6.2-5.801v-32.603l-2.1-8.501
		c-4-16.899,8.399-22.701,16.701-22.701c4.1,0,9.8,0.602,15.699,4.602l-4.699,9.399h-1.601c-3.899-6.601-7.899-10.801-11.899-10.801
		c-4.001,0-8.401,2.9-6.201,11.901l4.101,16.101v32.602c0,3.302,0.4,4.4,8,5.802v1.5H224.467L224.467,1343.6z"/>
	<path fill="#231F20" d="M418.193,1343.6v-1.5c5.5-1.4,6.102-2.5,6.102-5.801v-22.201c0-4.7-1-4.9-6.102-4.9v-1.5l14.602-5h1.601
		v33.603c0,3.301,0.6,4.399,6.101,5.801v1.5L418.193,1343.6L418.193,1343.6z M422.795,1288.797c0-3.301,2.6-6.101,6.199-6.101
		c3.601,0,6.102,2.8,6.102,6.101c0,3.399-2.5,6.201-6.102,6.201C425.393,1294.998,422.795,1292.197,422.795,1288.797z
		 M444.695,1366.002c6-5,6.601-11.602,6.601-21.103v-30.802c0-4.7-1-4.9-6.101-4.9v-1.5l14.602-5h1.601v38.202
		c0,12.4-6.101,20.802-15.302,26.502L444.695,1366.002z M449.796,1288.797c0-3.301,2.601-6.101,6.2-6.101
		c3.601,0,6.101,2.8,6.101,6.101c0,3.399-2.5,6.201-6.101,6.201C452.396,1294.998,449.796,1292.197,449.796,1288.797z"/>
	<path fill="#231F20" d="M635.119,1343.6v-1.5c5.5-1.4,6.102-2.5,6.102-5.801v-22.201c0-4.7-1-4.9-6.102-4.9v-1.5l14.602-5h1.601
		v33.603c0,3.301,0.601,4.399,6.102,5.801v1.5L635.119,1343.6L635.119,1343.6z M639.72,1288.797c0-3.301,2.6-6.101,6.2-6.101
		c3.6,0,6.101,2.8,6.101,6.101c0,3.399-2.5,6.201-6.101,6.201C642.319,1294.998,639.72,1292.197,639.72,1288.797z M656.422,1354.301
		h1.5c2.6,6.001,6.1,9.501,9.699,9.501c2.602,0,5-1.7,5-6.602c0-3.1-1.1-7.3-4.3-12.899v-30.202c0-4.7-1-4.9-6.101-4.9v-1.5
		l14.601-5h1.602v40.604c1.5,3.3,2.5,6.8,2.5,10.101c0,9.5-8.2,13.602-14.802,13.602c-3.899,0-9.501-1.101-13.7-4.602
		L656.422,1354.301z M666.821,1288.797c0-3.301,2.601-6.101,6.2-6.101s6.101,2.8,6.101,6.101c0,3.399-2.5,6.201-6.101,6.201
		S666.821,1292.197,666.821,1288.797z"/>
	<path fill="#231F20" d="M896.248,1305.198c-6.301,2.2-9.899,4.602-13.501,8.102l-6.3,6.199l21.701,22.603v1.5h-12.301
		l-17.201-20.901v13.602c0,3.301,0.6,4.399,6.101,5.801v1.5h-22.302v-1.5c5.5-1.4,6.102-2.5,6.102-5.801V1314.7
		c0-4.601-1-4.801-6.102-4.801v-1.5l14.602-5.101h1.601v19.4l10.301-10.399c3.101-3.102,2.899-5.4-1.301-7.102v-1.5h18.602
		L896.248,1305.198L896.248,1305.198z"/>
	<path fill="#231F20" d="M1133.273,1332.9c-3.6,9.1-10.4,12.301-16.501,12.301c-6,0-11.101-2.501-14.4-7.201
		c-4,4.7-9.899,7.201-16.001,7.201c-10.7,0-20.4-7.201-20.4-21.302c0-12.701,10.501-21.802,22.001-21.802
		c6.001,0,11.9,2.501,15.701,7.301c3.5-4.601,8.601-7.301,14.301-7.301c7.601,0,15.701,4.2,15.102,14.802h-25.602
		c-0.102,0.899-0.102,1.8-0.102,2.7c0,12.2,6.2,17.801,13.002,17.801c3.8,0,8.899-1.7,11.301-5.4L1133.273,1332.9z M1097.872,1326.5
		c0-8-2.601-20.9-11.9-20.9c-6.602,0-9.4,6.7-9.4,15.101c0,8,2.602,21.001,11.9,21.001
		C1095.071,1341.7,1097.872,1334.9,1097.872,1326.5z M1107.872,1313.898h14.901c0.1-5.7-3-8.8-6.501-8.8
		C1111.272,1305.098,1108.772,1309.098,1107.872,1313.898z"/>
	<path fill="#231F20" d="M1305.194,1349.301l5.9-8.602c-4.301-3.6-7.102-9.199-7.102-16.801c0-12.701,10.501-21.802,22.001-21.802
		c3.501,0,6.9,0.801,9.901,2.301l6-8.801l3.5,2.3l-6,8.801c4.3,3.602,7.101,9.102,7.101,16.701
		c0,12.602-10.501,21.803-22.102,21.803c-3.5,0-6.9-0.802-9.801-2.2l-6,8.7L1305.194,1349.301z M1316.296,1333l15.601-22.802
		c-1.8-2.7-4.4-4.6-7.9-4.6c-6.601,0-9.699,6.7-9.699,15.101C1314.296,1324.3,1314.796,1329,1316.296,1333z M1336.096,1326.5
		c0-3.5-0.601-8.101-2-12l-15.602,22.7c1.9,2.7,4.5,4.5,8,4.5C1333.096,1341.7,1336.096,1334.9,1336.096,1326.5z"/>
	<path fill="#231F20" d="M1513.922,1365.402v-1.501c5.601-1.399,6.2-2.5,6.2-5.8v-73.604c0-4.601-1.101-4.801-6.2-4.801v-1.6l14.7-5
		h1.5v35.802h0.7c2.9-4.4,7.501-6.801,12.701-6.801c9,0,17.101,6.501,17.101,20.002c0,13.899-9.801,23.102-21.9,23.102
		c-2,0-5.3-0.399-8.602-1.899v14.801c0,3.3,0.4,4.399,8.002,5.8v1.501L1513.922,1365.402L1513.922,1365.402z M1530.122,1335.9
		c2.602,4.7,6.302,6.1,9.302,6.1c6.699,0,10.801-6.5,10.801-17.199c0-8.401-2.7-16.501-10.601-16.501c-5.4,0-9.502,3.2-9.502,10
		V1335.9L1530.122,1335.9z"/>
	<path fill="#231F20" d="M1770.749,1339.1c-2.102,3.1-5.802,6.101-10.102,6.101c-3.4,0-7.501-1.699-8.301-7.801h-0.7
		c-2.8,5-7.899,7.801-13.101,7.801c-4.801,0-9.001-2.899-9.001-7.9c0-4.601,4-6.801,22.802-13.302v-6
		c0-5.801-2.801-8.601-8.001-8.601c-4.6,0-9.801,2.2-13.301,6.2l-1.399-1.101c3.8-6.199,11.602-12.4,20.201-12.4
		c6.4,0,12.5,3.101,12.5,12.4v20.001c0,3,0.801,5,3.301,5c1.301,0,2.7-0.6,4-1.6L1770.749,1339.1z M1752.347,1330.5v-3.5
		c-11.701,4.2-13.001,6.301-13.001,8.5c0,2.2,1.7,3.5,4.2,3.5C1747.047,1339,1752.347,1335.8,1752.347,1330.5z M1741.646,1299.397
		l-1.3-1.1l10.201-17.701h1.5l6.3,5.601L1741.646,1299.397z"/>
	<path fill="#231F20" d="M265.67,1615.1c-2.101,3.1-5.801,6.101-10.101,6.101c-3.4,0-7.501-1.699-8.301-7.801h-0.7
		c-2.8,5-7.9,7.801-13.101,7.801c-4.802,0-9.002-2.899-9.002-7.9c0-4.601,4-6.801,22.803-13.302v-6c0-5.801-2.801-8.601-8.001-8.601
		c-4.601,0-9.802,2.2-13.302,6.2l-1.398-1.101c3.8-6.199,11.601-12.4,20.201-12.4c6.399,0,12.5,3.101,12.5,12.4v20.001
		c0,3,0.801,5,3.301,5c1.3,0,2.7-0.6,4-1.6L265.67,1615.1z M255.869,1556.896c0,9.601-3.399,17.001-12.501,17.001
		c-9.101,0-12.4-7.4-12.4-17.001l1.601-0.2c1.5,6.001,4.7,9.401,10.801,9.401c6.102,0,9.4-3.4,10.9-9.401L255.869,1556.896z
		 M247.269,1606.5v-3.5c-11.701,4.2-13.001,6.301-13.001,8.5c0,2.2,1.699,3.5,4.199,3.5C241.969,1615,247.269,1611.8,247.269,1606.5
		z"/>
	<path fill="#231F20" d="M480.681,1615.1c-2.102,3.1-5.801,6.101-10.102,6.101c-3.399,0-7.501-1.699-8.301-7.801h-0.7
		c-2.8,5-7.899,7.801-13.101,7.801c-4.801,0-9.001-2.899-9.001-7.9c0-4.601,4-6.801,22.802-13.302v-6
		c0-5.801-2.801-8.601-8.001-8.601c-4.6,0-9.8,2.2-13.301,6.2l-1.399-1.101c3.801-6.199,11.602-12.4,20.201-12.4
		c6.4,0,12.5,3.101,12.5,12.4v20.001c0,3,0.801,5,3.301,5c1.301,0,2.7-0.6,4-1.6L480.681,1615.1z M470.68,1574.897l-12.301-8.4
		l-12.302,8.4l-1.199-1.1l11.399-16.501h4.2l11.401,16.501L470.68,1574.897z M462.279,1606.5v-3.5
		c-11.701,4.2-13.001,6.301-13.001,8.5c0,2.2,1.7,3.5,4.2,3.5C456.979,1615,462.279,1611.8,462.279,1606.5z"/>
	<path fill="#231F20" d="M695.691,1615.1c-2.101,3.1-5.801,6.101-10.101,6.101c-3.4,0-7.501-1.699-8.302-7.801h-0.699
		c-2.801,5-7.9,7.801-13.102,7.801c-4.801,0-9.001-2.899-9.001-7.9c0-4.601,4-6.801,22.802-13.302v-6
		c0-5.801-2.801-8.601-8.001-8.601c-4.6,0-9.801,2.2-13.301,6.2l-1.398-1.101c3.8-6.199,11.601-12.4,20.2-12.4
		c6.4,0,12.5,3.101,12.5,12.4v20.001c0,3,0.802,5,3.302,5c1.3,0,2.699-0.6,4-1.6L695.691,1615.1z M658.09,1564.797
		c0-3.2,2.5-5.9,6-5.9s6.001,2.7,6.001,5.9c0,3.301-2.501,6.101-6.001,6.101S658.09,1568.097,658.09,1564.797z M677.29,1606.5v-3.5
		c-11.7,4.2-13.001,6.301-13.001,8.5c0,2.2,1.7,3.5,4.2,3.5C671.989,1615,677.29,1611.8,677.29,1606.5z M676.689,1564.797
		c0-3.2,2.601-5.9,6.101-5.9s5.9,2.7,5.9,5.9c0,3.301-2.4,6.101-5.9,6.101S676.689,1568.097,676.689,1564.797z"/>
	<path fill="#231F20" d="M910.702,1615.1c-2.101,3.1-5.801,6.101-10.101,6.101c-3.4,0-7.501-1.699-8.301-7.801h-0.7
		c-2.8,5-7.9,7.801-13.102,7.801c-4.801,0-9.001-2.899-9.001-7.9c0-4.601,4-6.801,22.803-13.302v-6c0-5.801-2.802-8.601-8.001-8.601
		c-4.601,0-9.801,2.2-13.302,6.2l-1.398-1.101c3.8-6.199,11.601-12.4,20.201-12.4c6.399,0,12.5,3.101,12.5,12.4v20.001
		c0,3,0.801,5,3.301,5c1.3,0,2.7-0.6,4-1.6L910.702,1615.1z M895.802,1575.397l-16.701-13.2l6.2-5.601h1.601l10.2,17.701
		L895.802,1575.397z M892.302,1606.5v-3.5c-11.701,4.2-13.001,6.301-13.001,8.5c0,2.2,1.7,3.5,4.2,3.5
		C887.001,1615,892.302,1611.8,892.302,1606.5z"/>
	<path fill="#231F20" d="M1125.714,1615.1c-2.102,3.1-5.802,6.101-10.102,6.101c-3.399,0-7.501-1.699-8.301-7.801h-0.7
		c-2.8,5-7.899,7.801-13.101,7.801c-4.801,0-9.001-2.899-9.001-7.9c0-4.601,4-6.801,22.802-13.302v-6
		c0-5.801-2.801-8.601-8.001-8.601c-4.6,0-9.801,2.2-13.301,6.2l-1.399-1.101c3.801-6.199,11.602-12.4,20.201-12.4
		c6.4,0,12.5,3.101,12.5,12.4v20.001c0,3,0.801,5,3.301,5c1.301,0,2.7-0.6,4-1.6L1125.714,1615.1z M1089.41,1567.798v-4.701h27.303
		v4.701H1089.41z M1107.312,1606.5v-3.5c-11.701,4.2-13.001,6.301-13.001,8.5c0,2.2,1.7,3.5,4.2,3.5
		C1102.011,1615,1107.312,1611.8,1107.312,1606.5z"/>
	<path fill="#231F20" d="M1340.724,1615.1c-1.501,2.2-3.7,4.3-6.301,5.3c-4.102,4.4-5.7,9.102-5.7,12.001c0,3.3,2,5.2,5.101,5.2
		c1.699,0,3.8-0.5,6.101-1.8l0.801,1.3c-3.2,3.801-7.501,5.9-11.401,5.9c-5.6,0-8.601-3.4-8.601-7.602c0-4.1,2.7-9.2,9.501-14.2
		c-3.301-0.101-7.2-1.899-7.9-7.801h-0.7c-2.8,5-7.899,7.801-13.101,7.801c-4.801,0-9.001-2.899-9.001-7.9
		c0-4.601,4-6.8,22.802-13.302v-6c0-5.801-2.801-8.601-8.001-8.601c-4.6,0-9.8,2.2-13.301,6.2l-1.398-1.1
		c3.8-6.2,11.601-12.401,20.2-12.401c6.4,0,12.5,3.101,12.5,12.401v20c0,3,0.802,5,3.302,5c1.3,0,2.699-0.6,4-1.6L1340.724,1615.1z
		 M1322.322,1606.5v-3.5c-11.701,4.2-13.001,6.301-13.001,8.5c0,2.2,1.7,3.5,4.2,3.5C1317.021,1615,1322.322,1611.8,1322.322,1606.5
		z"/>
	<path fill="#231F20" d="M1555.734,1615.1c-2.101,3.1-5.801,6.101-10.101,6.101c-3.4,0-7.501-1.699-8.301-7.801h-0.7
		c-2.8,5-7.9,7.801-13.102,7.801c-4.801,0-9.001-2.899-9.001-7.9c0-4.601,4-6.801,22.803-13.302v-6c0-5.801-2.802-8.601-8.001-8.601
		c-4.601,0-9.802,2.2-13.302,6.2l-1.398-1.101c3.8-6.199,11.601-12.4,20.201-12.4c6.399,0,12.5,3.101,12.5,12.4v20.001
		c0,3,0.801,5,3.301,5c1.3,0,2.7-0.6,4-1.6L1555.734,1615.1z M1537.333,1606.5v-3.5c-11.7,4.2-13,6.301-13,8.5
		c0,2.2,1.699,3.5,4.199,3.5C1532.032,1615,1537.333,1611.8,1537.333,1606.5z M1534.134,1574.298c-4,0-9.201-2.9-9.201-8.7
		c0-5.801,5.201-8.801,9.201-8.801s9.199,3,9.199,8.801C1543.333,1571.397,1538.134,1574.298,1534.134,1574.298z M1538.333,1565.597
		c0-2.801-2-4.4-4.199-4.4c-2.2,0-4.2,1.601-4.2,4.4s2,4.4,4.2,4.4C1536.333,1569.998,1538.333,1568.397,1538.333,1565.597z"/>
	<path fill="#231F20" d="M1770.745,1615.1c-2.101,3.1-5.801,6.101-10.101,6.101c-3.4,0-7.501-1.699-8.301-7.801h-0.7
		c-2.8,5-7.9,7.801-13.101,7.801c-4.802,0-9.001-2.899-9.001-7.9c0-4.601,4-6.801,22.802-13.302v-6c0-5.801-2.801-8.601-8.001-8.601
		c-4.6,0-9.8,2.2-13.301,6.2l-1.399-1.101c3.8-6.199,11.601-12.4,20.201-12.4c6.399,0,12.5,3.101,12.5,12.4v20.001
		c0,3,0.801,5,3.301,5c1.3,0,2.7-0.6,4-1.6L1770.745,1615.1z M1764.444,1559.096c-1.601,7.801-4.9,12.101-9.4,12.101
		c-5.801,0-10.9-5-15.301-5c-2.001,0-4.301,1.602-5.801,5.4l-1.5-0.601c1.6-7.801,4.9-12.102,9.4-12.102
		c5.801,0,10.899,5.001,15.301,5.001c2,0,4.301-1.602,5.801-5.4L1764.444,1559.096z M1752.344,1606.5v-3.5
		c-11.701,4.2-13.001,6.301-13.001,8.5c0,2.2,1.7,3.5,4.2,3.5C1747.044,1615,1752.344,1611.8,1752.344,1606.5z"/>
	<path fill="#231F20" d="M256.169,1896.6h-1.601v-6.2h-0.6c-2.9,4.4-7.602,6.801-12.802,6.801c-9.001,0-17.001-6.601-17.001-20.002
		c0-14.001,9.801-23.102,21.803-23.102c2.698,0,8.399,0.801,12.601,4.601l4.9-3h1.6l-0.399,11.001v18.501c0,4.601,1,4.8,6.101,4.8
		v1.602L256.169,1896.6z M254.568,1881v-17.802c-2.601-4.5-6.3-5.899-9.2-5.899c-6.801,0-10.801,6.399-10.801,17.102
		c0,8.5,2.7,16.602,10.501,16.602C250.469,1891,254.568,1887.7,254.568,1881z M240.368,1851.397l-1.3-1.1l10.2-17.701h1.5
		l6.301,5.601L240.368,1851.397z"/>
	<path fill="#231F20" d="M470.21,1896.6h-1.602v-6.2h-0.6c-2.9,4.4-7.602,6.801-12.802,6.801c-9.001,0-17.001-6.601-17.001-20.002
		c0-14.001,9.802-23.102,21.803-23.102c2.699,0,8.399,0.801,12.601,4.601l4.9-3h1.6l-0.399,11.001v18.501
		c0,4.601,1.001,4.8,6.101,4.8v1.602L470.21,1896.6z M472.909,1832.896c0,9.601-3.399,17.001-12.501,17.001
		c-9.101,0-12.399-7.4-12.399-17.001l1.6-0.2c1.5,6.001,4.7,9.401,10.801,9.401c6.102,0,9.4-3.4,10.9-9.401L472.909,1832.896z
		 M468.608,1881v-17.802c-2.6-4.5-6.3-5.899-9.2-5.899c-6.801,0-10.801,6.399-10.801,17.102c0,8.5,2.7,16.602,10.501,16.602
		C464.51,1891,468.608,1887.7,468.608,1881z"/>
	<path fill="#231F20" d="M684.249,1896.6h-1.601v-6.2h-0.6c-2.9,4.4-7.602,6.801-12.802,6.801c-9.001,0-17.001-6.601-17.001-20.002
		c0-14.001,9.802-23.102,21.803-23.102c2.698,0,8.399,0.801,12.601,4.601l4.9-3h1.6l-0.398,11.001v18.501c0,4.601,1,4.8,6.1,4.8
		v1.602L684.249,1896.6z M686.35,1850.897l-12.301-8.4l-12.302,8.4l-1.199-1.1l11.399-16.501h4.2l11.4,16.501L686.35,1850.897z
		 M682.648,1881v-17.802c-2.6-4.5-6.3-5.899-9.2-5.899c-6.801,0-10.801,6.399-10.801,17.102c0,8.5,2.7,16.602,10.501,16.602
		C678.55,1891,682.648,1887.7,682.648,1881z"/>
	<path fill="#231F20" d="M898.289,1896.6h-1.601v-6.2h-0.6c-2.9,4.4-7.602,6.801-12.802,6.801c-9.001,0-17.001-6.601-17.001-20.002
		c0-14.001,9.802-23.102,21.803-23.102c2.699,0,8.399,0.801,12.601,4.601l4.9-3h1.6l-0.4,11.001v18.501c0,4.601,1.001,4.8,6.102,4.8
		v1.602L898.289,1896.6z M873.888,1840.797c0-3.2,2.5-5.9,6-5.9s6.001,2.7,6.001,5.9c0,3.301-2.501,6.101-6.001,6.101
		S873.888,1844.097,873.888,1840.797z M896.688,1881v-17.802c-2.6-4.5-6.3-5.899-9.2-5.899c-6.801,0-10.801,6.399-10.801,17.102
		c0,8.5,2.7,16.602,10.501,16.602C892.59,1891,896.688,1887.7,896.688,1881z M892.488,1840.797c0-3.2,2.602-5.9,6.102-5.9
		s5.899,2.7,5.899,5.9c0,3.301-2.399,6.101-5.899,6.101S892.488,1844.097,892.488,1840.797z"/>
	<path fill="#231F20" d="M1112.328,1896.6h-1.601v-6.2h-0.6c-2.9,4.4-7.602,6.801-12.802,6.801c-9.001,0-17.001-6.601-17.001-20.002
		c0-14.001,9.802-23.102,21.803-23.102c2.699,0,8.399,0.801,12.601,4.601l4.9-3h1.6l-0.4,11.001v18.501c0,4.601,1.001,4.8,6.102,4.8
		v1.602L1112.328,1896.6z M1110.728,1881v-17.802c-2.6-4.5-6.3-5.899-9.2-5.899c-6.801,0-10.801,6.399-10.801,17.102
		c0,8.5,2.7,16.602,10.501,16.602C1106.629,1891,1110.728,1887.7,1110.728,1881z M1109.228,1851.397l-16.7-13.2l6.2-5.601h1.6
		l10.201,17.701L1109.228,1851.397z"/>
	<path fill="#231F20" d="M1326.368,1896.6h-1.601v-6.2h-0.6c-2.9,4.4-7.602,6.801-12.802,6.801c-9.001,0-17.001-6.601-17.001-20.002
		c0-14.001,9.802-23.102,21.803-23.102c2.698,0,8.399,0.801,12.601,4.601l4.9-3h1.6l-0.399,11.001v18.501c0,4.601,1,4.8,6.101,4.8
		v1.602L1326.368,1896.6z M1303.267,1843.798v-4.701h27.302v4.701H1303.267z M1324.768,1881v-17.802c-2.6-4.5-6.3-5.899-9.2-5.899
		c-6.801,0-10.801,6.399-10.801,17.102c0,8.5,2.7,16.602,10.501,16.602C1320.669,1891,1324.768,1887.7,1324.768,1881z"/>
	<path fill="#231F20" d="M1550.51,1893.2c-5.602,5.602-7.5,12.102-7.5,15.201c0,3.3,2,5.2,5.1,5.2c1.7,0,3.801-0.5,6.101-1.8
		l0.801,1.3c-3.2,3.801-7.5,5.9-11.5,5.9c-5.602,0-8.501-3.4-8.501-7.602c0-4.3,3.2-11.001,11.399-16.9l-6,2.101h-1.601v-6.2h-0.6
		c-2.9,4.4-7.602,6.801-12.802,6.801c-9.001,0-17.001-6.601-17.001-20.002c0-14.001,9.802-23.102,21.803-23.102
		c2.699,0,8.399,0.801,12.601,4.601l4.9-3h1.6l-0.4,11.001v18.501c0,4.601,1.001,4.8,6.102,4.8v1.602L1550.51,1893.2z
		 M1538.808,1881v-17.802c-2.601-4.5-6.3-5.899-9.2-5.899c-6.801,0-10.801,6.399-10.801,17.102c0,8.5,2.7,16.602,10.501,16.602
		C1534.708,1891,1538.808,1887.7,1538.808,1881z M1546.51,1894.5h-0.102H1546.51z"/>
	<path fill="#231F20" d="M1754.448,1896.6h-1.601v-6.2h-0.601c-2.899,4.4-7.601,6.801-12.801,6.801
		c-9.001,0-17.001-6.601-17.001-20.002c0-14.001,9.802-23.102,21.802-23.102c2.699,0,8.4,0.801,12.602,4.601l4.9-3h1.6
		l-0.399,11.001v18.501c0,4.601,1,4.8,6.101,4.8v1.602L1754.448,1896.6z M1752.848,1881v-17.802c-2.6-4.5-6.3-5.899-9.2-5.899
		c-6.801,0-10.801,6.399-10.801,17.102c0,8.5,2.7,16.602,10.501,16.602C1748.749,1891,1752.848,1887.7,1752.848,1881z
		 M1744.647,1850.298c-4,0-9.2-2.9-9.2-8.7c0-5.801,5.2-8.801,9.2-8.801s9.201,3,9.201,8.801
		C1753.849,1847.397,1748.647,1850.298,1744.647,1850.298z M1748.848,1841.597c0-2.801-2-4.4-4.2-4.4s-4.2,1.601-4.2,4.4
		s2,4.4,4.2,4.4S1748.848,1844.397,1748.848,1841.597z"/>
	<path fill="#231F20" d="M259.169,2160.9c-3.6,9.1-10.301,12.301-16.399,12.301c-10.701,0-18.603-7.701-18.603-20.502
		s9.102-22.602,20.701-22.602c4,0,9.501,0.801,14.001,4.101l-4.7,9.102h-1.5c-3.5-6.302-7.001-9.7-10.9-9.7
		c-4.7,0-8.4,4.8-8.4,14.001c0,12.2,6.201,17.801,13.001,17.801c3.7,0,8.9-1.7,11.301-5.399L259.169,2160.9z M235.567,2127.397
		l-1.3-1.101l10.199-17.7h1.502l6.3,5.601L235.567,2127.397z"/>
	<path fill="#231F20" d="M470.938,2160.9c-3.6,9.1-10.301,12.301-16.4,12.301c-10.7,0-18.602-7.701-18.602-20.502
		s9.101-22.602,20.701-22.602c4,0,9.501,0.801,14.001,4.101l-4.7,9.102h-1.5c-3.5-6.302-7.001-9.7-10.901-9.7
		c-4.699,0-8.399,4.8-8.399,14.001c0,12.2,6.201,17.801,13.001,17.801c3.7,0,8.899-1.7,11.301-5.399L470.938,2160.9z
		 M452.036,2126.198l-11.399-16.4l1.2-1.102l12.301,8.302l12.301-8.302l1.2,1.102l-11.401,16.4H452.036z"/>
	<path fill="#231F20" d="M659.806,2193.402c3.7-1.399,6.001-3.501,6.001-6.001c0-1.899-1.7-3.899-7.201-4.5v-1.601l5.4-8.301
		c-9.5-1-16.302-8.399-16.302-20.302c0-12.801,9.102-22.602,20.701-22.602c4,0,9.501,0.801,14.001,4.101l-4.7,9.102h-1.5
		c-3.5-6.301-7.001-9.7-10.9-9.7c-4.7,0-8.4,4.8-8.4,14.001c0,12.2,6.201,17.801,13.001,17.801c3.7,0,8.9-1.699,11.301-5.399
		l1.5,0.899c-3.3,8.4-9.199,11.7-14.899,12.2l-2.602,4.101c4.9,0.899,8.501,3.7,8.501,7.7c0,5.4-5.501,9.001-13.4,10.102
		L659.806,2193.402z"/>
	<path fill="#231F20" d="M894.476,2160.9c-3.6,9.1-10.301,12.301-16.4,12.301c-10.7,0-18.602-7.701-18.602-20.502
		s9.101-22.602,20.701-22.602c4,0,9.501,0.801,14.001,4.101l-4.7,9.102h-1.5c-3.5-6.302-7.001-9.7-10.901-9.7
		c-4.7,0-8.399,4.8-8.399,14.001c0,12.2,6.2,17.801,13.001,17.801c3.699,0,8.899-1.7,11.301-5.399L894.476,2160.9z
		 M889.876,2126.897l-12.302-8.399l-12.3,8.399l-1.2-1.101l11.4-16.5h4.2l11.399,16.5L889.876,2126.897z"/>
	<path fill="#231F20" d="M1106.244,2160.9c-3.6,9.1-10.301,12.301-16.399,12.301c-10.701,0-18.603-7.701-18.603-20.502
		s9.102-22.602,20.701-22.602c4,0,9.501,0.801,14.001,4.101l-4.7,9.102h-1.5c-3.5-6.302-7.001-9.7-10.9-9.7
		c-4.7,0-8.4,4.8-8.4,14.001c0,12.2,6.201,17.801,13.001,17.801c3.7,0,8.9-1.7,11.301-5.399L1106.244,2160.9z M1082.844,2116.797
		c0-3.301,2.601-6.101,6.101-6.101c3.6,0,6.2,2.8,6.2,6.101c0,3.399-2.601,6.2-6.2,6.2
		C1085.443,2122.998,1082.844,2120.197,1082.844,2116.797z"/>
	<path fill="#231F20" d="M1315.613,2172.6h-1.5v-6.2h-0.7c-2.898,4.4-7.5,6.801-12.699,6.801c-9.001,0-17.103-6.601-17.103-20.002
		c0-14,9.802-23.102,21.901-23.102c1.9,0,5.301,0.4,8.601,2.001v-19.603c0-4.601-1.1-4.801-6.2-4.801v-1.6l14.701-5h1.5v60.104
		c0,4.601,1.101,4.801,6.2,4.801v1.601L1315.613,2172.6z M1314.113,2157v-17.602c-2.6-4.6-6.3-6.102-9.3-6.102
		c-6.701,0-10.801,6.4-10.801,17.103c0,8.5,2.699,16.601,10.601,16.601C1310.014,2167,1314.113,2163.7,1314.113,2157z
		 M1328.716,2122.397v-20.103h9.3v1.502l-7.8,18.601H1328.716z"/>
	<path fill="#231F20" d="M1540.682,2172.6h-1.5v-6.2h-0.7c-2.899,4.4-7.5,6.801-12.7,6.801c-9.001,0-17.102-6.601-17.102-20.002
		c0-14,9.801-23.102,21.9-23.102c1.9,0,5.302,0.4,8.602,2.001v-12.103h-12.7v-3.699h12.7v-3.801c0-4.601-1.1-4.801-6.2-4.801v-1.6
		l14.701-5h1.5v15.199h8v3.7h-8v41.203c0,4.601,1.1,4.8,6.2,4.8v1.602L1540.682,2172.6z M1539.182,2157v-17.602
		c-2.6-4.6-6.3-6.102-9.3-6.102c-6.701,0-10.802,6.4-10.802,17.103c0,8.5,2.7,16.601,10.602,16.601
		C1535.083,2167,1539.182,2163.7,1539.182,2157z"/>
	<path fill="#231F20" d="M1768.551,2160.9c-3.601,9.1-10.302,12.301-16.4,12.301c-10.701,0-18.602-7.701-18.602-20.502
		s8.601-22.602,19.7-22.602c7.602,0,15.701,4.199,15.102,14.802h-25.501c-0.101,0.899-0.101,1.8-0.101,2.7
		c0,12.199,6.2,17.801,13,17.801c3.7,0,8.9-1.7,11.302-5.4L1768.551,2160.9z M1743.249,2141.898h14.801c0.101-5.7-3-8.8-6.4-8.8
		C1746.648,2133.098,1744.148,2137.098,1743.249,2141.898z M1745.849,2127.397l-1.3-1.101l10.199-17.7h1.5l6.302,5.601
		L1745.849,2127.397z"/>
	<path fill="#231F20" d="M259.169,2436.899c-3.6,9.101-10.301,12.3-16.399,12.3c-10.701,0-18.603-7.699-18.603-20.501
		c0-12.801,8.602-22.602,19.701-22.602c7.602,0,15.701,4.2,15.102,14.802h-25.501c-0.102,0.898-0.102,1.8-0.102,2.699
		c0,12.201,6.201,17.802,13.001,17.802c3.7,0,8.9-1.7,11.301-5.399L259.169,2436.899z M254.369,2384.895
		c0,9.601-3.399,17.001-12.501,17.001c-9.101,0-12.401-7.4-12.401-17.001l1.602-0.2c1.5,6.001,4.7,9.401,10.801,9.401
		c6.102,0,9.4-3.4,10.9-9.401L254.369,2384.895z M233.867,2417.897h14.801c0.102-5.7-3-8.8-6.399-8.8
		C237.268,2409.097,234.768,2413.097,233.867,2417.897z"/>
	<path fill="#231F20" d="M474.967,2436.899c-3.601,9.101-10.302,12.3-16.4,12.3c-10.701,0-18.602-7.699-18.602-20.501
		c0-12.801,8.601-22.602,19.7-22.602c7.602,0,15.701,4.2,15.102,14.802h-25.501c-0.102,0.898-0.102,1.8-0.102,2.699
		c0,12.201,6.201,17.802,13.001,17.802c3.7,0,8.9-1.7,11.302-5.399L474.967,2436.899z M455.466,2402.197l-11.4-16.4l1.199-1.102
		l12.301,8.301l12.301-8.301l1.2,1.102l-11.399,16.4H455.466z M449.664,2417.897h14.802c0.101-5.7-3-8.8-6.4-8.8
		C453.064,2409.097,450.564,2413.097,449.664,2417.897z"/>
	<path fill="#231F20" d="M690.764,2436.899c-3.601,9.101-10.301,12.3-16.4,12.3c-10.701,0-18.602-7.699-18.602-20.501
		c0-12.801,8.601-22.602,19.701-22.602c7.601,0,15.7,4.2,15.101,14.802h-25.501c-0.101,0.898-0.101,1.8-0.101,2.699
		c0,12.201,6.2,17.802,13.001,17.802c3.699,0,8.899-1.7,11.301-5.399L690.764,2436.899z M685.965,2402.896l-12.302-8.4l-12.301,8.4
		l-1.2-1.1l11.4-16.502h4.2l11.4,16.502L685.965,2402.896z M665.463,2417.897h14.802c0.1-5.7-3.001-8.8-6.4-8.8
		C668.862,2409.097,666.362,2413.097,665.463,2417.897z"/>
	<path fill="#231F20" d="M906.561,2436.899c-3.6,9.101-10.301,12.3-16.4,12.3c-10.701,0-18.602-7.699-18.602-20.501
		c0-12.801,8.601-22.602,19.701-22.602c7.601,0,15.701,4.2,15.101,14.802H880.86c-0.101,0.898-0.101,1.8-0.101,2.699
		c0,12.201,6.2,17.802,13.001,17.802c3.699,0,8.899-1.7,11.301-5.399L906.561,2436.899z M874.358,2392.795
		c0-3.199,2.501-5.899,6.001-5.899s6,2.7,6,5.899c0,3.302-2.5,6.102-6,6.102S874.358,2396.096,874.358,2392.795z M881.26,2417.897
		h14.802c0.1-5.7-3.001-8.8-6.4-8.8C884.659,2409.097,882.159,2413.097,881.26,2417.897z M892.961,2392.795
		c0-3.199,2.6-5.899,6.101-5.899c3.5,0,5.9,2.7,5.9,5.899c0,3.302-2.4,6.102-5.9,6.102
		C895.56,2398.896,892.961,2396.096,892.961,2392.795z"/>
	<path fill="#231F20" d="M1122.358,2436.899c-3.6,9.101-10.301,12.3-16.4,12.3c-10.7,0-18.602-7.699-18.602-20.501
		c0-12.801,8.601-22.602,19.701-22.602c7.601,0,15.701,4.2,15.101,14.802h-25.501c-0.101,0.898-0.101,1.8-0.101,2.699
		c0,12.201,6.201,17.802,13.001,17.802c3.7,0,8.9-1.7,11.301-5.399L1122.358,2436.899z M1097.057,2417.897h14.801
		c0.102-5.7-3-8.8-6.4-8.8C1100.458,2409.097,1097.958,2413.097,1097.057,2417.897z M1098.958,2392.795c0-3.3,2.601-6.1,6.101-6.1
		c3.601,0,6.2,2.8,6.2,6.1c0,3.4-2.601,6.201-6.2,6.201C1101.558,2398.998,1098.958,2396.196,1098.958,2392.795z"/>
	<path fill="#231F20" d="M1338.156,2436.899c-3.6,9.101-10.301,12.3-16.399,12.3c-10.701,0-18.603-7.699-18.603-20.501
		c0-12.801,8.601-22.602,19.701-22.602c7.601,0,15.701,4.2,15.101,14.802h-25.501c-0.101,0.898-0.101,1.8-0.101,2.699
		c0,12.201,6.201,17.802,13.001,17.802c3.7,0,8.9-1.7,11.301-5.399L1338.156,2436.899z M1326.956,2403.396l-16.7-13.2l6.199-5.601
		h1.601l10.201,17.701L1326.956,2403.396z M1312.854,2417.897h14.802c0.101-5.7-3.001-8.8-6.399-8.8
		C1316.256,2409.097,1313.756,2413.097,1312.854,2417.897z"/>
	<path fill="#231F20" d="M1553.953,2436.899c-3.6,9.101-10.301,12.3-16.399,12.3c-10.701,0-18.603-7.699-18.603-20.501
		c0-12.801,8.602-22.602,19.701-22.602c7.601,0,15.701,4.2,15.101,14.802h-25.5c-0.102,0.898-0.102,1.8-0.102,2.699
		c0,12.201,6.201,17.802,13.001,17.802c3.7,0,8.9-1.7,11.301-5.399L1553.953,2436.899z M1522.951,2395.797v-4.701h27.303v4.701
		H1522.951z M1528.651,2417.897h14.802c0.101-5.7-3.001-8.8-6.399-8.8C1532.052,2409.097,1529.552,2413.097,1528.651,2417.897z"/>
	<path fill="#231F20" d="M1769.751,2436.899c-1.1,2.601-2.399,4.8-3.8,6.5c-6.399,8.7-8.001,14.001-8.001,17.001
		c0,3.3,2,5.2,5.102,5.2c1.699,0,3.699-0.5,6-1.8l0.899,1.3c-3.2,3.801-7.5,5.899-11.501,5.899c-5.601,0-8.5-3.399-8.5-7.601
		c0-4,3.101-8.7,10-15.602c-2.199,0.899-4.399,1.399-6.6,1.399c-10.701,0-18.603-7.7-18.603-20.501
		c0-12.802,8.602-22.603,19.701-22.603c7.602,0,15.701,4.2,15.102,14.803h-25.501c-0.102,0.898-0.102,1.8-0.102,2.698
		c0,12.201,6.201,17.802,13.001,17.802c3.7,0,8.9-1.699,11.302-5.399L1769.751,2436.899z M1744.449,2417.897h14.802
		c0.101-5.7-3-8.8-6.4-8.8C1747.85,2409.097,1745.35,2413.097,1744.449,2417.897z"/>
	<path fill="#231F20" d="M243.368,2711.598c-1.7,0-3.3-0.101-4.899-0.398l-3.301,3.3c21.802,1.899,31.201,6.102,31.201,15.002
		c0,11.301-13.5,17.5-24.901,17.5c-10.601,0-18.301-3.9-18.301-11.199c0-5.4,5.2-10.603,13.301-13.502c-2.899-0.5-6.199-1-9.801-1.4
		l-0.8-1.5l9.301-9.199c-5.501-2.102-9.301-6.399-9.301-12.7c0-9.4,9.2-15.402,18.501-15.402c3.9,0,7.7,0.899,10.602,2.502
		l6.301-9.501h1.6l4.2,7.102l-9.5,4.198c2.7,2.4,4.4,5.603,4.4,9.701C261.97,2705.498,252.669,2711.598,243.368,2711.598z
		 M255.869,2660.895c0,9.601-3.399,17.001-12.501,17.001c-9.101,0-12.4-7.4-12.4-17.001l1.601-0.2c1.5,6.001,4.7,9.401,10.801,9.401
		c6.102,0,9.4-3.4,10.9-9.401L255.869,2660.895z M239.868,2722.898c-5.301,2.701-7.301,7.801-7.301,10.701
		c0,6.6,5.801,9.801,12.001,9.801c7.101,0,13.301-3.801,13.301-8.801C257.869,2729.8,253.469,2725.699,239.868,2722.898z
		 M251.568,2698.697c0-5.699-2.2-13.6-8.4-13.6c-4.601,0-7.101,4.1-7.101,9.899c0,5.699,2.301,13.5,8.399,13.5
		C249.169,2708.498,251.568,2704.498,251.568,2698.697z"/>
	<path fill="#231F20" d="M456.521,2711.598c-1.7,0-3.3-0.101-4.9-0.398l-3.3,3.3c21.801,1.899,31.201,6.102,31.201,15.002
		c0,11.301-13.5,17.5-24.901,17.5c-10.601,0-18.301-3.9-18.301-11.199c0-5.4,5.2-10.603,13.301-13.502c-2.899-0.5-6.199-1-9.801-1.4
		l-0.8-1.5l9.301-9.199c-5.501-2.102-9.301-6.399-9.301-12.7c0-9.4,9.2-15.402,18.501-15.402c3.9,0,7.7,0.899,10.601,2.502
		l6.302-9.501h1.6l4.2,7.102l-9.5,4.198c2.7,2.4,4.4,5.603,4.4,9.701C475.123,2705.498,465.822,2711.598,456.521,2711.598z
		 M468.822,2678.896l-12.301-8.4l-12.301,8.4l-1.2-1.1l11.4-16.502h4.199l11.401,16.502L468.822,2678.896z M453.021,2722.898
		c-5.301,2.701-7.301,7.801-7.301,10.701c0,6.6,5.801,9.801,12.001,9.801c7.101,0,13.301-3.801,13.301-8.801
		C471.022,2729.8,466.622,2725.699,453.021,2722.898z M464.722,2698.697c0-5.699-2.2-13.6-8.4-13.6c-4.601,0-7.101,4.1-7.101,9.899
		c0,5.699,2.301,13.5,8.399,13.5C462.322,2708.498,464.722,2704.498,464.722,2698.697z"/>
	<path fill="#231F20" d="M669.676,2711.598c-1.7,0-3.3-0.101-4.9-0.398l-3.3,3.3c21.801,1.899,31.201,6.102,31.201,15.002
		c0,11.301-13.5,17.5-24.901,17.5c-10.601,0-18.301-3.9-18.301-11.199c0-5.4,5.2-10.603,13.301-13.502c-2.9-0.5-6.2-1-9.801-1.4
		l-0.8-1.5l9.301-9.199c-5.501-2.102-9.301-6.399-9.301-12.7c0-9.4,9.199-15.402,18.501-15.402c3.899,0,7.699,0.899,10.601,2.502
		l6.301-9.501h1.601l4.2,7.102l-9.5,4.198c2.699,2.4,4.399,5.603,4.399,9.701C688.276,2705.498,678.976,2711.598,669.676,2711.598z
		 M666.176,2722.898c-5.302,2.701-7.302,7.801-7.302,10.701c0,6.6,5.802,9.801,12.001,9.801c7.102,0,13.302-3.801,13.302-8.801
		C684.177,2729.8,679.775,2725.699,666.176,2722.898z M677.876,2698.697c0-5.699-2.2-13.6-8.4-13.6c-4.602,0-7.102,4.1-7.102,9.899
		c0,5.699,2.302,13.5,8.4,13.5C675.476,2708.498,677.876,2704.498,677.876,2698.697z M673.575,2657.895v18.201h-9.501v-1.5
		l8.001-16.701H673.575z"/>
	<path fill="#231F20" d="M882.828,2711.598c-1.699,0-3.3-0.101-4.899-0.398l-3.3,3.3c21.801,1.899,31.2,6.102,31.2,15.002
		c0,11.301-13.5,17.5-24.9,17.5c-10.602,0-18.301-3.9-18.301-11.199c0-5.4,5.199-10.603,13.301-13.502c-2.9-0.5-6.2-1-9.801-1.4
		l-0.801-1.5l9.302-9.199c-5.501-2.102-9.302-6.399-9.302-12.7c0-9.4,9.2-15.402,18.501-15.402c3.9,0,7.7,0.899,10.602,2.502
		l6.301-9.501h1.6l4.2,7.102l-9.5,4.198c2.7,2.4,4.4,5.603,4.4,9.701C901.43,2705.498,892.13,2711.598,882.828,2711.598z
		 M879.328,2722.898c-5.301,2.701-7.301,7.801-7.301,10.701c0,6.6,5.801,9.801,12.001,9.801c7.102,0,13.301-3.801,13.301-8.801
		C897.329,2729.8,892.929,2725.699,879.328,2722.898z M891.028,2698.697c0-5.699-2.2-13.6-8.399-13.6
		c-4.602,0-7.102,4.1-7.102,9.899c0,5.699,2.301,13.5,8.4,13.5C888.63,2708.498,891.028,2704.498,891.028,2698.697z
		 M876.728,2668.795c0-3.3,2.601-6.1,6.101-6.1c3.602,0,6.2,2.8,6.2,6.1c0,3.4-2.6,6.201-6.2,6.201
		C879.328,2674.998,876.728,2672.196,876.728,2668.795z"/>
	<path fill="#231F20" d="M1103.781,2718.398c-2.899,4.4-7.601,6.801-12.801,6.801c-9.001,0-17.001-6.6-17.001-20.002
		c0-14,9.801-23.102,21.802-23.102c2.699,0,8.4,0.801,12.602,4.602l4.899-3h1.601l-0.399,11v19.502c2.3,4.101,4.1,9.5,4.1,13.4
		c0,13.301-11.699,19.399-21.9,19.399c-7,0-15.4-1.899-20.501-6l4.7-9.301h1.601c3.5,6.301,9.1,11.899,15.7,11.899
		c6.801,0,11.501-4.1,11.501-10.801c0-4.1-1.601-9.5-5.302-14.399L1103.781,2718.398L1103.781,2718.398z M1108.481,2660.895
		c0,9.601-3.4,17.001-12.501,17.001s-12.4-7.4-12.4-17.001l1.601-0.2c1.501,6.001,4.701,9.401,10.801,9.401
		c6.101,0,9.401-3.4,10.901-9.401L1108.481,2660.895z M1104.382,2708.998v-17.801c-2.601-4.5-6.301-5.899-9.2-5.899
		c-6.801,0-10.801,6.399-10.801,17.102c0,8.5,2.699,16.601,10.501,16.601C1100.281,2718.998,1104.382,2715.699,1104.382,2708.998z"
		/>
	<path fill="#231F20" d="M1318.735,2718.398c-2.9,4.4-7.601,6.801-12.801,6.801c-9.001,0-17.001-6.6-17.001-20.002
		c0-14,9.801-23.102,21.802-23.102c2.7,0,8.4,0.801,12.602,4.602l4.899-3h1.601l-0.4,11v19.502c2.301,4.101,4.101,9.5,4.101,13.4
		c0,13.301-11.7,19.399-21.9,19.399c-7,0-15.4-1.899-20.501-6l4.699-9.301h1.601c3.501,6.301,9.101,11.899,15.701,11.899
		c6.801,0,11.501-4.1,11.501-10.801c0-4.1-1.602-9.5-5.302-14.399L1318.735,2718.398L1318.735,2718.398z M1323.035,2678.896
		l-12.3-8.4l-12.301,8.4l-1.2-1.1l11.4-16.502h4.2l11.399,16.502L1323.035,2678.896z M1319.335,2708.998v-17.801
		c-2.6-4.5-6.3-5.899-9.199-5.899c-6.801,0-10.801,6.399-10.801,17.102c0,8.5,2.699,16.601,10.5,16.601
		C1315.235,2718.998,1319.335,2715.699,1319.335,2708.998z"/>
	<path fill="#231F20" d="M1533.69,2718.398c-2.9,4.4-7.601,6.801-12.801,6.801c-9.001,0-17.001-6.6-17.001-20.002
		c0-14,9.801-23.102,21.802-23.102c2.7,0,8.4,0.801,12.601,4.602l4.9-3h1.6l-0.399,11v19.502c2.301,4.101,4.101,9.5,4.101,13.4
		c0,13.301-11.7,19.399-21.901,19.399c-7,0-15.399-1.899-20.5-6l4.699-9.301h1.601c3.501,6.301,9.101,11.899,15.7,11.899
		c6.802,0,11.502-4.1,11.502-10.801c0-4.1-1.602-9.5-5.302-14.399L1533.69,2718.398L1533.69,2718.398z M1534.29,2708.998v-17.801
		c-2.6-4.5-6.3-5.899-9.199-5.899c-6.801,0-10.801,6.399-10.801,17.102c0,8.5,2.699,16.601,10.5,16.601
		C1530.19,2718.998,1534.29,2715.699,1534.29,2708.998z M1529.69,2657.895v18.201h-9.501v-1.5l8.001-16.701H1529.69z"/>
	<path fill="#231F20" d="M1746.846,2723.6v-1.5c5.601-1.399,5.699-2.5,5.699-5.801v-18.201c0-5.801-2.399-9.801-7.899-9.801
		c-5.4,0-9.601,3.801-9.601,11.5v16.502c0,3.301,0.1,4.399,5.601,5.801v1.5h-21.802v-1.5c5.5-1.399,6.101-2.5,6.101-5.801v-44.304
		h-8.001v-3.699h8.001v-3.801c0-4.601-1-4.801-6.101-4.801v-1.6l14.601-5h1.601v15.199h12.602v3.7h-12.602v17.901h0.601
		c2.7-4.699,7.701-7.801,13.9-7.801c7.2,0,13.001,4.602,13.001,13.901v20.302c0,3.301,0.601,4.399,6.2,5.801v1.5L1746.846,2723.6
		L1746.846,2723.6z"/>
	<path fill="#231F20" d="M236.067,2920.395l-14.7,6.301l-1-1.5l13.602-13.401h4.3l13.602,13.401l-1.001,1.5L236.067,2920.395z
		 M253.169,2999.6v-1.5c5.602-1.399,5.7-2.5,5.7-5.801v-18.201c0-5.801-2.399-9.801-7.899-9.801c-5.4,0-9.602,3.801-9.602,11.5
		v16.502c0,3.301,0.101,4.399,5.602,5.801v1.5h-21.803v-1.5c5.5-1.399,6.102-2.5,6.102-5.801v-51.804c0-4.602-1-4.801-6.102-4.801
		v-1.6l14.602-5h1.601v36.801h0.601c2.699-4.699,7.7-7.801,13.9-7.801c7.2,0,13.001,4.602,13.001,13.902v20.301
		c0,3.301,0.601,4.399,6.2,5.801v1.5L253.169,2999.6L253.169,2999.6z"/>
	<path fill="#231F20" d="M439.878,2999.6v-1.5c5.5-1.399,6.101-2.5,6.101-5.801v-22.201c0-4.701-1-4.899-6.101-4.899v-1.5l14.601-5
		h1.601v33.602c0,3.301,0.601,4.4,6.102,5.801v1.5L439.878,2999.6L439.878,2999.6z M444.678,2955.396l-1.301-1.1l10.2-17.701h1.5
		l6.301,5.6L444.678,2955.396z"/>
	<path fill="#231F20" d="M649.889,2936.895c0,9.603-3.4,17.002-12.501,17.002c-9.102,0-12.4-7.399-12.4-17.002l1.601-0.199
		c1.5,6,4.699,9.4,10.801,9.4c6.101,0,9.399-3.4,10.899-9.4L649.889,2936.895z M626.588,2999.6v-1.5
		c5.5-1.399,6.101-2.5,6.101-5.801v-22.201c0-4.701-1-4.899-6.101-4.899v-1.5l14.601-5h1.601v33.602c0,3.301,0.601,4.4,6.102,5.801
		v1.5L626.588,2999.6L626.588,2999.6z"/>
	<path fill="#231F20" d="M836.397,2954.896l-12.301-8.4l-12.301,8.4l-1.2-1.1l11.399-16.502h4.2l11.401,16.502L836.397,2954.896z
		 M813.297,2999.6v-1.5c5.5-1.399,6.101-2.5,6.101-5.801v-22.201c0-4.701-1-4.899-6.101-4.899v-1.5l14.601-5h1.602v33.602
		c0,3.301,0.6,4.4,6.101,5.801v1.5L813.297,2999.6L813.297,2999.6z"/>
	<path fill="#231F20" d="M997.105,2944.795c0-3.198,2.601-5.899,6.101-5.899s5.9,2.701,5.9,5.899c0,3.302-2.4,6.103-5.9,6.103
		S997.105,2948.096,997.105,2944.795z M1000.007,2999.6v-1.5c5.5-1.399,6.101-2.5,6.101-5.801v-22.201c0-4.701-1-4.899-6.101-4.899
		v-1.5l14.601-5h1.601v33.602c0,3.301,0.601,4.4,6.102,5.801v1.5L1000.007,2999.6L1000.007,2999.6z M1012.508,2944.795
		c0-3.198,2.5-5.899,6-5.899s6.001,2.701,6.001,5.899c0,3.302-2.501,6.103-6.001,6.103S1012.508,2948.096,1012.508,2944.795z"/>
	<path fill="#231F20" d="M1186.716,2999.6v-1.5c5.5-1.399,6.101-2.5,6.101-5.801v-22.201c0-4.701-1-4.899-6.101-4.899v-1.5l14.601-5
		h1.601v33.602c0,3.301,0.601,4.4,6.102,5.801v1.5L1186.716,2999.6L1186.716,2999.6z"/>
	<path fill="#231F20" d="M1389.326,2955.396l-16.7-13.201l6.199-5.6h1.601l10.2,17.701L1389.326,2955.396z M1373.426,2999.6v-1.5
		c5.5-1.399,6.101-2.5,6.101-5.801v-22.201c0-4.701-1-4.899-6.101-4.899v-1.5l14.601-5h1.602v33.602c0,3.301,0.6,4.4,6.101,5.801
		v1.5L1373.426,2999.6L1373.426,2999.6z"/>
	<path fill="#231F20" d="M1559.233,2947.798v-4.701h23.401v4.701H1559.233z M1560.135,2999.6v-1.5c5.5-1.399,6.101-2.5,6.101-5.801
		v-22.201c0-4.701-1-4.899-6.101-4.899v-1.5l14.601-5h1.602v33.602c0,3.301,0.6,4.4,6.101,5.801v1.5L1560.135,2999.6
		L1560.135,2999.6z"/>
	<path fill="#231F20" d="M1767.744,3017.1c-3.199,3.801-7.501,5.899-11.399,5.899c-5.602,0-8.602-3.399-8.602-7.6
		c0-4.6,3.399-10.201,12.102-15.801h-13.001v-1.5c5.5-1.4,6.101-2.5,6.101-5.801v-22.201c0-4.701-1-4.9-6.101-4.9v-1.5l14.601-5
		h1.602v33.603c0,3.301,0.6,4.399,6.101,5.801v1.5h-6.601c-4.9,4.699-6.802,9.699-6.802,12.801c0,3.3,2,5.199,5.102,5.199
		c1.699,0,3.8-0.5,6.101-1.799L1767.744,3017.1z M1751.443,2944.795c0-3.299,2.601-6.1,6.2-6.1s6.101,2.801,6.101,6.1
		c0,3.4-2.5,6.201-6.101,6.201C1754.042,2950.996,1751.443,2948.195,1751.443,2944.795z"/>
	<path fill="#231F20" d="M251.869,3215.096c-1.601,7.801-4.899,12.1-9.4,12.1c-5.801,0-10.9-5-15.302-5c-2,0-4.3,1.603-5.8,5.4
		l-1.5-0.601c1.6-7.801,4.899-12.102,9.4-12.102c5.8,0,10.899,5.002,15.301,5.002c2,0,4.3-1.603,5.8-5.4L251.869,3215.096z
		 M225.167,3275.6v-1.5c5.5-1.399,6.102-2.5,6.102-5.801v-22.201c0-4.701-1-4.899-6.102-4.899v-1.5l14.602-5h1.601v33.602
		c0,3.301,0.601,4.4,6.102,5.801v1.5L225.167,3275.6L225.167,3275.6z"/>
	<path fill="#231F20" d="M433.592,3230.896l-12.302-8.4l-12.301,8.4l-1.2-1.1l11.4-16.502h4.2l11.399,16.502L433.592,3230.896z
		 M410.189,3298c6-5,6.6-11.6,6.6-21.102v-30.801c0-4.701-1-4.9-6.1-4.9v-1.5l14.601-5h1.601v38.201
		c0,12.4-6.101,20.803-15.301,26.502L410.189,3298z"/>
	<path fill="#231F20" d="M589.212,3286.3h1.5c2.899,6.301,6.199,9.502,10.101,9.502c2.6,0,5.4-1.701,5.4-6.603
		c0-3.1-1.302-7-4.802-12.899v-30.201c0-4.701-1-4.899-6.101-4.899v-1.5l14.602-5h1.601v39.901c1.801,3.601,3,7.199,3,10.4
		c0,9.899-9.4,14-15.602,14c-3.601,0-9.199-0.9-13.801-4.601L589.212,3286.3z M618.213,3230.896l-12.301-8.4l-12.301,8.4l-1.2-1.1
		l11.4-16.502h4.2l11.399,16.502L618.213,3230.896z"/>
	<path fill="#231F20" d="M824.336,3237.197c-6.302,2.199-9.9,4.601-13.501,8.101l-6.301,6.2l21.701,22.603v1.5h-12.301
		l-17.201-20.902v13.603c0,3.301,0.6,4.399,6.102,5.801v1.5h-22.303v-1.5c5.5-1.4,6.102-2.5,6.102-5.801v-51.803
		c0-4.603-1-4.802-6.102-4.802v-1.6l14.602-5h1.601v49.602l10.301-10.399c3.101-3.101,2.899-5.4-1.301-7.101v-1.5h18.603
		L824.336,3237.197L824.336,3237.197z M797.533,3300v-18.2h9.501v1.5l-8.001,16.7H797.533z"/>
	<path fill="#231F20" d="M989.655,3275.6v-1.5c5.5-1.399,6.102-2.5,6.102-5.801v-51.804c0-4.602-1-4.801-6.102-4.801v-1.6l14.602-5
		h1.601v63.203c0,3.301,0.601,4.399,6.101,5.801v1.5L989.655,3275.6L989.655,3275.6z M991.556,3203.994l-0.9-1.399l16.701-15.601
		l5.5,6.101v1.5L991.556,3203.994z"/>
	<path fill="#231F20" d="M1177.177,3275.6v-1.5c5.5-1.399,6.101-2.5,6.101-5.801v-51.804c0-4.602-1-4.801-6.101-4.801v-1.6l14.601-5
		h1.602v63.203c0,3.301,0.6,4.399,6.101,5.801v1.5L1177.177,3275.6L1177.177,3275.6z M1197.979,3226.396v-20.102h9.3v1.5
		l-7.8,18.602H1197.979z"/>
	<path fill="#231F20" d="M1369.301,3275.6v-1.5c5.5-1.399,6.101-2.5,6.101-5.801v-51.804c0-4.602-1-4.801-6.101-4.801v-1.6l14.601-5
		h1.602v63.203c0,3.301,0.6,4.399,6.101,5.801v1.5L1369.301,3275.6L1369.301,3275.6z M1376.001,3300v-18.2h9.5v1.5l-8,16.7H1376.001
		z"/>
	<path fill="#231F20" d="M1556.821,3275.6v-1.5c5.5-1.399,6.102-2.5,6.102-5.801v-51.804c0-4.602-1-4.801-6.102-4.801v-1.6l14.602-5
		h1.601v63.203c0,3.301,0.6,4.399,6.101,5.801v1.5L1556.821,3275.6L1556.821,3275.6z M1577.223,3242.498
		c0-3.301,2.6-6.102,6.101-6.102c3.601,0,6.2,2.801,6.2,6.102c0,3.398-2.601,6.199-6.2,6.199
		C1579.822,3248.697,1577.223,3245.896,1577.223,3242.498z"/>
	<path fill="#231F20" d="M1746.442,3275.6v-1.5c5.5-1.399,6.102-2.5,6.102-5.801v-21.402l-7.002,4.399l-1.898-3l8.9-5.6v-26.201
		c0-4.602-1-4.801-6.102-4.801v-1.6l14.602-5h1.601v31.301l6.899-4.4l2,3l-8.899,5.603v27.7c0,3.302,0.6,4.4,6.101,5.802v1.5
		H1746.442L1746.442,3275.6z"/>
	<path fill="#231F20" d="M253.169,3551.6v-1.5c5.602-1.399,5.7-2.5,5.7-5.801v-18.201c0-5.801-2.399-9.801-7.899-9.801
		c-5.4,0-9.602,3.801-9.602,11.5v16.502c0,3.301,0.101,4.399,5.602,5.801v1.5h-21.803v-1.5c5.5-1.399,6.102-2.5,6.102-5.801v-22.201
		c0-4.701-1-4.899-6.102-4.899v-1.5l14.602-5h1.601v7.198h0.601c2.699-4.698,7.7-7.801,13.9-7.801c7.2,0,13.001,4.603,13.001,13.902
		v20.301c0,3.301,0.601,4.399,6.2,5.801v1.5H253.169L253.169,3551.6z M241.969,3507.396l-1.301-1.1l10.2-17.701h1.501l6.3,5.6
		L241.969,3507.396z"/>
	<path fill="#231F20" d="M470.667,3551.6v-1.5c5.602-1.399,5.7-2.5,5.7-5.801v-18.201c0-5.801-2.399-9.801-7.899-9.801
		c-5.4,0-9.602,3.801-9.602,11.5v16.502c0,3.301,0.101,4.399,5.602,5.801v1.5h-21.803v-1.5c5.5-1.399,6.102-2.5,6.102-5.801v-22.201
		c0-4.701-1-4.899-6.102-4.899v-1.5l14.602-5h1.601v7.198h0.601c2.7-4.698,7.701-7.801,13.9-7.801c7.2,0,13.001,4.603,13.001,13.902
		v20.301c0,3.301,0.601,4.399,6.2,5.801v1.5H470.667L470.667,3551.6z M463.767,3506.197l-11.401-16.402l1.2-1.1l12.301,8.301
		l12.302-8.301l1.199,1.1l-11.399,16.402H463.767z"/>
	<path fill="#231F20" d="M688.163,3551.6v-1.5c5.602-1.399,5.7-2.5,5.7-5.801v-18.201c0-5.801-2.399-9.801-7.899-9.801
		c-5.4,0-9.602,3.801-9.602,11.5v16.502c0,3.301,0.101,4.399,5.602,5.801v1.5h-21.803v-1.5c5.5-1.399,6.102-2.5,6.102-5.801v-22.201
		c0-4.701-1-4.899-6.102-4.899v-1.5l14.602-5h1.601v7.198h0.601c2.699-4.698,7.7-7.801,13.9-7.801c7.2,0,13.001,4.603,13.001,13.902
		v20.301c0,3.301,0.601,4.399,6.2,5.801v1.5H688.163L688.163,3551.6z M679.963,3576v-18.2h9.501v1.5l-8,16.7H679.963z"/>
	<path fill="#231F20" d="M905.661,3551.6v-1.5c5.602-1.399,5.7-2.5,5.7-5.801v-18.201c0-5.801-2.399-9.801-7.899-9.801
		c-5.4,0-9.602,3.801-9.602,11.5v16.502c0,3.301,0.1,4.399,5.602,5.801v1.5h-21.803v-1.5c5.5-1.399,6.102-2.5,6.102-5.801v-22.201
		c0-4.701-1-4.899-6.102-4.899v-1.5l14.602-5h1.601v7.198h0.601c2.699-4.698,7.7-7.801,13.9-7.801c7.2,0,13.001,4.603,13.001,13.902
		v20.301c0,3.301,0.601,4.399,6.2,5.801v1.5H905.661L905.661,3551.6z M917.162,3491.096c-1.601,7.801-4.899,12.1-9.4,12.1
		c-5.8,0-10.9-5-15.302-5c-2,0-4.3,1.603-5.8,5.4l-1.5-0.601c1.601-7.801,4.899-12.102,9.4-12.102c5.8,0,10.9,5.002,15.301,5.002
		c2,0,4.3-1.603,5.8-5.4L917.162,3491.096z"/>
	<path fill="#231F20" d="M1094.557,3531.898c0-12.701,10.501-21.803,22.001-21.803c10.701,0,20.502,7.201,20.502,21.303
		c0,12.6-10.501,21.801-22.103,21.801C1104.258,3553.199,1094.557,3545.998,1094.557,3531.898z M1126.46,3534.498
		c0-8-2.602-20.899-11.802-20.899c-6.601,0-9.501,6.699-9.501,15.101c0,8,2.5,21.002,11.701,21.002
		C1123.559,3549.699,1126.46,3542.898,1126.46,3534.498z M1109.357,3507.396l-1.3-1.1l10.2-17.701h1.5l6.301,5.6L1109.357,3507.396z
		"/>
	<path fill="#231F20" d="M1304.854,3531.898c0-12.701,10.501-21.803,22.001-21.803c10.701,0,20.502,7.201,20.502,21.303
		c0,12.6-10.501,21.801-22.103,21.801C1314.554,3553.199,1304.854,3545.998,1304.854,3531.898z M1338.455,3488.895
		c0,9.603-3.398,17.002-12.5,17.002c-9.101,0-12.4-7.399-12.4-17.002l1.601-0.199c1.5,6,4.7,9.4,10.801,9.4s9.4-3.4,10.9-9.4
		L1338.455,3488.895z M1336.757,3534.498c0-8-2.602-20.899-11.802-20.899c-6.601,0-9.501,6.699-9.501,15.101
		c0,8,2.5,21.002,11.701,21.002C1333.855,3549.699,1336.757,3542.898,1336.757,3534.498z"/>
	<path fill="#231F20" d="M1515.149,3531.898c0-12.701,10.501-21.803,22.001-21.803c10.701,0,20.502,7.201,20.502,21.303
		c0,12.6-10.501,21.801-22.102,21.801C1524.85,3553.199,1515.149,3545.998,1515.149,3531.898z M1548.552,3506.896l-12.302-8.4
		l-12.301,8.4l-1.199-1.1l11.399-16.502h4.2l11.4,16.502L1548.552,3506.896z M1547.052,3534.498c0-8-2.602-20.899-11.802-20.899
		c-6.601,0-9.5,6.699-9.5,15.101c0,8,2.5,21.002,11.7,21.002C1544.151,3549.699,1547.052,3542.898,1547.052,3534.498z"/>
	<path fill="#231F20" d="M1725.446,3531.898c0-12.701,10.501-21.803,22.001-21.803c10.701,0,20.502,7.201,20.502,21.303
		c0,12.6-10.501,21.801-22.102,21.801C1735.146,3553.199,1725.446,3545.998,1725.446,3531.898z M1731.247,3496.795
		c0-3.198,2.5-5.899,6-5.899s6,2.701,6,5.899c0,3.302-2.5,6.103-6,6.103S1731.247,3500.096,1731.247,3496.795z M1757.349,3534.498
		c0-8-2.601-20.899-11.801-20.899c-6.602,0-9.501,6.699-9.501,15.101c0,8,2.5,21.002,11.701,21.002
		C1754.448,3549.699,1757.349,3542.898,1757.349,3534.498z M1749.848,3496.795c0-3.198,2.601-5.899,6.101-5.899s5.9,2.701,5.9,5.899
		c0,3.302-2.4,6.103-5.9,6.103S1749.848,3500.096,1749.848,3496.795z"/>
	<path fill="#231F20" d="M224.167,3807.898c0-12.701,10.501-21.803,22.001-21.803c10.701,0,20.502,7.201,20.502,21.303
		c0,12.6-10.501,21.801-22.102,21.801C233.867,3829.199,224.167,3821.998,224.167,3807.898z M251.469,3783.396l-16.701-13.201
		l6.199-5.6h1.602l10.2,17.701L251.469,3783.396z M256.069,3810.498c0-8-2.601-20.899-11.801-20.899
		c-6.602,0-9.501,6.699-9.501,15.101c0,8,2.5,21.002,11.701,21.002C253.169,3825.699,256.069,3818.898,256.069,3810.498z"/>
	<path fill="#231F20" d="M446.863,3807.898c0-12.701,10.501-21.803,22.001-21.803c10.701,0,20.502,7.201,20.502,21.303
		c0,12.6-10.501,21.801-22.102,21.801C456.563,3829.199,446.863,3821.998,446.863,3807.898z M456.465,3782.298l8.199-17.701h1.5
		l6.302,5l-14.701,13.801L456.465,3782.298z M478.766,3810.498c0-8-2.602-20.899-11.801-20.899c-6.602,0-9.501,6.699-9.501,15.101
		c0,8,2.5,21.002,11.7,21.002C475.865,3825.699,478.766,3818.898,478.766,3810.498z M470.165,3782.298l8.2-17.701h1.5l6.302,5
		l-14.701,13.801L470.165,3782.298z"/>
	<path fill="#231F20" d="M669.56,3807.898c0-12.701,10.501-21.803,22.001-21.803c10.701,0,20.502,7.201,20.502,21.303
		c0,12.6-10.501,21.801-22.102,21.801C679.26,3829.199,669.56,3821.998,669.56,3807.898z M677.06,3775.798v-4.701h27.302v4.701
		H677.06z M701.463,3810.498c0-8-2.602-20.899-11.802-20.899c-6.601,0-9.501,6.699-9.501,15.101c0,8,2.5,21.002,11.701,21.002
		C698.562,3825.699,701.463,3818.898,701.463,3810.498z"/>
	<path fill="#231F20" d="M892.257,3807.898c0-12.701,10.501-21.803,22.001-21.803c10.7,0,20.502,7.201,20.502,21.303
		c0,12.6-10.501,21.801-22.103,21.801C901.956,3829.199,892.257,3821.998,892.257,3807.898z M929.358,3767.096
		c-1.601,7.801-4.9,12.1-9.401,12.1c-5.8,0-10.899-5-15.301-5c-2,0-4.3,1.603-5.8,5.4l-1.5-0.601c1.6-7.801,4.9-12.102,9.4-12.102
		c5.8,0,10.899,5.002,15.301,5.002c2,0,4.3-1.603,5.801-5.4L929.358,3767.096z M924.158,3810.498c0-8-2.601-20.899-11.801-20.899
		c-6.601,0-9.501,6.699-9.501,15.101c0,8,2.5,21.002,11.701,21.002C921.259,3825.699,924.158,3818.898,924.158,3810.498z"/>
	<path fill="#231F20" d="M1113.354,3827.6v-1.5c5.601-1.399,6.2-2.5,6.2-5.801v-22.201c0-4.701-1.101-4.899-6.2-4.899v-1.5l14.701-5
		h1.5v11.5h0.7c1.899-6.701,8-12.5,14.501-12.103v9.402c-11.501,0-15.201,4.6-15.201,12.698v12.103c0,3.301,0.399,4.399,8.001,5.801
		v1.5H1113.354L1113.354,3827.6z M1122.355,3783.396l-1.301-1.1l10.201-17.701h1.5l6.301,5.6L1122.355,3783.396z"/>
	<path fill="#231F20" d="M1321.35,3827.6v-1.5c5.601-1.399,6.2-2.5,6.2-5.801v-22.201c0-4.701-1.101-4.899-6.2-4.899v-1.5l14.701-5
		h1.5v11.5h0.699c1.9-6.701,8-12.5,14.502-12.103v9.402c-11.502,0-15.201,4.6-15.201,12.698v12.103c0,3.301,0.399,4.399,8,5.801v1.5
		H1321.35L1321.35,3827.6z M1334.95,3782.197l-11.399-16.402l1.199-1.1l12.302,8.301l12.301-8.301l1.2,1.1l-11.401,16.402H1334.95z"
		/>
	<path fill="#231F20" d="M1529.346,3827.6v-1.5c5.601-1.399,6.199-2.5,6.199-5.801v-22.201c0-4.701-1.1-4.899-6.199-4.899v-1.5
		l14.701-5h1.5v11.5h0.699c1.9-6.701,8-12.5,14.501-12.103v9.402c-11.501,0-15.2,4.6-15.2,12.698v12.103
		c0,3.301,0.399,4.399,8,5.801v1.5H1529.346L1529.346,3827.6z M1536.146,3852v-18.2h9.5v1.5l-8,16.7H1536.146z"/>
	<path fill="#231F20" d="M1742.242,3816.699h1.501c2.7,5.5,6.4,9.301,11,9.301c3.2,0,5.9-2.102,5.9-5.399
		c0-10.801-21.603-8.402-21.603-21.902c0-7.899,7.802-12.602,15.103-12.602c4,0,9.601,0.5,14.601,3.801l-4,7.603h-1.5
		c-3.301-5.4-7.2-8.201-10.399-8.201c-3.001,0-5.602,1.899-5.602,4.899c0,9.802,21.801,7.601,21.801,21.701
		c0,7.801-7.601,13.301-15.899,13.301c-3.7,0-9.9-0.5-15.103-3.801L1742.242,3816.699z M1746.143,3783.396l-1.3-1.1l10.199-17.701
		h1.501l6.301,5.6L1746.143,3783.396z"/>
	<path fill="#231F20" d="M228.967,4092.699h1.501c2.7,5.5,6.4,9.301,11.001,9.301c3.199,0,5.899-2.102,5.899-5.399
		c0-10.801-21.602-8.403-21.602-21.903c0-7.899,7.801-12.602,15.102-12.602c4,0,9.602,0.5,14.602,3.801l-4,7.603h-1.5
		c-3.302-5.4-7.2-8.201-10.4-8.201c-3.001,0-5.601,1.899-5.601,4.899c0,9.802,21.801,7.601,21.801,21.701
		c0,7.801-7.602,13.301-15.9,13.301c-3.7,0-9.899-0.5-15.102-3.801L228.967,4092.699z M237.868,4058.197l-11.401-16.402l1.2-1.1
		l12.301,8.301l12.302-8.301l1.2,1.1l-11.4,16.402H237.868z"/>
	<path fill="#231F20" d="M423.064,4125.4c3.7-1.4,6.001-3.5,6.001-6c0-1.9-1.7-3.9-7.2-4.5v-1.602l5.3-8.199
		c-3.699-0.101-8.801-0.9-13.2-3.701l4.199-8.699h1.501c2.7,5.5,6.4,9.301,11,9.301c3.2,0,5.9-2.102,5.9-5.4
		c0-10.801-21.602-8.402-21.602-21.902c0-7.9,7.801-12.603,15.102-12.603c4,0,9.602,0.5,14.602,3.801l-4,7.603h-1.5
		c-3.302-5.399-7.2-8.201-10.4-8.201c-3.001,0-5.602,1.9-5.602,4.9c0,9.801,21.802,7.6,21.802,21.7c0,7.201-6.4,12.401-13.9,13.201
		l-2.601,4.101c4.899,0.899,8.501,3.701,8.501,7.701c0,5.399-5.501,9-13.401,10.101L423.064,4125.4z"/>
	<path fill="#231F20" d="M607.362,4092.699h1.501c2.7,5.5,6.4,9.301,11,9.301c3.2,0,5.9-2.102,5.9-5.399
		c0-10.801-21.603-8.403-21.603-21.903c0-7.899,7.802-12.602,15.103-12.602c4,0,9.601,0.5,14.601,3.801l-4,7.603h-1.5
		c-3.301-5.4-7.2-8.201-10.399-8.201c-3.001,0-5.602,1.899-5.602,4.899c0,9.802,21.801,7.601,21.801,21.701
		c0,7.801-7.601,13.301-15.899,13.301c-3.7,0-9.9-0.5-15.103-3.801L607.362,4092.699z M630.965,4058.896l-12.302-8.4l-12.301,8.4
		l-1.199-1.1l11.4-16.502h4.2l11.399,16.502L630.965,4058.896z"/>
	<path fill="#231F20" d="M797.26,4092.699h1.501c2.699,5.5,6.399,9.301,11,9.301c3.199,0,5.899-2.102,5.899-5.399
		c0-10.801-21.602-8.403-21.602-21.903c0-7.899,7.801-12.602,15.102-12.602c4,0,9.602,0.5,14.602,3.801l-4,7.603h-1.5
		c-3.302-5.4-7.2-8.201-10.4-8.201c-3.001,0-5.601,1.899-5.601,4.899c0,9.802,21.801,7.601,21.801,21.701
		c0,7.801-7.602,13.301-15.9,13.301c-3.699,0-9.899-0.5-15.102-3.801L797.26,4092.699z M804.359,4128v-18.201h9.501v1.5
		L805.859,4128H804.359z"/>
	<path fill="#231F20" d="M998.157,4066.697v12.301h13.201v3.699h-13.201v7.301c0,6.603,2.602,9.201,6.301,9.201
		c1.801,0,4.801-0.899,6.602-2.399l1.1,1.199c-3,4.399-7.301,7.201-12.399,7.201c-7.001,0-11.602-4.301-11.602-13.201v-9.301h-6.201
		v-3.699h6.201v-12.301h-6.201v-1.5l14.701-10.801h1.5v9.301h13.201v3L998.157,4066.697L998.157,4066.697z"/>
	<path fill="#231F20" d="M1197.257,4097.998c-3,4.4-7.302,7.201-12.4,7.201c-7.001,0-11.601-4.301-11.601-13.2v-25.302h-6.201v-1.5
		l14.701-10.801h1.5v9.301h13.2v3h-13.2v23.302c0,6.602,2.601,9.2,6.301,9.2c1.8,0,4.8-0.899,6.601-2.399L1197.257,4097.998z
		 M1186.556,4057.096v-20.103h9.3v1.502l-7.8,18.601H1186.556z"/>
	<path fill="#231F20" d="M1361.652,4125.4c3.7-1.4,6-3.5,6-6c0-1.9-1.7-3.9-7.2-4.5v-1.602l5.602-8.601
		c-4.801-1.301-7.7-5.5-7.7-12.701v-25.301h-6.201v-1.5l14.701-10.801h1.5v9.301h13.201v3h-13.201v23.301
		c0,6.603,2.601,9.201,6.301,9.201c1.8,0,4.8-0.899,6.602-2.399l1.1,1.199c-3,4.399-7.301,7.201-12.4,7.201h-0.399l-2.5,4
		c4.899,0.899,8.5,3.701,8.5,7.701c0,5.399-5.5,9-13.4,10.1L1361.652,4125.4z"/>
	<path fill="#231F20" d="M1567.451,4097.998c-3,4.4-7.301,7.201-12.399,7.201c-7.001,0-11.602-4.301-11.602-13.2v-25.302h-6.201
		v-1.5l14.701-10.801h1.5v9.301h13.201v3h-13.201v23.302c0,6.602,2.602,9.2,6.302,9.2c1.8,0,4.8-0.899,6.601-2.399
		L1567.451,4097.998z M1547.85,4128v-18.201h9.501v1.5L1549.35,4128H1547.85z"/>
	<path fill="#231F20" d="M1757.449,4104.601h-1.5v-7.201h-0.7c-2.699,4.701-7.5,7.801-13.7,7.801c-7.2,0-12.7-4.601-12.7-13.9
		v-17.201c0-4.701-1-4.9-6.102-4.9v-1.5l14.602-5h1.601v26.4c0,5.801,1.899,9.701,7.5,9.701c5.4,0,9.501-3.802,9.501-11.603v-13.101
		c0-4.7-1.101-4.899-6.199-4.899v-1.5l14.699-5h1.5v30.502c0,4.601,1.102,4.799,6.201,4.799v1.603L1757.449,4104.601z
		 M1742.448,4059.396l-1.3-1.1l10.2-17.701h1.5l6.301,5.6L1742.448,4059.396z"/>
	<path fill="#231F20" d="M258.869,4380.601h-1.5v-7.201h-0.7c-2.699,4.701-7.5,7.801-13.701,7.801
		c-7.199,0-12.699-4.601-12.699-13.899V4350.1c0-4.701-1-4.9-6.102-4.9v-1.5l14.602-5h1.601v26.4c0,5.801,1.899,9.701,7.5,9.701
		c5.4,0,9.501-3.801,9.501-11.603v-13.101c0-4.701-1.101-4.899-6.2-4.899v-1.5l14.7-5h1.5v30.502c0,4.601,1.102,4.799,6.201,4.799
		v1.603L258.869,4380.601z M261.569,4316.896c0,9.603-3.4,17.002-12.501,17.002c-9.102,0-12.4-7.399-12.4-17.002l1.601-0.199
		c1.5,6,4.7,9.399,10.801,9.399s9.4-3.399,10.9-9.399L261.569,4316.896z"/>
	<path fill="#231F20" d="M472.951,4380.601h-1.5v-7.201h-0.7c-2.699,4.701-7.5,7.801-13.7,7.801c-7.2,0-12.7-4.601-12.7-13.899
		V4350.1c0-4.701-1-4.9-6.102-4.9v-1.5l14.602-5h1.601v26.4c0,5.801,1.899,9.701,7.5,9.701c5.4,0,9.501-3.801,9.501-11.603v-13.101
		c0-4.701-1.101-4.899-6.199-4.899v-1.5l14.699-5h1.5v30.502c0,4.601,1.102,4.799,6.201,4.799v1.603L472.951,4380.601z
		 M475.151,4334.896l-12.301-8.4l-12.301,8.4l-1.2-1.1l11.399-16.502h4.2l11.401,16.502L475.151,4334.896z"/>
	<path fill="#231F20" d="M687.033,4380.601h-1.5v-7.201h-0.7c-2.699,4.701-7.5,7.801-13.7,7.801c-7.2,0-12.7-4.601-12.7-13.899
		V4350.1c0-4.701-1-4.9-6.102-4.9v-1.5l14.602-5h1.601v26.4c0,5.801,1.899,9.701,7.5,9.701c5.4,0,9.501-3.801,9.501-11.603v-13.101
		c0-4.701-1.101-4.899-6.199-4.899v-1.5l14.699-5h1.5v30.502c0,4.601,1.102,4.799,6.201,4.799v1.603L687.033,4380.601z
		 M661.932,4324.795c0-3.199,2.5-5.899,6-5.899c3.501,0,6.001,2.701,6.001,5.899c0,3.301-2.5,6.103-6.001,6.103
		C664.432,4330.896,661.932,4328.097,661.932,4324.795z M680.533,4324.795c0-3.199,2.601-5.899,6.101-5.899
		c3.501,0,5.899,2.701,5.899,5.899c0,3.301-2.398,6.103-5.899,6.103C683.134,4330.896,680.533,4328.097,680.533,4324.795z"/>
	<path fill="#231F20" d="M901.115,4380.601h-1.5v-7.201h-0.7c-2.699,4.701-7.5,7.801-13.7,7.801c-7.2,0-12.7-4.601-12.7-13.899
		V4350.1c0-4.701-1-4.9-6.102-4.9v-1.5l14.602-5h1.601v26.4c0,5.801,1.899,9.701,7.5,9.701c5.4,0,9.501-3.801,9.501-11.603v-13.101
		c0-4.701-1.101-4.899-6.2-4.899v-1.5l14.7-5h1.5v30.502c0,4.601,1.102,4.799,6.201,4.799v1.603L901.115,4380.601z
		 M897.115,4335.396l-16.701-13.201l6.2-5.6h1.602l10.199,17.701L897.115,4335.396z"/>
	<path fill="#231F20" d="M1115.196,4380.601h-1.5v-7.201h-0.699c-2.7,4.701-7.5,7.801-13.701,7.801c-7.2,0-12.7-4.601-12.7-13.899
		V4350.1c0-4.701-1-4.9-6.101-4.9v-1.5l14.601-5h1.601v26.4c0,5.801,1.9,9.701,7.5,9.701c5.4,0,9.501-3.801,9.501-11.603v-13.101
		c0-4.701-1.101-4.899-6.2-4.899v-1.5l14.7-5h1.5v30.502c0,4.601,1.102,4.799,6.201,4.799v1.603L1115.196,4380.601z
		 M1093.296,4334.297l8.199-17.701h1.5l6.302,5l-14.701,13.801L1093.296,4334.297z M1106.996,4334.297l8.2-17.701h1.5l6.301,5
		l-14.701,13.801L1106.996,4334.297z"/>
	<path fill="#231F20" d="M1329.279,4380.601h-1.5v-7.201h-0.7c-2.699,4.701-7.5,7.801-13.7,7.801c-7.2,0-12.7-4.601-12.7-13.899
		V4350.1c0-4.701-1-4.9-6.102-4.9v-1.5l14.602-5h1.601v26.4c0,5.801,1.899,9.701,7.5,9.701c5.4,0,9.501-3.801,9.501-11.603v-13.101
		c0-4.701-1.101-4.899-6.199-4.899v-1.5l14.699-5h1.5v30.502c0,4.601,1.102,4.799,6.201,4.799v1.603L1329.279,4380.601z
		 M1305.879,4327.797v-4.701h27.302v4.701H1305.879z"/>
	<path fill="#231F20" d="M1553.463,4377.199c-5.602,5.601-7.4,12.101-7.4,15.201c0,3.299,2,5.199,5.101,5.199c1.7,0,3.7-0.5,6-1.799
		l0.9,1.299c-3.2,3.801-7.501,5.9-11.501,5.9c-5.601,0-8.601-3.4-8.601-7.6c0-4.301,3.3-11,11.399-16.801l-6,2h-1.5v-7.201h-0.7
		c-2.699,4.701-7.5,7.801-13.7,7.801c-7.2,0-12.7-4.601-12.7-13.9v-17.201c0-4.701-1-4.9-6.102-4.9v-1.5l14.602-5h1.601v26.4
		c0,5.801,1.899,9.701,7.5,9.701c5.4,0,9.501-3.801,9.501-11.602v-13.101c0-4.701-1.101-4.899-6.199-4.899v-1.5l14.699-5h1.5v30.502
		c0,4.6,1.102,4.799,6.201,4.799v1.602L1553.463,4377.199z"/>
	<path fill="#231F20" d="M1757.443,4380.601h-1.5v-7.201h-0.7c-2.699,4.701-7.5,7.801-13.701,7.801
		c-7.199,0-12.699-4.601-12.699-13.899V4350.1c0-4.701-1-4.9-6.102-4.9v-1.5l14.602-5h1.601v26.4c0,5.801,1.899,9.701,7.5,9.701
		c5.4,0,9.501-3.801,9.501-11.603v-13.101c0-4.701-1.101-4.899-6.2-4.899v-1.5l14.7-5h1.5v30.502c0,4.601,1.102,4.799,6.201,4.799
		v1.603L1757.443,4380.601z M1747.442,4334.297c-4,0-9.2-2.899-9.2-8.701c0-5.801,5.2-8.801,9.2-8.801c4.001,0,9.201,3,9.201,8.801
		S1751.443,4334.297,1747.442,4334.297z M1751.643,4325.597c0-2.801-2-4.399-4.2-4.399s-4.2,1.6-4.2,4.399s2,4.399,4.2,4.399
		S1751.643,4328.396,1751.643,4325.597z"/>
	<path fill="#231F20" d="M258.869,4656.601h-1.5v-7.201h-0.7c-2.699,4.701-7.5,7.801-13.701,7.801
		c-7.199,0-12.699-4.601-12.699-13.899V4626.1c0-4.701-1-4.9-6.102-4.9v-1.5l14.602-5h1.601v26.4c0,5.801,1.899,9.701,7.5,9.701
		c5.4,0,9.501-3.801,9.501-11.603v-13.101c0-4.701-1.101-4.899-6.2-4.899v-1.5l14.7-5h1.5v30.502c0,4.601,1.102,4.799,6.201,4.799
		v1.603L258.869,4656.601z M265.17,4595.097c-1.601,7.801-4.899,12.101-9.4,12.101c-5.8,0-10.9-5-15.301-5
		c-2,0-4.301,1.602-5.801,5.399l-1.5-0.601c1.601-7.801,4.899-12.102,9.4-12.102c5.8,0,10.9,5.002,15.301,5.002
		c2,0,4.3-1.602,5.8-5.4L265.17,4595.097z"/>
	<path fill="#231F20" d="M471.938,4656.799l-11.9-26.102h-0.699l-10.302,26.102h-2.8l-14.4-33.502c-1.301-2.899-2.301-4.6-6.2-6.1
		v-1.5h20.602v1.5c-3.601,1.5-4.7,2.699-3.601,5.4l7.701,20.102h0.6l10.4-27.002h2.899l11.9,27.002h0.7l6.301-18.402
		c1.2-3.399,0.1-5.399-4.2-7.1v-1.5h15.9v1.5c-4.801,1.6-6.601,4.299-8.102,8.1l-12,31.502H471.938z M455.137,4611.396l-1.3-1.1
		l10.199-17.701h1.5l6.302,5.6L455.137,4611.396z"/>
	<path fill="#231F20" d="M695.605,4656.799l-11.9-26.102h-0.699l-10.302,26.102h-2.8l-14.401-33.502c-1.3-2.899-2.3-4.6-6.199-6.1
		v-1.5h20.602v1.5c-3.601,1.5-4.7,2.699-3.601,5.4l7.7,20.102h0.601l10.399-27.002h2.9l11.9,27.002h0.7l6.301-18.402
		c1.2-3.399,0.1-5.399-4.2-7.1v-1.5h15.9v1.5c-4.801,1.6-6.601,4.299-8.102,8.1l-12,31.502H695.605z M697.507,4610.896l-12.302-8.4
		l-12.301,8.4l-1.2-1.1l11.401-16.502h4.2l11.399,16.502L697.507,4610.896z"/>
	<path fill="#231F20" d="M919.273,4656.799l-11.9-26.102h-0.699l-10.302,26.102h-2.8l-14.4-33.502c-1.301-2.899-2.301-4.6-6.2-6.1
		v-1.5h20.602v1.5c-3.601,1.5-4.7,2.699-3.601,5.4l7.701,20.102h0.6l10.4-27.002h2.899l11.9,27.002h0.7l6.301-18.402
		c1.2-3.399,0.1-5.399-4.2-7.1v-1.5h15.9v1.5c-4.801,1.6-6.601,4.299-8.102,8.1l-12,31.502H919.273z M893.572,4600.795
		c0-3.199,2.5-5.899,6-5.899s6.001,2.701,6.001,5.899c0,3.301-2.501,6.103-6.001,6.103S893.572,4604.097,893.572,4600.795z
		 M912.174,4600.795c0-3.199,2.601-5.899,6.101-5.899s5.9,2.701,5.9,5.899c0,3.301-2.4,6.103-5.9,6.103
		S912.174,4604.097,912.174,4600.795z"/>
	<path fill="#231F20" d="M1142.942,4656.799l-11.9-26.102h-0.699l-10.301,26.102h-2.801l-14.4-33.502
		c-1.301-2.899-2.301-4.6-6.2-6.1v-1.5h20.602v1.5c-3.601,1.5-4.699,2.699-3.601,5.4l7.701,20.102h0.6l10.4-27.002h2.9
		l11.899,27.002h0.7l6.301-18.402c1.2-3.399,0.1-5.399-4.2-7.1v-1.5h15.9v1.5c-4.8,1.6-6.6,4.299-8.101,8.1l-12,31.502H1142.942z
		 M1136.844,4611.396l-16.701-13.201l6.2-5.6h1.6l10.201,17.701L1136.844,4611.396z"/>
	<path fill="#231F20" d="M1329.01,4677.4v-1.5l13.699-19.602l-16.2-33.002c-1.399-2.9-2.301-4.601-6.2-6.101v-1.5h20.802v1.5
		c-3.601,1.5-4.899,2.799-3.7,5.399l10.102,22.201h0.699l7.801-20.502c1.199-3.399,0-5.399-4.301-7.1v-1.5h15.9v1.5
		c-4.7,1.6-6.5,4.299-8,8.1l-13.301,32.304l-6.501,19.801L1329.01,4677.4L1329.01,4677.4z M1341.01,4611.396l-1.301-1.1l10.2-17.701
		h1.501l6.301,5.6L1341.01,4611.396z"/>
	<path fill="#231F20" d="M1530.878,4677.4v-1.5l13.699-19.602l-16.201-33.002c-1.398-2.9-2.3-4.601-6.199-6.101v-1.5h20.802v1.5
		c-3.601,1.5-4.9,2.799-3.7,5.399l10.102,22.201h0.699l7.801-20.502c1.199-3.399,0-5.399-4.301-7.1v-1.5h15.9v1.5
		c-4.7,1.6-6.5,4.299-8,8.1l-13.301,32.304l-6.501,19.801L1530.878,4677.4L1530.878,4677.4z M1559.479,4610.896l-12.301-8.4
		l-12.301,8.4l-1.2-1.1l11.399-16.502h4.2l11.401,16.502L1559.479,4610.896z"/>
	<path fill="#231F20" d="M1732.746,4677.4v-1.5l13.7-19.602l-16.201-33.002c-1.398-2.9-2.3-4.601-6.199-6.101v-1.5h20.802v1.5
		c-3.602,1.5-4.9,2.799-3.7,5.399l10.101,22.201h0.7l7.8-20.502c1.2-3.399,0-5.399-4.3-7.1v-1.5h15.9v1.5c-4.7,1.6-6.5,4.299-8,8.1
		l-13.301,32.304l-6.502,19.801L1732.746,4677.4L1732.746,4677.4z M1733.746,4600.795c0-3.199,2.5-5.899,6-5.899s6,2.701,6,5.899
		c0,3.301-2.5,6.103-6,6.103S1733.746,4604.097,1733.746,4600.795z M1752.347,4600.795c0-3.199,2.601-5.899,6.101-5.899
		s5.9,2.701,5.9,5.899c0,3.301-2.4,6.103-5.9,6.103S1752.347,4604.097,1752.347,4600.795z"/>
	<path fill="#231F20" d="M230.468,4953.4v-1.5l13.7-19.602l-16.201-33.002c-1.398-2.898-2.3-4.601-6.199-6.101v-1.5h20.802v1.5
		c-3.601,1.5-4.9,2.801-3.7,5.399l10.102,22.201h0.699l7.801-20.502c1.199-3.397,0-5.399-4.301-7.1v-1.5h15.9v1.5
		c-4.7,1.6-6.5,4.301-8,8.1l-13.301,32.304l-6.501,19.801L230.468,4953.4L230.468,4953.4z M251.469,4887.396l-16.701-13.201
		l6.199-5.6h1.602l10.2,17.701L251.469,4887.396z"/>
	<path fill="#231F20" d="M422.068,4931.601v-1.5l21.602-34.703v-0.699h-5.4c-6.1,0-9.3,1.199-13.601,9.899h-1.601v-12.899h32.702
		v1.5l-21.602,34.701v0.603h5.5c6.101,0,9.301-1.103,13.601-10.201h1.5v13.301L422.068,4931.601L422.068,4931.601z
		 M433.568,4887.396l-1.3-1.1l10.2-17.701h1.501l6.3,5.6L433.568,4887.396z"/>
	<path fill="#231F20" d="M613.067,4931.601v-1.5l21.602-34.703v-0.699h-5.4c-6.1,0-9.3,1.199-13.602,9.899h-1.6v-12.899h32.702v1.5
		l-21.602,34.701v0.603h5.5c6.101,0,9.301-1.103,13.601-10.201h1.5v13.301L613.067,4931.601L613.067,4931.601z M627.868,4886.197
		l-11.4-16.402l1.199-1.1l12.302,8.301l12.301-8.301l1.2,1.1l-11.4,16.402H627.868z"/>
	<path fill="#231F20" d="M804.066,4931.601v-1.5l21.601-34.703v-0.699h-5.399c-6.101,0-9.3,1.199-13.602,9.899h-1.6v-12.899h32.702
		v1.5l-21.602,34.701v0.603h5.5c6.101,0,9.301-1.103,13.601-10.201h1.5v13.301L804.066,4931.601L804.066,4931.601z
		 M814.968,4876.797c0-3.301,2.6-6.102,6.101-6.102c3.601,0,6.2,2.801,6.2,6.102c0,3.4-2.602,6.199-6.2,6.199
		C817.566,4882.996,814.968,4880.197,814.968,4876.797z"/>
	<path fill="#231F20" d="M1050.969,4920.898c-3.501,9.102-10.301,12.301-16.401,12.301c-7.7,0-13.701-3.9-16.701-10.5h-0.7
		c-3.399,7.4-10.199,10.5-15.399,10.5c-4.801,0-9.001-2.9-9.001-7.9c0-4.6,4-6.801,22.802-13.301v-6c0-5.801-2.801-8.6-8.001-8.6
		c-4.6,0-9.8,2.199-13.301,6.199l-1.399-1.1c3.8-6.201,11.602-12.4,20.201-12.4c4.101,0,8.2,1.299,10.4,4.6
		c3.3-2.899,7.601-4.6,12.2-4.6c7.601,0,15.802,4.199,15.102,14.801h-25.502c-0.1,0.9-0.1,1.799-0.1,2.699
		c0,12.201,6.199,17.801,13.001,17.801c3.699,0,8.899-1.699,11.301-5.4L1050.969,4920.898z M1015.566,4918.498v-3.5
		c-11.701,4.201-13.001,6.301-13.001,8.502c0,2.199,1.7,3.5,4.2,3.5C1010.266,4927,1015.566,4923.799,1015.566,4918.498z
		 M1018.267,4887.396l-1.3-1.1l10.199-17.701h1.5l6.302,5.6L1018.267,4887.396z M1025.667,4901.898h14.802
		c0.1-5.701-3-8.801-6.4-8.801C1029.067,4893.099,1026.566,4897.099,1025.667,4901.898z"/>
</g>
</svg>
