<?xml version="1.0" encoding="utf-8"?>
<!-- Generator: Adobe Illustrator 16.0.3, SVG Export Plug-In . SVG Version: 6.00 Build 0)  -->
<!DOCTYPE svg PUBLIC "-//W3C//DTD SVG 1.1//EN" "http://www.w3.org/Graphics/SVG/1.1/DTD/svg11.dtd">
<svg version="1.1" id="Layer_1" xmlns="http://www.w3.org/2000/svg" xmlns:xlink="http://www.w3.org/1999/xlink" x="0px" y="0px"
	 width="1551.279px" height="4205.903px" viewBox="221.766 177.296 1551.279 4205.903"
	 enable-background="new 221.766 177.296 1551.279 4205.903" xml:space="preserve">
<g>
	<path fill="#231F20" d="M224.467,209.398c0-18.9,10.002-31.701,24.803-31.701c14.701,0,24.802,12.801,24.802,31.701
		s-10.101,31.803-24.802,31.803C234.469,241.201,224.467,228.299,224.467,209.398z M262.369,209.398
		c0-19.602-5.3-27.901-13.101-27.901c-7.802,0-13.201,8.301-13.201,27.901c0,19.602,5.399,28.002,13.201,28.002
		C257.069,237.4,262.369,229,262.369,209.398z"/>
	<path fill="#231F20" d="M444.864,209.398c0-18.9,10.001-31.701,24.803-31.701c14.7,0,24.802,12.801,24.802,31.701
		s-10.102,31.803-24.802,31.803C454.865,241.201,444.864,228.299,444.864,209.398z M459.967,230.299l16.001-46.401
		c-1.9-1.602-4.001-2.4-6.301-2.4c-7.802,0-13.201,8.301-13.201,27.901C456.466,218.899,457.766,225.799,459.967,230.299z
		 M482.767,209.398c0-10.2-1.5-17.301-3.9-21.801L462.766,234.5c1.899,2,4.3,2.9,6.899,2.9
		C477.468,237.4,482.767,229,482.767,209.398z"/>
	<path fill="#231F20" d="M666.261,239.6v-1.5c8.301-1.7,9.801-3,9.801-7.501v-38.902c0-4.6-1.4-4.8-6.5-4.8h-3.601v-1.602l19.2-8
		h1.602v53.304c0,4.501,1.5,5.801,9.8,7.501v1.5H666.261z"/>
	<path fill="#231F20" d="M865.957,239.6v-1.5c12.4-12.501,30.303-27.103,30.303-43.604c0-9.399-4.2-13.001-9.5-13.001
		c-7.302,0-12.401,5.3-16.701,14.701h-1.5v-14.602c6.2-2.399,14.101-3.899,19.901-3.899c10.5,0,19.301,5.3,19.301,16.7
		c0,15.001-17.501,24.702-29.603,35.901v0.5h14.302c6.101,0,9.601-0.398,13.899-8.699h1.602V239.6H865.957z"/>
	<path fill="#231F20" d="M1081.754,222.699h1.5c3.899,9.401,9.301,14.701,17.102,14.701c6.101,0,11.9-3.4,11.9-12.9
		c0-10.201-8.2-14.501-17.102-15.9v-1.5l16.001-18.501v-0.5h-14.701c-6.101,0-9.2,0.398-13.2,8.699h-1.5v-17.501h40.603v1.5
		l-19.102,22.603c11.701,1.899,20.102,7.801,20.102,18.101c0,12.302-12.301,19.702-23.802,19.702c-5.8,0-12.5-1.399-17.801-3.899
		V222.699z"/>
	<path fill="#231F20" d="M1313.65,239.6v-1.5c7.301-1.7,8.501-3,8.501-7.501V226.2h-29.702v-1.501l32.202-45.402h7.501v38.402h10.2
		v8.501h-10.2v4.399c0,4.501,1.199,5.801,8.5,7.501v1.5H1313.65L1313.65,239.6z M1322.151,189.597h-0.5l-19.501,27.4v0.7h20.001
		V189.597z"/>
	<path fill="#231F20" d="M1551.249,196.797c-4-8.301-7.102-8.699-13.201-8.699h-16.2l-1.101,15.399c3.5-0.8,7.5-1.1,10.5-1.1
		c16.302,0,25.303,7.601,25.303,18.801c0,12.301-12.103,20.002-24.002,20.002c-5.801,0-12.001-1.4-17.401-3.9v-14.602h1.601
		c3.9,9.401,8.302,14.701,16.102,14.701c6.801,0,12.602-5,12.602-14.4c0-10.201-7.101-16.102-18.802-16.102c-2.6,0-6.5,0.3-9.601,1
		l-0.801-1.399l2-27.202h34.502v17.501H1551.249z"/>
	<path fill="#231F20" d="M1740.743,205.698c3.801-2.399,9.2-3.5,12.7-3.5c12.101,0,19.603,6.9,19.603,18.102
		c0,11.9-10.802,20.901-21.803,20.901c-13.399,0-22.9-9.602-22.9-24.502c0-18.901,15.701-34.002,34.103-39.002l0.7,1.699
		C1753.443,184.197,1744.143,192.597,1740.743,205.698z M1740.044,208.999c-0.4,2.399-0.602,5-0.602,7.7
		c0,15.001,5.2,20.701,11.801,20.701c6.302,0,10.701-5.7,10.701-15.4c0-10.9-5.699-15.302-13.301-15.302
		C1746.044,206.698,1742.943,207.398,1740.044,208.999z"/>
	<path fill="#231F20" d="M232.469,515.6v-1.5l28.501-49.503v-0.5h-20.4c-6.101,0-9.602,0.398-13.901,8.7h-1.5v-17.501h41.604v1.5
		L242.769,515.6H232.469z"/>
	<path fill="#231F20" d="M470.096,482.499c6.899,3.399,13.001,7.601,13.001,15.7c0,12.901-12.801,19.002-22.401,19.002
		c-11.2,0-21.602-4.801-21.602-15.4c0-7.7,5.501-13.102,13.201-16.302c-6.302-3.199-11.602-7.399-11.602-14.9
		c0-11.801,11.2-16.9,20.701-16.9c9.7,0,20.001,4.8,20.001,14.4C481.396,475.298,475.896,479.598,470.096,482.499z M454.896,486.699
		c-4.2,3.7-5.801,9-5.801,13.801c0,8.602,5.899,12.9,12.801,12.9c6.4,0,12.301-4.101,12.301-11.101
		C474.196,493.899,463.996,490.899,454.896,486.699z M467.096,481.198c2.899-3.1,4.301-7.399,4.301-12.101
		c0-7.7-5.4-11.602-11.201-11.602c-5.5,0-10.601,3.102-10.601,9.001C449.595,474.298,458.495,477.398,467.096,481.198z"/>
	<path fill="#231F20" d="M667.519,515.5c9.7-4.801,19.001-13.102,22.401-26.201c-3.7,2.399-9.102,3.399-12.602,3.399
		c-12.102,0-19.602-6.899-19.602-18.102c0-11.9,10.801-20.9,21.802-20.9c13.301,0,22.901,9.602,22.901,24.501
		c0,18.901-15.701,34.002-34.202,39.003L667.519,515.5z M690.62,485.898c0.399-2.398,0.699-5,0.699-7.7
		c0-15.001-5.2-20.701-11.8-20.701c-6.301,0-10.701,5.7-10.701,15.401c0,10.9,5.7,15.301,13.301,15.301
		C684.619,488.199,687.72,487.499,690.62,485.898z"/>
	<path fill="#231F20" d="M877.443,492.099c0-15.401,10.301-25.002,21.501-25.002c11.201,0,21.502,9.601,21.502,25.002
		c0,15.5-10.301,25.102-21.502,25.102C887.744,517.201,877.443,507.599,877.443,492.099z M909.646,492.099
		c0-12.001-2.9-21.502-10.701-21.502c-7.8,0-10.7,9.501-10.7,21.502c0,12.101,2.9,21.601,10.7,21.601S909.646,504.2,909.646,492.099
		z"/>
	<path fill="#231F20" d="M1095.169,492.099c0-15.401,10.302-25.002,21.502-25.002s21.502,9.601,21.502,25.002
		c0,15.5-10.302,25.102-21.502,25.102S1095.169,507.599,1095.169,492.099z M1109.069,509l12.701-36.602
		c-1.4-1.101-3.101-1.801-5.101-1.801c-7.801,0-10.7,9.501-10.7,21.502C1105.97,499,1106.869,505,1109.069,509z M1127.371,492.099
		c0-6.201-0.8-11.801-2.699-15.701l-12.501,36.002c1.3,0.9,2.8,1.3,4.5,1.3C1124.471,513.7,1127.371,504.2,1127.371,492.099z"/>
	<path fill="#231F20" d="M1313.894,515.6v-1.5c6.5-1.4,7.101-2.5,7.101-5.801v-28.303c0-4.6-1.699-4.8-5.101-4.8h-2v-1.601
		l15.601-5.3h1.602v40.002c0,3.301,0.6,4.399,7.101,5.801v1.5L1313.894,515.6L1313.894,515.6z"/>
	<path fill="#231F20" d="M1512.219,515.6v-1.5c13.101-12.501,27.702-20.401,27.702-33.502c0-6.4-3.501-10.001-8.302-10.001
		c-4.5,0-8.699,3.801-12.201,11.399h-1.5l-4.699-9.1c5-3.501,13.4-5.801,19.501-5.801c9.501,0,17.9,4,17.9,12.601
		c0,12.401-14.001,18.603-25.001,26.603v0.5h25.901v8.801H1512.219z"/>
	<path fill="#231F20" d="M1729.344,519.6h1.601c3.4,6.501,9.001,11.001,14.301,11.001c5.5,0,11.802-4.4,11.802-13.801
		c0-10.201-8.2-15.302-17.201-17.001v-1.5l15.601-20.303v-0.6h-27.701v-8.701h38.604v1.501l-18.901,24.501
		c12.102,2.4,20.301,8.501,20.301,19.001c0,12.701-12.801,20.401-23.4,20.401c-6.4,0-14.4-2-19.501-5.8L1729.344,519.6z"/>
	<path fill="#231F20" d="M251.869,808.502V794.2h-30.103v-1.5l32.603-48.003h7.101V785.7h10.2v8.501h-10.2v14.302L251.869,808.502
		L251.869,808.502z M251.869,755.498h-0.501L231.167,785.1v0.6h20.702V755.498z"/>
	<path fill="#231F20" d="M444.677,795.6h1.5c3.399,6.501,8.4,11.001,13.4,11.001c6.801,0,11.501-5,11.501-15.001
		c0-10.301-7.101-16.801-18.802-16.801c-2.6,0-4.899,0.3-8,1l-0.7-1.5l2-29.604h33.502v8.701h-30.102l-1.2,18.001
		c2.8-0.8,6.102-1.102,9.102-1.102c16.301,0,25.302,8.302,25.302,19.401c0,13.001-12.001,20.401-23.502,20.401
		c-6.4,0-13.501-2-18.602-5.8L444.677,795.6z"/>
	<path fill="#231F20" d="M660.891,755.898c3.8-2.601,9.501-3.7,13.101-3.7c12.102,0,19.603,7.9,19.603,19.103
		c0,12.899-10.801,21.9-21.803,21.9c-13.399,0-22.9-9.602-22.9-25.802c0-18.901,17.001-39.902,36.803-46.903l0.7,1.7
		C674.991,728.596,664.592,741.097,660.891,755.898z M660.19,759.299c-0.5,2.6-0.7,5.399-0.7,8.101
		c0,16.301,5.7,22.301,12.302,22.301c6.301,0,11.301-6,11.301-16.7c0-10.9-6.3-16.302-13.9-16.302
		C666.491,756.698,663.19,757.498,660.19,759.299z"/>
	<path fill="#231F20" d="M865.902,808.502V806.9l28.501-52.903v-0.6h-35.502v-8.701h41.303v1.501l-24.001,62.305H865.902z"/>
	<path fill="#231F20" d="M1096.216,756.299c7.399,4.8,14.301,10.199,14.301,19.001c0,12.801-11.501,17.9-21.001,17.9
		c-9.701,0-19.603-5.101-19.603-15.001c0-8.001,7.602-14.201,14.201-17.502c-7.899-5-15.302-10.899-15.302-20.899
		c0-13.201,12.401-19.303,22.103-19.303c11.2,0,21.302,5.102,21.302,16.001C1112.217,744.798,1104.815,752.698,1096.216,756.299z
		 M1093.914,754.799c5.201-3.802,8.602-11.603,8.602-16.901c0-9.001-5.9-13.801-12.802-13.801c-6.399,0-12.301,4.3-12.301,11.601
		C1077.413,744.498,1085.614,749.498,1093.914,754.799z M1086.514,762.299c-4,3.3-6.9,9.501-6.9,14.899
		c0,7.901,5.301,12.201,11.102,12.201c5.501,0,11.201-3.101,11.201-10.001C1101.915,771.8,1094.414,767.299,1086.514,762.299z"/>
	<path fill="#231F20" d="M1290.624,808.302c9.602-4.802,19.102-14.401,22.701-27.802c-3.8,2.5-9.399,3.5-12.899,3.5
		c-12.103,0-19.603-7.802-19.603-19.102c0-12.801,10.801-21.802,21.803-21.802c13.301,0,22.9,9.501,22.9,25.802
		c0,18.901-15.701,36.202-34.202,41.202L1290.624,808.302z M1314.126,777.099c0.5-2.6,0.699-5.3,0.699-8.2
		c0-16.301-5.601-22.201-12.199-22.201c-6.302,0-11.103,5.9-11.103,16.602c0,10.899,6.101,16.301,13.701,16.301
		C1307.825,779.599,1311.126,778.899,1314.126,777.099z"/>
	<path fill="#231F20" d="M1495.335,761.398c0-18.9,10.102-31.701,24.803-31.701s24.802,12.801,24.802,31.701
		c0,18.901-10.101,31.803-24.802,31.803S1495.335,780.3,1495.335,761.398z M1533.237,761.398c0-19.601-5.3-27.901-13.101-27.901
		s-13.101,8.302-13.101,27.901c0,19.602,5.3,28.002,13.101,28.002S1533.237,781,1533.237,761.398z"/>
	<path fill="#231F20" d="M1716.944,761.398c0-18.9,10.102-31.701,24.802-31.701c14.701,0,24.803,12.801,24.803,31.701
		c0,18.901-10.102,31.803-24.803,31.803C1727.046,793.201,1716.944,780.3,1716.944,761.398z M1732.046,782.3l16.001-46.402
		c-1.899-1.601-4-2.4-6.301-2.4c-7.801,0-13.101,8.302-13.101,27.901C1728.646,770.899,1729.846,777.7,1732.046,782.3z
		 M1754.847,761.398c0-10.2-1.5-17.301-3.9-21.801l-16.101,46.901c2,2,4.3,2.9,6.9,2.9
		C1749.548,789.4,1754.847,781,1754.847,761.398z"/>
	<path fill="#231F20" d="M232.167,1067.6v-1.5c11.001-1.7,13.803-3.4,13.803-8.501v-37.902c0-4.6-1.302-4.8-6.501-4.8h-7.602v-1.601
		l23.302-8h1.5v52.303c0,5.101,2.9,6.801,13.802,8.501v1.5H232.167z"/>
	<path fill="#231F20" d="M442.664,1067.6v-1.5c12.4-12.501,30.303-27.103,30.303-43.604c0-9.399-4.102-13.001-9.501-13.001
		c-7.301,0-12.4,5.301-16.602,14.701h-1.601v-14.602c6.2-2.399,14.102-3.899,19.9-3.899c10.602,0,19.303,5.3,19.303,16.7
		c0,15.001-17.502,24.702-29.604,35.902v0.5h14.301c6.102,0,9.602-0.399,14.001-8.7h1.5v17.501L442.664,1067.6L442.664,1067.6z"/>
	<path fill="#231F20" d="M657.262,1050.699h1.5c4,9.401,9.301,14.701,17.101,14.701c6.102,0,11.901-3.4,11.901-12.9
		c0-10.2-8.201-14.5-17.103-15.9v-1.5l16.001-18.501v-0.5h-14.601c-6.101,0-9.301,0.398-13.301,8.7h-1.5v-17.501h40.603v1.5
		l-19.102,22.602c11.7,1.9,20.102,7.801,20.102,18.101c0,12.302-12.201,19.702-23.802,19.702c-5.801,0-12.501-1.399-17.801-3.899
		L657.262,1050.699L657.262,1050.699z"/>
	<path fill="#231F20" d="M885.96,1067.6v-1.5c7.3-1.7,8.5-3,8.5-7.501v-4.399h-29.701v-1.501l32.201-45.401h7.5v38.401h10.2v8.501
		h-10.2v4.399c0,4.501,1.2,5.801,8.502,7.501v1.5H885.96z M894.46,1017.597h-0.5l-19.502,27.4v0.7h20.002V1017.597z"/>
	<path fill="#231F20" d="M1119.157,1024.798c-4.399-8.302-7.199-8.7-13.301-8.7h-16.201l-1.1,15.399c3.399-0.8,7.601-1.1,10.601-1.1
		c16.201,0,25.201,7.601,25.201,18.801c0,12.302-12.101,20.002-23.901,20.002c-5.899,0-12.101-1.399-17.399-3.899v-14.603h1.5
		c4,9.401,8.399,14.701,16.201,14.701c6.8,0,12.5-5,12.5-14.4c0-10.2-7-16.102-18.802-16.102c-2.601,0-6.5,0.3-9.601,1l-0.7-1.399
		l2-27.202h34.502v17.501L1119.157,1024.798L1119.157,1024.798z"/>
	<path fill="#231F20" d="M1306.452,1033.698c3.802-2.398,9.201-3.5,12.701-3.5c12.102,0,19.701,6.9,19.701,18.103
		c0,11.899-10.801,20.9-21.9,20.9c-13.302,0-22.901-9.602-22.901-24.502c0-18.9,15.801-34.002,34.202-39.002l0.699,1.699
		C1319.254,1012.197,1309.853,1020.597,1306.452,1033.698z M1305.753,1037c-0.399,2.398-0.601,5-0.601,7.699
		c0,15.001,5.2,20.701,11.801,20.701c6.302,0,10.802-5.7,10.802-15.4c0-10.9-5.7-15.302-13.302-15.302
		C1311.853,1034.698,1308.652,1035.398,1305.753,1037z"/>
	<path fill="#231F20" d="M1516.251,1067.6v-1.5l28.5-49.503v-0.5h-20.399c-6.101,0-9.501,0.398-13.901,8.7h-1.5v-17.501h41.604v1.5
		l-23.901,58.804H1516.251z"/>
	<path fill="#231F20" d="M1750.747,1034.5c6.9,3.398,13.001,7.6,13.001,15.699c0,12.901-12.801,19.002-22.4,19.002
		c-11.2,0-21.602-4.801-21.602-15.4c0-7.7,5.5-13.102,13.2-16.302c-6.3-3.199-11.601-7.399-11.601-14.9
		c0-11.802,11.201-16.9,20.701-16.9c9.7,0,19.9,4.8,19.9,14.4C1761.948,1027.298,1756.549,1031.598,1750.747,1034.5z
		 M1735.548,1038.699c-4.2,3.7-5.802,9-5.802,13.801c0,8.602,5.9,12.9,12.802,12.9c6.399,0,12.301-4.101,12.301-11.101
		C1754.848,1045.899,1744.647,1042.899,1735.548,1038.699z M1747.747,1033.198c2.9-3.1,4.302-7.399,4.302-12.101
		c0-7.7-5.4-11.602-11.201-11.602c-5.5,0-10.602,3.102-10.602,9.001C1730.246,1026.298,1739.146,1029.398,1747.747,1033.198z"/>
	<path fill="#231F20" d="M238.469,1343.5c9.699-4.801,19.001-13.102,22.4-26.201c-3.8,2.399-9.101,3.399-12.601,3.399
		c-12.102,0-19.701-6.899-19.701-18.102c0-11.9,10.801-20.9,21.9-20.9c13.302,0,22.802,9.601,22.802,24.501
		c0,18.901-15.7,34.002-34.103,39.003L238.469,1343.5z M261.569,1313.898c0.4-2.399,0.7-5,0.7-7.7
		c0-15.001-5.2-20.701-11.801-20.701c-6.302,0-10.802,5.7-10.802,15.401c0,10.9,5.7,15.301,13.302,15.301
		C255.469,1316.199,258.669,1315.5,261.569,1313.898z"/>
	<path fill="#231F20" d="M451.221,1320.099c0-15.401,10.301-25.002,21.501-25.002c11.201,0,21.502,9.601,21.502,25.002
		c0,15.5-10.301,25.102-21.502,25.102S451.221,1335.599,451.221,1320.099z M483.424,1320.099c0-12.001-2.9-21.502-10.701-21.502
		c-7.8,0-10.7,9.501-10.7,21.502c0,12.101,2.9,21.601,10.7,21.601S483.424,1332.2,483.424,1320.099z"/>
	<path fill="#231F20" d="M666.676,1320.099c0-15.401,10.301-25.002,21.501-25.002c11.201,0,21.502,9.601,21.502,25.002
		c0,15.5-10.301,25.102-21.502,25.102C676.976,1345.201,666.676,1335.599,666.676,1320.099z M680.575,1337l12.701-36.602
		c-1.4-1.101-3.101-1.801-5.101-1.801c-7.8,0-10.7,9.501-10.7,21.502C677.476,1327,678.376,1333,680.575,1337z M698.878,1320.099
		c0-6.201-0.801-11.801-2.7-15.701l-12.501,36.002c1.3,0.9,2.8,1.3,4.5,1.3C695.977,1341.7,698.878,1332.2,698.878,1320.099z"/>
	<path fill="#231F20" d="M883.129,1343.6v-1.5c6.5-1.4,7.101-2.5,7.101-5.801v-28.303c0-4.6-1.7-4.8-5.101-4.8h-2v-1.601l15.601-5.3
		h1.601v40.002c0,3.301,0.601,4.399,7.102,5.801v1.5L883.129,1343.6L883.129,1343.6z"/>
	<path fill="#231F20" d="M1079.182,1343.6v-1.5c13.101-12.501,27.702-20.401,27.702-33.502c0-6.4-3.501-10.001-8.302-10.001
		c-4.5,0-8.699,3.801-12.2,11.4h-1.5l-4.7-9.101c5-3.501,13.4-5.801,19.501-5.801c9.501,0,17.901,4,17.901,12.601
		c0,12.401-14.002,18.603-25.002,26.603v0.5h25.901v8.801H1079.182L1079.182,1343.6z"/>
	<path fill="#231F20" d="M1294.036,1347.6h1.602c3.399,6.501,9.001,11.001,14.301,11.001c5.5,0,11.801-4.4,11.801-13.801
		c0-10.201-8.199-15.302-17.201-17.001v-1.5l15.603-20.303v-0.6h-27.702v-8.701h38.604v1.501l-18.901,24.501
		c12.101,2.4,20.301,8.501,20.301,19.001c0,12.701-12.801,20.401-23.401,20.401c-6.399,0-14.399-2-19.5-5.8L1294.036,1347.6z"/>
	<path fill="#231F20" d="M1533.893,1360.502V1346.2h-30.104v-1.501l32.604-48.003h7.1v41.003h10.201v8.501h-10.201v14.302H1533.893z
		 M1533.893,1307.498h-0.501l-20.201,29.604v0.6h20.702V1307.498z"/>
	<path fill="#231F20" d="M1732.143,1347.6h1.5c3.4,6.501,8.4,11.001,13.4,11.001c6.801,0,11.502-5,11.502-15.001
		c0-10.301-7.102-16.801-18.803-16.801c-2.6,0-4.899,0.3-8,1l-0.699-1.5l2-29.604h33.502v8.701h-30.103l-1.2,18.001
		c2.801-0.8,6.102-1.101,9.102-1.101c16.301,0,25.302,8.301,25.302,19.4c0,13.001-12.001,20.401-23.502,20.401
		c-6.4,0-13.501-2-18.601-5.8L1732.143,1347.6z"/>
	<path fill="#231F20" d="M236.469,1583.898c3.8-2.601,9.501-3.7,13.101-3.7c12.101,0,19.602,7.9,19.602,19.103
		c0,12.899-10.801,21.9-21.802,21.9c-13.399,0-22.901-9.602-22.901-25.802c0-18.901,17.002-39.901,36.804-46.903l0.7,1.7
		C250.568,1556.596,240.168,1569.097,236.469,1583.898z M235.768,1587.299c-0.5,2.6-0.7,5.399-0.7,8.101
		c0,16.301,5.7,22.301,12.301,22.301c6.301,0,11.301-6,11.301-16.701c0-10.899-6.3-16.301-13.899-16.301
		C242.068,1584.698,238.768,1585.498,235.768,1587.299z"/>
	<path fill="#231F20" d="M438.794,1636.502v-1.602l28.501-52.902v-0.601h-35.503v-8.701h41.304v1.501l-24.001,62.305H438.794z"/>
	<path fill="#231F20" d="M666.422,1584.299c7.399,4.8,14.301,10.199,14.301,19.001c0,12.801-11.501,17.9-21.001,17.9
		c-9.701,0-19.603-5.101-19.603-15.001c0-8.001,7.602-14.201,14.201-17.502c-7.899-5-15.302-10.899-15.302-20.899
		c0-13.201,12.401-19.303,22.102-19.303c11.201,0,21.303,5.102,21.303,16.001C682.423,1572.798,675.021,1580.698,666.422,1584.299z
		 M664.12,1582.799c5.201-3.802,8.602-11.603,8.602-16.901c0-9.001-5.9-13.801-12.801-13.801c-6.4,0-12.302,4.3-12.302,11.601
		C647.619,1572.498,655.82,1577.498,664.12,1582.799z M656.72,1590.299c-4,3.3-6.9,9.501-6.9,14.899
		c0,7.901,5.301,12.201,11.102,12.201c5.501,0,11.2-3.101,11.2-10.001C672.121,1599.8,664.62,1595.299,656.72,1590.299z"/>
	<path fill="#231F20" d="M858.145,1636.302c9.601-4.802,19.101-14.401,22.701-27.802c-3.8,2.5-9.4,3.5-12.9,3.5
		c-12.102,0-19.602-7.802-19.602-19.102c0-12.801,10.801-21.802,21.802-21.802c13.301,0,22.901,9.501,22.901,25.802
		c0,18.901-15.701,36.202-34.202,41.202L858.145,1636.302z M881.646,1605.099c0.5-2.6,0.7-5.3,0.7-8.2
		c0-16.301-5.602-22.201-12.2-22.201c-6.301,0-11.102,5.9-11.102,16.602c0,10.899,6.101,16.301,13.7,16.301
		C875.346,1607.599,878.646,1606.899,881.646,1605.099z"/>
	<path fill="#231F20" d="M1063.471,1596.099c0-15.401,10.3-25.002,21.501-25.002c11.2,0,21.501,9.601,21.501,25.002
		c0,15.5-10.301,25.102-21.501,25.102C1073.771,1621.201,1063.471,1611.599,1063.471,1596.099z M1095.673,1596.099
		c0-12.001-2.899-21.502-10.7-21.502s-10.701,9.501-10.701,21.502c0,12.101,2.9,21.601,10.701,21.601
		S1095.673,1608.2,1095.673,1596.099z"/>
	<path fill="#231F20" d="M1282.396,1596.099c0-15.401,10.3-25.002,21.501-25.002c11.2,0,21.501,9.601,21.501,25.002
		c0,15.5-10.301,25.102-21.501,25.102C1292.695,1621.201,1282.396,1611.599,1282.396,1596.099z M1296.297,1613l12.7-36.602
		c-1.399-1.101-3.101-1.801-5.101-1.801c-7.801,0-10.701,9.501-10.701,21.502C1293.195,1603,1294.096,1609,1296.297,1613z
		 M1314.597,1596.099c0-6.201-0.8-11.801-2.7-15.701l-12.5,36.002c1.3,0.9,2.8,1.3,4.5,1.3
		C1311.697,1617.7,1314.597,1608.2,1314.597,1596.099z"/>
	<path fill="#231F20" d="M1506.922,1619.6v-1.5c7.301-1.4,11.2-2.5,11.2-6.801v-27.303c0-4.6-1.699-4.8-5.199-4.8h-6.001v-1.601
		l19.701-5.3h1.5v39.002c0,4.301,4.001,5.399,11.2,6.801v1.5L1506.922,1619.6L1506.922,1619.6z"/>
	<path fill="#231F20" d="M1721.346,1619.6v-1.5c13.101-12.501,27.702-20.401,27.702-33.502c0-6.4-3.501-10.001-8.201-10.001
		c-4.601,0-8.802,3.801-12.2,11.4h-1.601l-4.7-9.101c5-3.501,13.4-5.801,19.501-5.801c9.501,0,18.001,4,18.001,12.601
		c0,12.401-14,18.603-25.103,26.603v0.5h26.002v8.801H1721.346L1721.346,1619.6z"/>
	<path fill="#231F20" d="M233.668,1899.6h1.5c3.399,6.501,9,11.001,14.4,11.001c5.5,0,11.701-4.4,11.701-13.801
		c0-10.201-8.201-15.302-17.103-17.001v-1.5l15.603-20.303v-0.6h-27.702v-8.701h38.603v1.501l-18.9,24.501
		c12.001,2.4,20.302,8.501,20.302,19.001c0,12.701-12.901,20.401-23.402,20.401c-6.399,0-14.5-2-19.601-5.8L233.668,1899.6z"/>
	<path fill="#231F20" d="M470.78,1912.502V1898.2h-30.102v-1.501l32.602-48.003h7.102v41.003h10.201v8.501h-10.201v14.302H470.78z
		 M470.78,1859.498h-0.6l-20.103,29.604v0.6h20.701L470.78,1859.498L470.78,1859.498z"/>
	<path fill="#231F20" d="M664.39,1899.6h1.601c3.399,6.501,8.301,11.001,13.4,11.001c6.7,0,11.4-5,11.4-15.001
		c0-10.301-7-16.801-18.802-16.801c-2.601,0-4.801,0.3-7.899,1l-0.801-1.5l2-29.604h33.603v8.701H668.69l-1.199,18.001
		c2.801-0.8,6.2-1.101,9.2-1.101c16.201,0,25.201,8.301,25.201,19.4c0,13.001-11.9,20.401-23.401,20.401
		c-6.399,0-13.501-2-18.601-5.8L664.39,1899.6z"/>
	<path fill="#231F20" d="M886.003,1859.898c3.8-2.601,9.5-3.7,13.101-3.7c12.101,0,19.701,7.9,19.701,19.103
		c0,12.899-10.801,21.9-21.901,21.9c-13.301,0-22.9-9.602-22.9-25.802c0-18.901,17.101-39.901,36.901-46.903l0.7,1.7
		C900.202,1832.596,889.802,1845.097,886.003,1859.898z M885.302,1863.198c-0.5,2.7-0.7,5.4-0.7,8.201
		c0,16.301,5.7,22.301,12.301,22.301c6.301,0,11.301-6,11.301-16.7c0-10.9-6.199-16.302-13.801-16.302
		C891.702,1860.698,888.401,1861.498,885.302,1863.198z"/>
	<path fill="#231F20" d="M1097.012,1912.502v-1.602l28.502-52.902v-0.601h-35.502v-8.701h41.303v1.501l-23.902,62.305H1097.012z"/>
	<path fill="#231F20" d="M1331.225,1860.299c7.4,4.8,14.301,10.199,14.301,19.001c0,12.801-11.501,17.9-21.001,17.9
		c-9.701,0-19.602-5.101-19.602-15.001c0-8.001,7.601-14.201,14.2-17.502c-7.899-5-15.301-10.899-15.301-20.899
		c0-13.201,12.4-19.303,22.102-19.303c11.102,0,21.302,5.102,21.302,16.001C1347.226,1848.798,1339.825,1856.698,1331.225,1860.299z
		 M1328.926,1858.799c5.2-3.802,8.601-11.603,8.601-16.901c0-9.001-5.9-13.801-12.801-13.801c-6.4,0-12.301,4.3-12.301,11.601
		C1312.425,1848.498,1320.624,1853.498,1328.926,1858.799z M1321.524,1866.299c-4.001,3.3-6.9,9.501-6.9,14.899
		c0,7.901,5.301,12.201,11.102,12.201c5.5,0,11.2-3.101,11.2-10.001C1336.926,1875.8,1329.426,1871.299,1321.524,1866.299z"/>
	<path fill="#231F20" d="M1527.335,1912.302c9.602-4.802,19.002-14.302,22.603-27.702c-3.801,2.4-9.301,3.4-12.801,3.4
		c-12.102,0-19.701-7.802-19.701-19.102c0-12.801,10.801-21.802,21.901-21.802c13.301,0,22.801,9.501,22.801,25.802
		c0,18.901-15.7,36.202-34.103,41.202L1527.335,1912.302z M1550.736,1881.199c0.5-2.699,0.7-5.398,0.7-8.3
		c0-16.301-5.5-22.201-12.102-22.201c-6.301,0-11.2,5.9-11.2,16.601c0,10.9,6.101,16.302,13.7,16.302
		C1544.437,1883.599,1547.736,1882.899,1550.736,1881.199z"/>
	<path fill="#231F20" d="M1728.145,1872.199c0-14.701,8.201-24.9,20.201-24.9c12.201,0,20.4,10.199,20.4,24.9
		c0,14.602-8.199,25.002-20.4,25.002C1736.346,1897.201,1728.145,1886.8,1728.145,1872.199z M1757.946,1872.199
		c0-15.201-3.8-21.701-9.601-21.701c-5.7,0-9.4,6.5-9.4,21.701s3.7,21.801,9.4,21.801
		C1754.146,1894,1757.946,1887.4,1757.946,1872.199z"/>
	<path fill="#231F20" d="M224.467,2148.199c0-14.701,8.201-24.9,20.201-24.9c12.201,0,20.401,10.199,20.401,24.9
		c0,14.602-8.2,25.002-20.401,25.002C232.668,2173.201,224.467,2162.8,224.467,2148.199z M237.168,2163.4l12.501-34.702
		c-1.399-1.399-3.101-2.2-5.001-2.2c-5.699,0-9.399,6.5-9.399,21.701C235.268,2154.899,235.969,2159.8,237.168,2163.4z
		 M254.269,2148.199c0-7.101-0.899-12.301-2.399-15.9l-12.602,35.003c1.5,1.898,3.301,2.698,5.399,2.698
		C250.469,2170,254.269,2163.4,254.269,2148.199z"/>
	<path fill="#231F20" d="M447.835,2171.6v-1.5c6.601-1.3,7.699-2.2,7.699-6.301v-28.201c0-4.001-1.699-4.2-5.199-4.2h-2.7v-1.5
		l16.4-6.601h1.5v40.502c0,4.101,1,5.001,7.7,6.301v1.5H447.835z"/>
	<path fill="#231F20" d="M653.802,2171.6v-1.5c9.899-9.7,23.602-22.501,23.602-34.603c0-6-3.2-8.801-7.101-8.801
		c-5.3,0-9.4,3.899-13.4,11.5h-1.5v-11.399c5-2,11.5-3.3,16.102-3.3c8.699,0,16.301,3.898,16.301,13.101
		c0,11.001-13.001,18.101-23.001,26.401v0.699h9.899c4.9,0,8.001-0.5,11.9-7.001h1.602v14.901L653.802,2171.6L653.802,2171.6z"/>
	<path fill="#231F20" d="M870.871,2158.599h1.5c3.5,7.301,7.9,11.4,13.9,11.4c4.4,0,9.001-3,9.001-10.102
		c0-7.3-6.201-10-13.701-11.4v-1.5l12.301-13.5v-0.7h-9.301c-4.8,0-7.801,0.5-11.899,7.001h-1.5v-14.901h33.102v1.5l-15.501,17.103
		c9.801,1.399,16.602,5.601,16.602,13.399c0,9.901-10.301,16.302-19.802,16.302c-4.6,0-10.2-1-14.7-3.2L870.871,2158.599
		L870.871,2158.599z"/>
	<path fill="#231F20" d="M1099.44,2144.598c3.2-2,7.5-2.601,10.101-2.601c9.4,0,15.9,5.301,15.9,14.501
		c0,9.602-9.101,16.701-18.301,16.701c-10.9,0-18.901-7.501-18.901-20.002c0-14.601,12.401-25.701,27.902-29.603l0.6,1.601
		C1108.542,2128.898,1101.841,2134.799,1099.44,2144.598z M1098.841,2147.599c-0.301,1.699-0.399,3.6-0.399,5.6
		c0,12.302,3.899,16.802,8.7,16.802c4.601,0,8.301-3.601,8.301-11.8c0-8.701-4.601-12.302-10.201-12.302
		C1103.342,2145.899,1101.04,2146.399,1098.841,2147.599z"/>
	<path fill="#231F20" d="M1309.108,2171.6v-1.5l23.102-36.603v-0.7h-15.4c-4.9,0-8.001,0.5-12.001,7.001h-1.5v-14.901h34.202v1.4
		l-18.201,45.303H1309.108z"/>
	<path fill="#231F20" d="M1540.278,2145.299c6.2,2.699,11.801,6.199,11.801,13.101c0,10.001-10.601,14.802-18.502,14.802
		c-9.5,0-18.201-3.399-18.201-11.602c0-5.9,4.9-10.102,11.302-12.4c-5.4-2.699-10-6.101-10-12.5c0-9.4,9.399-13.4,17.399-13.4
		c8.201,0,16.701,3.5,16.701,10.9C1550.778,2139.5,1545.479,2143.098,1540.278,2145.299z M1528.878,2150.199
		c-3,2.602-4.5,6.2-4.5,10.001c0,6.602,4.699,9.8,10.199,9.8c4.801,0,9.301-3.1,9.301-8
		C1543.879,2155.899,1536.078,2153.5,1528.878,2150.199z M1537.777,2144.199c2.4-2.199,3.9-5.399,3.9-9.201c0-5.8-4-8.5-8.602-8.5
		c-4.199,0-8.3,2.301-8.3,6.7C1524.777,2138.898,1531.178,2141.299,1537.777,2144.199z"/>
	<path fill="#231F20" d="M1757.547,2152.099c-3.301,2-7.5,2.5-10.102,2.5c-9.399,0-15.801-5.301-15.801-14.501
		c0-9.601,9.001-16.701,18.201-16.701c10.899,0,18.901,7.501,18.901,20.001c0,14.603-12.401,25.702-27.902,29.604l-0.6-1.602
		C1748.346,2167.7,1755.047,2161.8,1757.547,2152.099z M1758.146,2149.099c0.199-1.801,0.399-3.7,0.399-5.701
		c0-12.301-3.801-16.801-8.7-16.801c-4.5,0-8.2,3.602-8.2,11.801c0,8.7,4.5,12.301,10.102,12.301
		C1753.547,2150.699,1755.946,2150.199,1758.146,2149.099z"/>
	<path fill="#231F20" d="M223.267,2385.496c0-11.4,6.801-19,16.701-19c9.899,0,16.7,7.6,16.7,19c0,11.302-6.801,19.102-16.7,19.102
		C230.068,2404.597,223.267,2396.797,223.267,2385.496z M246.969,2385.496c0-11.801-2.602-16.301-7.002-16.301
		c-4.399,0-7,4.5-7,16.301c0,11.7,2.601,16.4,7,16.4C244.368,2401.896,246.969,2397.196,246.969,2385.496z"/>
	<path fill="#231F20" d="M417.29,2403.596v-1.101c5.4-1,6.2-1.801,6.2-5.199v-21.401c0-3.101-1.6-3.301-4.2-3.301h-2.1v-1
		l14.301-5.4h1.101v31.104c0,3.398,0.7,4.2,6.101,5.2v1.1L417.29,2403.596L417.29,2403.596z"/>
	<path fill="#231F20" d="M598.412,2403.596v-1.101c8.102-7.501,18.701-18.201,18.701-27.102c0-4.102-2.1-6.301-5.3-6.301
		c-4.301,0-7.801,3.199-11.201,8.899h-1.1v-8.8c4.1-1.801,9.5-2.7,13.301-2.7c7.2,0,13.602,2.899,13.602,10
		c0,8.301-10.4,13.301-18.701,19.802v0.5h7.601c4,0,6.9-0.5,10.4-5.501h1v12.302L598.412,2403.596L598.412,2403.596z"/>
	<path fill="#231F20" d="M787.434,2392.996h1c3,5.7,7.001,8.9,11.701,8.9c3.3,0,7-1.398,7-6.8c0-5.302-4.8-7.9-11.001-9.102v-1.101
		l9.601-10v-0.602h-7.1c-4.001,0-6.9,0.4-10.102,5.501h-1.101v-12.4h27.502v1.101l-12.301,13.4c7.801,1,13.301,4.601,13.301,10.601
		c0,7.802-8.601,12.102-16.401,12.102c-3.8,0-8.5-0.899-12.101-2.8L787.434,2392.996L787.434,2392.996z"/>
	<path fill="#231F20" d="M988.557,2403.596v-1.101c4.8-1,5.6-1.899,5.6-4.899v-1.4h-19.301v-1.1l20.901-27.702h6.801v21.9h6.8v6.9
		h-6.8v1.4c0,3,0.8,3.899,5.5,4.899v1.101L988.557,2403.596L988.557,2403.596z M994.156,2374.195h-0.5l-11.2,14.602v0.5h11.7
		V2374.195z"/>
	<path fill="#231F20" d="M1194.279,2379.795c-3.1-5.101-6.101-5.5-10-5.5h-9.9l-0.601,8.101c2.301-0.5,5.4-0.7,7.2-0.7
		c11.301,0,17.201,4.001,17.201,11.001c0,8.4-9.301,11.9-16.901,11.9c-3.6,0-7.899-0.899-11.601-2.8v-8.802h1.101
		c2.9,5.7,6.301,8.9,11.102,8.9c4,0,7.5-2.3,7.5-7.5c0-6.2-4.801-9.4-12.102-9.4c-1.699,0-4.199,0.101-6.199,0.601l-0.5-1.101
		l1.3-17.102h23.502v12.4L1194.279,2379.795L1194.279,2379.795z"/>
	<path fill="#231F20" d="M1368.201,2381.996c2.7-1.5,6.101-1.899,8.301-1.899c7.4,0,12.801,3.8,12.801,11.101
		c0,7.5-7.601,13.4-15.2,13.4c-9.001,0-15.602-5.4-15.602-15.501c0-11.399,10.001-19.601,22.9-22.601l0.602,1.3
		C1375.302,2370.594,1370.201,2374.795,1368.201,2381.996z M1367.601,2384.595c-0.2,1.399-0.3,2.899-0.3,4.5
		c0,9.301,3.101,12.801,6.801,12.801c3.6,0,6.3-3,6.3-9.3c0-6.701-3.5-9.201-7.8-9.201
		C1371.102,2383.395,1369.302,2383.795,1367.601,2384.595z"/>
	<path fill="#231F20" d="M1570.323,2382.895c4.9,2,9.2,4.801,9.2,10.301c0,7.7-8.8,11.4-15.4,11.4c-7.899,0-15.2-2.7-15.2-9.102
		c0-4.3,3.801-7.601,8.699-9.5c-4.199-1.899-7.699-4.301-7.699-9.001c0-7.5,8-10.5,14.5-10.5c7.002,0,14.002,2.5,14.002,8.301
		C1578.425,2378.595,1574.724,2381.195,1570.323,2382.895z M1559.822,2386.996c-1.8,1.9-2.898,4.601-2.898,7.301
		c0,5.001,3.5,7.601,8,7.601c4,0,7.301-2.5,7.301-5.899C1572.224,2390.996,1565.823,2389.295,1559.822,2386.996z M1567.823,2381.895
		c1.5-1.5,2.7-3.7,2.7-6.5c0-4.399-3.2-6.2-6.9-6.2c-3.5,0-6.501,1.801-6.501,4.899
		C1557.122,2378.195,1562.323,2379.795,1567.823,2381.895z"/>
	<path fill="#231F20" d="M1746.346,2403.297c6.699-2.801,11.8-7,13.801-14.201c-2.7,1.5-6.101,1.899-8.201,1.899
		c-7.5,0-12.801-3.8-12.801-11.2c0-7.5,7.601-13.301,15.102-13.301c9,0,15.602,5.301,15.602,15.4
		c0,11.399-9.801,19.701-22.901,22.701L1746.346,2403.297z M1760.746,2386.395c0.2-1.399,0.301-2.899,0.301-4.5
		c0-9.301-3.101-12.801-6.801-12.801c-3.601,0-6.2,3.101-6.2,9.301c0,6.8,3.5,9.2,7.7,9.2
		C1757.246,2387.595,1759.047,2387.295,1760.746,2386.395z"/>
	<path fill="#231F20" d="M226.467,2718.498c0-3.698,2.802-6.698,6.802-6.698c3.899,0,6.699,3,6.699,6.698
		c0,3.701-2.8,6.701-6.699,6.701C229.268,2725.199,226.467,2722.199,226.467,2718.498z"/>
	<path fill="#231F20" d="M412.488,2735.1c2.5-1.5,5.7-5.301,5.7-9c0-2.899-1.8-5.399-6.801-6.103v-1.5l5.2-7.1
		c6.501,0.699,10.001,4.5,10.001,9.1c0,6.103-4.9,12.302-13.302,16.002L412.488,2735.1z"/>
	<path fill="#231F20" d="M608.713,2672.996v-11.899h-12.701v-2.7h12.701v-11.801h3v11.801h12.899v2.7h-12.899v11.899H608.713z"/>
	<path fill="#231F20" d="M792.034,2661.095v-2.7h28.603v2.7H792.034z"/>
	<path fill="#231F20" d="M988.057,2655.095v-2.7h28.602v2.7H988.057z M988.057,2667.095v-2.699h28.602v2.699H988.057z"/>
	<path fill="#231F20" d="M1201.681,2686.896c-9.701-4.5-17.603-14.4-17.603-26.4c0-12.002,7.9-22.002,17.603-26.502l0.7,0.899
		c-5.602,5.3-8.701,14.399-8.701,25.603c0,11.101,3.101,20.201,8.701,25.5L1201.681,2686.896z"/>
	<path fill="#231F20" d="M1365.802,2685.996c5.601-5.299,8.699-14.399,8.699-25.5c0-11.2-3.1-20.302-8.699-25.602l0.6-0.9
		c9.701,4.5,17.701,14.502,17.701,26.502s-8,21.901-17.701,26.401L1365.802,2685.996z"/>
	<path fill="#231F20" d="M1550.323,2717.498c0-11.399,6.801-19,16.701-19s16.701,7.601,16.701,19
		c0,11.302-6.801,19.103-16.701,19.103S1550.323,2728.8,1550.323,2717.498z M1574.025,2717.498c0-11.801-2.601-16.301-7.001-16.301
		s-7,4.5-7,16.301c0,11.701,2.6,16.402,7,16.402S1574.025,2729.199,1574.025,2717.498z"/>
	<path fill="#231F20" d="M1748.945,2735.6v-1.101c5.4-1,6.2-1.801,6.2-5.2v-21.4c0-3.1-1.6-3.301-4.2-3.301h-2.1v-1l14.301-5.399
		h1.1v31.102c0,3.4,0.7,4.201,6.102,5.201v1.1L1748.945,2735.6L1748.945,2735.6z"/>
	<path fill="#231F20" d="M222.967,3011.6v-1.101c8.102-7.5,18.701-18.2,18.701-27.102c0-4.1-2.1-6.301-5.3-6.301
		c-4.301,0-7.801,3.201-11.201,8.899h-1.1v-8.801c4.1-1.799,9.5-2.699,13.301-2.699c7.2,0,13.602,2.9,13.602,10
		c0,8.302-10.4,13.302-18.701,19.802v0.5h7.601c4,0,6.9-0.5,10.4-5.5h1v12.301L222.967,3011.6L222.967,3011.6z"/>
	<path fill="#231F20" d="M414.251,3001h1c3,5.699,7.001,8.9,11.7,8.9c3.3,0,7-1.4,7-6.801c0-5.301-4.8-7.9-11.001-9.103v-1.1
		l9.602-10v-0.601h-7.101c-4.001,0-6.899,0.398-10.101,5.5h-1.102v-12.399h27.502v1.1l-12.301,13.4
		c7.801,1,13.301,4.6,13.301,10.602c0,7.8-8.601,12.101-16.4,12.101c-3.8,0-8.5-0.9-12.102-2.801V3001H414.251z"/>
	<path fill="#231F20" d="M617.637,3011.6v-1.101c4.8-1,5.6-1.899,5.6-4.899v-1.399h-19.301v-1.101l20.901-27.701h6.801v21.9h6.8
		v6.899h-6.8v1.4c0,3,0.8,3.899,5.5,4.899v1.101L617.637,3011.6L617.637,3011.6z M623.236,2982.197h-0.5l-11.2,14.603v0.5h11.7
		V2982.197z"/>
	<path fill="#231F20" d="M825.621,2987.8c-3.1-5.103-6.101-5.5-10-5.5h-9.9l-0.601,8.1c2.301-0.5,5.4-0.698,7.2-0.698
		c11.301,0,17.201,4,17.201,11c0,8.399-9.301,11.899-16.901,11.899c-3.6,0-7.899-0.899-11.601-2.801v-8.8h1.101
		c2.9,5.699,6.301,8.9,11.102,8.9c4,0,7.5-2.301,7.5-7.502c0-6.199-4.8-9.4-12.102-9.4c-1.699,0-4.199,0.103-6.199,0.603l-0.5-1.103
		l1.3-17.1h23.502v12.4L825.621,2987.8L825.621,2987.8z"/>
	<path fill="#231F20" d="M1001.806,2989.998c2.7-1.5,6.101-1.899,8.3-1.899c7.4,0,12.801,3.801,12.801,11.103
		c0,7.5-7.6,13.399-15.199,13.399c-9.002,0-15.603-5.399-15.603-15.5c0-11.399,10.001-19.603,22.901-22.603l0.601,1.3
		C1008.906,2978.598,1003.806,2982.8,1001.806,2989.998z M1001.206,2992.6c-0.2,1.397-0.301,2.897-0.301,4.5
		c0,9.301,3.102,12.801,6.801,12.801c3.601,0,6.301-3,6.301-9.301c0-6.701-3.5-9.201-7.801-9.201
		C1004.706,2991.398,1002.905,2991.8,1001.206,2992.6z"/>
	<path fill="#231F20" d="M1187.589,3011.6v-1.101l19.102-27.602v-0.6h-12.801c-3.9,0-6.9,0.397-10.102,5.5h-1v-12.4h28.303v1.1
		l-14.301,35.103H1187.589z"/>
	<path fill="#231F20" d="M1392.378,2990.898c4.899,2,9.199,4.801,9.199,10.301c0,7.701-8.8,11.4-15.399,11.4
		c-7.9,0-15.201-2.699-15.201-9.101c0-4.301,3.801-7.602,8.7-9.502c-4.2-1.897-7.7-4.299-7.7-9c0-7.5,8.001-10.5,14.501-10.5
		c7,0,14.001,2.5,14.001,8.302C1400.478,2986.598,1396.777,2989.199,1392.378,2990.898z M1381.876,2994.998
		c-1.8,1.9-2.898,4.603-2.898,7.302c0,5,3.5,7.602,8,7.602c4,0,7.301-2.5,7.301-5.899
		C1394.277,2999,1387.878,2997.3,1381.876,2994.998z M1389.878,2989.898c1.5-1.5,2.699-3.699,2.699-6.5
		c0-4.4-3.199-6.201-6.899-6.201c-3.5,0-6.501,1.801-6.501,4.9C1379.177,2986.199,1384.378,2987.8,1389.878,2989.898z"/>
	<path fill="#231F20" d="M1570.661,3011.302c6.7-2.802,11.801-7.002,13.802-14.201c-2.7,1.5-6.102,1.899-8.201,1.899
		c-7.5,0-12.802-3.801-12.802-11.2c0-7.5,7.602-13.302,15.103-13.302c9,0,15.601,5.302,15.601,15.4c0,11.4-9.801,19.701-22.9,22.701
		L1570.661,3011.302z M1585.062,2994.398c0.2-1.4,0.3-2.9,0.3-4.5c0-9.301-3.1-12.801-6.8-12.801c-3.601,0-6.201,3.1-6.201,9.301
		c0,6.801,3.501,9.201,7.701,9.201C1581.562,2995.6,1583.361,2995.3,1585.062,2994.398z"/>
	<path fill="#231F20" d="M1758.145,3007.5c0-2.801,2.301-5.2,5.301-5.2c3.101,0,5.301,2.399,5.301,5.2
		c0,2.699-2.2,5.101-5.301,5.101C1760.445,3012.6,1758.145,3010.199,1758.145,3007.5z"/>
	<path fill="#231F20" d="M225.467,3294.302c1.802-0.9,3.602-2.802,3.602-5.103c0-2-1.2-3.5-4.602-4.1v-1.101l4-5
		c4.9,0.5,7.602,3,7.602,6.101c0,4.1-3.8,7.801-10.102,10.201L225.467,3294.302z"/>
	<path fill="#231F20" d="M410.203,3281V3269.1h-12.7v-2.701h12.7v-11.801h3v11.801h12.9v2.701h-12.9V3281H410.203z"/>
	<path fill="#231F20" d="M587.537,3269.1v-2.701h28.603v2.701H587.537z"/>
	<path fill="#231F20" d="M777.572,3263.098v-2.699h28.603v2.699H777.572z M777.572,3275.1v-2.701h28.603v2.701H777.572z"/>
	<path fill="#231F20" d="M985.21,3294.9c-9.701-4.5-17.603-14.4-17.603-26.402c0-12,7.9-22,17.603-26.5l0.699,0.898
		c-5.601,5.301-8.701,14.402-8.701,25.602c0,11.103,3.102,20.201,8.701,25.502L985.21,3294.9z"/>
	<path fill="#231F20" d="M1143.343,3294c5.601-5.301,8.699-14.399,8.699-25.502c0-11.198-3.1-20.301-8.699-25.602l0.6-0.898
		c9.701,4.5,17.701,14.5,17.701,26.5c0,12.002-8,21.902-17.701,26.402L1143.343,3294z"/>
	<path fill="#231F20" d="M1323.076,3245.396c0-18.9,10.001-31.701,24.803-31.701c14.7,0,24.802,12.801,24.802,31.701
		c0,18.902-10.102,31.803-24.802,31.803C1333.077,3277.199,1323.076,3264.3,1323.076,3245.396z M1360.979,3245.396
		c0-19.6-5.3-27.9-13.101-27.9c-7.802,0-13.201,8.302-13.201,27.9c0,19.602,5.399,28.002,13.201,28.002
		C1355.679,3273.398,1360.979,3264.998,1360.979,3245.396z"/>
	<path fill="#231F20" d="M1535.111,3275.6v-1.5c8.301-1.701,9.801-3,9.801-7.502v-38.902c0-4.6-1.399-4.799-6.5-4.799h-3.601v-1.603
		l19.201-8h1.601v53.304c0,4.502,1.5,5.801,9.8,7.502v1.5H1535.111L1535.111,3275.6z"/>
	<path fill="#231F20" d="M1725.445,3275.6v-1.5c12.4-12.502,30.302-27.103,30.302-43.604c0-9.399-4.199-13-9.5-13
		c-7.301,0-12.4,5.302-16.701,14.701h-1.5v-14.602c6.2-2.4,14.102-3.9,19.901-3.9c10.5,0,19.301,5.301,19.301,16.701
		c0,15-17.501,24.701-29.602,35.902v0.5h14.301c6.101,0,9.601-0.4,13.9-8.701h1.601v17.502L1725.445,3275.6L1725.445,3275.6z"/>
	<path fill="#231F20" d="M226.167,3534.697h1.5c3.9,9.402,9.302,14.701,17.103,14.701c6.1,0,11.899-3.4,11.899-12.9
		c0-10.2-8.199-14.5-17.101-15.899v-1.5l16.001-18.502v-0.5h-14.701c-6.101,0-9.201,0.399-13.201,8.701h-1.5v-17.502h40.604v1.5
		l-19.103,22.602c11.701,1.9,20.103,7.802,20.103,18.103c0,12.301-12.301,19.701-23.803,19.701c-5.8,0-12.5-1.4-17.801-3.9V3534.697
		L226.167,3534.697z"/>
	<path fill="#231F20" d="M457.422,3551.6v-1.5c7.301-1.701,8.501-3,8.501-7.502v-4.397H436.22v-1.502l32.202-45.402h7.5v38.402h10.2
		v8.502h-10.2v4.397c0,4.502,1.199,5.801,8.501,7.502v1.5H457.422z M465.923,3501.596h-0.5l-19.501,27.401v0.699h20.001V3501.596z"
		/>
	<path fill="#231F20" d="M694.376,3508.798c-4-8.302-7.102-8.701-13.201-8.701h-16.2l-1.102,15.399c3.5-0.799,7.501-1.1,10.501-1.1
		c16.302,0,25.303,7.602,25.303,18.801c0,12.301-12.103,20.002-24.002,20.002c-5.801,0-12.001-1.399-17.401-3.899v-14.603h1.601
		c3.9,9.402,8.302,14.701,16.102,14.701c6.801,0,12.602-5,12.602-14.4c0-10.2-7.101-16.102-18.802-16.102c-2.6,0-6.5,0.301-9.601,1
		l-0.801-1.398l2-27.202h34.502v17.502H694.376z"/>
	<path fill="#231F20" d="M883.228,3517.697c3.8-2.399,9.2-3.5,12.7-3.5c12.101,0,19.602,6.9,19.602,18.103
		c0,11.899-10.801,20.899-21.802,20.899c-13.4,0-22.901-9.6-22.901-24.502c0-18.899,15.701-34.002,34.104-39.002l0.7,1.699
		C895.928,3496.195,886.628,3504.596,883.228,3517.697z M882.527,3520.998c-0.399,2.398-0.601,5-0.601,7.699
		c0,15.002,5.199,20.701,11.801,20.701c6.301,0,10.701-5.699,10.701-15.4c0-10.899-5.7-15.301-13.301-15.301
		C888.527,3518.697,885.428,3519.396,882.527,3520.998z"/>
	<path fill="#231F20" d="M1089.384,3551.6v-1.5l28.501-49.504v-0.5h-20.4c-6.101,0-9.601,0.399-13.901,8.701h-1.5v-17.502h41.604
		v1.5l-24.001,58.805H1089.384z"/>
	<path fill="#231F20" d="M1321.839,3518.498c6.899,3.398,13.001,7.601,13.001,15.699c0,12.902-12.802,19.002-22.401,19.002
		c-11.2,0-21.602-4.801-21.602-15.399c0-7.701,5.5-13.103,13.2-16.302c-6.301-3.2-11.601-7.399-11.601-14.901
		c0-11.802,11.2-16.9,20.701-16.9c9.7,0,20.001,4.802,20.001,14.4C1333.139,3511.298,1327.639,3515.598,1321.839,3518.498z
		 M1306.638,3522.697c-4.2,3.701-5.802,9-5.802,13.801c0,8.603,5.9,12.9,12.802,12.9c6.399,0,12.301-4.1,12.301-11.1
		C1325.938,3529.898,1315.738,3526.898,1306.638,3522.697z M1318.839,3517.197c2.899-3.1,4.301-7.399,4.301-12.102
		c0-7.699-5.4-11.601-11.201-11.601c-5.5,0-10.601,3.101-10.601,9C1301.338,3510.298,1310.237,3513.396,1318.839,3517.197z"/>
	<path fill="#231F20" d="M1514.092,3551.5c9.699-4.801,19.001-13.102,22.4-26.202c-3.7,2.399-9.101,3.399-12.601,3.399
		c-12.103,0-19.603-6.899-19.603-18.102c0-11.9,10.802-20.9,21.803-20.9c13.301,0,22.9,9.603,22.9,24.502
		c0,18.9-15.701,34.002-34.202,39.002L1514.092,3551.5z M1537.192,3521.896c0.399-2.398,0.699-5,0.699-7.699
		c0-15.002-5.2-20.701-11.8-20.701c-6.302,0-10.701,5.699-10.701,15.4c0,10.9,5.7,15.301,13.301,15.301
		C1531.191,3524.197,1534.292,3523.498,1537.192,3521.896z"/>
	<path fill="#231F20" d="M1719.144,3521.396c0-18.9,10.001-31.701,24.802-31.701c14.701,0,24.803,12.801,24.803,31.701
		c0,18.902-10.102,31.803-24.803,31.803C1729.145,3553.199,1719.144,3540.3,1719.144,3521.396z M1757.047,3521.396
		c0-19.6-5.301-27.9-13.102-27.9s-13.201,8.302-13.201,27.9c0,19.602,5.4,28.002,13.201,28.002
		C1751.747,3549.398,1757.047,3540.998,1757.047,3521.396z"/>
	<path fill="#231F20" d="M225.467,3827.6v-1.5c8.302-1.701,9.802-3,9.802-7.502v-38.902c0-4.6-1.4-4.799-6.5-4.799h-3.602v-1.603
		l19.201-8h1.602v53.304c0,4.502,1.5,5.801,9.8,7.502v1.5H225.467L225.467,3827.6z"/>
	<path fill="#231F20" d="M427.392,3827.6v-1.5c12.401-12.502,30.302-27.103,30.302-43.604c0-9.399-4.2-13-9.5-13
		c-7.301,0-12.4,5.302-16.701,14.701h-1.5v-14.602c6.2-2.4,14.102-3.9,19.901-3.9c10.5,0,19.301,5.301,19.301,16.701
		c0,15-17.501,24.701-29.602,35.902v0.5h14.301c6.101,0,9.601-0.4,13.9-8.701h1.601v17.502L427.392,3827.6L427.392,3827.6z"/>
	<path fill="#231F20" d="M645.417,3810.697h1.5c3.9,9.402,9.302,14.701,17.103,14.701c6.1,0,11.9-3.4,11.9-12.9
		c0-10.2-8.2-14.5-17.102-15.899v-1.5l16.001-18.502v-0.5h-14.701c-6.101,0-9.201,0.399-13.201,8.701h-1.5v-17.502h40.604v1.5
		l-19.102,22.602c11.7,1.9,20.102,7.802,20.102,18.103c0,12.301-12.301,19.701-23.802,19.701c-5.8,0-12.5-1.4-17.802-3.9V3810.697z"
		/>
	<path fill="#231F20" d="M879.542,3827.6v-1.5c7.302-1.701,8.502-3,8.502-7.502v-4.397h-29.702v-1.502l32.202-45.402h7.5v38.402
		h10.2v8.502h-10.2v4.397c0,4.502,1.199,5.801,8.5,7.502v1.5H879.542z M888.044,3777.596h-0.5l-19.501,27.401v0.699h20.001V3777.596
		z"/>
	<path fill="#231F20" d="M1094.367,3793.697c3.8-2.399,9.2-3.5,12.7-3.5c12.101,0,19.602,6.9,19.602,18.103
		c0,11.899-10.801,20.899-21.802,20.899c-13.399,0-22.9-9.6-22.9-24.502c0-18.899,15.7-34.002,34.103-39.002l0.7,1.699
		C1107.067,3772.195,1097.767,3780.596,1094.367,3793.697z M1093.667,3796.998c-0.399,2.398-0.601,5-0.601,7.699
		c0,15.002,5.2,20.701,11.801,20.701c6.302,0,10.701-5.699,10.701-15.4c0-10.899-5.7-15.301-13.301-15.301
		C1099.667,3794.697,1096.566,3795.396,1093.667,3796.998z"/>
	<path fill="#231F20" d="M1303.394,3827.6v-1.5l28.501-49.504v-0.5h-20.4c-6.101,0-9.601,0.399-13.9,8.701h-1.5v-17.502h41.603v1.5
		l-24.001,58.805H1303.394z"/>
	<path fill="#231F20" d="M1538.721,3794.498c6.899,3.398,13.001,7.601,13.001,15.699c0,12.902-12.802,19.002-22.401,19.002
		c-11.2,0-21.602-4.801-21.602-15.399c0-7.701,5.501-13.103,13.201-16.302c-6.302-3.2-11.602-7.399-11.602-14.901
		c0-11.802,11.2-16.9,20.701-16.9c9.7,0,20.001,4.802,20.001,14.4C1550.021,3787.298,1544.521,3791.598,1538.721,3794.498z
		 M1523.521,3798.697c-4.2,3.701-5.801,9-5.801,13.801c0,8.603,5.899,12.9,12.801,12.9c6.4,0,12.301-4.1,12.301-11.1
		C1542.821,3805.898,1532.621,3802.898,1523.521,3798.697z M1535.721,3793.197c2.899-3.1,4.301-7.399,4.301-12.102
		c0-7.699-5.4-11.601-11.201-11.601c-5.5,0-10.601,3.101-10.601,9C1518.22,3786.298,1527.12,3789.396,1535.721,3793.197z"/>
	<path fill="#231F20" d="M1733.845,3827.5c9.7-4.801,19.001-13.102,22.4-26.202c-3.699,2.399-9.101,3.399-12.601,3.399
		c-12.102,0-19.602-6.899-19.602-18.102c0-11.9,10.801-20.9,21.802-20.9c13.301,0,22.9,9.603,22.9,24.502
		c0,18.9-15.7,34.002-34.202,39.002L1733.845,3827.5z M1756.946,3797.896c0.399-2.398,0.699-5,0.699-7.699
		c0-15.002-5.2-20.701-11.8-20.701c-6.302,0-10.701,5.699-10.701,15.4c0,10.9,5.7,15.301,13.301,15.301
		C1750.945,3800.197,1754.047,3799.498,1756.946,3797.896z"/>
	<path fill="#231F20" d="M226.567,4075.498v-1.102c5.399-1,6.2-1.799,6.2-5.199v-21.402c0-3.1-1.602-3.299-4.2-3.299h-2.102v-1
		l14.302-5.399h1.101v31.102c0,3.4,0.7,4.199,6.102,5.199v1.103h-21.402V4075.498z M234.469,4104.799l43.003-68.805l3.898,2.4
		l-43.002,68.805L234.469,4104.799z M266.97,4103.601v-1.101c4.8-1.002,5.601-1.899,5.601-4.899v-1.399h-19.302v-1.103l20.9-27.701
		h6.802v21.902h6.8v6.9h-6.8v1.4c0,3,0.8,3.898,5.5,4.9v1.1L266.97,4103.601L266.97,4103.601z M272.57,4074.197h-0.5l-11.201,14.603
		v0.5h11.701V4074.197z"/>
	<path fill="#231F20" d="M465.513,4075.498v-1.102c5.399-1,6.2-1.799,6.2-5.199v-21.402c0-3.1-1.602-3.299-4.2-3.299h-2.102v-1
		l14.302-5.399h1.101v31.102c0,3.4,0.7,4.199,6.101,5.199v1.103h-21.401V4075.498z M473.413,4104.799l43.004-68.805l3.898,2.4
		l-43.002,68.805L473.413,4104.799z M504.314,4103.601v-1.101c8.101-7.502,18.701-18.2,18.701-27.104c0-4.1-2.101-6.299-5.3-6.299
		c-4.302,0-7.801,3.199-11.201,8.899h-1.1v-8.801c4.1-1.801,9.5-2.701,13.301-2.701c7.199,0,13.601,2.9,13.601,10.002
		c0,8.302-10.399,13.302-18.701,19.802v0.5h7.602c4,0,6.899-0.5,10.399-5.5h1v12.301L504.314,4103.601L504.314,4103.601z"/>
	<path fill="#231F20" d="M710.359,4064.896h1c3,5.701,7,8.9,11.7,8.9c3.301,0,7.001-1.4,7.001-6.802c0-5.299-4.801-7.899-11.001-9.1
		v-1.101l9.601-10.002v-0.6h-7.101c-4,0-6.9,0.399-10.102,5.5h-1.1v-12.4h27.501v1.101l-12.301,13.401
		c7.801,1,13.302,4.601,13.302,10.601c0,7.801-8.601,12.103-16.4,12.103c-3.802,0-8.502-0.9-12.102-2.802L710.359,4064.896
		L710.359,4064.896z M722.76,4104.799l43.003-68.805l3.899,2.4l-43.003,68.805L722.76,4104.799z M755.262,4103.601v-1.101
		c4.801-1.002,5.601-1.899,5.601-4.899v-1.399h-19.302v-1.103l20.901-27.701h6.801v21.902h6.801v6.9h-6.801v1.4
		c0,3,0.8,3.898,5.5,4.9v1.1L755.262,4103.601L755.262,4103.601z M760.862,4074.197h-0.5l-11.201,14.603v0.5h11.701V4074.197z"/>
	<path fill="#231F20" d="M953.806,4075.498v-1.102c5.399-1,6.2-1.799,6.2-5.199v-21.402c0-3.1-1.602-3.299-4.2-3.299h-2.102v-1
		l14.302-5.399h1.101v31.102c0,3.4,0.7,4.199,6.102,5.199v1.103h-21.402V4075.498z M961.706,4104.799l43.004-68.805l3.898,2.4
		l-43.002,68.805L961.706,4104.799z M1013.309,4082.898c4.9,2,9.201,4.799,9.201,10.301c0,7.699-8.801,11.401-15.401,11.401
		c-7.899,0-15.2-2.701-15.2-9.102c0-4.3,3.801-7.601,8.7-9.5c-4.2-1.9-7.7-4.302-7.7-9c0-7.502,8-10.502,14.5-10.502
		c7.001,0,14.001,2.5,14.001,8.301C1021.409,4078.598,1017.71,4081.197,1013.309,4082.898z M1002.809,4086.998
		c-1.801,1.9-2.9,4.601-2.9,7.302c0,4.999,3.5,7.6,8,7.6c4.001,0,7.301-2.5,7.301-5.9
		C1015.21,4090.998,1008.809,4089.3,1002.809,4086.998z M1010.809,4081.898c1.5-1.5,2.7-3.701,2.7-6.502
		c0-4.398-3.2-6.199-6.9-6.199c-3.5,0-6.5,1.801-6.5,4.9C1000.108,4078.197,1005.309,4079.798,1010.809,4081.898z"/>
	<path fill="#231F20" d="M1200.152,4064.896h1c3,5.701,7,8.9,11.7,8.9c3.301,0,7.001-1.4,7.001-6.802
		c0-5.299-4.801-7.899-11.001-9.1v-1.101l9.601-10.002v-0.6h-7.101c-4,0-6.9,0.399-10.102,5.5h-1.1v-12.4h27.501v1.101
		l-12.301,13.401c7.801,1,13.302,4.601,13.302,10.601c0,7.801-8.601,12.103-16.4,12.103c-3.802,0-8.502-0.9-12.102-2.802
		L1200.152,4064.896L1200.152,4064.896z M1212.553,4104.799l43.003-68.805l3.899,2.4l-43.003,68.805L1212.553,4104.799z
		 M1264.156,4082.898c4.9,2,9.2,4.799,9.2,10.301c0,7.699-8.801,11.401-15.4,11.401c-7.9,0-15.201-2.701-15.201-9.102
		c0-4.3,3.801-7.601,8.7-9.5c-4.2-1.9-7.7-4.302-7.7-9c0-7.502,8-10.502,14.502-10.502c7,0,14,2.5,14,8.301
		C1272.258,4078.598,1268.557,4081.197,1264.156,4082.898z M1253.655,4086.998c-1.8,1.9-2.899,4.601-2.899,7.302
		c0,4.999,3.501,7.6,8.001,7.6c4,0,7.3-2.5,7.3-5.9C1266.056,4090.998,1259.655,4089.3,1253.655,4086.998z M1261.656,4081.898
		c1.5-1.5,2.7-3.701,2.7-6.502c0-4.398-3.2-6.199-6.901-6.199c-3.5,0-6.5,1.801-6.5,4.9
		C1250.955,4078.197,1256.155,4079.798,1261.656,4081.898z"/>
	<path fill="#231F20" d="M1475.399,4051.695c-3.101-5.1-6.101-5.5-10.001-5.5h-9.899l-0.601,8.103c2.3-0.5,5.4-0.701,7.2-0.701
		c11.301,0,17.201,4,17.201,11.002c0,8.399-9.301,11.899-16.901,11.899c-3.601,0-7.899-0.899-11.601-2.801v-8.801h1.1
		c2.9,5.701,6.301,8.9,11.102,8.9c4,0,7.5-2.3,7.5-7.5c0-6.201-4.801-9.4-12.101-9.4c-1.7,0-4.2,0.1-6.2,0.6l-0.5-1.1l1.301-17.102
		h23.501v12.399L1475.399,4051.695L1475.399,4051.695z M1463.499,4104.799l43.003-68.805l3.899,2.4l-43.003,68.805
		L1463.499,4104.799z M1515.003,4082.898c4.899,2,9.199,4.799,9.199,10.301c0,7.699-8.801,11.401-15.399,11.401
		c-7.901,0-15.201-2.701-15.201-9.102c0-4.3,3.8-7.601,8.7-9.5c-4.2-1.9-7.7-4.302-7.7-9c0-7.502,8-10.502,14.501-10.502
		c7,0,14.001,2.5,14.001,8.301C1523.103,4078.598,1519.402,4081.197,1515.003,4082.898z M1504.501,4086.998
		c-1.8,1.9-2.899,4.601-2.899,7.302c0,4.999,3.501,7.6,8.001,7.6c4,0,7.3-2.5,7.3-5.9
		C1516.901,4090.998,1510.501,4089.3,1504.501,4086.998z M1512.503,4081.898c1.5-1.5,2.699-3.701,2.699-6.502
		c0-4.398-3.199-6.199-6.9-6.199c-3.5,0-6.5,1.801-6.5,4.9C1501.802,4078.197,1507.001,4079.798,1512.503,4081.898z"/>
	<path fill="#231F20" d="M1706.646,4075.498v-1.102l19.101-27.602v-0.601h-12.801c-3.898,0-6.9,0.399-10.101,5.5h-1v-12.399h28.302
		v1.1l-14.301,35.104H1706.646z M1705.945,4104.799l43.003-68.805l3.899,2.4l-43.002,68.805L1705.945,4104.799z M1757.448,4082.898
		c4.9,2,9.201,4.799,9.201,10.301c0,7.699-8.801,11.401-15.4,11.401c-7.9,0-15.201-2.701-15.201-9.102c0-4.3,3.801-7.601,8.701-9.5
		c-4.2-1.9-7.701-4.302-7.701-9c0-7.502,8.001-10.502,14.501-10.502c7.001,0,14.001,2.5,14.001,8.301
		C1765.55,4078.598,1761.849,4081.197,1757.448,4082.898z M1746.948,4086.998c-1.801,1.9-2.899,4.601-2.899,7.302
		c0,4.999,3.5,7.6,8,7.6c4.001,0,7.301-2.5,7.301-5.9C1759.349,4090.998,1752.948,4089.3,1746.948,4086.998z M1754.948,4081.898
		c1.5-1.5,2.7-3.701,2.7-6.502c0-4.398-3.2-6.199-6.9-6.199c-3.5,0-6.5,1.801-6.5,4.9
		C1744.249,4078.197,1749.448,4079.798,1754.948,4081.898z"/>
	<path fill="#231F20" d="M226.567,4351.498v-1.102c5.399-1,6.2-1.799,6.2-5.199v-21.402c0-3.1-1.602-3.299-4.2-3.299h-2.102v-1
		l14.302-5.399h1.101v31.103c0,3.399,0.7,4.199,6.102,5.199v1.102h-21.402V4351.498z M234.469,4380.799l43.003-68.805l3.898,2.4
		l-43.002,68.805L234.469,4380.799z M267.869,4368.998h1.001c3,5.701,7,8.9,11.7,8.9c3.301,0,7.001-1.4,7.001-6.801
		c0-5.299-4.801-7.9-11.001-9.1v-1.101l9.601-10.002v-0.601h-7.101c-4,0-6.9,0.4-10.101,5.5h-1.102v-12.399h27.502v1.101
		l-12.301,13.401c7.801,1,13.301,4.601,13.301,10.601c0,7.801-8.601,12.102-16.399,12.102c-3.802,0-8.501-0.9-12.103-2.801
		L267.869,4368.998L267.869,4368.998z"/>
	<path fill="#231F20" d="M456.467,4351.498v-1.102c8.101-7.5,18.7-18.201,18.7-27.102c0-4.101-2.1-6.299-5.3-6.299
		c-4.301,0-7.801,3.199-11.2,8.899h-1.101v-8.801c4.101-1.801,9.5-2.701,13.301-2.701c7.2,0,13.602,2.899,13.602,10.002
		c0,8.299-10.4,13.301-18.701,19.801v0.5h7.601c4,0,6.9-0.5,10.4-5.5h1v12.301L456.467,4351.498L456.467,4351.498z
		 M471.867,4380.799l43.003-68.805l3.899,2.4l-43.002,68.805L471.867,4380.799z M523.37,4358.898c4.9,2,9.2,4.799,9.2,10.301
		c0,7.699-8.8,11.4-15.399,11.4c-7.9,0-15.201-2.701-15.201-9.103c0-4.299,3.801-7.601,8.701-9.5c-4.201-1.899-7.701-4.301-7.701-9
		c0-7.502,8.001-10.502,14.501-10.502c7.001,0,14.001,2.5,14.001,8.301C531.471,4354.599,527.771,4357.197,523.37,4358.898z
		 M512.869,4362.998c-1.8,1.9-2.898,4.601-2.898,7.301c0,5,3.5,7.601,8,7.601c4,0,7.301-2.5,7.301-5.899
		C525.271,4366.998,518.87,4365.299,512.869,4362.998z M520.87,4357.898c1.5-1.5,2.7-3.701,2.7-6.502c0-4.398-3.2-6.199-6.899-6.199
		c-3.5,0-6.502,1.801-6.502,4.9C510.17,4354.197,515.37,4355.797,520.87,4357.898z"/>
	<path fill="#231F20" d="M692.566,4333.396c0-11.4,6.801-19.002,16.701-19.002c9.899,0,16.701,7.602,16.701,19.002
		c0,11.301-6.802,19.102-16.701,19.102C699.367,4352.498,692.566,4344.697,692.566,4333.396z M716.268,4333.396
		c0-11.801-2.6-16.301-7-16.301s-7.001,4.5-7.001,16.301c0,11.701,2.601,16.4,7.001,16.4S716.268,4345.099,716.268,4333.396z
		 M707.268,4380.799l43.002-68.805l3.9,2.4l-43.003,68.805L707.268,4380.799z M735.569,4361.498c0-11.399,6.8-19.002,16.7-19.002
		c9.901,0,16.701,7.603,16.701,19.002c0,11.301-6.8,19.103-16.701,19.103C742.369,4380.601,735.569,4372.799,735.569,4361.498z
		 M759.271,4361.498c0-11.801-2.601-16.301-7.001-16.301c-4.399,0-7,4.5-7,16.301c0,11.701,2.601,16.4,7,16.4
		C756.671,4377.898,759.271,4373.199,759.271,4361.498z"/>
	<path fill="#231F20" d="M928.967,4333.396c0-11.4,6.801-19.002,16.7-19.002c9.9,0,16.701,7.602,16.701,19.002
		c0,11.301-6.801,19.102-16.701,19.102C935.767,4352.498,928.967,4344.697,928.967,4333.396z M952.667,4333.396
		c0-11.801-2.6-16.301-7-16.301c-4.399,0-7,4.5-7,16.301c0,11.701,2.601,16.4,7,16.4
		C950.067,4349.797,952.667,4345.099,952.667,4333.396z M943.667,4380.799l43.003-68.805l3.899,2.4l-43.003,68.805L943.667,4380.799
		z M971.969,4361.498c0-11.399,6.8-19.002,16.7-19.002s16.7,7.603,16.7,19.002c0,11.301-6.8,19.103-16.7,19.103
		S971.969,4372.799,971.969,4361.498z M995.671,4361.498c0-11.801-2.602-16.301-7.001-16.301s-7,4.5-7,16.301
		c0,11.701,2.601,16.4,7,16.4S995.671,4373.199,995.671,4361.498z M1009.371,4361.498c0-11.399,6.8-19.002,16.7-19.002
		c9.901,0,16.701,7.603,16.701,19.002c0,11.301-6.8,19.103-16.701,19.103C1016.172,4380.601,1009.371,4372.799,1009.371,4361.498z
		 M1033.072,4361.498c0-11.801-2.601-16.301-7.001-16.301c-4.398,0-7,4.5-7,16.301c0,11.701,2.602,16.4,7,16.4
		C1030.472,4377.898,1033.072,4373.199,1033.072,4361.498z"/>
</g>
</svg>
