<?xml version="1.0" encoding="utf-8"?>
<!-- Generator: Adobe Illustrator 16.0.3, SVG Export Plug-In . SVG Version: 6.00 Build 0)  -->
<!DOCTYPE svg PUBLIC "-//W3C//DTD SVG 1.1//EN" "http://www.w3.org/Graphics/SVG/1.1/DTD/svg11.dtd">
<svg version="1.1" id="Layer_1" xmlns="http://www.w3.org/2000/svg" xmlns:xlink="http://www.w3.org/1999/xlink" x="0px" y="0px"
	 width="1545.883px" height="900.705px" viewBox="224.166 168.495 1545.883 900.705"
	 enable-background="new 224.166 168.495 1545.883 900.705" xml:space="preserve">
<g>
	<path fill="#231F20" d="M225.167,239.6v-1.5c5.5-1.399,6.102-2.5,6.102-5.801v-29.603h-7.102v-3h7.102l-2-8.501
		c-4.102-16.899,9-22.7,19.399-22.7c4.001,0,8.901,0.899,13.901,2.899l6.7-2.3h1.5v35.802h0.7c2.8-4.399,7.501-6.801,12.7-6.801
		c9,0,17.102,6.501,17.102,20.002c0,13.9-9.801,23.103-21.901,23.103c-2.8,0-8.399-0.802-12.501-4.502l-5,2.9h-1.5l0.4-11.001
		v-48.902c-5.001-6.399-9.501-8.001-13.603-8.001c-5.7,0-11.899,3.9-9.3,14.201l3.5,13.801h10.4v3h-10.4v29.603
		c0,3.301,0.399,4.399,6.3,5.801v1.5H225.167L225.167,239.6z M270.77,231.9c2.601,4.7,6.2,6.101,9.201,6.101
		c6.8,0,10.899-6.5,10.899-17.2c0-8.401-2.8-16.501-10.601-16.501c-5.4,0-9.501,3.2-9.501,10L270.77,231.9L270.77,231.9z"/>
	<path fill="#231F20" d="M485.548,239.6v-1.5c5.5-1.399,6.101-2.5,6.101-5.801v-29.603h-7.101v-3h7.101l-2-8.501
		c-4.101-16.899,9-22.7,18.701-22.7c4.3,0,9.8,0.8,15.399,3.601c3.5-2.5,7.802-3.601,11.401-3.601c4.101,0,9.7,0.601,15.602,4.601
		l-4.7,9.4h-1.5c-3.9-6.602-7.9-10.802-11.901-10.802c-4.1,0-8.399,2.9-6.2,11.901l4,16.101h13.501v3H530.45v29.603
		c0,3.301,0.5,4.399,8.001,5.801v1.5h-24.2v-1.5c5.6-1.399,6.199-2.5,6.199-5.801v-29.603h-18.701v29.603
		c0,3.301,0.399,4.399,5.9,5.801v1.5H485.548L485.548,239.6z M518.749,178.596c-4.101-5.9-8.399-6.9-11.899-6.9
		c-5.001,0-11.201,3.9-8.601,14.201l3.5,13.801h18.7l-2-8.501C517.148,185.997,517.449,181.796,518.749,178.596z"/>
	<path fill="#231F20" d="M726.727,239.6v-1.5c5.5-1.399,6.101-2.5,6.101-5.801v-29.603h-7.101v-3h7.101l-2-8.501
		c-4.101-16.899,9-22.7,19.401-22.7c4,0,8.9,0.899,13.9,2.899l6.699-2.3h1.5v36.802h0.7c2.7-4.7,7.602-7.801,13.802-7.801
		c7.199,0,13,4.601,13,13.901v20.301c0,3.301,0.601,4.399,6.2,5.801v1.5h-21.9v-1.5c5.601-1.4,5.699-2.5,5.699-5.801v-18.201
		c0-5.8-2.3-9.8-7.899-9.8c-5.3,0-9.602,3.8-9.602,11.5v16.501c0,3.301,0.102,4.399,5.7,5.801v1.5h-21.201v-1.5
		c4.9-1.4,5.501-2.5,5.501-5.801v-52.604c-5.001-6.399-9.501-8.001-13.602-8.001c-5.7,0-11.9,3.9-9.3,14.201l3.5,13.801h10.399v3
		h-10.399v29.603c0,3.301,0.398,4.399,5.899,5.801v1.5L726.727,239.6L726.727,239.6z"/>
	<path fill="#231F20" d="M1019.808,239.6v-1.5c4.899-1.399,5.501-2.5,5.501-5.801v-29.603h-18.401v29.603
		c0,3.301,0.399,4.4,5.9,5.801v1.5h-22.103v-1.5c5.5-1.399,6.102-2.5,6.102-5.801v-29.603h-7.102v-3h7.102l-2-8.501
		c-4.102-16.899,9-22.7,19.4-22.7c6.101,0,13.9,1.101,20.802,5.301l-4.9,10.101h-1.5c-5.899-8.601-10.899-12.201-15.901-12.201
		c-5.699,0-11.899,3.9-9.3,14.201l3.5,13.801h18.701l8.2-1h1.5V232.3c0,3.301,0.601,4.4,6.2,5.801v1.5L1019.808,239.6
		L1019.808,239.6z"/>
	<path fill="#231F20" d="M1254.188,262.001c6-5,6.601-11.602,6.601-21.103v-38.202h-18.4v29.603c0,3.301,0.398,4.4,6.3,5.801v1.5
		h-22.501v-1.5c5.5-1.399,6.101-2.5,6.101-5.801v-29.603h-7.101v-3h7.101l-2-8.501c-4.101-16.899,9-22.7,19.4-22.7
		c6.101,0,13.901,1.101,20.802,5.301l-4.899,10.101h-1.5c-5.9-8.601-10.9-12.201-15.901-12.201c-5.7,0-11.9,3.9-9.3,14.201
		l3.5,13.801h18.701l8.199-1h1.5V236.9c0,12.4-6.101,20.803-15.301,26.502L1254.188,262.001z"/>
	<path fill="#231F20" d="M1483.268,250.3h1.5c2.601,6.001,6.001,9.501,9.601,9.501c2.7,0,5.001-1.7,5.001-6.601
		c0-3.101-1.101-7.301-4.199-12.9v-37.604h-18.401v29.603c0,3.301,0.399,4.4,6.3,5.801v1.5h-22.501v-1.5
		c5.5-1.399,6.101-2.5,6.101-5.801v-29.603h-7.101v-3h7.101l-2-8.501c-4.101-16.899,9-22.7,19.401-22.7
		c6.101,0,13.9,1.101,20.801,5.301l-4.899,10.101h-1.5c-5.9-8.601-10.9-12.201-15.901-12.201c-5.7,0-11.899,3.9-9.3,14.201
		l3.5,13.801h18.701l8.199-1h1.5V239.3c1.602,3.3,2.5,6.8,2.5,10.101c0,9.5-8.199,13.602-14.699,13.602
		c-3.9,0-9.602-1.101-13.801-4.602L1483.268,250.3z"/>
	<path fill="#231F20" d="M1725.049,239.6v-1.5c4.899-1.399,5.501-2.5,5.501-5.801v-52.604c-5.001-6.399-9.501-8.001-13.603-8.001
		c-5.7,0-11.899,3.9-9.3,14.201l3.5,13.801h10.4v3h-10.4v29.603c0,3.301,0.398,4.4,5.9,5.801v1.5h-22.103v-1.5
		c5.5-1.399,6.101-2.5,6.101-5.801v-29.603h-7.101v-3h7.101l-2-8.501c-4.101-16.899,9-22.7,19.4-22.7
		c4.001,0,8.901,0.899,13.901,2.899l6.699-2.3h1.5v49.603l10.302-10.399c3.101-3.102,3-5.4-1.301-7.102v-1.5h18.602v1.5
		c-6.2,2.2-9.9,4.602-13.5,8.102l-6.301,6.2l21.7,22.602v1.5h-12.301l-17.201-20.901V232.3c0,3.301,0.602,4.4,6.2,5.801v1.5
		L1725.049,239.6L1725.049,239.6z"/>
	<path fill="#231F20" d="M225.167,515.6v-1.5c5.5-1.4,6.102-2.5,6.102-5.801v-29.603h-7.102v-3h7.102l-2-8.501
		c-4.102-16.899,9-22.701,19.399-22.701c4.001,0,8.901,0.9,13.901,2.9l6.7-2.3h1.5v63.203c0,3.301,0.601,4.399,6.2,5.801v1.5
		h-21.701v-1.5c4.899-1.4,5.501-2.5,5.501-5.801v-52.604c-5.001-6.399-9.501-8.001-13.603-8.001c-5.7,0-11.899,3.9-9.3,14.201
		l3.5,13.801h10.4v3h-10.4v29.603c0,3.301,0.399,4.399,5.9,5.801v1.5L225.167,515.6L225.167,515.6z"/>
	<path fill="#231F20" d="M499.501,509.999c-3,4.4-7.302,7.201-12.4,7.201c-7.102,0-11.701-4.301-11.701-13.201v-25.302h-18.001
		V508.3c0,3.301,0.399,4.399,7.3,5.801v1.5h-23.501v-1.5c5.5-1.4,6.102-2.5,6.102-5.801v-29.603h-7.102v-3h7.102l-2-8.501
		c-4.102-16.899,8.399-22.701,16.7-22.701c4.101,0,9.7,0.602,15.602,4.602l-4.7,9.399h-1.5c-3.899-6.601-7.899-10.801-11.901-10.801
		c-4,0-8.399,2.9-6.199,11.901l4.101,16.101h13.9l12.601-9.301h1.602v9.301H498.6v3h-13.102v23.302c0,6.602,2.602,9.2,6.302,9.2
		c1.7,0,4.8-0.899,6.6-2.399L499.501,509.999z"/>
	<path fill="#231F20" d="M691.328,515.6v-1.5c5.601-1.4,6.2-2.5,6.2-5.801v-29.603h-18.701v29.603c0,3.301,0.399,4.399,5.9,5.801
		v1.5h-22.102v-1.5c5.5-1.4,6.101-2.5,6.101-5.801v-29.603h-7.101v-3h7.101l-2-8.501c-4.101-16.899,9-22.701,18.701-22.701
		c4.399,0,10.101,0.801,15.899,3.802c3.9-2.7,9.001-3.802,13.603-3.802c4,0,8.899,0.9,13.801,2.9l6.7-2.3h1.6v35.802h0.602
		c2.899-4.4,7.601-6.801,12.801-6.801c9,0,17.001,6.501,17.001,20.002c0,13.899-9.801,23.102-21.802,23.102
		c-2.8,0-8.4-0.801-12.602-4.501l-4.899,2.9h-1.601l0.399-11.001v-49.003c-4.9-6.3-9.4-7.9-13.501-7.9c-5.8,0-11.9,3.9-9.3,14.201
		l3.398,13.801h10.501v3h-10.501v29.603c0,3.301,0.5,4.399,6.4,5.801v1.5H691.328L691.328,515.6z M678.827,475.698h18.701l-2-8.501
		c-1.301-5.1-0.899-9.2,0.399-12.399c-4.101-6-8.5-7.102-12-7.102c-5.001,0-11.201,3.9-8.602,14.201L678.827,475.698z M737.03,508.1
		c2.602,4.6,6.2,5.899,9.201,5.899c6.8,0,10.801-6.5,10.801-17.2c0-8.401-2.699-16.501-10.501-16.501c-5.399,0-9.501,3.199-9.501,10
		V508.1L737.03,508.1z"/>
	<path fill="#231F20" d="M960.059,515.6v-1.5c5.6-1.4,6.2-2.5,6.2-5.801v-29.603h-18.701v29.603c0,3.301,0.399,4.399,5.9,5.801v1.5
		h-22.103v-1.5c5.5-1.4,6.102-2.5,6.102-5.801v-29.603h-7.102v-3h7.102l-2-8.501c-4.102-16.899,9-22.701,18.7-22.701
		c4.4,0,10.102,0.801,15.9,3.802c3.9-2.7,9.001-3.802,13.602-3.802c4,0,8.9,0.9,13.802,2.9l6.699-2.3h1.601v36.802h0.601
		c2.7-4.7,7.7-7.801,13.9-7.801c7.2,0,13.001,4.601,13.001,13.9v20.302c0,3.301,0.6,4.399,6.2,5.801v1.5h-21.901v-1.5
		c5.601-1.4,5.7-2.5,5.7-5.801v-18.201c0-5.8-2.399-9.8-7.9-9.8c-5.399,0-9.601,3.8-9.601,11.5v16.501
		c0,3.301,0.101,4.399,5.601,5.801v1.5H990.16v-1.5c4.9-1.4,5.5-2.5,5.5-5.801v-52.703c-4.899-6.3-9.399-7.9-13.501-7.9
		c-5.8,0-11.899,3.9-9.3,14.201l3.399,13.801h10.501v3h-10.501v29.603c0,3.301,0.5,4.399,6.001,5.801v1.5H960.059L960.059,515.6z
		 M947.558,475.698h18.701l-2-8.501c-1.302-5.1-0.9-9.2,0.398-12.399c-4.1-6-8.5-7.102-12-7.102c-5.001,0-11.201,3.9-8.601,14.201
		L947.558,475.698z"/>
	<path fill="#231F20" d="M1261.591,515.6v-1.5c4.899-1.4,5.501-2.5,5.501-5.801v-29.603h-18.502v29.603
		c0,3.301,0.5,4.399,6.001,5.801v1.5h-22.201v-1.5c5.6-1.4,6.199-2.5,6.199-5.801v-29.603h-18.7v29.603
		c0,3.301,0.398,4.399,5.899,5.801v1.5h-22.102v-1.5c5.5-1.4,6.101-2.5,6.101-5.801v-29.603h-7.101v-3h7.101l-2-8.501
		c-4.101-16.899,9-22.701,18.701-22.701c4.4,0,10.101,0.801,15.9,3.802c3.899-2.7,9.001-3.802,13.602-3.802
		c6,0,13.9,1.102,20.801,5.302l-4.899,10.101h-1.5c-5.9-8.601-10.9-12.201-15.901-12.201c-5.8,0-11.899,3.9-9.3,14.201l3.398,13.801
		h18.803l8.199-1h1.5V508.3c0,3.301,0.602,4.399,6.2,5.801v1.5L1261.591,515.6L1261.591,515.6z M1219.888,475.698h18.701l-2-8.501
		c-1.302-5.1-0.9-9.2,0.398-12.399c-4.1-6-8.5-7.102-12-7.102c-5.001,0-11.201,3.9-8.601,14.201L1219.888,475.698z"/>
	<path fill="#231F20" d="M1504.32,538.001c6-5,6.601-11.602,6.601-21.103v-38.202h-18.502v29.603c0,3.301,0.5,4.399,6.4,5.801v1.5
		h-22.601v-1.5c5.6-1.4,6.2-2.5,6.2-5.801v-29.603h-18.701v29.603c0,3.301,0.398,4.399,5.899,5.801v1.5h-22.102v-1.5
		c5.5-1.4,6.101-2.5,6.101-5.801v-29.603h-7.101v-3h7.101l-2-8.501c-4.101-16.899,9-22.701,18.701-22.701
		c4.4,0,10.101,0.801,15.9,3.802c3.899-2.7,9.001-3.802,13.602-3.802c6,0,13.9,1.102,20.801,5.302l-4.899,10.101h-1.5
		c-5.9-8.601-10.9-12.201-15.901-12.201c-5.8,0-11.9,3.9-9.3,14.201l3.399,13.801h18.802l8.2-1h1.5V512.9
		c0,12.4-6.102,20.802-15.302,26.502L1504.32,538.001z M1463.719,475.698h18.701l-2-8.501c-1.302-5.1-0.9-9.2,0.398-12.399
		c-4.1-6-8.5-7.102-12-7.102c-5.001,0-11.201,3.9-8.601,14.201L1463.719,475.698z"/>
	<path fill="#231F20" d="M1741.649,526.3h1.6c2.502,6.001,6.002,9.501,9.602,9.501c2.601,0,5.001-1.7,5.001-6.602
		c0-3.1-1.101-7.3-4.2-12.899v-37.604h-18.502v29.603c0,3.301,0.5,4.399,6.4,5.801v1.5h-22.602v-1.5c5.601-1.4,6.2-2.5,6.2-5.801
		v-29.603h-18.701v29.603c0,3.301,0.399,4.399,5.9,5.801v1.5h-22.103v-1.5c5.5-1.4,6.102-2.5,6.102-5.801v-29.603h-7.102v-3h7.102
		l-2-8.501c-4.102-16.899,9-22.701,18.701-22.701c4.399,0,10.101,0.8,15.899,3.802c3.9-2.7,9.001-3.802,13.602-3.802
		c6.001,0,13.9,1.102,20.802,5.302l-4.9,10.101h-1.5c-5.899-8.601-10.899-12.201-15.9-12.201c-5.801,0-11.9,3.9-9.301,14.201
		l3.399,13.801h18.802l8.2-1h1.5V515.3c1.5,3.3,2.5,6.8,2.5,10.101c0,9.5-8.2,13.602-14.7,13.602c-4.001,0-9.601-1.101-13.801-4.602
		L1741.649,526.3z M1706.447,475.698h18.701l-2-8.501c-1.301-5.1-0.899-9.2,0.399-12.399c-4.101-6-8.5-7.102-12-7.102
		c-5.001,0-11.201,3.9-8.602,14.201L1706.447,475.698z"/>
	<path fill="#231F20" d="M253.869,791.6v-1.5c5.601-1.4,6.2-2.5,6.2-5.801v-29.603h-18.701v29.603c0,3.301,0.399,4.399,5.9,5.801
		v1.5h-22.103v-1.5c5.5-1.4,6.102-2.5,6.102-5.801v-29.603h-7.102v-3h7.102l-2-8.501c-4.102-16.899,9-22.701,18.7-22.701
		c4.4,0,10.102,0.801,15.9,3.802c3.9-2.7,9.001-3.802,13.603-3.802c4,0,8.899,0.9,13.801,2.9l6.7-2.3h1.6v49.603l10.301-10.399
		c3.102-3.102,3-5.4-1.3-7.102v-1.5h18.601v1.5c-6.3,2.2-9.899,4.602-13.5,8.102l-6.301,6.199l21.701,22.603v1.5h-12.301
		l-17.201-20.901V784.3c0,3.301,0.601,4.399,6.101,5.801v1.5h-21.7v-1.5c4.899-1.4,5.5-2.5,5.5-5.801v-52.703
		c-4.9-6.3-9.4-7.9-13.501-7.9c-5.801,0-11.9,3.9-9.301,14.201l3.399,13.801h10.501v3h-10.501v29.603c0,3.301,0.5,4.399,6.001,5.801
		v1.5h-22.201V791.6z M241.368,751.698h18.701l-2-8.501c-1.301-5.1-0.9-9.2,0.398-12.399c-4.1-6-8.5-7.102-12-7.102
		c-5.001,0-11.2,3.9-8.601,14.201L241.368,751.698z"/>
	<path fill="#231F20" d="M522.198,791.6v-1.5c5.601-1.4,6.2-2.5,6.2-5.801v-29.603h-18.701v29.603c0,3.301,0.399,4.399,5.9,5.801
		v1.5h-22.103v-1.5c5.5-1.4,6.102-2.5,6.102-5.801v-29.603h-7.102v-3h7.102l-2-8.501c-4.102-16.899,9-22.701,18.701-22.701
		c4.399,0,10.101,0.801,15.899,3.802c3.9-2.7,9.001-3.802,13.602-3.802c4.001,0,8.9,0.9,13.802,2.9l6.7-2.3h1.6v63.203
		c0,3.301,0.602,4.399,6.102,5.801v1.5h-21.701v-1.5c4.899-1.4,5.5-2.5,5.5-5.801v-52.703c-4.9-6.3-9.4-7.9-13.501-7.9
		c-5.801,0-11.9,3.9-9.301,14.201l3.399,13.801h10.501v3h-10.501v29.603c0,3.301,0.5,4.399,6.001,5.801v1.5H522.198L522.198,791.6z
		 M509.697,751.698h18.701l-2-8.501c-1.301-5.1-0.9-9.2,0.399-12.399c-4.101-6-8.5-7.102-12-7.102c-5.001,0-11.201,3.9-8.602,14.201
		L509.697,751.698z"/>
	<path fill="#231F20" d="M826.932,785.999c-3,4.4-7.301,7.201-12.4,7.201c-7.101,0-11.701-4.301-11.701-13.201v-25.302h-18.102
		V784.3c0,3.301,0.5,4.399,7.301,5.801v1.5h-23.501v-1.5c5.601-1.4,6.2-2.5,6.2-5.801v-29.603h-18.701V784.3
		c0,3.301,0.399,4.399,5.9,5.801v1.5h-22.103v-1.5c5.5-1.4,6.102-2.5,6.102-5.801v-29.603h-7.102v-3h7.102l-2-8.501
		c-4.102-16.899,9-22.701,18.701-22.701c4.3,0,9.8,0.801,15.399,3.602c3.5-2.5,7.802-3.602,11.401-3.602
		c4.1,0,9.7,0.602,15.601,4.602l-4.699,9.4h-1.5c-3.9-6.602-7.9-10.802-11.901-10.802c-4.1,0-8.4,2.9-6.2,11.901l4,16.101h14.001
		l12.602-9.301h1.601v9.301h13.101v3h-13.101v23.302c0,6.602,2.601,9.2,6.301,9.2c1.7,0,4.8-0.899,6.601-2.399L826.932,785.999z
		 M756.027,751.698h18.701l-2-8.501c-1.301-5.2-1-9.399,0.3-12.601c-4.101-5.9-8.4-6.9-11.9-6.9c-5,0-11.2,3.9-8.601,14.201
		L756.027,751.698z"/>
	<path fill="#231F20" d="M991.656,791.6v-1.5c5.5-1.4,6.102-2.5,6.102-5.801v-32.603l-2-8.501c-4.102-16.899,9-22.701,19.4-22.701
		c4,0,8.9,0.9,13.9,2.9l6.7-2.3h1.5v35.802h0.699c2.802-4.4,7.501-6.801,12.701-6.801c9,0,17.102,6.501,17.102,20.002
		c0,13.899-9.802,23.102-21.901,23.102c-2.8,0-8.4-0.801-12.501-4.501l-5,2.9h-1.5l0.4-11.001v-48.902
		c-5.001-6.399-9.501-8.001-13.603-8.001c-5.7,0-11.899,3.9-9.3,14.201l3.5,13.801v32.603c0,3.301,0.398,4.399,7.602,5.801v1.5
		H991.656L991.656,791.6z M1037.26,783.9c2.601,4.7,6.2,6.1,9.201,6.1c6.8,0,10.899-6.5,10.899-17.199
		c0-8.401-2.8-16.501-10.601-16.501c-5.4,0-9.501,3.2-9.501,10L1037.26,783.9L1037.26,783.9z"/>
	<path fill="#231F20" d="M1233.187,791.6v-1.5c5.5-1.4,6.101-2.5,6.101-5.801v-32.603l-2-8.501c-4.101-16.899,9-22.701,19.4-22.701
		c4.001,0,8.901,0.9,13.901,2.9l6.699-2.3h1.5v36.802h0.7c2.7-4.7,7.602-7.801,13.801-7.801c7.2,0,13.001,4.601,13.001,13.9v20.302
		c0,3.301,0.601,4.399,6.2,5.801v1.5h-21.9v-1.5c5.601-1.4,5.699-2.5,5.699-5.801v-18.201c0-5.8-2.3-9.8-7.899-9.8
		c-5.301,0-9.602,3.8-9.602,11.5v16.501c0,3.301,0.102,4.399,5.7,5.801v1.5h-21.201v-1.5c4.9-1.4,5.501-2.5,5.501-5.801v-52.604
		c-5.001-6.399-9.501-8.001-13.602-8.001c-5.7,0-11.9,3.9-9.301,14.201l3.5,13.801v32.603c0,3.301,0.399,4.399,7.301,5.801v1.5
		L1233.187,791.6L1233.187,791.6z"/>
	<path fill="#231F20" d="M1494.517,784.299c0,3.301,0.399,4.399,5.899,5.801v1.5h-22.102v-1.5c5.5-1.4,6.101-2.5,6.101-5.801
		v-32.603l-2-8.501c-4.101-16.899,9-22.701,19.4-22.701c6.101,0,13.901,1.102,20.802,5.302l-4.899,10.101h-1.5
		c-5.9-8.601-10.9-12.201-15.901-12.201c-5.7,0-11.9,3.9-9.3,14.201l3.5,13.801V784.299L1494.517,784.299z M1507.417,791.6v-1.5
		c4.9-1.4,5.502-2.5,5.502-5.801v-22.201c0-4.7-1.102-4.9-6.201-4.9v-1.5l14.701-5h1.5V784.3c0,3.301,0.601,4.399,6.199,5.801v1.5
		L1507.417,791.6L1507.417,791.6z"/>
	<path fill="#231F20" d="M1725.049,791.6v-1.5c4.899-1.4,5.501-2.5,5.501-5.801v-52.604c-5.001-6.399-9.501-8.001-13.603-8.001
		c-5.7,0-11.899,3.9-9.3,14.201l3.5,13.801v32.603c0,3.301,0.398,4.399,7.3,5.801v1.5h-23.501v-1.5c5.5-1.4,6.102-2.5,6.102-5.801
		v-32.603l-2-8.501c-4.102-16.899,9-22.701,19.399-22.701c4.001,0,8.901,0.9,13.901,2.9l6.699-2.3h1.5v49.603l10.302-10.399
		c3.101-3.102,3-5.4-1.3-7.102v-1.5h18.601v1.5c-6.2,2.2-9.9,4.602-13.5,8.102l-6.301,6.199l21.7,22.603v1.5h-12.301l-17.201-20.901
		V784.3c0,3.301,0.602,4.399,6.2,5.801v1.5L1725.049,791.6L1725.049,791.6z"/>
	<path fill="#231F20" d="M225.167,1067.6v-1.5c5.5-1.4,6.102-2.5,6.102-5.801v-32.603l-2-8.501
		c-4.102-16.899,9-22.701,19.399-22.701c4.001,0,8.901,0.9,13.901,2.9l6.7-2.3h1.5v63.203c0,3.301,0.601,4.399,6.2,5.801v1.5
		h-21.701v-1.5c4.899-1.4,5.501-2.5,5.501-5.801v-52.604c-5.001-6.4-9.501-8.001-13.603-8.001c-5.7,0-11.899,3.9-9.3,14.201
		l3.5,13.801v32.603c0,3.301,0.399,4.399,7.3,5.801v1.5L225.167,1067.6L225.167,1067.6z"/>
	<path fill="#231F20" d="M433.666,1067.6v-1.5c5.5-1.4,6.102-2.5,6.102-5.801v-32.603l-2-8.501
		c-4.102-16.899,8.399-22.701,16.701-22.701c4.1,0,9.7,0.602,15.601,4.602l-4.7,9.399h-1.5c-3.899-6.601-7.899-10.801-11.9-10.801
		c-4,0-8.4,2.9-6.2,11.901l4.101,16.101v32.603c0,3.301,0.399,4.399,7.302,5.801v1.5H433.666z M491.97,1061.999
		c-3,4.4-7.301,7.201-12.401,7.201c-7.1,0-11.7-4.301-11.7-13.201v-25.302h-6.101v-1.5l14.602-10.801h1.601v9.301h13.101v3H477.97
		v23.302c0,6.602,2.601,9.2,6.301,9.2c1.699,0,4.8-0.899,6.6-2.399L491.97,1061.999z"/>
	<path fill="#231F20" d="M704.47,1061.999c-3.001,4.4-7.302,7.201-12.401,7.201c-7.101,0-11.7-4.301-11.7-13.201v-25.302h-20.2
		v23.302c0,6.602,2.6,9.2,6.3,9.2c1.7,0,4.801-0.899,6.601-2.399l1.102,1.199c-3.001,4.4-7.302,7.201-12.401,7.201
		c-7.101,0-11.7-4.301-11.7-13.201v-25.302h-6.101v-1.5l14.601-10.801h1.602v9.301h16.101l12.601-9.301h1.602v9.301h13.101v3
		h-13.101v23.302c0,6.602,2.6,9.2,6.3,9.2c1.7,0,4.801-0.899,6.601-2.399L704.47,1061.999z"/>
</g>
</svg>
