<?xml version="1.0" encoding="utf-8"?>
<!-- Generator: Adobe Illustrator 16.0.3, SVG Export Plug-In . SVG Version: 6.00 Build 0)  -->
<!DOCTYPE svg PUBLIC "-//W3C//DTD SVG 1.1//EN" "http://www.w3.org/Graphics/SVG/1.1/DTD/svg11.dtd">
<svg version="1.1" id="Layer_1" xmlns="http://www.w3.org/2000/svg" xmlns:xlink="http://www.w3.org/1999/xlink" x="0px" y="0px"
	 width="1548.681px" height="1488.906px" viewBox="221.967 155.095 1548.681 1488.906"
	 enable-background="new 221.967 155.095 1548.681 1488.906" xml:space="preserve">
<g>
	<path fill="#231F20" d="M249.068,191.797c-1.4,2.301-4,4.7-7.301,4.7c-2.101,0-4.801-0.8-5.5-4.101h-0.5
		c-1.601,2.601-4.301,4.101-7.5,4.101c-3.4,0-5.302-2.5-5.302-4.601s1.4-3.8,13.302-8.102v-2.199c0-3.601-1.601-5.101-4.7-5.101
		c-2.7,0-5.5,1.3-7.801,3.5l-0.7-0.899c2.2-3.7,7.301-7.801,13.001-7.801c4.001,0,8.301,1.801,8.301,7.5v10.802
		c0,1.399,0.3,2.3,1.602,2.3c0.8,0,1.6-0.399,2.3-1L249.068,191.797z M236.268,188.197v-2.4c-5.102,1.7-5.801,2.802-5.801,4.102
		c0,1.101,0.801,1.7,2.101,1.7C234.367,191.597,236.268,190.097,236.268,188.197z"/>
	<path fill="#231F20" d="M421.628,194.097l-4.101,1.5h-1.101l0.2-7.301v-25.502c0-2.899-0.9-3-3.4-3v-1.101l10.4-3.3h1.101v19.9h0.5
		c1.899-2.699,4.5-3.899,7.601-3.899c5.601,0,9.801,4.5,9.801,11.399c0,9.102-6.4,13.802-13.7,13.802
		C427.228,196.597,424.027,196.198,421.628,194.097z M424.728,191.397c1.399,2.101,2.9,2.899,4.5,2.899c4.101,0,5.5-4.3,5.5-8.899
		c0-4.601-1.1-9.301-5.4-9.301c-2.6,0-4.6,1.699-4.6,4.601V191.397z"/>
	<path fill="#231F20" d="M630.287,187.797c-1.898,6.2-5.899,8.7-10.5,8.7c-6.001,0-11.4-4-11.4-11.899
		c0-6.9,4.899-13.302,13.001-13.302c3,0,6.399,0.801,9.001,2.801l-3.302,6.601h-1c-2.1-4.301-4.199-7.101-6.699-7.101
		c-2.7,0-4.2,2.8-4.2,7c0,6.7,3.601,9.9,7.601,9.9c1.9,0,5-0.801,6.5-3.2L630.287,187.797z"/>
	<path fill="#231F20" d="M814.946,196.198h-1.1v-3.501h-0.5c-1.8,2.7-4.4,3.9-7.501,3.9c-5.601,0-9.9-4.5-9.9-11.5
		c0-9.201,6.501-13.802,13.701-13.802c1,0,2.5,0.199,4.2,0.801v-9.302c0-2.899-0.9-3-3.4-3v-1.101l10.4-3.3h1.001v33.401
		c0,2.899,1,3,3.5,3v1.101L814.946,196.198z M813.847,187.197v-10.801c-1.3-2-2.9-2.8-4.4-2.8c-4.2,0-5.5,4.3-5.5,9
		c0,4.501,1.101,9.101,5.4,9.101C811.847,191.697,813.847,190.097,813.847,187.197z"/>
	<path fill="#231F20" d="M1013.208,187.797c-1.899,6.2-5.9,8.7-10.5,8.7c-6.002,0-11.401-4-11.401-11.899
		c0-6.9,5.2-13.302,12.801-13.302c4.101,0,9.501,1.699,9.001,9h-15.001v0.301c0,6.7,3.601,9.9,7.601,9.9c1.9,0,5-0.801,6.5-3.2
		L1013.208,187.797z M998.206,178.296h7.4c-0.1-2.899-1.1-5-3.2-5C999.906,173.296,998.606,175.596,998.206,178.296z"/>
	<path fill="#231F20" d="M1179.667,195.597v-1.101c3.1-0.8,3.5-1.801,3.5-3.601v-16.701h-4.102v-1.899h4.102l-1.2-4.301
		c-2.5-8.899,5.301-12.899,10.601-12.899c3.102,0,7.102,0.6,10.301,2.6l-3.399,7.201h-1.101c-2.699-4.301-5.101-7.501-7.801-7.501
		c-2.101,0-3.9,1.601-2.4,6l3,8.9h7.4v1.899h-7.4v16.701c0,1.8,0.102,2.801,4.302,3.601v1.101H1179.667L1179.667,195.597z"/>
	<path fill="#231F20" d="M1376.126,188.797c-1.301,0-2.5-0.101-3.602-0.301l-1.6,1.7c14.601,0.4,19.801,2.801,19.801,7.9
		c0,6.801-8.601,10.801-15.7,10.801c-7.001,0-11.9-2-11.9-5.8c0-2.802,2.699-5.2,8.301-7.001c-2-0.301-4.2-0.399-6.601-0.601l-0.5-1
		l6-6.7c-3.199-1.399-5.399-3.899-5.399-7.501c0-5.8,6.2-9,11.8-9c2.602,0,5.001,0.601,6.901,1.601l3.8-5.9h1l3.2,4.9l-6.2,2.3
		c1.5,1.4,2.4,3.301,2.4,5.501C1387.826,185.597,1381.726,188.797,1376.126,188.797z M1374.025,196.398
		c-2.899,1.5-3.801,3.8-3.801,5.1c0,3.102,3,4.9,6.601,4.9c4.4,0,7.4-1.8,7.4-4.4
		C1384.226,199.498,1381.325,197.597,1374.025,196.398z M1379.927,181.497c0-3-0.801-8.2-4.001-8.2
		c-2.101,0-3.101,2.399-3.101,5.301c0,3,0.801,8.199,4,8.199C1379.025,186.796,1379.927,184.397,1379.927,181.497z"/>
	<path fill="#231F20" d="M1574.484,195.597v-1.101c3.001-0.8,3.001-1.801,3.001-3.601v-10.602c0-2.6-1.2-4.199-3.9-4.199
		c-2.5,0-4.601,1.601-4.601,5v9.801c0,1.8,0,2.801,3,3.601v1.101h-14.501v-1.101c3.102-0.8,3.501-1.801,3.501-3.601v-28.103
		c0-2.899-1.001-3-3.501-3v-1.101l10.401-3.3h1.1v20.4h0.5c1.601-2.699,4.5-4.5,8.2-4.5c4.301,0,7.9,2.5,7.9,8v11.602
		c0,1.8,0.199,2.801,3.301,3.601v1.101L1574.484,195.597L1574.484,195.597z"/>
	<path fill="#231F20" d="M1755.344,195.597v-1.101c3.101-0.8,3.501-1.801,3.501-3.601v-11.801c0-2.9-1.001-3-3.501-3v-1.101
		l10.4-3.301h1.101v19.201c0,1.8,0.399,2.801,3.399,3.601v1.101L1755.344,195.597L1755.344,195.597z M1758.144,164.595
		c0-2.5,1.899-4.4,4.5-4.4s4.4,1.9,4.4,4.4c0,2.399-1.801,4.399-4.4,4.399S1758.144,166.996,1758.144,164.595z"/>
	<path fill="#231F20" d="M222.667,484.198c3.602-2.8,4.102-7.2,4.102-12.601v-16.501c0-2.9-1.001-3-3.501-3v-1.101l10.4-3.301h1.101
		v21.603c0,7.801-5.602,12.601-11.2,15.9L222.667,484.198z M226.067,440.595c0-2.5,1.898-4.4,4.5-4.4c2.601,0,4.399,1.9,4.399,4.4
		c0,2.399-1.8,4.399-4.399,4.399C227.967,444.995,226.067,442.996,226.067,440.595z"/>
	<path fill="#231F20" d="M429.079,449.396c-3.801,1.2-6.301,2.9-8.7,5.4l-2,2.101l12.101,13.601v1.101h-9.2l-8.601-11.9v7.2
		c0,1.8,0.399,2.801,3.399,3.602v1.1h-14.9v-1.1c3.101-0.801,3.501-1.802,3.501-3.602v-28.102c0-2.9-1.001-3-3.501-3v-1.102
		l10.4-3.3h1.101v28.302l5.101-5.5c1.8-1.899,1.899-4.001-0.5-4.801v-1.1h11.801L429.079,449.396L429.079,449.396z"/>
	<path fill="#231F20" d="M594.187,471.597v-1.101c3.101-0.8,3.501-1.801,3.501-3.601v-28.102c0-2.9-1.001-3-3.501-3v-1.102
		l10.401-3.3h1.1v35.502c0,1.8,0.4,2.801,3.4,3.601v1.101L594.187,471.597L594.187,471.597z"/>
	<path fill="#231F20" d="M806.3,471.597v-1.101c3.1-0.8,3.199-1.801,3.199-3.601v-10.601c0-2.601-1.101-4.2-3.801-4.2
		c-2.6,0-4.399,1.5-4.399,4.7v10.101c0,1.8,0.199,2.801,2.899,3.601v1.101h-13.899v-1.101c2.898-0.8,3-1.801,3-3.601v-10.601
		c0-2.601-1.102-4.2-3.802-4.2c-2.5,0-4.5,1.5-4.5,4.7v10.101c0,1.8,0,2.801,2.7,3.601v1.101h-14.201v-1.101
		c3.102-0.8,3.501-1.801,3.501-3.601v-11.801c0-2.9-1.001-3-3.501-3v-1.101l10.401-3.301h1.1v4.102h0.5c1.602-2.7,4.4-4.5,8.102-4.5
		c3.3,0,6.2,1.5,7.2,4.8h0.5c1.801-2.9,4.801-4.8,8.501-4.8c4.399,0,7.8,2.5,7.8,8v11.601c0,1.8,0.301,2.801,3.301,3.601v1.101
		H806.3L806.3,471.597z"/>
	<path fill="#231F20" d="M1002.307,471.597v-1.101c3.001-0.8,3.001-1.801,3.001-3.601v-10.601c0-2.601-1.2-4.2-3.9-4.2
		c-2.5,0-4.601,1.601-4.601,5v9.801c0,1.8,0,2.801,3,3.601v1.101h-14.501v-1.101c3.101-0.8,3.501-1.801,3.501-3.601v-11.801
		c0-2.9-1.001-3-3.501-3v-1.101l10.4-3.301h1.101v4.102h0.5c1.601-2.7,4.5-4.5,8.2-4.5c4.301,0,7.899,2.5,7.899,8v11.601
		c0,1.8,0.2,2.801,3.301,3.601v1.101H1002.307z"/>
	<path fill="#231F20" d="M1180.614,459.897c0-7.9,6.7-12.601,13.603-12.601c7.2,0,13,4.5,13,12.5c0,8.101-6.7,12.7-13.602,12.7
		C1186.415,472.498,1180.614,468.097,1180.614,459.897z M1199.115,462.397c0-4-1-12.801-5.8-12.801c-3.4,0-4.5,3.899-4.5,7.899
		c0,3.9,0.899,12.602,5.8,12.602C1198.016,470.097,1199.115,466.298,1199.115,462.397z"/>
	<path fill="#231F20" d="M1371.525,483.999v-1.101c3.101-0.8,3.501-1.8,3.501-3.6v-24.202c0-2.9-1.001-3-3.501-3v-1.101
		l10.401-3.301h1.1v3.5h0.5c1.9-2.7,4.4-3.898,7.501-3.898c5.7,0,9.9,4.398,9.9,11.399c0,9.2-6.501,13.801-13.701,13.801
		c-1,0-2.601-0.1-4.2-0.699v7.501c0,1.8,0.2,2.8,4.4,3.6v1.101H1371.525z M1383.026,467.498c1.3,2,2.9,2.7,4.4,2.7
		c4.199,0,5.5-4.301,5.5-9.001c0-4.5-1.101-9.101-5.4-9.101c-2.5,0-4.5,1.601-4.5,4.601V467.498z"/>
	<path fill="#231F20" d="M1565.136,471.597v-1.101c3.101-0.8,3.501-1.801,3.501-3.601v-11.801c0-2.9-1.001-3-3.501-3v-1.101
		l10.4-3.301h1.101v7.7h0.5c1.399-5,5.601-8.1,8.899-8.1v7.8c-6.199,0-9.399,1.399-9.399,5.2v6.601c0,1.8,0.1,2.801,4.301,3.601
		v1.101L1565.136,471.597L1565.136,471.597z"/>
	<path fill="#231F20" d="M1752.746,464.197h1c1.699,3.102,3.899,5.9,6.7,5.9c1.8,0,3.2-1,3.2-2.3c0-5.602-13.301-4.4-13.301-12.802
		c0-4.899,5.199-7.699,9.699-7.699c3,0,6.602,0.5,9.802,2.5l-2.602,5.199h-1.1c-1.8-3-4.301-5.399-6.7-5.399
		c-1.5,0-2.801,0.899-2.801,2.3c0,5.4,13.201,3.801,13.201,12.601c0,4.9-5.102,8.001-10.2,8.001c-2.601,0-6.501-0.5-9.901-2.399
		L1752.746,464.197z"/>
	<path fill="#231F20" d="M242.068,742.998c-1.602,3-4.602,5.5-8.501,5.5c-4.7,0-7.4-2.899-7.4-8.301v-14.001h-3.399v-1.1l10.301-6.9
		h1.101v6.102h7.4v1.898h-7.4v12.901c0,3.6,1.301,4.7,3.301,4.7c1,0,2.8-0.602,3.699-1.602L242.068,742.998z"/>
	<path fill="#231F20" d="M425.229,748.198h-1.101v-4.101h-0.5c-1.601,2.601-4.602,4.399-8.302,4.399c-4.3,0-7.601-2.399-7.601-7.899
		v-9.501c0-2.9-1-3-3.5-3v-1.101l10.401-3.301h1.1v15.701c0,2.7,1,4.3,3.8,4.3c2.501,0,4.602-1.699,4.602-5.2v-7.399
		c0-2.9-1-3-3.5-3v-1.101l10.501-3.301h1v16.901c0,3.1,1,3.1,3.5,3.1v1.102L425.229,748.198z"/>
	<path fill="#231F20" d="M610.388,747.897l-9.801-18.301c-1.301-2.4-1.899-3.4-3.801-4.2v-1.1h14.401v1.1
		c-2.301,0.8-2.9,1.8-2.001,3.601l5.001,10.4h0.6l3.7-9.2c0.9-2.399-0.1-4.001-2.399-4.801v-1.1h10.001v1.1
		c-2.301,0.8-3.801,2.3-5.102,5.4l-7.7,17.101H610.388z"/>
	<path fill="#231F20" d="M814.05,747.897l-6.4-13.4h-0.5l-5.3,13.4h-3.001l-8.7-18.301c-1.2-2.5-1.8-3.4-3.7-4.2v-1.1h14.102v1.1
		c-2.2,0.8-2.7,1.601-2,3.601l4,9.801h0.601l5.4-14.5h3l6.5,14.5h0.601l3.101-8.601c0.899-2.501,0-4.001-2.399-4.801v-1.1h10v1.1
		c-2.2,0.8-3.9,2.3-5.2,5.4l-7.101,17.101H814.05z"/>
	<path fill="#231F20" d="M1004.608,747.597v-1.101c2.2-0.699,2.1-2.101,0.8-3.699l-3.101-3.9h-0.5l-2.6,3
		c-1.7,2-1.602,3.801,0.8,4.601v1.101h-9.501v-1.101c1.801-0.8,4.101-2.699,6.199-5.199l3.9-4.302l-5.9-7.5
		c-1.6-2.101-2.8-3.301-4.5-4.101v-1.1h14.401v1.1c-2.301,0.8-2.399,2.2-1.001,3.7l2.602,3.2h0.601l1.6-2.2
		c1.601-2.101,1.5-3.9-0.899-4.7v-1.1h9.501v1.1c-1.8,0.8-3.8,2.7-6,5.2l-3.2,3.5l6.6,8.201c1.7,2.199,3.001,3.399,4.602,4.199
		v1.101H1004.608L1004.608,747.597z"/>
	<path fill="#231F20" d="M1184.567,760v-1.102l9.102-10.7l-10.002-18.602c-1.3-2.4-1.898-3.4-3.8-4.2v-1.1h14.401v1.1
		c-2.301,0.8-2.9,1.8-2.001,3.601l5.201,10.7h0.6l3.8-9.5c1-2.399-0.1-4.001-2.398-4.801v-1.1h10v1.1c-2.301,0.8-3.9,2.4-5.2,5.4
		l-7.5,17.4l-4.101,11.801h-8.102V760z"/>
	<path fill="#231F20" d="M1396.928,799.801c-1.4,2.301-4,4.699-7.301,4.699c-2.101,0-4.801-0.8-5.5-4.1h-0.5
		c-1.601,2.6-4.301,4.1-7.5,4.1c-3.4,0-5.302-2.5-5.302-4.6c0-2.101,1.4-3.801,13.302-8.101v-2.2c0-3.602-1.601-5.102-4.7-5.102
		c-2.7,0-5.5,1.301-7.802,3.5l-0.699-0.898c2.199-3.7,7.301-7.801,13.001-7.801c4.001,0,8.301,1.8,8.301,7.501v10.8
		c0,1.399,0.3,2.301,1.601,2.301c0.801,0,1.601-0.4,2.301-1L1396.928,799.801z M1384.128,796.201v-2.399
		c-5.102,1.7-5.801,2.8-5.801,4.101c0,1.1,0.801,1.7,2.101,1.7C1382.227,799.601,1384.128,798.1,1384.128,796.201z"/>
	<path fill="#231F20" d="M1565.686,802l-4.1,1.602h-1.102l0.2-7.301v-25.502c0-2.899-0.9-3-3.4-3v-1.101l10.4-3.301h1.101v19.901
		h0.5c1.899-2.7,4.5-3.9,7.602-3.9c5.6,0,9.8,4.501,9.8,11.401c0,9.101-6.4,13.801-13.7,13.801
		C1571.286,804.601,1568.087,804.101,1565.686,802z M1568.786,799.401c1.399,2,2.9,2.899,4.5,2.899c4.102,0,5.5-4.301,5.5-8.9
		s-1.1-9.3-5.399-9.3c-2.601,0-4.601,1.699-4.601,4.6V799.401z"/>
	<path fill="#231F20" d="M1770.547,795.801c-1.899,6.199-5.9,8.699-10.5,8.699c-6.001,0-11.401-4-11.401-11.899
		c0-6.9,4.9-13.301,13.001-13.301c3,0,6.4,0.8,9.001,2.8l-3.301,6.601h-1c-2.101-4.3-4.2-7.101-6.7-7.101
		c-2.7,0-4.2,2.801-4.2,7.001c0,6.7,3.602,9.899,7.602,9.899c1.898,0,5-0.8,6.5-3.199L1770.547,795.801z"/>
	<path fill="#231F20" d="M241.768,1080.201h-1.101v-3.5h-0.5c-1.8,2.7-4.399,3.9-7.5,3.9c-5.601,0-9.9-4.5-9.9-11.501
		c0-9.2,6.501-13.801,13.701-13.801c1,0,2.5,0.2,4.199,0.8v-9.301c0-2.899-0.899-3-3.399-3v-1.101l10.399-3.301h1v33.402
		c0,2.899,1.001,3,3.501,3v1.101L241.768,1080.201z M240.668,1071.201V1060.4c-1.3-2-2.899-2.801-4.399-2.801
		c-4.2,0-5.5,4.301-5.5,9.001c0,4.5,1.1,9.101,5.399,9.101C238.668,1075.701,240.668,1074.1,240.668,1071.201z"/>
	<path fill="#231F20" d="M442.129,1071.801c-1.899,6.199-5.9,8.699-10.5,8.699c-6.001,0-11.401-4-11.401-11.899
		c0-6.9,5.2-13.301,12.801-13.301c4.102,0,9.501,1.699,9.001,9.001h-15.001v0.3c0,6.7,3.602,9.899,7.602,9.899
		c1.898,0,5-0.8,6.5-3.199L442.129,1071.801z M427.128,1062.3h7.399c-0.1-2.899-1.1-5-3.2-5
		C428.827,1057.3,427.527,1059.599,427.128,1062.3z"/>
	<path fill="#231F20" d="M610.687,1079.601v-1.102c3.1-0.8,3.5-1.8,3.5-3.6v-16.7h-4.101v-1.899h4.101l-1.2-4.301
		c-2.5-8.9,5.301-12.9,10.602-12.9c3.101,0,7.101,0.601,10.301,2.601l-3.4,7.2h-1.1c-2.7-4.3-5.102-7.5-7.801-7.5
		c-2.102,0-3.9,1.6-2.4,6l3,8.9h7.401v1.899h-7.401v16.701c0,1.8,0.101,2.8,4.301,3.6v1.102L610.687,1079.601L610.687,1079.601z"/>
	<path fill="#231F20" d="M809.247,1072.801c-1.3,0-2.5-0.101-3.601-0.4l-1.6,1.801c14.601,0.399,19.801,2.801,19.801,7.9
		c0,6.801-8.602,10.801-15.7,10.801c-7.001,0-11.901-2-11.901-5.801c0-2.9,2.7-5.3,8.302-7.101c-2-0.199-4.2-0.399-6.602-0.5l-0.5-1
		l6.001-6.801c-3.201-1.301-5.399-3.899-5.399-7.399c0-5.801,6.199-9.001,11.801-9.001c2.6,0,5,0.6,6.9,1.601l3.8-5.9h1l3.2,4.899
		l-6.2,2.301c1.5,1.399,2.399,3.301,2.399,5.5C820.948,1069.6,814.848,1072.801,809.247,1072.801z M807.147,1080.401
		c-2.9,1.5-3.801,3.8-3.801,5.101c0,3.101,3,4.9,6.601,4.9c4.4,0,7.4-1.801,7.4-4.4
		C817.348,1083.401,814.447,1081.5,807.147,1080.401z M813.048,1065.5c0-3-0.801-8.199-4-8.199c-2.101,0-3.101,2.399-3.101,5.301
		c0,3,0.8,8.2,4,8.2C812.147,1070.801,813.048,1068.4,813.048,1065.5z"/>
	<path fill="#231F20" d="M1009.706,1079.601v-1.102c3.002-0.8,3.002-1.8,3.002-3.6v-10.6c0-2.602-1.2-4.2-3.9-4.2
		c-2.5,0-4.602,1.6-4.602,5v9.801c0,1.8,0,2.8,3,3.601v1.101h-14.501v-1.101c3.102-0.801,3.501-1.801,3.501-3.601v-28.103
		c0-2.899-1.001-3-3.501-3v-1.101l10.401-3.301h1.1v20.401h0.5c1.602-2.7,4.5-4.5,8.2-4.5c4.302,0,7.9,2.5,7.9,8.001v11.601
		c0,1.8,0.2,2.8,3.301,3.6v1.102H1009.706z"/>
	<path fill="#231F20" d="M1192.665,1079.601v-1.102c3.102-0.8,3.502-1.8,3.502-3.6v-11.8c0-2.9-1.002-3-3.502-3V1059l10.401-3.3
		h1.101v19.201c0,1.8,0.399,2.8,3.399,3.601v1.101L1192.665,1079.601L1192.665,1079.601z M1195.467,1048.599
		c0-2.5,1.898-4.4,4.5-4.4c2.601,0,4.399,1.9,4.399,4.4c0,2.4-1.8,4.4-4.399,4.4C1197.366,1053,1195.467,1051,1195.467,1048.599z"/>
	<path fill="#231F20" d="M1375.525,1092.202c3.601-2.8,4.101-7.199,4.101-12.601V1063.1c0-2.9-1-3-3.5-3V1059l10.4-3.3h1.1v21.602
		c0,7.801-5.601,12.602-11.199,15.9L1375.525,1092.202z M1378.927,1048.599c0-2.5,1.898-4.4,4.5-4.4c2.601,0,4.399,1.9,4.399,4.4
		c0,2.4-1.8,4.4-4.399,4.4C1380.826,1053,1378.927,1051,1378.927,1048.599z"/>
	<path fill="#231F20" d="M1586.089,1057.4c-3.802,1.199-6.302,2.899-8.701,5.4l-2,2.1l12.101,13.602v1.101h-9.2l-8.601-11.901v7.201
		c0,1.8,0.4,2.8,3.4,3.6v1.102h-14.901v-1.102c3.101-0.8,3.501-1.8,3.501-3.6V1046.8c0-2.899-1.001-3-3.501-3v-1.101l10.401-3.301
		h1.1v28.302l5.101-5.5c1.801-1.899,1.899-4-0.5-4.8v-1.101h11.802L1586.089,1057.4L1586.089,1057.4z"/>
	<path fill="#231F20" d="M1755.345,1079.601v-1.102c3.101-0.8,3.501-1.8,3.501-3.6v-28.103c0-2.899-1.001-3-3.501-3v-1.101
		l10.4-3.301h1.101v35.503c0,1.8,0.399,2.8,3.399,3.601v1.101L1755.345,1079.601L1755.345,1079.601z"/>
	<path fill="#231F20" d="M256.069,1355.601v-1.102c3.1-0.8,3.2-1.8,3.2-3.6v-10.6c0-2.602-1.102-4.2-3.801-4.2
		c-2.601,0-4.4,1.5-4.4,4.7v10.101c0,1.8,0.2,2.8,2.9,3.601v1.101h-13.9v-1.101c2.899-0.801,3-1.801,3-3.601v-10.601
		c0-2.602-1.101-4.2-3.801-4.2c-2.5,0-4.5,1.5-4.5,4.7v10.101c0,1.8,0,2.8,2.7,3.601v1.101h-14.201v-1.101
		c3.101-0.801,3.501-1.801,3.501-3.601V1339.1c0-2.9-1.001-3-3.501-3V1335l10.4-3.3h1.101v4.101h0.5c1.601-2.7,4.399-4.5,8.101-4.5
		c3.3,0,6.2,1.5,7.2,4.801h0.5c1.801-2.9,4.801-4.801,8.501-4.801c4.4,0,7.8,2.5,7.8,8.001v11.601c0,1.8,0.301,2.8,3.301,3.6v1.102
		h-14.601V1355.601z"/>
	<path fill="#231F20" d="M472.907,1355.601v-1.102c3.001-0.8,3.001-1.8,3.001-3.6v-10.6c0-2.602-1.2-4.2-3.899-4.2
		c-2.5,0-4.602,1.6-4.602,5v9.801c0,1.8,0,2.8,3,3.601v1.101h-14.501v-1.101c3.102-0.801,3.501-1.801,3.501-3.601V1339.1
		c0-2.9-1.001-3-3.501-3V1335l10.401-3.3h1.1v4.101h0.5c1.602-2.7,4.5-4.5,8.2-4.5c4.301,0,7.9,2.5,7.9,8.001v11.601
		c0,1.8,0.2,2.8,3.301,3.6v1.102h-14.401V1355.601z"/>
	<path fill="#231F20" d="M672.046,1343.9c0-7.9,6.7-12.601,13.602-12.601c7.2,0,13,4.5,13,12.501c0,8.101-6.7,12.699-13.601,12.699
		C677.846,1356.5,672.046,1352.101,672.046,1343.9z M690.547,1346.4c0-4-1-12.801-5.801-12.801c-3.399,0-4.5,3.9-4.5,7.9
		c0,3.899,0.899,12.602,5.801,12.602C689.446,1354.101,690.547,1350.301,690.547,1346.4z"/>
	<path fill="#231F20" d="M896.986,1368.002v-1.101c4.2-0.801,4.3-1.801,4.3-3.601v-10.7h-0.5c-1.898,2.7-4.5,3.899-7.601,3.899
		c-5.6,0-9.9-4.5-9.9-11.4c0-9.101,6.501-13.801,13.701-13.801c1.601,0,4.9,0.5,7.301,2.601l4.101-1.601h1.101l-0.2,7.301v23.701
		c0,1.8,0.301,2.8,3.4,3.601v1.101H896.986L896.986,1368.002z M901.286,1347.201V1336.6c-1.398-2.101-3.1-3.001-4.6-3.001
		c-4.001,0-5.4,4.301-5.4,8.9c0,4.601,1.101,9.301,5.4,9.301C899.286,1351.801,901.286,1350.1,901.286,1347.201z"/>
	<path fill="#231F20" d="M1115.726,1351c-1.601,3-4.601,5.5-8.501,5.5c-4.7,0-7.4-2.898-7.4-8.3v-14h-3.399v-1.101l10.301-6.9h1.101
		v6.102h7.4v1.899h-7.4v12.9c0,3.601,1.301,4.7,3.301,4.7c1,0,2.8-0.601,3.699-1.601L1115.726,1351z"/>
	<path fill="#231F20" d="M1321.467,1356.201h-1.102v-4.1h-0.5c-1.6,2.6-4.601,4.399-8.301,4.399c-4.3,0-7.6-2.399-7.6-7.9v-9.5
		c0-2.9-1.001-3-3.501-3V1335l10.4-3.3h1.101v15.7c0,2.7,1,4.301,3.8,4.301c2.501,0,4.601-1.699,4.601-5.199v-7.4c0-2.9-1-3-3.5-3
		V1335l10.501-3.3h1v16.9c0,3.101,1,3.101,3.5,3.101v1.101L1321.467,1356.201z"/>
	<path fill="#231F20" d="M1543.206,1355.901l-6.399-13.399h-0.5l-5.3,13.399h-3.001l-8.7-18.301c-1.2-2.501-1.8-3.4-3.7-4.2v-1.101
		h14.101v1.101c-2.199,0.8-2.699,1.6-2,3.6l4,9.802h0.602l5.4-14.501h3l6.5,14.501h0.601l3.1-8.602c0.9-2.5,0-4-2.398-4.8v-1.101h10
		v1.101c-2.2,0.8-3.9,2.3-5.2,5.4l-7.102,17.101H1543.206z"/>
	<path fill="#231F20" d="M1756.346,1355.601v-1.102c2.199-0.699,2.1-2.1,0.8-3.699l-3.101-3.9h-0.5l-2.601,3.001
		c-1.7,2-1.601,3.8,0.8,4.601v1.101h-9.5v-1.101c1.801-0.801,4.101-2.7,6.199-5.2l3.9-4.3l-5.9-7.502c-1.6-2.1-2.8-3.3-4.5-4.1
		v-1.101h14.401v1.101c-2.301,0.8-2.4,2.199-1,3.7l2.6,3.2h0.601l1.601-2.2c1.601-2.101,1.5-3.9-0.9-4.7v-1.101h9.501v1.101
		c-1.8,0.8-3.801,2.7-6,5.2l-3.199,3.5l6.6,8.2c1.7,2.199,3.001,3.399,4.601,4.199v1.102H1756.346L1756.346,1355.601z"/>
	<path fill="#231F20" d="M226.667,1644.002v-1.101l9.102-10.701l-10.001-18.601c-1.301-2.4-1.899-3.4-3.801-4.2v-1.101h14.401v1.101
		c-2.301,0.8-2.899,1.8-2.001,3.601l5.201,10.7h0.6l3.801-9.501c1-2.399-0.101-4-2.399-4.8v-1.101h10v1.101
		c-2.3,0.8-3.9,2.399-5.2,5.4l-7.5,17.399l-4.101,11.802L226.667,1644.002L226.667,1644.002z"/>
	<path fill="#231F20" d="M403.866,1631.601v-1.102l12.501-19.801v-0.5h-2.2c-3.3,0-5.399,0.399-8.601,5.801h-1.1v-7.7h21.101v1.101
		l-12.5,19.602v0.5h2.2c3.398,0,5.399-0.301,8.601-6.2h1.101v8.301L403.866,1631.601L403.866,1631.601z"/>
</g>
</svg>
